M48
; DRILL file {KiCad 9.0.4} date 2025-10-06T13:40:41-0400
; FORMAT={-:-/ absolute / metric / decimal}
; #@! TF.CreationDate,2025-10-06T13:40:41-04:00
; #@! TF.GenerationSoftware,Kicad,Pcbnew,9.0.4
; #@! TF.FileFunction,Plated,1,4,PTH
FMAT,2
METRIC
; #@! TA.AperFunction,Plated,PTH,ViaDrill
T1C0.300
; #@! TA.AperFunction,Plated,PTH,ViaDrill
T2C0.400
; #@! TA.AperFunction,Plated,PTH,ViaDrill
T3C0.500
; #@! TA.AperFunction,Plated,PTH,ComponentDrill
T4C0.500
; #@! TA.AperFunction,Plated,PTH,ComponentDrill
T5C0.800
; #@! TA.AperFunction,Plated,PTH,ComponentDrill
T6C1.000
%
G90
G05
T1
X34.0Y-93.3
X35.137Y-74.063
X35.5Y-68.0
X36.5Y-93.3
X36.9Y-67.1
X38.0Y-95.002
X38.1Y-98.7
X39.0Y-93.4
X39.1Y-84.0
X39.2Y-96.4
X39.6Y-81.0
X40.0Y-63.9
X41.5Y-67.3
X42.0Y-70.8
X42.7Y-84.7
X43.0Y-79.9
X43.0Y-80.7
X43.2Y-71.9
X43.4Y-72.7
X43.4Y-73.601
X45.1Y-78.7
X45.7Y-92.0
X45.8Y-81.374
X46.2Y-68.8
X46.6Y-64.5
X46.6Y-66.2
X47.799Y-68.2
X48.0Y-77.1
X48.0Y-87.1
X48.1Y-64.5
X48.4Y-89.4
X49.0Y-68.2
X49.064Y-79.003
X49.3Y-83.8
X49.5Y-90.4
X49.9Y-71.3
X50.1Y-87.7
X50.7Y-83.9
X50.8Y-75.2
X51.399Y-81.7
X51.6Y-65.5
X51.6Y-79.475
X52.4Y-78.4
X52.7Y-72.2
X52.8Y-85.549
X52.9Y-82.4
X53.2Y-87.8
X53.6Y-68.9
X53.7Y-89.4
X54.2Y-87.0
X54.7Y-88.6
X54.9Y-72.4
X54.9Y-85.4
X55.4Y-77.6
X55.5Y-68.3
X55.6Y-74.1
X56.474Y-81.126
X56.912Y-78.212
X57.0Y-65.0
X57.6Y-81.6
X58.3Y-77.0
X58.4Y-82.0
X58.9Y-76.4
X59.0Y-78.8
X59.151Y-75.124
X60.1Y-81.5
X60.5Y-74.0
X60.9Y-85.4
X61.557Y-81.994
X61.751Y-65.949
X62.35Y-82.1
X62.5Y-75.2
X63.2Y-82.1
X63.7Y-84.8
X64.0Y-72.2
X64.5Y-85.2
X65.201Y-77.59
X65.3Y-80.7
X67.2Y-88.6
X68.3Y-82.5
X69.2Y-63.9
X69.3Y-87.0
X69.4Y-89.4
T2
X37.2Y-78.1
X52.5Y-74.801
X55.1Y-83.7
X58.7Y-85.5
T3
X36.2Y-71.4
X36.2Y-78.8
X41.0Y-75.2
X43.3Y-70.6
X44.1Y-79.1
X53.9Y-67.3
X66.8Y-91.0
T5
X34.0Y-69.9
X34.0Y-71.9
T6
X43.34Y-62.5
X45.88Y-62.5
X48.42Y-62.5
X50.96Y-62.5
X53.5Y-62.5
X56.04Y-62.5
X58.58Y-62.5
X61.12Y-62.5
T4
G00X34.46Y-76.51
M15
G01X33.86Y-76.51
M16
G05
G00X34.46Y-85.49
M15
G01X33.86Y-85.49
M16
G05
G00X40.41Y-76.87
M15
G01X39.81Y-76.87
M16
G05
G00X40.41Y-85.13
M15
G01X39.81Y-85.13
M16
G05
M30
