%TF.GenerationSoftware,KiCad,Pcbnew,9.0.4*%
%TF.CreationDate,2025-10-06T13:40:32-04:00*%
%TF.ProjectId,Smarter Watch Stuff,536d6172-7465-4722-9057-617463682053,rev?*%
%TF.SameCoordinates,Original*%
%TF.FileFunction,Soldermask,Bot*%
%TF.FilePolarity,Negative*%
%FSLAX46Y46*%
G04 Gerber Fmt 4.6, Leading zero omitted, Abs format (unit mm)*
G04 Created by KiCad (PCBNEW 9.0.4) date 2025-10-06 13:40:32*
%MOMM*%
%LPD*%
G01*
G04 APERTURE LIST*
G04 Aperture macros list*
%AMRoundRect*
0 Rectangle with rounded corners*
0 $1 Rounding radius*
0 $2 $3 $4 $5 $6 $7 $8 $9 X,Y pos of 4 corners*
0 Add a 4 corners polygon primitive as box body*
4,1,4,$2,$3,$4,$5,$6,$7,$8,$9,$2,$3,0*
0 Add four circle primitives for the rounded corners*
1,1,$1+$1,$2,$3*
1,1,$1+$1,$4,$5*
1,1,$1+$1,$6,$7*
1,1,$1+$1,$8,$9*
0 Add four rect primitives between the rounded corners*
20,1,$1+$1,$2,$3,$4,$5,0*
20,1,$1+$1,$4,$5,$6,$7,0*
20,1,$1+$1,$6,$7,$8,$9,0*
20,1,$1+$1,$8,$9,$2,$3,0*%
G04 Aperture macros list end*
%ADD10C,0.650000*%
%ADD11O,0.650000X0.950000*%
%ADD12O,1.400000X0.800000*%
%ADD13R,1.700000X1.700000*%
%ADD14C,1.700000*%
%ADD15R,1.350000X1.350000*%
%ADD16C,1.350000*%
%ADD17RoundRect,0.135000X-0.135000X-0.185000X0.135000X-0.185000X0.135000X0.185000X-0.135000X0.185000X0*%
%ADD18RoundRect,0.150000X0.587500X0.150000X-0.587500X0.150000X-0.587500X-0.150000X0.587500X-0.150000X0*%
%ADD19RoundRect,0.100000X-0.225000X-0.100000X0.225000X-0.100000X0.225000X0.100000X-0.225000X0.100000X0*%
%ADD20RoundRect,0.140000X0.170000X-0.140000X0.170000X0.140000X-0.170000X0.140000X-0.170000X-0.140000X0*%
%ADD21RoundRect,0.140000X0.140000X0.170000X-0.140000X0.170000X-0.140000X-0.170000X0.140000X-0.170000X0*%
%ADD22RoundRect,0.087500X0.287500X0.087500X-0.287500X0.087500X-0.287500X-0.087500X0.287500X-0.087500X0*%
%ADD23RoundRect,0.135000X0.135000X0.185000X-0.135000X0.185000X-0.135000X-0.185000X0.135000X-0.185000X0*%
%ADD24RoundRect,0.225000X0.525000X0.525000X-0.525000X0.525000X-0.525000X-0.525000X0.525000X-0.525000X0*%
%ADD25RoundRect,0.135000X0.185000X-0.135000X0.185000X0.135000X-0.185000X0.135000X-0.185000X-0.135000X0*%
%ADD26RoundRect,0.140000X-0.140000X-0.170000X0.140000X-0.170000X0.140000X0.170000X-0.140000X0.170000X0*%
%ADD27RoundRect,0.500000X0.500000X1.500000X-0.500000X1.500000X-0.500000X-1.500000X0.500000X-1.500000X0*%
%ADD28RoundRect,0.225000X0.225000X0.250000X-0.225000X0.250000X-0.225000X-0.250000X0.225000X-0.250000X0*%
%ADD29RoundRect,0.150000X0.825000X0.150000X-0.825000X0.150000X-0.825000X-0.150000X0.825000X-0.150000X0*%
%ADD30RoundRect,0.150000X-0.150000X0.587500X-0.150000X-0.587500X0.150000X-0.587500X0.150000X0.587500X0*%
%ADD31RoundRect,0.250000X0.650000X-0.250000X0.650000X0.250000X-0.650000X0.250000X-0.650000X-0.250000X0*%
G04 APERTURE END LIST*
D10*
%TO.C,J3*%
X41360000Y-77400000D03*
D11*
X41360000Y-84600000D03*
D12*
X34160000Y-76510000D03*
X40110000Y-76870000D03*
X40110000Y-85130000D03*
X34160000Y-85490000D03*
%TD*%
D13*
%TO.C,U8*%
X43340000Y-62500000D03*
D14*
X45880000Y-62500000D03*
X48420000Y-62500000D03*
X50960000Y-62500000D03*
X53500000Y-62500000D03*
X56040000Y-62500000D03*
X58580000Y-62500000D03*
X61120000Y-62500000D03*
%TD*%
D15*
%TO.C,BT1*%
X34000000Y-69900000D03*
D16*
X34000000Y-71900000D03*
%TD*%
D17*
%TO.C,R13*%
X39990000Y-64800000D03*
X41010000Y-64800000D03*
%TD*%
D18*
%TO.C,Q3*%
X60375000Y-66800000D03*
X60375000Y-68700000D03*
X58500000Y-67750000D03*
%TD*%
D19*
%TO.C,U9*%
X55900000Y-76300000D03*
X55900000Y-75650000D03*
X55900000Y-75000000D03*
X57800000Y-75000000D03*
X57800000Y-76300000D03*
%TD*%
D20*
%TO.C,C10*%
X46400000Y-80460000D03*
X46400000Y-79500000D03*
%TD*%
D21*
%TO.C,C9*%
X54480000Y-75000000D03*
X53520000Y-75000000D03*
%TD*%
D20*
%TO.C,C11*%
X45100000Y-80460000D03*
X45100000Y-79500000D03*
%TD*%
D17*
%TO.C,R15*%
X39900000Y-66400000D03*
X40920000Y-66400000D03*
%TD*%
D22*
%TO.C,U10*%
X50400000Y-78000000D03*
X50400000Y-78800000D03*
X50400000Y-79600000D03*
X50400000Y-80400000D03*
X50400000Y-81200000D03*
X50400000Y-82000000D03*
X50400000Y-82800000D03*
X48000000Y-82800000D03*
X48000000Y-82000000D03*
X48000000Y-81200000D03*
X48000000Y-80400000D03*
X48000000Y-79600000D03*
X48000000Y-78800000D03*
X48000000Y-78000000D03*
%TD*%
D23*
%TO.C,R3*%
X62000000Y-65000000D03*
X60980000Y-65000000D03*
%TD*%
D24*
%TO.C,SW2*%
X70600000Y-65500000D03*
X64400000Y-65500000D03*
%TD*%
D25*
%TO.C,R5*%
X64500000Y-68510000D03*
X64500000Y-67490000D03*
%TD*%
D26*
%TO.C,C12*%
X45320000Y-82100000D03*
X46280000Y-82100000D03*
%TD*%
%TO.C,C3*%
X50520000Y-69600000D03*
X51480000Y-69600000D03*
%TD*%
D21*
%TO.C,C13*%
X46260000Y-83300000D03*
X45300000Y-83300000D03*
%TD*%
D27*
%TO.C,J5*%
X36500000Y-90500000D03*
%TD*%
%TO.C,J1*%
X41500000Y-90500000D03*
%TD*%
D24*
%TO.C,SW1*%
X70600000Y-62000000D03*
X64400000Y-62000000D03*
%TD*%
D28*
%TO.C,C19*%
X61950000Y-79300000D03*
X60400000Y-79300000D03*
%TD*%
D29*
%TO.C,U1*%
X45150000Y-69790000D03*
X45150000Y-71060000D03*
X45150000Y-72330000D03*
X45150000Y-73600000D03*
X40200000Y-73600000D03*
X40200000Y-72330000D03*
X40200000Y-71060000D03*
X40200000Y-69790000D03*
%TD*%
D17*
%TO.C,R14*%
X56980000Y-66300000D03*
X58000000Y-66300000D03*
%TD*%
D20*
%TO.C,C6*%
X34000000Y-67960000D03*
X34000000Y-67000000D03*
%TD*%
D17*
%TO.C,R12*%
X57990000Y-65000000D03*
X59010000Y-65000000D03*
%TD*%
D30*
%TO.C,Q2*%
X42550000Y-65625000D03*
X44450000Y-65625000D03*
X43500000Y-67500000D03*
%TD*%
D21*
%TO.C,C1*%
X38300000Y-69700000D03*
X37340000Y-69700000D03*
%TD*%
D28*
%TO.C,C18*%
X61950000Y-77300000D03*
X60400000Y-77300000D03*
%TD*%
D26*
%TO.C,C2*%
X50520000Y-72200000D03*
X51480000Y-72200000D03*
%TD*%
D27*
%TO.C,J4*%
X39000000Y-90500000D03*
%TD*%
%TO.C,J6*%
X34000000Y-90500000D03*
%TD*%
%TO.C,J2*%
X44000000Y-90500000D03*
%TD*%
D31*
%TO.C,Y1*%
X48400000Y-72200000D03*
X48400000Y-69700000D03*
%TD*%
M02*
