%TF.GenerationSoftware,KiCad,Pcbnew,10.0.0*%
%TF.CreationDate,2026-03-23T22:13:48-04:00*%
%TF.ProjectId,Smarter Watch Stuff,536d6172-7465-4722-9057-617463682053,rev?*%
%TF.SameCoordinates,Original*%
%TF.FileFunction,Paste,Top*%
%TF.FilePolarity,Positive*%
%FSLAX46Y46*%
G04 Gerber Fmt 4.6, Leading zero omitted, Abs format (unit mm)*
G04 Created by KiCad (PCBNEW 10.0.0) date 2026-03-23 22:13:48*
%MOMM*%
%LPD*%
G01*
G04 APERTURE LIST*
G04 Aperture macros list*
%AMRoundRect*
0 Rectangle with rounded corners*
0 $1 Rounding radius*
0 $2 $3 $4 $5 $6 $7 $8 $9 X,Y pos of 4 corners*
0 Add a 4 corners polygon primitive as box body*
4,1,4,$2,$3,$4,$5,$6,$7,$8,$9,$2,$3,0*
0 Add four circle primitives for the rounded corners*
1,1,$1+$1,$2,$3*
1,1,$1+$1,$4,$5*
1,1,$1+$1,$6,$7*
1,1,$1+$1,$8,$9*
0 Add four rect primitives between the rounded corners*
20,1,$1+$1,$2,$3,$4,$5,0*
20,1,$1+$1,$4,$5,$6,$7,0*
20,1,$1+$1,$6,$7,$8,$9,0*
20,1,$1+$1,$8,$9,$2,$3,0*%
%AMOutline5P*
0 Free polygon, 5 corners , with rotation*
0 The origin of the aperture is its center*
0 number of corners: always 5*
0 $1 to $10 corner X, Y*
0 $11 Rotation angle, in degrees counterclockwise*
0 create outline with 5 corners*
4,1,5,$1,$2,$3,$4,$5,$6,$7,$8,$9,$10,$1,$2,$11*%
%AMOutline6P*
0 Free polygon, 6 corners , with rotation*
0 The origin of the aperture is its center*
0 number of corners: always 6*
0 $1 to $12 corner X, Y*
0 $13 Rotation angle, in degrees counterclockwise*
0 create outline with 6 corners*
4,1,6,$1,$2,$3,$4,$5,$6,$7,$8,$9,$10,$11,$12,$1,$2,$13*%
%AMOutline7P*
0 Free polygon, 7 corners , with rotation*
0 The origin of the aperture is its center*
0 number of corners: always 7*
0 $1 to $14 corner X, Y*
0 $15 Rotation angle, in degrees counterclockwise*
0 create outline with 7 corners*
4,1,7,$1,$2,$3,$4,$5,$6,$7,$8,$9,$10,$11,$12,$13,$14,$1,$2,$15*%
%AMOutline8P*
0 Free polygon, 8 corners , with rotation*
0 The origin of the aperture is its center*
0 number of corners: always 8*
0 $1 to $16 corner X, Y*
0 $17 Rotation angle, in degrees counterclockwise*
0 create outline with 8 corners*
4,1,8,$1,$2,$3,$4,$5,$6,$7,$8,$9,$10,$11,$12,$13,$14,$15,$16,$1,$2,$17*%
G04 Aperture macros list end*
%ADD10C,0.010000*%
%ADD11RoundRect,0.150000X-0.150000X0.587500X-0.150000X-0.587500X0.150000X-0.587500X0.150000X0.587500X0*%
%ADD12RoundRect,0.140000X0.140000X0.170000X-0.140000X0.170000X-0.140000X-0.170000X0.140000X-0.170000X0*%
%ADD13RoundRect,0.140000X-0.140000X-0.170000X0.140000X-0.170000X0.140000X0.170000X-0.140000X0.170000X0*%
%ADD14RoundRect,0.225000X-0.225000X-0.250000X0.225000X-0.250000X0.225000X0.250000X-0.225000X0.250000X0*%
%ADD15RoundRect,0.140000X-0.170000X0.140000X-0.170000X-0.140000X0.170000X-0.140000X0.170000X0.140000X0*%
%ADD16R,0.304800X0.457200*%
%ADD17R,0.457200X0.304800*%
%ADD18RoundRect,0.135000X0.135000X0.185000X-0.135000X0.185000X-0.135000X-0.185000X0.135000X-0.185000X0*%
%ADD19RoundRect,0.225000X0.225000X0.250000X-0.225000X0.250000X-0.225000X-0.250000X0.225000X-0.250000X0*%
%ADD20R,0.840000X0.320000*%
%ADD21R,0.320000X0.840000*%
%ADD22RoundRect,0.140000X0.170000X-0.140000X0.170000X0.140000X-0.170000X0.140000X-0.170000X-0.140000X0*%
%ADD23RoundRect,0.135000X-0.135000X-0.185000X0.135000X-0.185000X0.135000X0.185000X-0.135000X0.185000X0*%
%ADD24RoundRect,0.135000X-0.185000X0.135000X-0.185000X-0.135000X0.185000X-0.135000X0.185000X0.135000X0*%
%ADD25RoundRect,0.135000X0.185000X-0.135000X0.185000X0.135000X-0.185000X0.135000X-0.185000X-0.135000X0*%
%ADD26R,0.550000X0.400000*%
%ADD27R,0.660000X0.320000*%
%ADD28R,1.422400X0.558800*%
%ADD29R,0.965200X0.254000*%
%ADD30RoundRect,0.147500X0.147500X0.172500X-0.147500X0.172500X-0.147500X-0.172500X0.147500X-0.172500X0*%
%ADD31R,0.660400X0.304800*%
%ADD32R,0.711200X1.600200*%
%ADD33RoundRect,0.195000X1.305000X-0.455000X1.305000X0.455000X-1.305000X0.455000X-1.305000X-0.455000X0*%
%ADD34RoundRect,0.150000X0.350000X-2.150000X0.350000X2.150000X-0.350000X2.150000X-0.350000X-2.150000X0*%
%ADD35RoundRect,0.165000X0.585000X-0.385000X0.585000X0.385000X-0.585000X0.385000X-0.585000X-0.385000X0*%
%ADD36R,0.700000X0.300000*%
%ADD37RoundRect,0.033000X-0.232000X0.077000X-0.232000X-0.077000X0.232000X-0.077000X0.232000X0.077000X0*%
%ADD38RoundRect,0.033000X-0.207000X0.077000X-0.207000X-0.077000X0.207000X-0.077000X0.207000X0.077000X0*%
%ADD39RoundRect,0.087500X0.087500X-0.125000X0.087500X0.125000X-0.087500X0.125000X-0.087500X-0.125000X0*%
%ADD40RoundRect,0.087500X0.125000X-0.087500X0.125000X0.087500X-0.125000X0.087500X-0.125000X-0.087500X0*%
%ADD41R,1.500000X1.000000*%
%ADD42RoundRect,0.071250X-0.913750X-0.213750X0.913750X-0.213750X0.913750X0.213750X-0.913750X0.213750X0*%
%ADD43RoundRect,0.150000X-0.587500X-0.150000X0.587500X-0.150000X0.587500X0.150000X-0.587500X0.150000X0*%
%ADD44RoundRect,0.160000X-0.160000X-0.345000X0.160000X-0.345000X0.160000X0.345000X-0.160000X0.345000X0*%
%ADD45RoundRect,0.062500X-0.362500X-0.062500X0.362500X-0.062500X0.362500X0.062500X-0.362500X0.062500X0*%
%ADD46R,0.800000X0.400000*%
%ADD47R,0.400000X0.800000*%
%ADD48Outline5P,-0.725000X0.130500X-0.130500X0.725000X0.725000X0.725000X0.725000X-0.725000X-0.725000X-0.725000X180.000000*%
%ADD49R,1.450000X1.450000*%
%ADD50R,0.700000X0.700000*%
%ADD51RoundRect,0.195000X1.405000X-0.455000X1.405000X0.455000X-1.405000X0.455000X-1.405000X-0.455000X0*%
%ADD52R,0.812800X0.254000*%
%ADD53R,1.752600X1.549400*%
%ADD54R,0.482600X0.254000*%
%ADD55R,0.254000X0.482600*%
G04 APERTURE END LIST*
D10*
%TO.C,U24*%
X77354000Y-70354000D02*
X75646000Y-70354000D01*
X75646000Y-68646000D01*
X77354000Y-68646000D01*
X77354000Y-70354000D01*
G36*
X77354000Y-70354000D02*
G01*
X75646000Y-70354000D01*
X75646000Y-68646000D01*
X77354000Y-68646000D01*
X77354000Y-70354000D01*
G37*
%TO.C,U25*%
X75501800Y-75400000D02*
X74451800Y-75400000D01*
X74451800Y-74150000D01*
X74701800Y-73900000D01*
X75501800Y-73900000D01*
X75501800Y-75400000D01*
G36*
X75501800Y-75400000D02*
G01*
X74451800Y-75400000D01*
X74451800Y-74150000D01*
X74701800Y-73900000D01*
X75501800Y-73900000D01*
X75501800Y-75400000D01*
G37*
%TO.C,U7*%
X90791000Y-64906001D02*
X90159000Y-64906001D01*
X90159000Y-63894001D01*
X90791000Y-63894001D01*
X90791000Y-64906001D01*
G36*
X90791000Y-64906001D02*
G01*
X90159000Y-64906001D01*
X90159000Y-63894001D01*
X90791000Y-63894001D01*
X90791000Y-64906001D01*
G37*
%TD*%
D11*
%TO.C,Q2*%
X85512500Y-46612500D03*
X83612500Y-46612500D03*
X84562500Y-48487500D03*
%TD*%
D12*
%TO.C,C21*%
X87627400Y-68402200D03*
X86667400Y-68402200D03*
%TD*%
D13*
%TO.C,C8*%
X81920000Y-68500000D03*
X82880000Y-68500000D03*
%TD*%
D14*
%TO.C,C17*%
X103720600Y-57226200D03*
X105270600Y-57226200D03*
%TD*%
D15*
%TO.C,C27*%
X77165200Y-76075600D03*
X77165200Y-77035600D03*
%TD*%
D16*
%TO.C,U21*%
X86825002Y-63775002D03*
X86325001Y-63775002D03*
X85825001Y-63775002D03*
X85325000Y-63775002D03*
D17*
X84800002Y-64300000D03*
X84800002Y-64800001D03*
X84800002Y-65300001D03*
X84800002Y-65800002D03*
D16*
X85325000Y-66325000D03*
X85825001Y-66325000D03*
X86325001Y-66325000D03*
X86825002Y-66325000D03*
D17*
X87350000Y-65800002D03*
X87350000Y-65300001D03*
X87350000Y-64800001D03*
X87350000Y-64300000D03*
%TD*%
D18*
%TO.C,R23*%
X105510000Y-58597800D03*
X104490000Y-58597800D03*
%TD*%
D14*
%TO.C,C15*%
X103707600Y-54711600D03*
X105257600Y-54711600D03*
%TD*%
D15*
%TO.C,C14*%
X81127600Y-53469600D03*
X81127600Y-54429600D03*
%TD*%
D13*
%TO.C,C24*%
X80820000Y-66100000D03*
X81780000Y-66100000D03*
%TD*%
D19*
%TO.C,C16*%
X102121000Y-53822600D03*
X100571000Y-53822600D03*
%TD*%
D20*
%TO.C,U24*%
X74565000Y-68525000D03*
X74565000Y-69175000D03*
X74565000Y-69825000D03*
X74565000Y-70475000D03*
D21*
X75525000Y-71435000D03*
X76175000Y-71435000D03*
X76825000Y-71435000D03*
X77475000Y-71435000D03*
D20*
X78435000Y-70475000D03*
X78435000Y-69825000D03*
X78435000Y-69175000D03*
X78435000Y-68525000D03*
D21*
X77475000Y-67565000D03*
X76825000Y-67565000D03*
X76175000Y-67565000D03*
X75525000Y-67565000D03*
%TD*%
D18*
%TO.C,R25*%
X105462800Y-52933600D03*
X104442800Y-52933600D03*
%TD*%
D22*
%TO.C,C25*%
X79933800Y-70650000D03*
X79933800Y-69690000D03*
%TD*%
D18*
%TO.C,R15*%
X87060000Y-49250000D03*
X86040000Y-49250000D03*
%TD*%
D23*
%TO.C,R2*%
X72769000Y-48387000D03*
X73789000Y-48387000D03*
%TD*%
D24*
%TO.C,R4*%
X95900000Y-59434000D03*
X95900000Y-60454000D03*
%TD*%
D25*
%TO.C,R8*%
X81250000Y-47360000D03*
X81250000Y-46340000D03*
%TD*%
D26*
%TO.C,U25*%
X73826800Y-73850000D03*
X73826800Y-74650000D03*
X73826800Y-75450000D03*
X76126800Y-75450000D03*
X76126800Y-74650000D03*
X76126800Y-73850000D03*
%TD*%
D13*
%TO.C,C19*%
X99189600Y-60198000D03*
X100149600Y-60198000D03*
%TD*%
D23*
%TO.C,R31*%
X80000000Y-68500000D03*
X81020000Y-68500000D03*
%TD*%
D24*
%TO.C,R20*%
X88825000Y-66290000D03*
X88825000Y-67310000D03*
%TD*%
D27*
%TO.C,U7*%
X89450000Y-63750001D03*
X89450000Y-64400001D03*
X89450000Y-65050001D03*
X91500000Y-65050001D03*
X91500000Y-64400001D03*
X91500000Y-63750001D03*
%TD*%
D28*
%TO.C,U4*%
X76811200Y-49099998D03*
X76811200Y-50049999D03*
X76811200Y-51000000D03*
X79100000Y-51000000D03*
X79100000Y-49099998D03*
%TD*%
D18*
%TO.C,R32*%
X79199200Y-73304400D03*
X78179200Y-73304400D03*
%TD*%
D29*
%TO.C,U2*%
X73901300Y-76896214D03*
X73901300Y-77546200D03*
X73901300Y-78196186D03*
X75450700Y-78196186D03*
X75450700Y-77546200D03*
X75450700Y-76896214D03*
%TD*%
D12*
%TO.C,C23*%
X75280000Y-72650000D03*
X74320000Y-72650000D03*
%TD*%
D23*
%TO.C,FB1*%
X70840000Y-66900000D03*
X71860000Y-66900000D03*
%TD*%
%TO.C,R14*%
X90940000Y-49050000D03*
X91960000Y-49050000D03*
%TD*%
%TO.C,R28*%
X84910200Y-71297800D03*
X85930200Y-71297800D03*
%TD*%
D18*
%TO.C,R7*%
X93260000Y-55400000D03*
X92240000Y-55400000D03*
%TD*%
D30*
%TO.C,D1*%
X71859000Y-48387000D03*
X70889000Y-48387000D03*
%TD*%
D24*
%TO.C,R37*%
X96901000Y-54862000D03*
X96901000Y-55882000D03*
%TD*%
D31*
%TO.C,U6*%
X87800000Y-52800002D03*
X87800000Y-53800000D03*
X89755800Y-53800000D03*
X89755800Y-52800002D03*
D32*
X88777900Y-53300001D03*
%TD*%
D33*
%TO.C,M1*%
X102500000Y-48900000D03*
D34*
X101500000Y-47250000D03*
X103500000Y-47250000D03*
D33*
X102500000Y-45600000D03*
D35*
X100850000Y-51500000D03*
X104150000Y-51500000D03*
%TD*%
D13*
%TO.C,C7*%
X81971000Y-49022000D03*
X82931000Y-49022000D03*
%TD*%
D25*
%TO.C,R17*%
X80100000Y-60060000D03*
X80100000Y-59040000D03*
%TD*%
D36*
%TO.C,J5*%
X78700000Y-58250000D03*
X78700000Y-58750000D03*
X78700000Y-59250000D03*
X78700000Y-59750000D03*
X78700000Y-60250000D03*
X78700000Y-60750000D03*
X78700000Y-61250000D03*
X78700000Y-61750000D03*
X78700000Y-62250000D03*
X78700000Y-62750000D03*
X78700000Y-63250000D03*
X78700000Y-63750000D03*
X77000000Y-63500000D03*
X77000000Y-63000000D03*
X77000000Y-62500000D03*
X77000000Y-62000000D03*
X77000000Y-61500000D03*
X77000000Y-61000000D03*
X77000000Y-60500000D03*
X77000000Y-60000000D03*
X77000000Y-59500000D03*
X77000000Y-59000000D03*
X77000000Y-58500000D03*
X77000000Y-58000000D03*
%TD*%
D23*
%TO.C,R21*%
X94030000Y-49500000D03*
X95050000Y-49500000D03*
%TD*%
D13*
%TO.C,C28*%
X90570000Y-59950000D03*
X91530000Y-59950000D03*
%TD*%
D23*
%TO.C,R18*%
X80135000Y-57404000D03*
X81155000Y-57404000D03*
%TD*%
D18*
%TO.C,R36*%
X96016000Y-58420000D03*
X94996000Y-58420000D03*
%TD*%
D23*
%TO.C,R1*%
X80465200Y-52324000D03*
X81485200Y-52324000D03*
%TD*%
D24*
%TO.C,R5*%
X94100000Y-59434000D03*
X94100000Y-60454000D03*
%TD*%
D12*
%TO.C,C5*%
X80947200Y-62484000D03*
X79987200Y-62484000D03*
%TD*%
D18*
%TO.C,R19*%
X81060000Y-64950000D03*
X80040000Y-64950000D03*
%TD*%
D11*
%TO.C,Q3*%
X90112500Y-46562500D03*
X88212500Y-46562500D03*
X89162500Y-48437500D03*
%TD*%
D37*
%TO.C,U26*%
X95485000Y-56565000D03*
D38*
X95460000Y-56915000D03*
X95460000Y-57265000D03*
X95460000Y-57615000D03*
X96160000Y-57615000D03*
X96160000Y-57265000D03*
X96160000Y-56915000D03*
X96160000Y-56565000D03*
%TD*%
D23*
%TO.C,FB2*%
X76780000Y-55100000D03*
X77800000Y-55100000D03*
%TD*%
D39*
%TO.C,A1*%
X91100000Y-58775000D03*
X91600000Y-58775000D03*
D40*
X92112500Y-58512500D03*
X92112500Y-58012500D03*
X92112500Y-57512500D03*
D39*
X91600000Y-57250000D03*
X91100000Y-57250000D03*
D40*
X90587500Y-57512500D03*
X90587500Y-58012500D03*
X90587500Y-58512500D03*
%TD*%
D23*
%TO.C,R29*%
X86866000Y-71272400D03*
X87886000Y-71272400D03*
%TD*%
D41*
%TO.C,D2*%
X71100000Y-42500000D03*
X71100000Y-45700000D03*
X76000000Y-45700000D03*
X76000000Y-42500000D03*
%TD*%
D24*
%TO.C,R34*%
X77190600Y-74191400D03*
X77190600Y-75211400D03*
%TD*%
D42*
%TO.C,U15*%
X83175000Y-57495000D03*
X83175000Y-58765000D03*
X83175000Y-60035000D03*
X83175000Y-61305000D03*
X88125000Y-61305000D03*
X88125000Y-60035000D03*
X88125000Y-58765000D03*
X88125000Y-57495000D03*
%TD*%
D12*
%TO.C,C26*%
X77213400Y-72644000D03*
X76253400Y-72644000D03*
%TD*%
D43*
%TO.C,Q4*%
X96762500Y-49550000D03*
X96762500Y-51450000D03*
X98637500Y-50500000D03*
%TD*%
D24*
%TO.C,R26*%
X86106000Y-51864800D03*
X86106000Y-52884800D03*
%TD*%
D14*
%TO.C,C18*%
X98983200Y-58877200D03*
X100533200Y-58877200D03*
%TD*%
D44*
%TO.C,U16*%
X100200000Y-55750000D03*
X100200000Y-57000000D03*
X101000000Y-55750000D03*
X101000000Y-57000000D03*
D45*
X99175000Y-55125000D03*
X99175000Y-55625000D03*
X99175000Y-56125000D03*
X99175000Y-56625000D03*
X99175000Y-57125000D03*
X99175000Y-57625000D03*
X102025000Y-57625000D03*
X102025000Y-57125000D03*
X102025000Y-56625000D03*
X102025000Y-56125000D03*
X102025000Y-55625000D03*
X102025000Y-55125000D03*
%TD*%
D46*
%TO.C,U5*%
X105175000Y-72275000D03*
X105175000Y-71475000D03*
X105175000Y-70675000D03*
X105175000Y-69875000D03*
X105175000Y-69075000D03*
X105175000Y-68275000D03*
X105175000Y-67475000D03*
X105175000Y-66675000D03*
X105175000Y-65875000D03*
X105175000Y-65075000D03*
X105175000Y-64275000D03*
D47*
X104075000Y-63375000D03*
X103275000Y-63375000D03*
X102475000Y-63375000D03*
X101675000Y-63375000D03*
X100875000Y-63375000D03*
X100075000Y-63375000D03*
X99275000Y-63375000D03*
X98475000Y-63375000D03*
X97675000Y-63375000D03*
X96875000Y-63375000D03*
X96075000Y-63375000D03*
X95275000Y-63375000D03*
X94475000Y-63375000D03*
D46*
X93375000Y-64275000D03*
X93375000Y-65075000D03*
X93375000Y-65875000D03*
X93375000Y-66675000D03*
X93375000Y-67475000D03*
X93375000Y-68275000D03*
X93375000Y-69075000D03*
X93375000Y-69875000D03*
X93375000Y-70675000D03*
X93375000Y-71475000D03*
X93375000Y-72275000D03*
D47*
X94475000Y-73175000D03*
X95275000Y-73175000D03*
X96075000Y-73175000D03*
X96875000Y-73175000D03*
X97675000Y-73175000D03*
X98475000Y-73175000D03*
X99275000Y-73175000D03*
X100075000Y-73175000D03*
X100875000Y-73175000D03*
X101675000Y-73175000D03*
X102475000Y-73175000D03*
X103275000Y-73175000D03*
X104075000Y-73175000D03*
D48*
X101250000Y-70250000D03*
D49*
X101250000Y-68275000D03*
X101250000Y-66300000D03*
X99275000Y-70250000D03*
X99275000Y-68275000D03*
X99275000Y-66300000D03*
X97300000Y-70250000D03*
X97300000Y-68275000D03*
X97300000Y-66300000D03*
D50*
X93325000Y-73225000D03*
X93325000Y-63325000D03*
X105225000Y-63325000D03*
X105225000Y-73225000D03*
%TD*%
D51*
%TO.C,L1*%
X71600000Y-78000000D03*
X71600000Y-68700000D03*
%TD*%
D13*
%TO.C,C6*%
X73764200Y-50800000D03*
X74724200Y-50800000D03*
%TD*%
D23*
%TO.C,R27*%
X93724000Y-52628800D03*
X94744000Y-52628800D03*
%TD*%
D25*
%TO.C,R30*%
X89850000Y-67310000D03*
X89850000Y-66290000D03*
%TD*%
%TO.C,R9*%
X93100000Y-47110000D03*
X93100000Y-46090000D03*
%TD*%
D23*
%TO.C,R22*%
X94030000Y-51490000D03*
X95050000Y-51490000D03*
%TD*%
D24*
%TO.C,R6*%
X92300000Y-53440000D03*
X92300000Y-54460000D03*
%TD*%
D52*
%TO.C,U3*%
X76553000Y-52399999D03*
X76553000Y-52900000D03*
X76553000Y-53400000D03*
X76553000Y-53900001D03*
X79347000Y-53900001D03*
X79347000Y-53400000D03*
X79347000Y-52900000D03*
X79347000Y-52399999D03*
D53*
X77950000Y-53150000D03*
%TD*%
D12*
%TO.C,C10*%
X94470000Y-56642000D03*
X93510000Y-56642000D03*
%TD*%
D23*
%TO.C,R35*%
X91436000Y-61468000D03*
X92456000Y-61468000D03*
%TD*%
D15*
%TO.C,C4*%
X77165200Y-77929800D03*
X77165200Y-78889800D03*
%TD*%
D23*
%TO.C,R16*%
X81590000Y-63700000D03*
X82610000Y-63700000D03*
%TD*%
D18*
%TO.C,R24*%
X105510000Y-56010000D03*
X104490000Y-56010000D03*
%TD*%
D23*
%TO.C,R3*%
X82040000Y-50000000D03*
X83060000Y-50000000D03*
%TD*%
D12*
%TO.C,C28*%
X95860000Y-61550000D03*
X94900000Y-61550000D03*
%TD*%
D54*
%TO.C,U11*%
X82613500Y-52691599D03*
X82613500Y-53191600D03*
X82613500Y-53691600D03*
X82613500Y-54191601D03*
D55*
X83269201Y-54356000D03*
X83769200Y-54356000D03*
X84269199Y-54356000D03*
D54*
X84924900Y-54191601D03*
X84924900Y-53691600D03*
X84924900Y-53191600D03*
X84924900Y-52691599D03*
D55*
X84269199Y-52527200D03*
X83769200Y-52527200D03*
X83269201Y-52527200D03*
%TD*%
D18*
%TO.C,R13*%
X87060000Y-50250000D03*
X86040000Y-50250000D03*
%TD*%
D23*
%TO.C,R12*%
X90930000Y-50050000D03*
X91950000Y-50050000D03*
%TD*%
D13*
%TO.C,C22*%
X85626000Y-67462400D03*
X86586000Y-67462400D03*
%TD*%
M02*
