M48
; DRILL file {KiCad 9.0.4} date 2026-03-10T13:45:13-0400
; FORMAT={-:-/ absolute / metric / decimal}
; #@! TF.CreationDate,2026-03-10T13:45:13-04:00
; #@! TF.GenerationSoftware,Kicad,Pcbnew,9.0.4
; #@! TF.FileFunction,Plated,1,4,PTH
FMAT,2
METRIC
; #@! TA.AperFunction,Plated,PTH,ViaDrill
T1C0.150
; #@! TA.AperFunction,Plated,PTH,ViaDrill
T2C0.200
; #@! TA.AperFunction,Plated,PTH,ViaDrill
T3C0.300
; #@! TA.AperFunction,Plated,PTH,ViaDrill
T4C0.400
; #@! TA.AperFunction,Plated,PTH,ViaDrill
T5C0.500
; #@! TA.AperFunction,Plated,PTH,ComponentDrill
T6C0.500
; #@! TA.AperFunction,Plated,PTH,ComponentDrill
T7C0.800
; #@! TA.AperFunction,Plated,PTH,ComponentDrill
T8C1.000
%
G90
G05
T1
X72.025Y-75.927
X72.212Y-76.911
X72.72Y-70.891
X72.822Y-75.438
X72.847Y-72.822
X73.025Y-49.2
X74.092Y-71.095
X74.32Y-46.431
X74.828Y-71.171
X74.828Y-71.171
X75.032Y-71.984
X76.008Y-76.956
X76.606Y-73.457
X77.622Y-72.225
X77.929Y-62.725
X78.49Y-71.573
X79.172Y-70.104
X79.781Y-72.593
X80.086Y-66.256
X81.382Y-70.282
X81.996Y-61.951
X82.271Y-65.151
X82.702Y-70.637
X83.439Y-48.158
X83.668Y-50.013
X83.795Y-65.227
X84.531Y-59.385
X84.785Y-62.128
X85.445Y-50.329
X85.598Y-64.712
X85.623Y-72.187
X85.741Y-60.55
X85.87Y-55.55
X85.93Y-54.767
X86.106Y-53.289
X86.208Y-53.772
X86.36Y-70.129
X86.55Y-49.798
X87.249Y-67.05
X88.115Y-60.306
X88.138Y-62.103
X88.24Y-56.794
X88.835Y-51.774
X91.008Y-54.885
X91.019Y-59.429
X91.48Y-53.577
X91.516Y-53.061
X91.952Y-65.782
X92.659Y-62.738
X92.937Y-51.529
X93.345Y-54.407
X93.525Y-49.454
X93.981Y-58.622
X94.259Y-69.317
X94.384Y-55.438
X94.889Y-57.518
X94.894Y-66.567
X94.92Y-62.382
X95.352Y-69.52
X95.91Y-68.859
X96.167Y-53.524
X96.3Y-57.797
X97.4Y-58.268
X97.423Y-57.085
X97.739Y-62.027
X97.932Y-58.375
X98.195Y-57.555
X99.419Y-64.393
X99.746Y-58.496
X102.514Y-67.589
T2
X75.54Y-66.345
X76.505Y-66.4
X77.953Y-72.593
X79.223Y-47.828
X81.287Y-45.284
X83.287Y-51.638
X83.49Y-66.396
X83.525Y-68.524
X84.887Y-52.121
X84.912Y-70.053
X87.833Y-50.241
X88.386Y-54.769
X90.114Y-50.013
X94.259Y-67.488
X94.336Y-66.675
X94.742Y-65.625
X97.485Y-64.125
X98.476Y-61.849
X103.263Y-64.402
X104.064Y-68.986
X104.216Y-68.275
T3
X72.136Y-71.933
X72.898Y-73.863
X72.974Y-45.1
X73.406Y-49.911
X73.508Y-64.516
X73.75Y-72.65
X74.117Y-51.994
X74.168Y-44.983
X75.5Y-62.65
X75.725Y-60.122
X75.95Y-55.1
X76.15Y-60.8
X76.433Y-78.283
X76.653Y-54.28
X79.248Y-54.356
X79.6Y-60.8
X79.6Y-61.6
X80.239Y-73.177
X80.442Y-64.084
X80.525Y-50.275
X80.675Y-70.565
X81.163Y-58.317
X81.571Y-60.198
X81.585Y-59.182
X82.372Y-66.142
X83.312Y-70.256
X83.693Y-49.022
X86.225Y-62.1
X87.249Y-55.118
X87.75Y-49.25
X87.884Y-70.046
X88.258Y-64.375
X88.29Y-51.41
X89.052Y-70.266
X89.789Y-70.739
X89.962Y-48.5
X91.16Y-60.85
X91.3Y-58.015
X91.491Y-55.321
X92.0Y-62.9
X92.583Y-60.55
X92.6Y-59.35
X92.73Y-56.846
X92.915Y-53.854
X92.92Y-57.75
X93.106Y-52.131
X93.15Y-44.45
X94.0Y-46.1
X94.679Y-60.441
X95.03Y-58.26
X95.844Y-64.277
X96.05Y-65.05
X96.35Y-61.55
X97.384Y-54.712
X97.384Y-59.08
X97.612Y-56.49
X98.077Y-55.111
X99.459Y-61.699
X100.061Y-62.301
X101.719Y-59.006
X102.083Y-52.629
X102.986Y-57.998
X103.022Y-57.125
X103.581Y-52.934
X103.81Y-59.715
T4
X78.05Y-50.05
X80.086Y-53.4
T5
X72.5Y-41.4
X72.669Y-60.985
X75.0Y-51.7
X75.0Y-57.8
X94.2Y-54.25
X94.2Y-61.55
X95.9Y-52.85
X99.275Y-68.275
X100.85Y-52.85
X103.8Y-70.65
T7
X71.79Y-51.3
X71.79Y-53.3
T8
X80.3Y-43.0
X82.84Y-43.0
X85.38Y-43.0
X87.92Y-43.0
X90.46Y-43.0
X93.0Y-43.0
X95.54Y-43.0
X98.08Y-43.0
T6
G00X71.14Y-56.51
M15
G01X70.54Y-56.51
M16
G05
G00X71.14Y-65.49
M15
G01X70.54Y-65.49
M16
G05
G00X77.09Y-56.87
M15
G01X76.49Y-56.87
M16
G05
G00X77.09Y-65.13
M15
G01X76.49Y-65.13
M16
G05
M30
