%TF.GenerationSoftware,KiCad,Pcbnew,9.0.4*%
%TF.CreationDate,2025-10-06T13:40:32-04:00*%
%TF.ProjectId,Smarter Watch Stuff,536d6172-7465-4722-9057-617463682053,rev?*%
%TF.SameCoordinates,Original*%
%TF.FileFunction,Legend,Bot*%
%TF.FilePolarity,Positive*%
%FSLAX46Y46*%
G04 Gerber Fmt 4.6, Leading zero omitted, Abs format (unit mm)*
G04 Created by KiCad (PCBNEW 9.0.4) date 2025-10-06 13:40:32*
%MOMM*%
%LPD*%
G01*
G04 APERTURE LIST*
%ADD10C,0.200000*%
%ADD11C,0.100000*%
%ADD12C,0.150000*%
%ADD13C,0.120000*%
%ADD14C,0.000000*%
G04 APERTURE END LIST*
D10*
X65577945Y-95799712D02*
X65435088Y-95847331D01*
X65435088Y-95847331D02*
X65196993Y-95847331D01*
X65196993Y-95847331D02*
X65101755Y-95799712D01*
X65101755Y-95799712D02*
X65054136Y-95752092D01*
X65054136Y-95752092D02*
X65006517Y-95656854D01*
X65006517Y-95656854D02*
X65006517Y-95561616D01*
X65006517Y-95561616D02*
X65054136Y-95466378D01*
X65054136Y-95466378D02*
X65101755Y-95418759D01*
X65101755Y-95418759D02*
X65196993Y-95371140D01*
X65196993Y-95371140D02*
X65387469Y-95323521D01*
X65387469Y-95323521D02*
X65482707Y-95275902D01*
X65482707Y-95275902D02*
X65530326Y-95228283D01*
X65530326Y-95228283D02*
X65577945Y-95133045D01*
X65577945Y-95133045D02*
X65577945Y-95037807D01*
X65577945Y-95037807D02*
X65530326Y-94942569D01*
X65530326Y-94942569D02*
X65482707Y-94894950D01*
X65482707Y-94894950D02*
X65387469Y-94847331D01*
X65387469Y-94847331D02*
X65149374Y-94847331D01*
X65149374Y-94847331D02*
X65006517Y-94894950D01*
X64577945Y-95847331D02*
X64577945Y-95180664D01*
X64577945Y-95275902D02*
X64530326Y-95228283D01*
X64530326Y-95228283D02*
X64435088Y-95180664D01*
X64435088Y-95180664D02*
X64292231Y-95180664D01*
X64292231Y-95180664D02*
X64196993Y-95228283D01*
X64196993Y-95228283D02*
X64149374Y-95323521D01*
X64149374Y-95323521D02*
X64149374Y-95847331D01*
X64149374Y-95323521D02*
X64101755Y-95228283D01*
X64101755Y-95228283D02*
X64006517Y-95180664D01*
X64006517Y-95180664D02*
X63863660Y-95180664D01*
X63863660Y-95180664D02*
X63768421Y-95228283D01*
X63768421Y-95228283D02*
X63720802Y-95323521D01*
X63720802Y-95323521D02*
X63720802Y-95847331D01*
X62816041Y-95847331D02*
X62816041Y-95323521D01*
X62816041Y-95323521D02*
X62863660Y-95228283D01*
X62863660Y-95228283D02*
X62958898Y-95180664D01*
X62958898Y-95180664D02*
X63149374Y-95180664D01*
X63149374Y-95180664D02*
X63244612Y-95228283D01*
X62816041Y-95799712D02*
X62911279Y-95847331D01*
X62911279Y-95847331D02*
X63149374Y-95847331D01*
X63149374Y-95847331D02*
X63244612Y-95799712D01*
X63244612Y-95799712D02*
X63292231Y-95704473D01*
X63292231Y-95704473D02*
X63292231Y-95609235D01*
X63292231Y-95609235D02*
X63244612Y-95513997D01*
X63244612Y-95513997D02*
X63149374Y-95466378D01*
X63149374Y-95466378D02*
X62911279Y-95466378D01*
X62911279Y-95466378D02*
X62816041Y-95418759D01*
X62339850Y-95847331D02*
X62339850Y-95180664D01*
X62339850Y-95371140D02*
X62292231Y-95275902D01*
X62292231Y-95275902D02*
X62244612Y-95228283D01*
X62244612Y-95228283D02*
X62149374Y-95180664D01*
X62149374Y-95180664D02*
X62054136Y-95180664D01*
X61863659Y-95180664D02*
X61482707Y-95180664D01*
X61720802Y-94847331D02*
X61720802Y-95704473D01*
X61720802Y-95704473D02*
X61673183Y-95799712D01*
X61673183Y-95799712D02*
X61577945Y-95847331D01*
X61577945Y-95847331D02*
X61482707Y-95847331D01*
X60768421Y-95799712D02*
X60863659Y-95847331D01*
X60863659Y-95847331D02*
X61054135Y-95847331D01*
X61054135Y-95847331D02*
X61149373Y-95799712D01*
X61149373Y-95799712D02*
X61196992Y-95704473D01*
X61196992Y-95704473D02*
X61196992Y-95323521D01*
X61196992Y-95323521D02*
X61149373Y-95228283D01*
X61149373Y-95228283D02*
X61054135Y-95180664D01*
X61054135Y-95180664D02*
X60863659Y-95180664D01*
X60863659Y-95180664D02*
X60768421Y-95228283D01*
X60768421Y-95228283D02*
X60720802Y-95323521D01*
X60720802Y-95323521D02*
X60720802Y-95418759D01*
X60720802Y-95418759D02*
X61196992Y-95513997D01*
X60292230Y-95847331D02*
X60292230Y-95180664D01*
X60292230Y-95371140D02*
X60244611Y-95275902D01*
X60244611Y-95275902D02*
X60196992Y-95228283D01*
X60196992Y-95228283D02*
X60101754Y-95180664D01*
X60101754Y-95180664D02*
X60006516Y-95180664D01*
X59768420Y-94847331D02*
X59530325Y-95847331D01*
X59530325Y-95847331D02*
X59339849Y-95133045D01*
X59339849Y-95133045D02*
X59149373Y-95847331D01*
X59149373Y-95847331D02*
X58911278Y-94847331D01*
X58101754Y-95847331D02*
X58101754Y-95323521D01*
X58101754Y-95323521D02*
X58149373Y-95228283D01*
X58149373Y-95228283D02*
X58244611Y-95180664D01*
X58244611Y-95180664D02*
X58435087Y-95180664D01*
X58435087Y-95180664D02*
X58530325Y-95228283D01*
X58101754Y-95799712D02*
X58196992Y-95847331D01*
X58196992Y-95847331D02*
X58435087Y-95847331D01*
X58435087Y-95847331D02*
X58530325Y-95799712D01*
X58530325Y-95799712D02*
X58577944Y-95704473D01*
X58577944Y-95704473D02*
X58577944Y-95609235D01*
X58577944Y-95609235D02*
X58530325Y-95513997D01*
X58530325Y-95513997D02*
X58435087Y-95466378D01*
X58435087Y-95466378D02*
X58196992Y-95466378D01*
X58196992Y-95466378D02*
X58101754Y-95418759D01*
X57768420Y-95180664D02*
X57387468Y-95180664D01*
X57625563Y-94847331D02*
X57625563Y-95704473D01*
X57625563Y-95704473D02*
X57577944Y-95799712D01*
X57577944Y-95799712D02*
X57482706Y-95847331D01*
X57482706Y-95847331D02*
X57387468Y-95847331D01*
X56625563Y-95799712D02*
X56720801Y-95847331D01*
X56720801Y-95847331D02*
X56911277Y-95847331D01*
X56911277Y-95847331D02*
X57006515Y-95799712D01*
X57006515Y-95799712D02*
X57054134Y-95752092D01*
X57054134Y-95752092D02*
X57101753Y-95656854D01*
X57101753Y-95656854D02*
X57101753Y-95371140D01*
X57101753Y-95371140D02*
X57054134Y-95275902D01*
X57054134Y-95275902D02*
X57006515Y-95228283D01*
X57006515Y-95228283D02*
X56911277Y-95180664D01*
X56911277Y-95180664D02*
X56720801Y-95180664D01*
X56720801Y-95180664D02*
X56625563Y-95228283D01*
X56196991Y-95847331D02*
X56196991Y-94847331D01*
X55768420Y-95847331D02*
X55768420Y-95323521D01*
X55768420Y-95323521D02*
X55816039Y-95228283D01*
X55816039Y-95228283D02*
X55911277Y-95180664D01*
X55911277Y-95180664D02*
X56054134Y-95180664D01*
X56054134Y-95180664D02*
X56149372Y-95228283D01*
X56149372Y-95228283D02*
X56196991Y-95275902D01*
X54673181Y-94847331D02*
X54339848Y-95847331D01*
X54339848Y-95847331D02*
X54006515Y-94847331D01*
X53149372Y-95847331D02*
X53720800Y-95847331D01*
X53435086Y-95847331D02*
X53435086Y-94847331D01*
X53435086Y-94847331D02*
X53530324Y-94990188D01*
X53530324Y-94990188D02*
X53625562Y-95085426D01*
X53625562Y-95085426D02*
X53720800Y-95133045D01*
X52720800Y-95752092D02*
X52673181Y-95799712D01*
X52673181Y-95799712D02*
X52720800Y-95847331D01*
X52720800Y-95847331D02*
X52768419Y-95799712D01*
X52768419Y-95799712D02*
X52720800Y-95752092D01*
X52720800Y-95752092D02*
X52720800Y-95847331D01*
X52054134Y-94847331D02*
X51958896Y-94847331D01*
X51958896Y-94847331D02*
X51863658Y-94894950D01*
X51863658Y-94894950D02*
X51816039Y-94942569D01*
X51816039Y-94942569D02*
X51768420Y-95037807D01*
X51768420Y-95037807D02*
X51720801Y-95228283D01*
X51720801Y-95228283D02*
X51720801Y-95466378D01*
X51720801Y-95466378D02*
X51768420Y-95656854D01*
X51768420Y-95656854D02*
X51816039Y-95752092D01*
X51816039Y-95752092D02*
X51863658Y-95799712D01*
X51863658Y-95799712D02*
X51958896Y-95847331D01*
X51958896Y-95847331D02*
X52054134Y-95847331D01*
X52054134Y-95847331D02*
X52149372Y-95799712D01*
X52149372Y-95799712D02*
X52196991Y-95752092D01*
X52196991Y-95752092D02*
X52244610Y-95656854D01*
X52244610Y-95656854D02*
X52292229Y-95466378D01*
X52292229Y-95466378D02*
X52292229Y-95228283D01*
X52292229Y-95228283D02*
X52244610Y-95037807D01*
X52244610Y-95037807D02*
X52196991Y-94942569D01*
X52196991Y-94942569D02*
X52149372Y-94894950D01*
X52149372Y-94894950D02*
X52054134Y-94847331D01*
X65577945Y-97171560D02*
X65101755Y-97171560D01*
X65673183Y-97457275D02*
X65339850Y-96457275D01*
X65339850Y-96457275D02*
X65006517Y-97457275D01*
X64006516Y-96457275D02*
X63768421Y-97457275D01*
X63768421Y-97457275D02*
X63577945Y-96742989D01*
X63577945Y-96742989D02*
X63387469Y-97457275D01*
X63387469Y-97457275D02*
X63149374Y-96457275D01*
X62339850Y-97457275D02*
X62339850Y-96933465D01*
X62339850Y-96933465D02*
X62387469Y-96838227D01*
X62387469Y-96838227D02*
X62482707Y-96790608D01*
X62482707Y-96790608D02*
X62673183Y-96790608D01*
X62673183Y-96790608D02*
X62768421Y-96838227D01*
X62339850Y-97409656D02*
X62435088Y-97457275D01*
X62435088Y-97457275D02*
X62673183Y-97457275D01*
X62673183Y-97457275D02*
X62768421Y-97409656D01*
X62768421Y-97409656D02*
X62816040Y-97314417D01*
X62816040Y-97314417D02*
X62816040Y-97219179D01*
X62816040Y-97219179D02*
X62768421Y-97123941D01*
X62768421Y-97123941D02*
X62673183Y-97076322D01*
X62673183Y-97076322D02*
X62435088Y-97076322D01*
X62435088Y-97076322D02*
X62339850Y-97028703D01*
X62006516Y-96790608D02*
X61625564Y-96790608D01*
X61863659Y-96457275D02*
X61863659Y-97314417D01*
X61863659Y-97314417D02*
X61816040Y-97409656D01*
X61816040Y-97409656D02*
X61720802Y-97457275D01*
X61720802Y-97457275D02*
X61625564Y-97457275D01*
X60863659Y-97409656D02*
X60958897Y-97457275D01*
X60958897Y-97457275D02*
X61149373Y-97457275D01*
X61149373Y-97457275D02*
X61244611Y-97409656D01*
X61244611Y-97409656D02*
X61292230Y-97362036D01*
X61292230Y-97362036D02*
X61339849Y-97266798D01*
X61339849Y-97266798D02*
X61339849Y-96981084D01*
X61339849Y-96981084D02*
X61292230Y-96885846D01*
X61292230Y-96885846D02*
X61244611Y-96838227D01*
X61244611Y-96838227D02*
X61149373Y-96790608D01*
X61149373Y-96790608D02*
X60958897Y-96790608D01*
X60958897Y-96790608D02*
X60863659Y-96838227D01*
X60435087Y-97457275D02*
X60435087Y-96457275D01*
X60006516Y-97457275D02*
X60006516Y-96933465D01*
X60006516Y-96933465D02*
X60054135Y-96838227D01*
X60054135Y-96838227D02*
X60149373Y-96790608D01*
X60149373Y-96790608D02*
X60292230Y-96790608D01*
X60292230Y-96790608D02*
X60387468Y-96838227D01*
X60387468Y-96838227D02*
X60435087Y-96885846D01*
X58863658Y-96790608D02*
X58673182Y-97457275D01*
X58673182Y-97457275D02*
X58482706Y-96981084D01*
X58482706Y-96981084D02*
X58292230Y-97457275D01*
X58292230Y-97457275D02*
X58101754Y-96790608D01*
X57720801Y-97457275D02*
X57720801Y-96790608D01*
X57720801Y-96457275D02*
X57768420Y-96504894D01*
X57768420Y-96504894D02*
X57720801Y-96552513D01*
X57720801Y-96552513D02*
X57673182Y-96504894D01*
X57673182Y-96504894D02*
X57720801Y-96457275D01*
X57720801Y-96457275D02*
X57720801Y-96552513D01*
X57387468Y-96790608D02*
X57006516Y-96790608D01*
X57244611Y-96457275D02*
X57244611Y-97314417D01*
X57244611Y-97314417D02*
X57196992Y-97409656D01*
X57196992Y-97409656D02*
X57101754Y-97457275D01*
X57101754Y-97457275D02*
X57006516Y-97457275D01*
X56673182Y-97457275D02*
X56673182Y-96457275D01*
X56244611Y-97457275D02*
X56244611Y-96933465D01*
X56244611Y-96933465D02*
X56292230Y-96838227D01*
X56292230Y-96838227D02*
X56387468Y-96790608D01*
X56387468Y-96790608D02*
X56530325Y-96790608D01*
X56530325Y-96790608D02*
X56625563Y-96838227D01*
X56625563Y-96838227D02*
X56673182Y-96885846D01*
X54577944Y-97457275D02*
X54577944Y-96933465D01*
X54577944Y-96933465D02*
X54625563Y-96838227D01*
X54625563Y-96838227D02*
X54720801Y-96790608D01*
X54720801Y-96790608D02*
X54911277Y-96790608D01*
X54911277Y-96790608D02*
X55006515Y-96838227D01*
X54577944Y-97409656D02*
X54673182Y-97457275D01*
X54673182Y-97457275D02*
X54911277Y-97457275D01*
X54911277Y-97457275D02*
X55006515Y-97409656D01*
X55006515Y-97409656D02*
X55054134Y-97314417D01*
X55054134Y-97314417D02*
X55054134Y-97219179D01*
X55054134Y-97219179D02*
X55006515Y-97123941D01*
X55006515Y-97123941D02*
X54911277Y-97076322D01*
X54911277Y-97076322D02*
X54673182Y-97076322D01*
X54673182Y-97076322D02*
X54577944Y-97028703D01*
X53196991Y-97457275D02*
X53292229Y-97409656D01*
X53292229Y-97409656D02*
X53339848Y-97314417D01*
X53339848Y-97314417D02*
X53339848Y-96457275D01*
X52673181Y-97457275D02*
X52768419Y-97409656D01*
X52768419Y-97409656D02*
X52816038Y-97362036D01*
X52816038Y-97362036D02*
X52863657Y-97266798D01*
X52863657Y-97266798D02*
X52863657Y-96981084D01*
X52863657Y-96981084D02*
X52816038Y-96885846D01*
X52816038Y-96885846D02*
X52768419Y-96838227D01*
X52768419Y-96838227D02*
X52673181Y-96790608D01*
X52673181Y-96790608D02*
X52530324Y-96790608D01*
X52530324Y-96790608D02*
X52435086Y-96838227D01*
X52435086Y-96838227D02*
X52387467Y-96885846D01*
X52387467Y-96885846D02*
X52339848Y-96981084D01*
X52339848Y-96981084D02*
X52339848Y-97266798D01*
X52339848Y-97266798D02*
X52387467Y-97362036D01*
X52387467Y-97362036D02*
X52435086Y-97409656D01*
X52435086Y-97409656D02*
X52530324Y-97457275D01*
X52530324Y-97457275D02*
X52673181Y-97457275D01*
X52054133Y-96790608D02*
X51673181Y-96790608D01*
X51911276Y-96457275D02*
X51911276Y-97314417D01*
X51911276Y-97314417D02*
X51863657Y-97409656D01*
X51863657Y-97409656D02*
X51768419Y-97457275D01*
X51768419Y-97457275D02*
X51673181Y-97457275D01*
X50435085Y-97457275D02*
X50530323Y-97409656D01*
X50530323Y-97409656D02*
X50577942Y-97362036D01*
X50577942Y-97362036D02*
X50625561Y-97266798D01*
X50625561Y-97266798D02*
X50625561Y-96981084D01*
X50625561Y-96981084D02*
X50577942Y-96885846D01*
X50577942Y-96885846D02*
X50530323Y-96838227D01*
X50530323Y-96838227D02*
X50435085Y-96790608D01*
X50435085Y-96790608D02*
X50292228Y-96790608D01*
X50292228Y-96790608D02*
X50196990Y-96838227D01*
X50196990Y-96838227D02*
X50149371Y-96885846D01*
X50149371Y-96885846D02*
X50101752Y-96981084D01*
X50101752Y-96981084D02*
X50101752Y-97266798D01*
X50101752Y-97266798D02*
X50149371Y-97362036D01*
X50149371Y-97362036D02*
X50196990Y-97409656D01*
X50196990Y-97409656D02*
X50292228Y-97457275D01*
X50292228Y-97457275D02*
X50435085Y-97457275D01*
X49816037Y-96790608D02*
X49435085Y-96790608D01*
X49673180Y-97457275D02*
X49673180Y-96600132D01*
X49673180Y-96600132D02*
X49625561Y-96504894D01*
X49625561Y-96504894D02*
X49530323Y-96457275D01*
X49530323Y-96457275D02*
X49435085Y-96457275D01*
X47911275Y-96790608D02*
X47911275Y-97457275D01*
X48339846Y-96790608D02*
X48339846Y-97314417D01*
X48339846Y-97314417D02*
X48292227Y-97409656D01*
X48292227Y-97409656D02*
X48196989Y-97457275D01*
X48196989Y-97457275D02*
X48054132Y-97457275D01*
X48054132Y-97457275D02*
X47958894Y-97409656D01*
X47958894Y-97409656D02*
X47911275Y-97362036D01*
X47482703Y-97409656D02*
X47387465Y-97457275D01*
X47387465Y-97457275D02*
X47196989Y-97457275D01*
X47196989Y-97457275D02*
X47101751Y-97409656D01*
X47101751Y-97409656D02*
X47054132Y-97314417D01*
X47054132Y-97314417D02*
X47054132Y-97266798D01*
X47054132Y-97266798D02*
X47101751Y-97171560D01*
X47101751Y-97171560D02*
X47196989Y-97123941D01*
X47196989Y-97123941D02*
X47339846Y-97123941D01*
X47339846Y-97123941D02*
X47435084Y-97076322D01*
X47435084Y-97076322D02*
X47482703Y-96981084D01*
X47482703Y-96981084D02*
X47482703Y-96933465D01*
X47482703Y-96933465D02*
X47435084Y-96838227D01*
X47435084Y-96838227D02*
X47339846Y-96790608D01*
X47339846Y-96790608D02*
X47196989Y-96790608D01*
X47196989Y-96790608D02*
X47101751Y-96838227D01*
X46244608Y-97409656D02*
X46339846Y-97457275D01*
X46339846Y-97457275D02*
X46530322Y-97457275D01*
X46530322Y-97457275D02*
X46625560Y-97409656D01*
X46625560Y-97409656D02*
X46673179Y-97314417D01*
X46673179Y-97314417D02*
X46673179Y-96933465D01*
X46673179Y-96933465D02*
X46625560Y-96838227D01*
X46625560Y-96838227D02*
X46530322Y-96790608D01*
X46530322Y-96790608D02*
X46339846Y-96790608D01*
X46339846Y-96790608D02*
X46244608Y-96838227D01*
X46244608Y-96838227D02*
X46196989Y-96933465D01*
X46196989Y-96933465D02*
X46196989Y-97028703D01*
X46196989Y-97028703D02*
X46673179Y-97123941D01*
X45625560Y-97457275D02*
X45720798Y-97409656D01*
X45720798Y-97409656D02*
X45768417Y-97314417D01*
X45768417Y-97314417D02*
X45768417Y-96457275D01*
X44863655Y-97409656D02*
X44958893Y-97457275D01*
X44958893Y-97457275D02*
X45149369Y-97457275D01*
X45149369Y-97457275D02*
X45244607Y-97409656D01*
X45244607Y-97409656D02*
X45292226Y-97314417D01*
X45292226Y-97314417D02*
X45292226Y-96933465D01*
X45292226Y-96933465D02*
X45244607Y-96838227D01*
X45244607Y-96838227D02*
X45149369Y-96790608D01*
X45149369Y-96790608D02*
X44958893Y-96790608D01*
X44958893Y-96790608D02*
X44863655Y-96838227D01*
X44863655Y-96838227D02*
X44816036Y-96933465D01*
X44816036Y-96933465D02*
X44816036Y-97028703D01*
X44816036Y-97028703D02*
X45292226Y-97123941D01*
X44435083Y-97409656D02*
X44339845Y-97457275D01*
X44339845Y-97457275D02*
X44149369Y-97457275D01*
X44149369Y-97457275D02*
X44054131Y-97409656D01*
X44054131Y-97409656D02*
X44006512Y-97314417D01*
X44006512Y-97314417D02*
X44006512Y-97266798D01*
X44006512Y-97266798D02*
X44054131Y-97171560D01*
X44054131Y-97171560D02*
X44149369Y-97123941D01*
X44149369Y-97123941D02*
X44292226Y-97123941D01*
X44292226Y-97123941D02*
X44387464Y-97076322D01*
X44387464Y-97076322D02*
X44435083Y-96981084D01*
X44435083Y-96981084D02*
X44435083Y-96933465D01*
X44435083Y-96933465D02*
X44387464Y-96838227D01*
X44387464Y-96838227D02*
X44292226Y-96790608D01*
X44292226Y-96790608D02*
X44149369Y-96790608D01*
X44149369Y-96790608D02*
X44054131Y-96838227D01*
X43625559Y-97409656D02*
X43530321Y-97457275D01*
X43530321Y-97457275D02*
X43339845Y-97457275D01*
X43339845Y-97457275D02*
X43244607Y-97409656D01*
X43244607Y-97409656D02*
X43196988Y-97314417D01*
X43196988Y-97314417D02*
X43196988Y-97266798D01*
X43196988Y-97266798D02*
X43244607Y-97171560D01*
X43244607Y-97171560D02*
X43339845Y-97123941D01*
X43339845Y-97123941D02*
X43482702Y-97123941D01*
X43482702Y-97123941D02*
X43577940Y-97076322D01*
X43577940Y-97076322D02*
X43625559Y-96981084D01*
X43625559Y-96981084D02*
X43625559Y-96933465D01*
X43625559Y-96933465D02*
X43577940Y-96838227D01*
X43577940Y-96838227D02*
X43482702Y-96790608D01*
X43482702Y-96790608D02*
X43339845Y-96790608D01*
X43339845Y-96790608D02*
X43244607Y-96838227D01*
X42149368Y-96790608D02*
X41768416Y-96790608D01*
X42006511Y-97457275D02*
X42006511Y-96600132D01*
X42006511Y-96600132D02*
X41958892Y-96504894D01*
X41958892Y-96504894D02*
X41863654Y-96457275D01*
X41863654Y-96457275D02*
X41768416Y-96457275D01*
X41054130Y-97409656D02*
X41149368Y-97457275D01*
X41149368Y-97457275D02*
X41339844Y-97457275D01*
X41339844Y-97457275D02*
X41435082Y-97409656D01*
X41435082Y-97409656D02*
X41482701Y-97314417D01*
X41482701Y-97314417D02*
X41482701Y-96933465D01*
X41482701Y-96933465D02*
X41435082Y-96838227D01*
X41435082Y-96838227D02*
X41339844Y-96790608D01*
X41339844Y-96790608D02*
X41149368Y-96790608D01*
X41149368Y-96790608D02*
X41054130Y-96838227D01*
X41054130Y-96838227D02*
X41006511Y-96933465D01*
X41006511Y-96933465D02*
X41006511Y-97028703D01*
X41006511Y-97028703D02*
X41482701Y-97123941D01*
X40149368Y-97457275D02*
X40149368Y-96933465D01*
X40149368Y-96933465D02*
X40196987Y-96838227D01*
X40196987Y-96838227D02*
X40292225Y-96790608D01*
X40292225Y-96790608D02*
X40482701Y-96790608D01*
X40482701Y-96790608D02*
X40577939Y-96838227D01*
X40149368Y-97409656D02*
X40244606Y-97457275D01*
X40244606Y-97457275D02*
X40482701Y-97457275D01*
X40482701Y-97457275D02*
X40577939Y-97409656D01*
X40577939Y-97409656D02*
X40625558Y-97314417D01*
X40625558Y-97314417D02*
X40625558Y-97219179D01*
X40625558Y-97219179D02*
X40577939Y-97123941D01*
X40577939Y-97123941D02*
X40482701Y-97076322D01*
X40482701Y-97076322D02*
X40244606Y-97076322D01*
X40244606Y-97076322D02*
X40149368Y-97028703D01*
X39816034Y-96790608D02*
X39435082Y-96790608D01*
X39673177Y-96457275D02*
X39673177Y-97314417D01*
X39673177Y-97314417D02*
X39625558Y-97409656D01*
X39625558Y-97409656D02*
X39530320Y-97457275D01*
X39530320Y-97457275D02*
X39435082Y-97457275D01*
X38673177Y-96790608D02*
X38673177Y-97457275D01*
X39101748Y-96790608D02*
X39101748Y-97314417D01*
X39101748Y-97314417D02*
X39054129Y-97409656D01*
X39054129Y-97409656D02*
X38958891Y-97457275D01*
X38958891Y-97457275D02*
X38816034Y-97457275D01*
X38816034Y-97457275D02*
X38720796Y-97409656D01*
X38720796Y-97409656D02*
X38673177Y-97362036D01*
X38196986Y-97457275D02*
X38196986Y-96790608D01*
X38196986Y-96981084D02*
X38149367Y-96885846D01*
X38149367Y-96885846D02*
X38101748Y-96838227D01*
X38101748Y-96838227D02*
X38006510Y-96790608D01*
X38006510Y-96790608D02*
X37911272Y-96790608D01*
X37196986Y-97409656D02*
X37292224Y-97457275D01*
X37292224Y-97457275D02*
X37482700Y-97457275D01*
X37482700Y-97457275D02*
X37577938Y-97409656D01*
X37577938Y-97409656D02*
X37625557Y-97314417D01*
X37625557Y-97314417D02*
X37625557Y-96933465D01*
X37625557Y-96933465D02*
X37577938Y-96838227D01*
X37577938Y-96838227D02*
X37482700Y-96790608D01*
X37482700Y-96790608D02*
X37292224Y-96790608D01*
X37292224Y-96790608D02*
X37196986Y-96838227D01*
X37196986Y-96838227D02*
X37149367Y-96933465D01*
X37149367Y-96933465D02*
X37149367Y-97028703D01*
X37149367Y-97028703D02*
X37625557Y-97123941D01*
X36768414Y-97409656D02*
X36673176Y-97457275D01*
X36673176Y-97457275D02*
X36482700Y-97457275D01*
X36482700Y-97457275D02*
X36387462Y-97409656D01*
X36387462Y-97409656D02*
X36339843Y-97314417D01*
X36339843Y-97314417D02*
X36339843Y-97266798D01*
X36339843Y-97266798D02*
X36387462Y-97171560D01*
X36387462Y-97171560D02*
X36482700Y-97123941D01*
X36482700Y-97123941D02*
X36625557Y-97123941D01*
X36625557Y-97123941D02*
X36720795Y-97076322D01*
X36720795Y-97076322D02*
X36768414Y-96981084D01*
X36768414Y-96981084D02*
X36768414Y-96933465D01*
X36768414Y-96933465D02*
X36720795Y-96838227D01*
X36720795Y-96838227D02*
X36625557Y-96790608D01*
X36625557Y-96790608D02*
X36482700Y-96790608D01*
X36482700Y-96790608D02*
X36387462Y-96838227D01*
X65530326Y-99067219D02*
X65530326Y-98067219D01*
X65530326Y-98067219D02*
X65292231Y-98067219D01*
X65292231Y-98067219D02*
X65149374Y-98114838D01*
X65149374Y-98114838D02*
X65054136Y-98210076D01*
X65054136Y-98210076D02*
X65006517Y-98305314D01*
X65006517Y-98305314D02*
X64958898Y-98495790D01*
X64958898Y-98495790D02*
X64958898Y-98638647D01*
X64958898Y-98638647D02*
X65006517Y-98829123D01*
X65006517Y-98829123D02*
X65054136Y-98924361D01*
X65054136Y-98924361D02*
X65149374Y-99019600D01*
X65149374Y-99019600D02*
X65292231Y-99067219D01*
X65292231Y-99067219D02*
X65530326Y-99067219D01*
X64149374Y-99019600D02*
X64244612Y-99067219D01*
X64244612Y-99067219D02*
X64435088Y-99067219D01*
X64435088Y-99067219D02*
X64530326Y-99019600D01*
X64530326Y-99019600D02*
X64577945Y-98924361D01*
X64577945Y-98924361D02*
X64577945Y-98543409D01*
X64577945Y-98543409D02*
X64530326Y-98448171D01*
X64530326Y-98448171D02*
X64435088Y-98400552D01*
X64435088Y-98400552D02*
X64244612Y-98400552D01*
X64244612Y-98400552D02*
X64149374Y-98448171D01*
X64149374Y-98448171D02*
X64101755Y-98543409D01*
X64101755Y-98543409D02*
X64101755Y-98638647D01*
X64101755Y-98638647D02*
X64577945Y-98733885D01*
X63720802Y-99019600D02*
X63625564Y-99067219D01*
X63625564Y-99067219D02*
X63435088Y-99067219D01*
X63435088Y-99067219D02*
X63339850Y-99019600D01*
X63339850Y-99019600D02*
X63292231Y-98924361D01*
X63292231Y-98924361D02*
X63292231Y-98876742D01*
X63292231Y-98876742D02*
X63339850Y-98781504D01*
X63339850Y-98781504D02*
X63435088Y-98733885D01*
X63435088Y-98733885D02*
X63577945Y-98733885D01*
X63577945Y-98733885D02*
X63673183Y-98686266D01*
X63673183Y-98686266D02*
X63720802Y-98591028D01*
X63720802Y-98591028D02*
X63720802Y-98543409D01*
X63720802Y-98543409D02*
X63673183Y-98448171D01*
X63673183Y-98448171D02*
X63577945Y-98400552D01*
X63577945Y-98400552D02*
X63435088Y-98400552D01*
X63435088Y-98400552D02*
X63339850Y-98448171D01*
X62863659Y-99067219D02*
X62863659Y-98400552D01*
X62863659Y-98067219D02*
X62911278Y-98114838D01*
X62911278Y-98114838D02*
X62863659Y-98162457D01*
X62863659Y-98162457D02*
X62816040Y-98114838D01*
X62816040Y-98114838D02*
X62863659Y-98067219D01*
X62863659Y-98067219D02*
X62863659Y-98162457D01*
X61958898Y-98400552D02*
X61958898Y-99210076D01*
X61958898Y-99210076D02*
X62006517Y-99305314D01*
X62006517Y-99305314D02*
X62054136Y-99352933D01*
X62054136Y-99352933D02*
X62149374Y-99400552D01*
X62149374Y-99400552D02*
X62292231Y-99400552D01*
X62292231Y-99400552D02*
X62387469Y-99352933D01*
X61958898Y-99019600D02*
X62054136Y-99067219D01*
X62054136Y-99067219D02*
X62244612Y-99067219D01*
X62244612Y-99067219D02*
X62339850Y-99019600D01*
X62339850Y-99019600D02*
X62387469Y-98971980D01*
X62387469Y-98971980D02*
X62435088Y-98876742D01*
X62435088Y-98876742D02*
X62435088Y-98591028D01*
X62435088Y-98591028D02*
X62387469Y-98495790D01*
X62387469Y-98495790D02*
X62339850Y-98448171D01*
X62339850Y-98448171D02*
X62244612Y-98400552D01*
X62244612Y-98400552D02*
X62054136Y-98400552D01*
X62054136Y-98400552D02*
X61958898Y-98448171D01*
X61482707Y-98400552D02*
X61482707Y-99067219D01*
X61482707Y-98495790D02*
X61435088Y-98448171D01*
X61435088Y-98448171D02*
X61339850Y-98400552D01*
X61339850Y-98400552D02*
X61196993Y-98400552D01*
X61196993Y-98400552D02*
X61101755Y-98448171D01*
X61101755Y-98448171D02*
X61054136Y-98543409D01*
X61054136Y-98543409D02*
X61054136Y-99067219D01*
X60196993Y-99019600D02*
X60292231Y-99067219D01*
X60292231Y-99067219D02*
X60482707Y-99067219D01*
X60482707Y-99067219D02*
X60577945Y-99019600D01*
X60577945Y-99019600D02*
X60625564Y-98924361D01*
X60625564Y-98924361D02*
X60625564Y-98543409D01*
X60625564Y-98543409D02*
X60577945Y-98448171D01*
X60577945Y-98448171D02*
X60482707Y-98400552D01*
X60482707Y-98400552D02*
X60292231Y-98400552D01*
X60292231Y-98400552D02*
X60196993Y-98448171D01*
X60196993Y-98448171D02*
X60149374Y-98543409D01*
X60149374Y-98543409D02*
X60149374Y-98638647D01*
X60149374Y-98638647D02*
X60625564Y-98733885D01*
X59292231Y-99067219D02*
X59292231Y-98067219D01*
X59292231Y-99019600D02*
X59387469Y-99067219D01*
X59387469Y-99067219D02*
X59577945Y-99067219D01*
X59577945Y-99067219D02*
X59673183Y-99019600D01*
X59673183Y-99019600D02*
X59720802Y-98971980D01*
X59720802Y-98971980D02*
X59768421Y-98876742D01*
X59768421Y-98876742D02*
X59768421Y-98591028D01*
X59768421Y-98591028D02*
X59720802Y-98495790D01*
X59720802Y-98495790D02*
X59673183Y-98448171D01*
X59673183Y-98448171D02*
X59577945Y-98400552D01*
X59577945Y-98400552D02*
X59387469Y-98400552D01*
X59387469Y-98400552D02*
X59292231Y-98448171D01*
X58054135Y-99067219D02*
X58054135Y-98067219D01*
X58054135Y-98448171D02*
X57958897Y-98400552D01*
X57958897Y-98400552D02*
X57768421Y-98400552D01*
X57768421Y-98400552D02*
X57673183Y-98448171D01*
X57673183Y-98448171D02*
X57625564Y-98495790D01*
X57625564Y-98495790D02*
X57577945Y-98591028D01*
X57577945Y-98591028D02*
X57577945Y-98876742D01*
X57577945Y-98876742D02*
X57625564Y-98971980D01*
X57625564Y-98971980D02*
X57673183Y-99019600D01*
X57673183Y-99019600D02*
X57768421Y-99067219D01*
X57768421Y-99067219D02*
X57958897Y-99067219D01*
X57958897Y-99067219D02*
X58054135Y-99019600D01*
X57244611Y-98400552D02*
X57006516Y-99067219D01*
X56768421Y-98400552D02*
X57006516Y-99067219D01*
X57006516Y-99067219D02*
X57101754Y-99305314D01*
X57101754Y-99305314D02*
X57149373Y-99352933D01*
X57149373Y-99352933D02*
X57244611Y-99400552D01*
X55339849Y-98067219D02*
X55339849Y-98781504D01*
X55339849Y-98781504D02*
X55387468Y-98924361D01*
X55387468Y-98924361D02*
X55482706Y-99019600D01*
X55482706Y-99019600D02*
X55625563Y-99067219D01*
X55625563Y-99067219D02*
X55720801Y-99067219D01*
X54435087Y-98400552D02*
X54435087Y-99067219D01*
X54863658Y-98400552D02*
X54863658Y-98924361D01*
X54863658Y-98924361D02*
X54816039Y-99019600D01*
X54816039Y-99019600D02*
X54720801Y-99067219D01*
X54720801Y-99067219D02*
X54577944Y-99067219D01*
X54577944Y-99067219D02*
X54482706Y-99019600D01*
X54482706Y-99019600D02*
X54435087Y-98971980D01*
X53816039Y-99067219D02*
X53911277Y-99019600D01*
X53911277Y-99019600D02*
X53958896Y-98924361D01*
X53958896Y-98924361D02*
X53958896Y-98067219D01*
X53435086Y-99067219D02*
X53435086Y-98400552D01*
X53435086Y-98067219D02*
X53482705Y-98114838D01*
X53482705Y-98114838D02*
X53435086Y-98162457D01*
X53435086Y-98162457D02*
X53387467Y-98114838D01*
X53387467Y-98114838D02*
X53435086Y-98067219D01*
X53435086Y-98067219D02*
X53435086Y-98162457D01*
X52530325Y-99067219D02*
X52530325Y-98543409D01*
X52530325Y-98543409D02*
X52577944Y-98448171D01*
X52577944Y-98448171D02*
X52673182Y-98400552D01*
X52673182Y-98400552D02*
X52863658Y-98400552D01*
X52863658Y-98400552D02*
X52958896Y-98448171D01*
X52530325Y-99019600D02*
X52625563Y-99067219D01*
X52625563Y-99067219D02*
X52863658Y-99067219D01*
X52863658Y-99067219D02*
X52958896Y-99019600D01*
X52958896Y-99019600D02*
X53006515Y-98924361D01*
X53006515Y-98924361D02*
X53006515Y-98829123D01*
X53006515Y-98829123D02*
X52958896Y-98733885D01*
X52958896Y-98733885D02*
X52863658Y-98686266D01*
X52863658Y-98686266D02*
X52625563Y-98686266D01*
X52625563Y-98686266D02*
X52530325Y-98638647D01*
X52054134Y-98400552D02*
X52054134Y-99067219D01*
X52054134Y-98495790D02*
X52006515Y-98448171D01*
X52006515Y-98448171D02*
X51911277Y-98400552D01*
X51911277Y-98400552D02*
X51768420Y-98400552D01*
X51768420Y-98400552D02*
X51673182Y-98448171D01*
X51673182Y-98448171D02*
X51625563Y-98543409D01*
X51625563Y-98543409D02*
X51625563Y-99067219D01*
X49958896Y-99067219D02*
X49958896Y-98543409D01*
X49958896Y-98543409D02*
X50006515Y-98448171D01*
X50006515Y-98448171D02*
X50101753Y-98400552D01*
X50101753Y-98400552D02*
X50292229Y-98400552D01*
X50292229Y-98400552D02*
X50387467Y-98448171D01*
X49958896Y-99019600D02*
X50054134Y-99067219D01*
X50054134Y-99067219D02*
X50292229Y-99067219D01*
X50292229Y-99067219D02*
X50387467Y-99019600D01*
X50387467Y-99019600D02*
X50435086Y-98924361D01*
X50435086Y-98924361D02*
X50435086Y-98829123D01*
X50435086Y-98829123D02*
X50387467Y-98733885D01*
X50387467Y-98733885D02*
X50292229Y-98686266D01*
X50292229Y-98686266D02*
X50054134Y-98686266D01*
X50054134Y-98686266D02*
X49958896Y-98638647D01*
X49482705Y-98400552D02*
X49482705Y-99067219D01*
X49482705Y-98495790D02*
X49435086Y-98448171D01*
X49435086Y-98448171D02*
X49339848Y-98400552D01*
X49339848Y-98400552D02*
X49196991Y-98400552D01*
X49196991Y-98400552D02*
X49101753Y-98448171D01*
X49101753Y-98448171D02*
X49054134Y-98543409D01*
X49054134Y-98543409D02*
X49054134Y-99067219D01*
X48149372Y-99067219D02*
X48149372Y-98067219D01*
X48149372Y-99019600D02*
X48244610Y-99067219D01*
X48244610Y-99067219D02*
X48435086Y-99067219D01*
X48435086Y-99067219D02*
X48530324Y-99019600D01*
X48530324Y-99019600D02*
X48577943Y-98971980D01*
X48577943Y-98971980D02*
X48625562Y-98876742D01*
X48625562Y-98876742D02*
X48625562Y-98591028D01*
X48625562Y-98591028D02*
X48577943Y-98495790D01*
X48577943Y-98495790D02*
X48530324Y-98448171D01*
X48530324Y-98448171D02*
X48435086Y-98400552D01*
X48435086Y-98400552D02*
X48244610Y-98400552D01*
X48244610Y-98400552D02*
X48149372Y-98448171D01*
X46958895Y-98781504D02*
X46482705Y-98781504D01*
X47054133Y-99067219D02*
X46720800Y-98067219D01*
X46720800Y-98067219D02*
X46387467Y-99067219D01*
X46054133Y-99067219D02*
X46054133Y-98067219D01*
X45625562Y-99067219D02*
X45625562Y-98543409D01*
X45625562Y-98543409D02*
X45673181Y-98448171D01*
X45673181Y-98448171D02*
X45768419Y-98400552D01*
X45768419Y-98400552D02*
X45911276Y-98400552D01*
X45911276Y-98400552D02*
X46006514Y-98448171D01*
X46006514Y-98448171D02*
X46054133Y-98495790D01*
X45149371Y-99067219D02*
X45149371Y-98400552D01*
X45149371Y-98495790D02*
X45101752Y-98448171D01*
X45101752Y-98448171D02*
X45006514Y-98400552D01*
X45006514Y-98400552D02*
X44863657Y-98400552D01*
X44863657Y-98400552D02*
X44768419Y-98448171D01*
X44768419Y-98448171D02*
X44720800Y-98543409D01*
X44720800Y-98543409D02*
X44720800Y-99067219D01*
X44720800Y-98543409D02*
X44673181Y-98448171D01*
X44673181Y-98448171D02*
X44577943Y-98400552D01*
X44577943Y-98400552D02*
X44435086Y-98400552D01*
X44435086Y-98400552D02*
X44339847Y-98448171D01*
X44339847Y-98448171D02*
X44292228Y-98543409D01*
X44292228Y-98543409D02*
X44292228Y-99067219D01*
X43387467Y-99067219D02*
X43387467Y-98543409D01*
X43387467Y-98543409D02*
X43435086Y-98448171D01*
X43435086Y-98448171D02*
X43530324Y-98400552D01*
X43530324Y-98400552D02*
X43720800Y-98400552D01*
X43720800Y-98400552D02*
X43816038Y-98448171D01*
X43387467Y-99019600D02*
X43482705Y-99067219D01*
X43482705Y-99067219D02*
X43720800Y-99067219D01*
X43720800Y-99067219D02*
X43816038Y-99019600D01*
X43816038Y-99019600D02*
X43863657Y-98924361D01*
X43863657Y-98924361D02*
X43863657Y-98829123D01*
X43863657Y-98829123D02*
X43816038Y-98733885D01*
X43816038Y-98733885D02*
X43720800Y-98686266D01*
X43720800Y-98686266D02*
X43482705Y-98686266D01*
X43482705Y-98686266D02*
X43387467Y-98638647D01*
X42482705Y-99067219D02*
X42482705Y-98067219D01*
X42482705Y-99019600D02*
X42577943Y-99067219D01*
X42577943Y-99067219D02*
X42768419Y-99067219D01*
X42768419Y-99067219D02*
X42863657Y-99019600D01*
X42863657Y-99019600D02*
X42911276Y-98971980D01*
X42911276Y-98971980D02*
X42958895Y-98876742D01*
X42958895Y-98876742D02*
X42958895Y-98591028D01*
X42958895Y-98591028D02*
X42911276Y-98495790D01*
X42911276Y-98495790D02*
X42863657Y-98448171D01*
X42863657Y-98448171D02*
X42768419Y-98400552D01*
X42768419Y-98400552D02*
X42577943Y-98400552D01*
X42577943Y-98400552D02*
X42482705Y-98448171D01*
D11*
X68924687Y-63972419D02*
X69258020Y-63496228D01*
X69496115Y-63972419D02*
X69496115Y-62972419D01*
X69496115Y-62972419D02*
X69115163Y-62972419D01*
X69115163Y-62972419D02*
X69019925Y-63020038D01*
X69019925Y-63020038D02*
X68972306Y-63067657D01*
X68972306Y-63067657D02*
X68924687Y-63162895D01*
X68924687Y-63162895D02*
X68924687Y-63305752D01*
X68924687Y-63305752D02*
X68972306Y-63400990D01*
X68972306Y-63400990D02*
X69019925Y-63448609D01*
X69019925Y-63448609D02*
X69115163Y-63496228D01*
X69115163Y-63496228D02*
X69496115Y-63496228D01*
X68496115Y-63448609D02*
X68162782Y-63448609D01*
X68019925Y-63972419D02*
X68496115Y-63972419D01*
X68496115Y-63972419D02*
X68496115Y-62972419D01*
X68496115Y-62972419D02*
X68019925Y-62972419D01*
X67638972Y-63924800D02*
X67496115Y-63972419D01*
X67496115Y-63972419D02*
X67258020Y-63972419D01*
X67258020Y-63972419D02*
X67162782Y-63924800D01*
X67162782Y-63924800D02*
X67115163Y-63877180D01*
X67115163Y-63877180D02*
X67067544Y-63781942D01*
X67067544Y-63781942D02*
X67067544Y-63686704D01*
X67067544Y-63686704D02*
X67115163Y-63591466D01*
X67115163Y-63591466D02*
X67162782Y-63543847D01*
X67162782Y-63543847D02*
X67258020Y-63496228D01*
X67258020Y-63496228D02*
X67448496Y-63448609D01*
X67448496Y-63448609D02*
X67543734Y-63400990D01*
X67543734Y-63400990D02*
X67591353Y-63353371D01*
X67591353Y-63353371D02*
X67638972Y-63258133D01*
X67638972Y-63258133D02*
X67638972Y-63162895D01*
X67638972Y-63162895D02*
X67591353Y-63067657D01*
X67591353Y-63067657D02*
X67543734Y-63020038D01*
X67543734Y-63020038D02*
X67448496Y-62972419D01*
X67448496Y-62972419D02*
X67210401Y-62972419D01*
X67210401Y-62972419D02*
X67067544Y-63020038D01*
X66638972Y-63448609D02*
X66305639Y-63448609D01*
X66162782Y-63972419D02*
X66638972Y-63972419D01*
X66638972Y-63972419D02*
X66638972Y-62972419D01*
X66638972Y-62972419D02*
X66162782Y-62972419D01*
X65877067Y-62972419D02*
X65305639Y-62972419D01*
X65591353Y-63972419D02*
X65591353Y-62972419D01*
X68762782Y-67048609D02*
X68619925Y-67096228D01*
X68619925Y-67096228D02*
X68572306Y-67143847D01*
X68572306Y-67143847D02*
X68524687Y-67239085D01*
X68524687Y-67239085D02*
X68524687Y-67381942D01*
X68524687Y-67381942D02*
X68572306Y-67477180D01*
X68572306Y-67477180D02*
X68619925Y-67524800D01*
X68619925Y-67524800D02*
X68715163Y-67572419D01*
X68715163Y-67572419D02*
X69096115Y-67572419D01*
X69096115Y-67572419D02*
X69096115Y-66572419D01*
X69096115Y-66572419D02*
X68762782Y-66572419D01*
X68762782Y-66572419D02*
X68667544Y-66620038D01*
X68667544Y-66620038D02*
X68619925Y-66667657D01*
X68619925Y-66667657D02*
X68572306Y-66762895D01*
X68572306Y-66762895D02*
X68572306Y-66858133D01*
X68572306Y-66858133D02*
X68619925Y-66953371D01*
X68619925Y-66953371D02*
X68667544Y-67000990D01*
X68667544Y-67000990D02*
X68762782Y-67048609D01*
X68762782Y-67048609D02*
X69096115Y-67048609D01*
X67905639Y-66572419D02*
X67715163Y-66572419D01*
X67715163Y-66572419D02*
X67619925Y-66620038D01*
X67619925Y-66620038D02*
X67524687Y-66715276D01*
X67524687Y-66715276D02*
X67477068Y-66905752D01*
X67477068Y-66905752D02*
X67477068Y-67239085D01*
X67477068Y-67239085D02*
X67524687Y-67429561D01*
X67524687Y-67429561D02*
X67619925Y-67524800D01*
X67619925Y-67524800D02*
X67715163Y-67572419D01*
X67715163Y-67572419D02*
X67905639Y-67572419D01*
X67905639Y-67572419D02*
X68000877Y-67524800D01*
X68000877Y-67524800D02*
X68096115Y-67429561D01*
X68096115Y-67429561D02*
X68143734Y-67239085D01*
X68143734Y-67239085D02*
X68143734Y-66905752D01*
X68143734Y-66905752D02*
X68096115Y-66715276D01*
X68096115Y-66715276D02*
X68000877Y-66620038D01*
X68000877Y-66620038D02*
X67905639Y-66572419D01*
X66858020Y-66572419D02*
X66667544Y-66572419D01*
X66667544Y-66572419D02*
X66572306Y-66620038D01*
X66572306Y-66620038D02*
X66477068Y-66715276D01*
X66477068Y-66715276D02*
X66429449Y-66905752D01*
X66429449Y-66905752D02*
X66429449Y-67239085D01*
X66429449Y-67239085D02*
X66477068Y-67429561D01*
X66477068Y-67429561D02*
X66572306Y-67524800D01*
X66572306Y-67524800D02*
X66667544Y-67572419D01*
X66667544Y-67572419D02*
X66858020Y-67572419D01*
X66858020Y-67572419D02*
X66953258Y-67524800D01*
X66953258Y-67524800D02*
X67048496Y-67429561D01*
X67048496Y-67429561D02*
X67096115Y-67239085D01*
X67096115Y-67239085D02*
X67096115Y-66905752D01*
X67096115Y-66905752D02*
X67048496Y-66715276D01*
X67048496Y-66715276D02*
X66953258Y-66620038D01*
X66953258Y-66620038D02*
X66858020Y-66572419D01*
X66143734Y-66572419D02*
X65572306Y-66572419D01*
X65858020Y-67572419D02*
X65858020Y-66572419D01*
D12*
X40692857Y-64054819D02*
X41026190Y-63578628D01*
X41264285Y-64054819D02*
X41264285Y-63054819D01*
X41264285Y-63054819D02*
X40883333Y-63054819D01*
X40883333Y-63054819D02*
X40788095Y-63102438D01*
X40788095Y-63102438D02*
X40740476Y-63150057D01*
X40740476Y-63150057D02*
X40692857Y-63245295D01*
X40692857Y-63245295D02*
X40692857Y-63388152D01*
X40692857Y-63388152D02*
X40740476Y-63483390D01*
X40740476Y-63483390D02*
X40788095Y-63531009D01*
X40788095Y-63531009D02*
X40883333Y-63578628D01*
X40883333Y-63578628D02*
X41264285Y-63578628D01*
X39740476Y-64054819D02*
X40311904Y-64054819D01*
X40026190Y-64054819D02*
X40026190Y-63054819D01*
X40026190Y-63054819D02*
X40121428Y-63197676D01*
X40121428Y-63197676D02*
X40216666Y-63292914D01*
X40216666Y-63292914D02*
X40311904Y-63340533D01*
X39407142Y-63054819D02*
X38788095Y-63054819D01*
X38788095Y-63054819D02*
X39121428Y-63435771D01*
X39121428Y-63435771D02*
X38978571Y-63435771D01*
X38978571Y-63435771D02*
X38883333Y-63483390D01*
X38883333Y-63483390D02*
X38835714Y-63531009D01*
X38835714Y-63531009D02*
X38788095Y-63626247D01*
X38788095Y-63626247D02*
X38788095Y-63864342D01*
X38788095Y-63864342D02*
X38835714Y-63959580D01*
X38835714Y-63959580D02*
X38883333Y-64007200D01*
X38883333Y-64007200D02*
X38978571Y-64054819D01*
X38978571Y-64054819D02*
X39264285Y-64054819D01*
X39264285Y-64054819D02*
X39359523Y-64007200D01*
X39359523Y-64007200D02*
X39407142Y-63959580D01*
X60095238Y-70800057D02*
X60190476Y-70752438D01*
X60190476Y-70752438D02*
X60285714Y-70657200D01*
X60285714Y-70657200D02*
X60428571Y-70514342D01*
X60428571Y-70514342D02*
X60523809Y-70466723D01*
X60523809Y-70466723D02*
X60619047Y-70466723D01*
X60571428Y-70704819D02*
X60666666Y-70657200D01*
X60666666Y-70657200D02*
X60761904Y-70561961D01*
X60761904Y-70561961D02*
X60809523Y-70371485D01*
X60809523Y-70371485D02*
X60809523Y-70038152D01*
X60809523Y-70038152D02*
X60761904Y-69847676D01*
X60761904Y-69847676D02*
X60666666Y-69752438D01*
X60666666Y-69752438D02*
X60571428Y-69704819D01*
X60571428Y-69704819D02*
X60380952Y-69704819D01*
X60380952Y-69704819D02*
X60285714Y-69752438D01*
X60285714Y-69752438D02*
X60190476Y-69847676D01*
X60190476Y-69847676D02*
X60142857Y-70038152D01*
X60142857Y-70038152D02*
X60142857Y-70371485D01*
X60142857Y-70371485D02*
X60190476Y-70561961D01*
X60190476Y-70561961D02*
X60285714Y-70657200D01*
X60285714Y-70657200D02*
X60380952Y-70704819D01*
X60380952Y-70704819D02*
X60571428Y-70704819D01*
X59809523Y-69704819D02*
X59190476Y-69704819D01*
X59190476Y-69704819D02*
X59523809Y-70085771D01*
X59523809Y-70085771D02*
X59380952Y-70085771D01*
X59380952Y-70085771D02*
X59285714Y-70133390D01*
X59285714Y-70133390D02*
X59238095Y-70181009D01*
X59238095Y-70181009D02*
X59190476Y-70276247D01*
X59190476Y-70276247D02*
X59190476Y-70514342D01*
X59190476Y-70514342D02*
X59238095Y-70609580D01*
X59238095Y-70609580D02*
X59285714Y-70657200D01*
X59285714Y-70657200D02*
X59380952Y-70704819D01*
X59380952Y-70704819D02*
X59666666Y-70704819D01*
X59666666Y-70704819D02*
X59761904Y-70657200D01*
X59761904Y-70657200D02*
X59809523Y-70609580D01*
X57611904Y-77354819D02*
X57611904Y-78164342D01*
X57611904Y-78164342D02*
X57564285Y-78259580D01*
X57564285Y-78259580D02*
X57516666Y-78307200D01*
X57516666Y-78307200D02*
X57421428Y-78354819D01*
X57421428Y-78354819D02*
X57230952Y-78354819D01*
X57230952Y-78354819D02*
X57135714Y-78307200D01*
X57135714Y-78307200D02*
X57088095Y-78259580D01*
X57088095Y-78259580D02*
X57040476Y-78164342D01*
X57040476Y-78164342D02*
X57040476Y-77354819D01*
X56516666Y-78354819D02*
X56326190Y-78354819D01*
X56326190Y-78354819D02*
X56230952Y-78307200D01*
X56230952Y-78307200D02*
X56183333Y-78259580D01*
X56183333Y-78259580D02*
X56088095Y-78116723D01*
X56088095Y-78116723D02*
X56040476Y-77926247D01*
X56040476Y-77926247D02*
X56040476Y-77545295D01*
X56040476Y-77545295D02*
X56088095Y-77450057D01*
X56088095Y-77450057D02*
X56135714Y-77402438D01*
X56135714Y-77402438D02*
X56230952Y-77354819D01*
X56230952Y-77354819D02*
X56421428Y-77354819D01*
X56421428Y-77354819D02*
X56516666Y-77402438D01*
X56516666Y-77402438D02*
X56564285Y-77450057D01*
X56564285Y-77450057D02*
X56611904Y-77545295D01*
X56611904Y-77545295D02*
X56611904Y-77783390D01*
X56611904Y-77783390D02*
X56564285Y-77878628D01*
X56564285Y-77878628D02*
X56516666Y-77926247D01*
X56516666Y-77926247D02*
X56421428Y-77973866D01*
X56421428Y-77973866D02*
X56230952Y-77973866D01*
X56230952Y-77973866D02*
X56135714Y-77926247D01*
X56135714Y-77926247D02*
X56088095Y-77878628D01*
X56088095Y-77878628D02*
X56040476Y-77783390D01*
X46859580Y-77057142D02*
X46907200Y-77009523D01*
X46907200Y-77009523D02*
X46954819Y-76866666D01*
X46954819Y-76866666D02*
X46954819Y-76771428D01*
X46954819Y-76771428D02*
X46907200Y-76628571D01*
X46907200Y-76628571D02*
X46811961Y-76533333D01*
X46811961Y-76533333D02*
X46716723Y-76485714D01*
X46716723Y-76485714D02*
X46526247Y-76438095D01*
X46526247Y-76438095D02*
X46383390Y-76438095D01*
X46383390Y-76438095D02*
X46192914Y-76485714D01*
X46192914Y-76485714D02*
X46097676Y-76533333D01*
X46097676Y-76533333D02*
X46002438Y-76628571D01*
X46002438Y-76628571D02*
X45954819Y-76771428D01*
X45954819Y-76771428D02*
X45954819Y-76866666D01*
X45954819Y-76866666D02*
X46002438Y-77009523D01*
X46002438Y-77009523D02*
X46050057Y-77057142D01*
X46954819Y-78009523D02*
X46954819Y-77438095D01*
X46954819Y-77723809D02*
X45954819Y-77723809D01*
X45954819Y-77723809D02*
X46097676Y-77628571D01*
X46097676Y-77628571D02*
X46192914Y-77533333D01*
X46192914Y-77533333D02*
X46240533Y-77438095D01*
X45954819Y-78628571D02*
X45954819Y-78723809D01*
X45954819Y-78723809D02*
X46002438Y-78819047D01*
X46002438Y-78819047D02*
X46050057Y-78866666D01*
X46050057Y-78866666D02*
X46145295Y-78914285D01*
X46145295Y-78914285D02*
X46335771Y-78961904D01*
X46335771Y-78961904D02*
X46573866Y-78961904D01*
X46573866Y-78961904D02*
X46764342Y-78914285D01*
X46764342Y-78914285D02*
X46859580Y-78866666D01*
X46859580Y-78866666D02*
X46907200Y-78819047D01*
X46907200Y-78819047D02*
X46954819Y-78723809D01*
X46954819Y-78723809D02*
X46954819Y-78628571D01*
X46954819Y-78628571D02*
X46907200Y-78533333D01*
X46907200Y-78533333D02*
X46859580Y-78485714D01*
X46859580Y-78485714D02*
X46764342Y-78438095D01*
X46764342Y-78438095D02*
X46573866Y-78390476D01*
X46573866Y-78390476D02*
X46335771Y-78390476D01*
X46335771Y-78390476D02*
X46145295Y-78438095D01*
X46145295Y-78438095D02*
X46050057Y-78485714D01*
X46050057Y-78485714D02*
X46002438Y-78533333D01*
X46002438Y-78533333D02*
X45954819Y-78628571D01*
X54246666Y-76459580D02*
X54294285Y-76507200D01*
X54294285Y-76507200D02*
X54437142Y-76554819D01*
X54437142Y-76554819D02*
X54532380Y-76554819D01*
X54532380Y-76554819D02*
X54675237Y-76507200D01*
X54675237Y-76507200D02*
X54770475Y-76411961D01*
X54770475Y-76411961D02*
X54818094Y-76316723D01*
X54818094Y-76316723D02*
X54865713Y-76126247D01*
X54865713Y-76126247D02*
X54865713Y-75983390D01*
X54865713Y-75983390D02*
X54818094Y-75792914D01*
X54818094Y-75792914D02*
X54770475Y-75697676D01*
X54770475Y-75697676D02*
X54675237Y-75602438D01*
X54675237Y-75602438D02*
X54532380Y-75554819D01*
X54532380Y-75554819D02*
X54437142Y-75554819D01*
X54437142Y-75554819D02*
X54294285Y-75602438D01*
X54294285Y-75602438D02*
X54246666Y-75650057D01*
X53770475Y-76554819D02*
X53579999Y-76554819D01*
X53579999Y-76554819D02*
X53484761Y-76507200D01*
X53484761Y-76507200D02*
X53437142Y-76459580D01*
X53437142Y-76459580D02*
X53341904Y-76316723D01*
X53341904Y-76316723D02*
X53294285Y-76126247D01*
X53294285Y-76126247D02*
X53294285Y-75745295D01*
X53294285Y-75745295D02*
X53341904Y-75650057D01*
X53341904Y-75650057D02*
X53389523Y-75602438D01*
X53389523Y-75602438D02*
X53484761Y-75554819D01*
X53484761Y-75554819D02*
X53675237Y-75554819D01*
X53675237Y-75554819D02*
X53770475Y-75602438D01*
X53770475Y-75602438D02*
X53818094Y-75650057D01*
X53818094Y-75650057D02*
X53865713Y-75745295D01*
X53865713Y-75745295D02*
X53865713Y-75983390D01*
X53865713Y-75983390D02*
X53818094Y-76078628D01*
X53818094Y-76078628D02*
X53770475Y-76126247D01*
X53770475Y-76126247D02*
X53675237Y-76173866D01*
X53675237Y-76173866D02*
X53484761Y-76173866D01*
X53484761Y-76173866D02*
X53389523Y-76126247D01*
X53389523Y-76126247D02*
X53341904Y-76078628D01*
X53341904Y-76078628D02*
X53294285Y-75983390D01*
X45459580Y-77157142D02*
X45507200Y-77109523D01*
X45507200Y-77109523D02*
X45554819Y-76966666D01*
X45554819Y-76966666D02*
X45554819Y-76871428D01*
X45554819Y-76871428D02*
X45507200Y-76728571D01*
X45507200Y-76728571D02*
X45411961Y-76633333D01*
X45411961Y-76633333D02*
X45316723Y-76585714D01*
X45316723Y-76585714D02*
X45126247Y-76538095D01*
X45126247Y-76538095D02*
X44983390Y-76538095D01*
X44983390Y-76538095D02*
X44792914Y-76585714D01*
X44792914Y-76585714D02*
X44697676Y-76633333D01*
X44697676Y-76633333D02*
X44602438Y-76728571D01*
X44602438Y-76728571D02*
X44554819Y-76871428D01*
X44554819Y-76871428D02*
X44554819Y-76966666D01*
X44554819Y-76966666D02*
X44602438Y-77109523D01*
X44602438Y-77109523D02*
X44650057Y-77157142D01*
X45554819Y-78109523D02*
X45554819Y-77538095D01*
X45554819Y-77823809D02*
X44554819Y-77823809D01*
X44554819Y-77823809D02*
X44697676Y-77728571D01*
X44697676Y-77728571D02*
X44792914Y-77633333D01*
X44792914Y-77633333D02*
X44840533Y-77538095D01*
X45554819Y-79061904D02*
X45554819Y-78490476D01*
X45554819Y-78776190D02*
X44554819Y-78776190D01*
X44554819Y-78776190D02*
X44697676Y-78680952D01*
X44697676Y-78680952D02*
X44792914Y-78585714D01*
X44792914Y-78585714D02*
X44840533Y-78490476D01*
X38642857Y-67234819D02*
X38976190Y-66758628D01*
X39214285Y-67234819D02*
X39214285Y-66234819D01*
X39214285Y-66234819D02*
X38833333Y-66234819D01*
X38833333Y-66234819D02*
X38738095Y-66282438D01*
X38738095Y-66282438D02*
X38690476Y-66330057D01*
X38690476Y-66330057D02*
X38642857Y-66425295D01*
X38642857Y-66425295D02*
X38642857Y-66568152D01*
X38642857Y-66568152D02*
X38690476Y-66663390D01*
X38690476Y-66663390D02*
X38738095Y-66711009D01*
X38738095Y-66711009D02*
X38833333Y-66758628D01*
X38833333Y-66758628D02*
X39214285Y-66758628D01*
X37690476Y-67234819D02*
X38261904Y-67234819D01*
X37976190Y-67234819D02*
X37976190Y-66234819D01*
X37976190Y-66234819D02*
X38071428Y-66377676D01*
X38071428Y-66377676D02*
X38166666Y-66472914D01*
X38166666Y-66472914D02*
X38261904Y-66520533D01*
X36785714Y-66234819D02*
X37261904Y-66234819D01*
X37261904Y-66234819D02*
X37309523Y-66711009D01*
X37309523Y-66711009D02*
X37261904Y-66663390D01*
X37261904Y-66663390D02*
X37166666Y-66615771D01*
X37166666Y-66615771D02*
X36928571Y-66615771D01*
X36928571Y-66615771D02*
X36833333Y-66663390D01*
X36833333Y-66663390D02*
X36785714Y-66711009D01*
X36785714Y-66711009D02*
X36738095Y-66806247D01*
X36738095Y-66806247D02*
X36738095Y-67044342D01*
X36738095Y-67044342D02*
X36785714Y-67139580D01*
X36785714Y-67139580D02*
X36833333Y-67187200D01*
X36833333Y-67187200D02*
X36928571Y-67234819D01*
X36928571Y-67234819D02*
X37166666Y-67234819D01*
X37166666Y-67234819D02*
X37261904Y-67187200D01*
X37261904Y-67187200D02*
X37309523Y-67139580D01*
X50218094Y-75784819D02*
X50218094Y-76594342D01*
X50218094Y-76594342D02*
X50170475Y-76689580D01*
X50170475Y-76689580D02*
X50122856Y-76737200D01*
X50122856Y-76737200D02*
X50027618Y-76784819D01*
X50027618Y-76784819D02*
X49837142Y-76784819D01*
X49837142Y-76784819D02*
X49741904Y-76737200D01*
X49741904Y-76737200D02*
X49694285Y-76689580D01*
X49694285Y-76689580D02*
X49646666Y-76594342D01*
X49646666Y-76594342D02*
X49646666Y-75784819D01*
X48646666Y-76784819D02*
X49218094Y-76784819D01*
X48932380Y-76784819D02*
X48932380Y-75784819D01*
X48932380Y-75784819D02*
X49027618Y-75927676D01*
X49027618Y-75927676D02*
X49122856Y-76022914D01*
X49122856Y-76022914D02*
X49218094Y-76070533D01*
X48027618Y-75784819D02*
X47932380Y-75784819D01*
X47932380Y-75784819D02*
X47837142Y-75832438D01*
X47837142Y-75832438D02*
X47789523Y-75880057D01*
X47789523Y-75880057D02*
X47741904Y-75975295D01*
X47741904Y-75975295D02*
X47694285Y-76165771D01*
X47694285Y-76165771D02*
X47694285Y-76403866D01*
X47694285Y-76403866D02*
X47741904Y-76594342D01*
X47741904Y-76594342D02*
X47789523Y-76689580D01*
X47789523Y-76689580D02*
X47837142Y-76737200D01*
X47837142Y-76737200D02*
X47932380Y-76784819D01*
X47932380Y-76784819D02*
X48027618Y-76784819D01*
X48027618Y-76784819D02*
X48122856Y-76737200D01*
X48122856Y-76737200D02*
X48170475Y-76689580D01*
X48170475Y-76689580D02*
X48218094Y-76594342D01*
X48218094Y-76594342D02*
X48265713Y-76403866D01*
X48265713Y-76403866D02*
X48265713Y-76165771D01*
X48265713Y-76165771D02*
X48218094Y-75975295D01*
X48218094Y-75975295D02*
X48170475Y-75880057D01*
X48170475Y-75880057D02*
X48122856Y-75832438D01*
X48122856Y-75832438D02*
X48027618Y-75784819D01*
X60554819Y-64733333D02*
X60078628Y-64400000D01*
X60554819Y-64161905D02*
X59554819Y-64161905D01*
X59554819Y-64161905D02*
X59554819Y-64542857D01*
X59554819Y-64542857D02*
X59602438Y-64638095D01*
X59602438Y-64638095D02*
X59650057Y-64685714D01*
X59650057Y-64685714D02*
X59745295Y-64733333D01*
X59745295Y-64733333D02*
X59888152Y-64733333D01*
X59888152Y-64733333D02*
X59983390Y-64685714D01*
X59983390Y-64685714D02*
X60031009Y-64638095D01*
X60031009Y-64638095D02*
X60078628Y-64542857D01*
X60078628Y-64542857D02*
X60078628Y-64161905D01*
X59554819Y-65066667D02*
X59554819Y-65685714D01*
X59554819Y-65685714D02*
X59935771Y-65352381D01*
X59935771Y-65352381D02*
X59935771Y-65495238D01*
X59935771Y-65495238D02*
X59983390Y-65590476D01*
X59983390Y-65590476D02*
X60031009Y-65638095D01*
X60031009Y-65638095D02*
X60126247Y-65685714D01*
X60126247Y-65685714D02*
X60364342Y-65685714D01*
X60364342Y-65685714D02*
X60459580Y-65638095D01*
X60459580Y-65638095D02*
X60507200Y-65590476D01*
X60507200Y-65590476D02*
X60554819Y-65495238D01*
X60554819Y-65495238D02*
X60554819Y-65209524D01*
X60554819Y-65209524D02*
X60507200Y-65114286D01*
X60507200Y-65114286D02*
X60459580Y-65066667D01*
D11*
X62490200Y-66833332D02*
X62442580Y-66690475D01*
X62442580Y-66690475D02*
X62442580Y-66452380D01*
X62442580Y-66452380D02*
X62490200Y-66357142D01*
X62490200Y-66357142D02*
X62537819Y-66309523D01*
X62537819Y-66309523D02*
X62633057Y-66261904D01*
X62633057Y-66261904D02*
X62728295Y-66261904D01*
X62728295Y-66261904D02*
X62823533Y-66309523D01*
X62823533Y-66309523D02*
X62871152Y-66357142D01*
X62871152Y-66357142D02*
X62918771Y-66452380D01*
X62918771Y-66452380D02*
X62966390Y-66642856D01*
X62966390Y-66642856D02*
X63014009Y-66738094D01*
X63014009Y-66738094D02*
X63061628Y-66785713D01*
X63061628Y-66785713D02*
X63156866Y-66833332D01*
X63156866Y-66833332D02*
X63252104Y-66833332D01*
X63252104Y-66833332D02*
X63347342Y-66785713D01*
X63347342Y-66785713D02*
X63394961Y-66738094D01*
X63394961Y-66738094D02*
X63442580Y-66642856D01*
X63442580Y-66642856D02*
X63442580Y-66404761D01*
X63442580Y-66404761D02*
X63394961Y-66261904D01*
X63442580Y-65928570D02*
X62442580Y-65690475D01*
X62442580Y-65690475D02*
X63156866Y-65499999D01*
X63156866Y-65499999D02*
X62442580Y-65309523D01*
X62442580Y-65309523D02*
X63442580Y-65071428D01*
X63347342Y-64738094D02*
X63394961Y-64690475D01*
X63394961Y-64690475D02*
X63442580Y-64595237D01*
X63442580Y-64595237D02*
X63442580Y-64357142D01*
X63442580Y-64357142D02*
X63394961Y-64261904D01*
X63394961Y-64261904D02*
X63347342Y-64214285D01*
X63347342Y-64214285D02*
X63252104Y-64166666D01*
X63252104Y-64166666D02*
X63156866Y-64166666D01*
X63156866Y-64166666D02*
X63014009Y-64214285D01*
X63014009Y-64214285D02*
X62442580Y-64785713D01*
X62442580Y-64785713D02*
X62442580Y-64166666D01*
D12*
X63854819Y-67933333D02*
X63378628Y-67600000D01*
X63854819Y-67361905D02*
X62854819Y-67361905D01*
X62854819Y-67361905D02*
X62854819Y-67742857D01*
X62854819Y-67742857D02*
X62902438Y-67838095D01*
X62902438Y-67838095D02*
X62950057Y-67885714D01*
X62950057Y-67885714D02*
X63045295Y-67933333D01*
X63045295Y-67933333D02*
X63188152Y-67933333D01*
X63188152Y-67933333D02*
X63283390Y-67885714D01*
X63283390Y-67885714D02*
X63331009Y-67838095D01*
X63331009Y-67838095D02*
X63378628Y-67742857D01*
X63378628Y-67742857D02*
X63378628Y-67361905D01*
X62854819Y-68838095D02*
X62854819Y-68361905D01*
X62854819Y-68361905D02*
X63331009Y-68314286D01*
X63331009Y-68314286D02*
X63283390Y-68361905D01*
X63283390Y-68361905D02*
X63235771Y-68457143D01*
X63235771Y-68457143D02*
X63235771Y-68695238D01*
X63235771Y-68695238D02*
X63283390Y-68790476D01*
X63283390Y-68790476D02*
X63331009Y-68838095D01*
X63331009Y-68838095D02*
X63426247Y-68885714D01*
X63426247Y-68885714D02*
X63664342Y-68885714D01*
X63664342Y-68885714D02*
X63759580Y-68838095D01*
X63759580Y-68838095D02*
X63807200Y-68790476D01*
X63807200Y-68790476D02*
X63854819Y-68695238D01*
X63854819Y-68695238D02*
X63854819Y-68457143D01*
X63854819Y-68457143D02*
X63807200Y-68361905D01*
X63807200Y-68361905D02*
X63759580Y-68314286D01*
X44022857Y-82559580D02*
X44070476Y-82607200D01*
X44070476Y-82607200D02*
X44213333Y-82654819D01*
X44213333Y-82654819D02*
X44308571Y-82654819D01*
X44308571Y-82654819D02*
X44451428Y-82607200D01*
X44451428Y-82607200D02*
X44546666Y-82511961D01*
X44546666Y-82511961D02*
X44594285Y-82416723D01*
X44594285Y-82416723D02*
X44641904Y-82226247D01*
X44641904Y-82226247D02*
X44641904Y-82083390D01*
X44641904Y-82083390D02*
X44594285Y-81892914D01*
X44594285Y-81892914D02*
X44546666Y-81797676D01*
X44546666Y-81797676D02*
X44451428Y-81702438D01*
X44451428Y-81702438D02*
X44308571Y-81654819D01*
X44308571Y-81654819D02*
X44213333Y-81654819D01*
X44213333Y-81654819D02*
X44070476Y-81702438D01*
X44070476Y-81702438D02*
X44022857Y-81750057D01*
X43070476Y-82654819D02*
X43641904Y-82654819D01*
X43356190Y-82654819D02*
X43356190Y-81654819D01*
X43356190Y-81654819D02*
X43451428Y-81797676D01*
X43451428Y-81797676D02*
X43546666Y-81892914D01*
X43546666Y-81892914D02*
X43641904Y-81940533D01*
X42689523Y-81750057D02*
X42641904Y-81702438D01*
X42641904Y-81702438D02*
X42546666Y-81654819D01*
X42546666Y-81654819D02*
X42308571Y-81654819D01*
X42308571Y-81654819D02*
X42213333Y-81702438D01*
X42213333Y-81702438D02*
X42165714Y-81750057D01*
X42165714Y-81750057D02*
X42118095Y-81845295D01*
X42118095Y-81845295D02*
X42118095Y-81940533D01*
X42118095Y-81940533D02*
X42165714Y-82083390D01*
X42165714Y-82083390D02*
X42737142Y-82654819D01*
X42737142Y-82654819D02*
X42118095Y-82654819D01*
X51266666Y-68759580D02*
X51314285Y-68807200D01*
X51314285Y-68807200D02*
X51457142Y-68854819D01*
X51457142Y-68854819D02*
X51552380Y-68854819D01*
X51552380Y-68854819D02*
X51695237Y-68807200D01*
X51695237Y-68807200D02*
X51790475Y-68711961D01*
X51790475Y-68711961D02*
X51838094Y-68616723D01*
X51838094Y-68616723D02*
X51885713Y-68426247D01*
X51885713Y-68426247D02*
X51885713Y-68283390D01*
X51885713Y-68283390D02*
X51838094Y-68092914D01*
X51838094Y-68092914D02*
X51790475Y-67997676D01*
X51790475Y-67997676D02*
X51695237Y-67902438D01*
X51695237Y-67902438D02*
X51552380Y-67854819D01*
X51552380Y-67854819D02*
X51457142Y-67854819D01*
X51457142Y-67854819D02*
X51314285Y-67902438D01*
X51314285Y-67902438D02*
X51266666Y-67950057D01*
X50933332Y-67854819D02*
X50314285Y-67854819D01*
X50314285Y-67854819D02*
X50647618Y-68235771D01*
X50647618Y-68235771D02*
X50504761Y-68235771D01*
X50504761Y-68235771D02*
X50409523Y-68283390D01*
X50409523Y-68283390D02*
X50361904Y-68331009D01*
X50361904Y-68331009D02*
X50314285Y-68426247D01*
X50314285Y-68426247D02*
X50314285Y-68664342D01*
X50314285Y-68664342D02*
X50361904Y-68759580D01*
X50361904Y-68759580D02*
X50409523Y-68807200D01*
X50409523Y-68807200D02*
X50504761Y-68854819D01*
X50504761Y-68854819D02*
X50790475Y-68854819D01*
X50790475Y-68854819D02*
X50885713Y-68807200D01*
X50885713Y-68807200D02*
X50933332Y-68759580D01*
X44042857Y-83859580D02*
X44090476Y-83907200D01*
X44090476Y-83907200D02*
X44233333Y-83954819D01*
X44233333Y-83954819D02*
X44328571Y-83954819D01*
X44328571Y-83954819D02*
X44471428Y-83907200D01*
X44471428Y-83907200D02*
X44566666Y-83811961D01*
X44566666Y-83811961D02*
X44614285Y-83716723D01*
X44614285Y-83716723D02*
X44661904Y-83526247D01*
X44661904Y-83526247D02*
X44661904Y-83383390D01*
X44661904Y-83383390D02*
X44614285Y-83192914D01*
X44614285Y-83192914D02*
X44566666Y-83097676D01*
X44566666Y-83097676D02*
X44471428Y-83002438D01*
X44471428Y-83002438D02*
X44328571Y-82954819D01*
X44328571Y-82954819D02*
X44233333Y-82954819D01*
X44233333Y-82954819D02*
X44090476Y-83002438D01*
X44090476Y-83002438D02*
X44042857Y-83050057D01*
X43090476Y-83954819D02*
X43661904Y-83954819D01*
X43376190Y-83954819D02*
X43376190Y-82954819D01*
X43376190Y-82954819D02*
X43471428Y-83097676D01*
X43471428Y-83097676D02*
X43566666Y-83192914D01*
X43566666Y-83192914D02*
X43661904Y-83240533D01*
X42757142Y-82954819D02*
X42138095Y-82954819D01*
X42138095Y-82954819D02*
X42471428Y-83335771D01*
X42471428Y-83335771D02*
X42328571Y-83335771D01*
X42328571Y-83335771D02*
X42233333Y-83383390D01*
X42233333Y-83383390D02*
X42185714Y-83431009D01*
X42185714Y-83431009D02*
X42138095Y-83526247D01*
X42138095Y-83526247D02*
X42138095Y-83764342D01*
X42138095Y-83764342D02*
X42185714Y-83859580D01*
X42185714Y-83859580D02*
X42233333Y-83907200D01*
X42233333Y-83907200D02*
X42328571Y-83954819D01*
X42328571Y-83954819D02*
X42614285Y-83954819D01*
X42614285Y-83954819D02*
X42709523Y-83907200D01*
X42709523Y-83907200D02*
X42757142Y-83859580D01*
X36833333Y-87154819D02*
X36833333Y-87869104D01*
X36833333Y-87869104D02*
X36880952Y-88011961D01*
X36880952Y-88011961D02*
X36976190Y-88107200D01*
X36976190Y-88107200D02*
X37119047Y-88154819D01*
X37119047Y-88154819D02*
X37214285Y-88154819D01*
X35880952Y-87154819D02*
X36357142Y-87154819D01*
X36357142Y-87154819D02*
X36404761Y-87631009D01*
X36404761Y-87631009D02*
X36357142Y-87583390D01*
X36357142Y-87583390D02*
X36261904Y-87535771D01*
X36261904Y-87535771D02*
X36023809Y-87535771D01*
X36023809Y-87535771D02*
X35928571Y-87583390D01*
X35928571Y-87583390D02*
X35880952Y-87631009D01*
X35880952Y-87631009D02*
X35833333Y-87726247D01*
X35833333Y-87726247D02*
X35833333Y-87964342D01*
X35833333Y-87964342D02*
X35880952Y-88059580D01*
X35880952Y-88059580D02*
X35928571Y-88107200D01*
X35928571Y-88107200D02*
X36023809Y-88154819D01*
X36023809Y-88154819D02*
X36261904Y-88154819D01*
X36261904Y-88154819D02*
X36357142Y-88107200D01*
X36357142Y-88107200D02*
X36404761Y-88059580D01*
X41833333Y-87154819D02*
X41833333Y-87869104D01*
X41833333Y-87869104D02*
X41880952Y-88011961D01*
X41880952Y-88011961D02*
X41976190Y-88107200D01*
X41976190Y-88107200D02*
X42119047Y-88154819D01*
X42119047Y-88154819D02*
X42214285Y-88154819D01*
X40833333Y-88154819D02*
X41404761Y-88154819D01*
X41119047Y-88154819D02*
X41119047Y-87154819D01*
X41119047Y-87154819D02*
X41214285Y-87297676D01*
X41214285Y-87297676D02*
X41309523Y-87392914D01*
X41309523Y-87392914D02*
X41404761Y-87440533D01*
D11*
X62490200Y-63333332D02*
X62442580Y-63190475D01*
X62442580Y-63190475D02*
X62442580Y-62952380D01*
X62442580Y-62952380D02*
X62490200Y-62857142D01*
X62490200Y-62857142D02*
X62537819Y-62809523D01*
X62537819Y-62809523D02*
X62633057Y-62761904D01*
X62633057Y-62761904D02*
X62728295Y-62761904D01*
X62728295Y-62761904D02*
X62823533Y-62809523D01*
X62823533Y-62809523D02*
X62871152Y-62857142D01*
X62871152Y-62857142D02*
X62918771Y-62952380D01*
X62918771Y-62952380D02*
X62966390Y-63142856D01*
X62966390Y-63142856D02*
X63014009Y-63238094D01*
X63014009Y-63238094D02*
X63061628Y-63285713D01*
X63061628Y-63285713D02*
X63156866Y-63333332D01*
X63156866Y-63333332D02*
X63252104Y-63333332D01*
X63252104Y-63333332D02*
X63347342Y-63285713D01*
X63347342Y-63285713D02*
X63394961Y-63238094D01*
X63394961Y-63238094D02*
X63442580Y-63142856D01*
X63442580Y-63142856D02*
X63442580Y-62904761D01*
X63442580Y-62904761D02*
X63394961Y-62761904D01*
X63442580Y-62428570D02*
X62442580Y-62190475D01*
X62442580Y-62190475D02*
X63156866Y-61999999D01*
X63156866Y-61999999D02*
X62442580Y-61809523D01*
X62442580Y-61809523D02*
X63442580Y-61571428D01*
X62442580Y-60666666D02*
X62442580Y-61238094D01*
X62442580Y-60952380D02*
X63442580Y-60952380D01*
X63442580Y-60952380D02*
X63299723Y-61047618D01*
X63299723Y-61047618D02*
X63204485Y-61142856D01*
X63204485Y-61142856D02*
X63156866Y-61238094D01*
D12*
X61842857Y-81159580D02*
X61890476Y-81207200D01*
X61890476Y-81207200D02*
X62033333Y-81254819D01*
X62033333Y-81254819D02*
X62128571Y-81254819D01*
X62128571Y-81254819D02*
X62271428Y-81207200D01*
X62271428Y-81207200D02*
X62366666Y-81111961D01*
X62366666Y-81111961D02*
X62414285Y-81016723D01*
X62414285Y-81016723D02*
X62461904Y-80826247D01*
X62461904Y-80826247D02*
X62461904Y-80683390D01*
X62461904Y-80683390D02*
X62414285Y-80492914D01*
X62414285Y-80492914D02*
X62366666Y-80397676D01*
X62366666Y-80397676D02*
X62271428Y-80302438D01*
X62271428Y-80302438D02*
X62128571Y-80254819D01*
X62128571Y-80254819D02*
X62033333Y-80254819D01*
X62033333Y-80254819D02*
X61890476Y-80302438D01*
X61890476Y-80302438D02*
X61842857Y-80350057D01*
X60890476Y-81254819D02*
X61461904Y-81254819D01*
X61176190Y-81254819D02*
X61176190Y-80254819D01*
X61176190Y-80254819D02*
X61271428Y-80397676D01*
X61271428Y-80397676D02*
X61366666Y-80492914D01*
X61366666Y-80492914D02*
X61461904Y-80540533D01*
X60414285Y-81254819D02*
X60223809Y-81254819D01*
X60223809Y-81254819D02*
X60128571Y-81207200D01*
X60128571Y-81207200D02*
X60080952Y-81159580D01*
X60080952Y-81159580D02*
X59985714Y-81016723D01*
X59985714Y-81016723D02*
X59938095Y-80826247D01*
X59938095Y-80826247D02*
X59938095Y-80445295D01*
X59938095Y-80445295D02*
X59985714Y-80350057D01*
X59985714Y-80350057D02*
X60033333Y-80302438D01*
X60033333Y-80302438D02*
X60128571Y-80254819D01*
X60128571Y-80254819D02*
X60319047Y-80254819D01*
X60319047Y-80254819D02*
X60414285Y-80302438D01*
X60414285Y-80302438D02*
X60461904Y-80350057D01*
X60461904Y-80350057D02*
X60509523Y-80445295D01*
X60509523Y-80445295D02*
X60509523Y-80683390D01*
X60509523Y-80683390D02*
X60461904Y-80778628D01*
X60461904Y-80778628D02*
X60414285Y-80826247D01*
X60414285Y-80826247D02*
X60319047Y-80873866D01*
X60319047Y-80873866D02*
X60128571Y-80873866D01*
X60128571Y-80873866D02*
X60033333Y-80826247D01*
X60033333Y-80826247D02*
X59985714Y-80778628D01*
X59985714Y-80778628D02*
X59938095Y-80683390D01*
X43436904Y-74654819D02*
X43436904Y-75464342D01*
X43436904Y-75464342D02*
X43389285Y-75559580D01*
X43389285Y-75559580D02*
X43341666Y-75607200D01*
X43341666Y-75607200D02*
X43246428Y-75654819D01*
X43246428Y-75654819D02*
X43055952Y-75654819D01*
X43055952Y-75654819D02*
X42960714Y-75607200D01*
X42960714Y-75607200D02*
X42913095Y-75559580D01*
X42913095Y-75559580D02*
X42865476Y-75464342D01*
X42865476Y-75464342D02*
X42865476Y-74654819D01*
X41865476Y-75654819D02*
X42436904Y-75654819D01*
X42151190Y-75654819D02*
X42151190Y-74654819D01*
X42151190Y-74654819D02*
X42246428Y-74797676D01*
X42246428Y-74797676D02*
X42341666Y-74892914D01*
X42341666Y-74892914D02*
X42436904Y-74940533D01*
X55942857Y-67154819D02*
X56276190Y-66678628D01*
X56514285Y-67154819D02*
X56514285Y-66154819D01*
X56514285Y-66154819D02*
X56133333Y-66154819D01*
X56133333Y-66154819D02*
X56038095Y-66202438D01*
X56038095Y-66202438D02*
X55990476Y-66250057D01*
X55990476Y-66250057D02*
X55942857Y-66345295D01*
X55942857Y-66345295D02*
X55942857Y-66488152D01*
X55942857Y-66488152D02*
X55990476Y-66583390D01*
X55990476Y-66583390D02*
X56038095Y-66631009D01*
X56038095Y-66631009D02*
X56133333Y-66678628D01*
X56133333Y-66678628D02*
X56514285Y-66678628D01*
X54990476Y-67154819D02*
X55561904Y-67154819D01*
X55276190Y-67154819D02*
X55276190Y-66154819D01*
X55276190Y-66154819D02*
X55371428Y-66297676D01*
X55371428Y-66297676D02*
X55466666Y-66392914D01*
X55466666Y-66392914D02*
X55561904Y-66440533D01*
X54133333Y-66488152D02*
X54133333Y-67154819D01*
X54371428Y-66107200D02*
X54609523Y-66821485D01*
X54609523Y-66821485D02*
X53990476Y-66821485D01*
X35519580Y-67313333D02*
X35567200Y-67265714D01*
X35567200Y-67265714D02*
X35614819Y-67122857D01*
X35614819Y-67122857D02*
X35614819Y-67027619D01*
X35614819Y-67027619D02*
X35567200Y-66884762D01*
X35567200Y-66884762D02*
X35471961Y-66789524D01*
X35471961Y-66789524D02*
X35376723Y-66741905D01*
X35376723Y-66741905D02*
X35186247Y-66694286D01*
X35186247Y-66694286D02*
X35043390Y-66694286D01*
X35043390Y-66694286D02*
X34852914Y-66741905D01*
X34852914Y-66741905D02*
X34757676Y-66789524D01*
X34757676Y-66789524D02*
X34662438Y-66884762D01*
X34662438Y-66884762D02*
X34614819Y-67027619D01*
X34614819Y-67027619D02*
X34614819Y-67122857D01*
X34614819Y-67122857D02*
X34662438Y-67265714D01*
X34662438Y-67265714D02*
X34710057Y-67313333D01*
X34614819Y-68170476D02*
X34614819Y-67980000D01*
X34614819Y-67980000D02*
X34662438Y-67884762D01*
X34662438Y-67884762D02*
X34710057Y-67837143D01*
X34710057Y-67837143D02*
X34852914Y-67741905D01*
X34852914Y-67741905D02*
X35043390Y-67694286D01*
X35043390Y-67694286D02*
X35424342Y-67694286D01*
X35424342Y-67694286D02*
X35519580Y-67741905D01*
X35519580Y-67741905D02*
X35567200Y-67789524D01*
X35567200Y-67789524D02*
X35614819Y-67884762D01*
X35614819Y-67884762D02*
X35614819Y-68075238D01*
X35614819Y-68075238D02*
X35567200Y-68170476D01*
X35567200Y-68170476D02*
X35519580Y-68218095D01*
X35519580Y-68218095D02*
X35424342Y-68265714D01*
X35424342Y-68265714D02*
X35186247Y-68265714D01*
X35186247Y-68265714D02*
X35091009Y-68218095D01*
X35091009Y-68218095D02*
X35043390Y-68170476D01*
X35043390Y-68170476D02*
X34995771Y-68075238D01*
X34995771Y-68075238D02*
X34995771Y-67884762D01*
X34995771Y-67884762D02*
X35043390Y-67789524D01*
X35043390Y-67789524D02*
X35091009Y-67741905D01*
X35091009Y-67741905D02*
X35186247Y-67694286D01*
X56642857Y-65654819D02*
X56976190Y-65178628D01*
X57214285Y-65654819D02*
X57214285Y-64654819D01*
X57214285Y-64654819D02*
X56833333Y-64654819D01*
X56833333Y-64654819D02*
X56738095Y-64702438D01*
X56738095Y-64702438D02*
X56690476Y-64750057D01*
X56690476Y-64750057D02*
X56642857Y-64845295D01*
X56642857Y-64845295D02*
X56642857Y-64988152D01*
X56642857Y-64988152D02*
X56690476Y-65083390D01*
X56690476Y-65083390D02*
X56738095Y-65131009D01*
X56738095Y-65131009D02*
X56833333Y-65178628D01*
X56833333Y-65178628D02*
X57214285Y-65178628D01*
X55690476Y-65654819D02*
X56261904Y-65654819D01*
X55976190Y-65654819D02*
X55976190Y-64654819D01*
X55976190Y-64654819D02*
X56071428Y-64797676D01*
X56071428Y-64797676D02*
X56166666Y-64892914D01*
X56166666Y-64892914D02*
X56261904Y-64940533D01*
X55309523Y-64750057D02*
X55261904Y-64702438D01*
X55261904Y-64702438D02*
X55166666Y-64654819D01*
X55166666Y-64654819D02*
X54928571Y-64654819D01*
X54928571Y-64654819D02*
X54833333Y-64702438D01*
X54833333Y-64702438D02*
X54785714Y-64750057D01*
X54785714Y-64750057D02*
X54738095Y-64845295D01*
X54738095Y-64845295D02*
X54738095Y-64940533D01*
X54738095Y-64940533D02*
X54785714Y-65083390D01*
X54785714Y-65083390D02*
X55357142Y-65654819D01*
X55357142Y-65654819D02*
X54738095Y-65654819D01*
X46550057Y-66304761D02*
X46502438Y-66209523D01*
X46502438Y-66209523D02*
X46407200Y-66114285D01*
X46407200Y-66114285D02*
X46264342Y-65971428D01*
X46264342Y-65971428D02*
X46216723Y-65876190D01*
X46216723Y-65876190D02*
X46216723Y-65780952D01*
X46454819Y-65828571D02*
X46407200Y-65733333D01*
X46407200Y-65733333D02*
X46311961Y-65638095D01*
X46311961Y-65638095D02*
X46121485Y-65590476D01*
X46121485Y-65590476D02*
X45788152Y-65590476D01*
X45788152Y-65590476D02*
X45597676Y-65638095D01*
X45597676Y-65638095D02*
X45502438Y-65733333D01*
X45502438Y-65733333D02*
X45454819Y-65828571D01*
X45454819Y-65828571D02*
X45454819Y-66019047D01*
X45454819Y-66019047D02*
X45502438Y-66114285D01*
X45502438Y-66114285D02*
X45597676Y-66209523D01*
X45597676Y-66209523D02*
X45788152Y-66257142D01*
X45788152Y-66257142D02*
X46121485Y-66257142D01*
X46121485Y-66257142D02*
X46311961Y-66209523D01*
X46311961Y-66209523D02*
X46407200Y-66114285D01*
X46407200Y-66114285D02*
X46454819Y-66019047D01*
X46454819Y-66019047D02*
X46454819Y-65828571D01*
X45550057Y-66638095D02*
X45502438Y-66685714D01*
X45502438Y-66685714D02*
X45454819Y-66780952D01*
X45454819Y-66780952D02*
X45454819Y-67019047D01*
X45454819Y-67019047D02*
X45502438Y-67114285D01*
X45502438Y-67114285D02*
X45550057Y-67161904D01*
X45550057Y-67161904D02*
X45645295Y-67209523D01*
X45645295Y-67209523D02*
X45740533Y-67209523D01*
X45740533Y-67209523D02*
X45883390Y-67161904D01*
X45883390Y-67161904D02*
X46454819Y-66590476D01*
X46454819Y-66590476D02*
X46454819Y-67209523D01*
X37986666Y-68899580D02*
X38034285Y-68947200D01*
X38034285Y-68947200D02*
X38177142Y-68994819D01*
X38177142Y-68994819D02*
X38272380Y-68994819D01*
X38272380Y-68994819D02*
X38415237Y-68947200D01*
X38415237Y-68947200D02*
X38510475Y-68851961D01*
X38510475Y-68851961D02*
X38558094Y-68756723D01*
X38558094Y-68756723D02*
X38605713Y-68566247D01*
X38605713Y-68566247D02*
X38605713Y-68423390D01*
X38605713Y-68423390D02*
X38558094Y-68232914D01*
X38558094Y-68232914D02*
X38510475Y-68137676D01*
X38510475Y-68137676D02*
X38415237Y-68042438D01*
X38415237Y-68042438D02*
X38272380Y-67994819D01*
X38272380Y-67994819D02*
X38177142Y-67994819D01*
X38177142Y-67994819D02*
X38034285Y-68042438D01*
X38034285Y-68042438D02*
X37986666Y-68090057D01*
X37034285Y-68994819D02*
X37605713Y-68994819D01*
X37319999Y-68994819D02*
X37319999Y-67994819D01*
X37319999Y-67994819D02*
X37415237Y-68137676D01*
X37415237Y-68137676D02*
X37510475Y-68232914D01*
X37510475Y-68232914D02*
X37605713Y-68280533D01*
X61817857Y-76229580D02*
X61865476Y-76277200D01*
X61865476Y-76277200D02*
X62008333Y-76324819D01*
X62008333Y-76324819D02*
X62103571Y-76324819D01*
X62103571Y-76324819D02*
X62246428Y-76277200D01*
X62246428Y-76277200D02*
X62341666Y-76181961D01*
X62341666Y-76181961D02*
X62389285Y-76086723D01*
X62389285Y-76086723D02*
X62436904Y-75896247D01*
X62436904Y-75896247D02*
X62436904Y-75753390D01*
X62436904Y-75753390D02*
X62389285Y-75562914D01*
X62389285Y-75562914D02*
X62341666Y-75467676D01*
X62341666Y-75467676D02*
X62246428Y-75372438D01*
X62246428Y-75372438D02*
X62103571Y-75324819D01*
X62103571Y-75324819D02*
X62008333Y-75324819D01*
X62008333Y-75324819D02*
X61865476Y-75372438D01*
X61865476Y-75372438D02*
X61817857Y-75420057D01*
X60865476Y-76324819D02*
X61436904Y-76324819D01*
X61151190Y-76324819D02*
X61151190Y-75324819D01*
X61151190Y-75324819D02*
X61246428Y-75467676D01*
X61246428Y-75467676D02*
X61341666Y-75562914D01*
X61341666Y-75562914D02*
X61436904Y-75610533D01*
X60294047Y-75753390D02*
X60389285Y-75705771D01*
X60389285Y-75705771D02*
X60436904Y-75658152D01*
X60436904Y-75658152D02*
X60484523Y-75562914D01*
X60484523Y-75562914D02*
X60484523Y-75515295D01*
X60484523Y-75515295D02*
X60436904Y-75420057D01*
X60436904Y-75420057D02*
X60389285Y-75372438D01*
X60389285Y-75372438D02*
X60294047Y-75324819D01*
X60294047Y-75324819D02*
X60103571Y-75324819D01*
X60103571Y-75324819D02*
X60008333Y-75372438D01*
X60008333Y-75372438D02*
X59960714Y-75420057D01*
X59960714Y-75420057D02*
X59913095Y-75515295D01*
X59913095Y-75515295D02*
X59913095Y-75562914D01*
X59913095Y-75562914D02*
X59960714Y-75658152D01*
X59960714Y-75658152D02*
X60008333Y-75705771D01*
X60008333Y-75705771D02*
X60103571Y-75753390D01*
X60103571Y-75753390D02*
X60294047Y-75753390D01*
X60294047Y-75753390D02*
X60389285Y-75801009D01*
X60389285Y-75801009D02*
X60436904Y-75848628D01*
X60436904Y-75848628D02*
X60484523Y-75943866D01*
X60484523Y-75943866D02*
X60484523Y-76134342D01*
X60484523Y-76134342D02*
X60436904Y-76229580D01*
X60436904Y-76229580D02*
X60389285Y-76277200D01*
X60389285Y-76277200D02*
X60294047Y-76324819D01*
X60294047Y-76324819D02*
X60103571Y-76324819D01*
X60103571Y-76324819D02*
X60008333Y-76277200D01*
X60008333Y-76277200D02*
X59960714Y-76229580D01*
X59960714Y-76229580D02*
X59913095Y-76134342D01*
X59913095Y-76134342D02*
X59913095Y-75943866D01*
X59913095Y-75943866D02*
X59960714Y-75848628D01*
X59960714Y-75848628D02*
X60008333Y-75801009D01*
X60008333Y-75801009D02*
X60103571Y-75753390D01*
X51166666Y-73859580D02*
X51214285Y-73907200D01*
X51214285Y-73907200D02*
X51357142Y-73954819D01*
X51357142Y-73954819D02*
X51452380Y-73954819D01*
X51452380Y-73954819D02*
X51595237Y-73907200D01*
X51595237Y-73907200D02*
X51690475Y-73811961D01*
X51690475Y-73811961D02*
X51738094Y-73716723D01*
X51738094Y-73716723D02*
X51785713Y-73526247D01*
X51785713Y-73526247D02*
X51785713Y-73383390D01*
X51785713Y-73383390D02*
X51738094Y-73192914D01*
X51738094Y-73192914D02*
X51690475Y-73097676D01*
X51690475Y-73097676D02*
X51595237Y-73002438D01*
X51595237Y-73002438D02*
X51452380Y-72954819D01*
X51452380Y-72954819D02*
X51357142Y-72954819D01*
X51357142Y-72954819D02*
X51214285Y-73002438D01*
X51214285Y-73002438D02*
X51166666Y-73050057D01*
X50785713Y-73050057D02*
X50738094Y-73002438D01*
X50738094Y-73002438D02*
X50642856Y-72954819D01*
X50642856Y-72954819D02*
X50404761Y-72954819D01*
X50404761Y-72954819D02*
X50309523Y-73002438D01*
X50309523Y-73002438D02*
X50261904Y-73050057D01*
X50261904Y-73050057D02*
X50214285Y-73145295D01*
X50214285Y-73145295D02*
X50214285Y-73240533D01*
X50214285Y-73240533D02*
X50261904Y-73383390D01*
X50261904Y-73383390D02*
X50833332Y-73954819D01*
X50833332Y-73954819D02*
X50214285Y-73954819D01*
X39333333Y-87154819D02*
X39333333Y-87869104D01*
X39333333Y-87869104D02*
X39380952Y-88011961D01*
X39380952Y-88011961D02*
X39476190Y-88107200D01*
X39476190Y-88107200D02*
X39619047Y-88154819D01*
X39619047Y-88154819D02*
X39714285Y-88154819D01*
X38428571Y-87488152D02*
X38428571Y-88154819D01*
X38666666Y-87107200D02*
X38904761Y-87821485D01*
X38904761Y-87821485D02*
X38285714Y-87821485D01*
X34333333Y-87154819D02*
X34333333Y-87869104D01*
X34333333Y-87869104D02*
X34380952Y-88011961D01*
X34380952Y-88011961D02*
X34476190Y-88107200D01*
X34476190Y-88107200D02*
X34619047Y-88154819D01*
X34619047Y-88154819D02*
X34714285Y-88154819D01*
X33428571Y-87154819D02*
X33619047Y-87154819D01*
X33619047Y-87154819D02*
X33714285Y-87202438D01*
X33714285Y-87202438D02*
X33761904Y-87250057D01*
X33761904Y-87250057D02*
X33857142Y-87392914D01*
X33857142Y-87392914D02*
X33904761Y-87583390D01*
X33904761Y-87583390D02*
X33904761Y-87964342D01*
X33904761Y-87964342D02*
X33857142Y-88059580D01*
X33857142Y-88059580D02*
X33809523Y-88107200D01*
X33809523Y-88107200D02*
X33714285Y-88154819D01*
X33714285Y-88154819D02*
X33523809Y-88154819D01*
X33523809Y-88154819D02*
X33428571Y-88107200D01*
X33428571Y-88107200D02*
X33380952Y-88059580D01*
X33380952Y-88059580D02*
X33333333Y-87964342D01*
X33333333Y-87964342D02*
X33333333Y-87726247D01*
X33333333Y-87726247D02*
X33380952Y-87631009D01*
X33380952Y-87631009D02*
X33428571Y-87583390D01*
X33428571Y-87583390D02*
X33523809Y-87535771D01*
X33523809Y-87535771D02*
X33714285Y-87535771D01*
X33714285Y-87535771D02*
X33809523Y-87583390D01*
X33809523Y-87583390D02*
X33857142Y-87631009D01*
X33857142Y-87631009D02*
X33904761Y-87726247D01*
X44333333Y-87154819D02*
X44333333Y-87869104D01*
X44333333Y-87869104D02*
X44380952Y-88011961D01*
X44380952Y-88011961D02*
X44476190Y-88107200D01*
X44476190Y-88107200D02*
X44619047Y-88154819D01*
X44619047Y-88154819D02*
X44714285Y-88154819D01*
X43904761Y-87250057D02*
X43857142Y-87202438D01*
X43857142Y-87202438D02*
X43761904Y-87154819D01*
X43761904Y-87154819D02*
X43523809Y-87154819D01*
X43523809Y-87154819D02*
X43428571Y-87202438D01*
X43428571Y-87202438D02*
X43380952Y-87250057D01*
X43380952Y-87250057D02*
X43333333Y-87345295D01*
X43333333Y-87345295D02*
X43333333Y-87440533D01*
X43333333Y-87440533D02*
X43380952Y-87583390D01*
X43380952Y-87583390D02*
X43952380Y-88154819D01*
X43952380Y-88154819D02*
X43333333Y-88154819D01*
X50278628Y-70473809D02*
X50754819Y-70473809D01*
X49754819Y-70140476D02*
X50278628Y-70473809D01*
X50278628Y-70473809D02*
X49754819Y-70807142D01*
X50754819Y-71664285D02*
X50754819Y-71092857D01*
X50754819Y-71378571D02*
X49754819Y-71378571D01*
X49754819Y-71378571D02*
X49897676Y-71283333D01*
X49897676Y-71283333D02*
X49992914Y-71188095D01*
X49992914Y-71188095D02*
X50040533Y-71092857D01*
D13*
%TO.C,R13*%
X40346359Y-64420000D02*
X40653641Y-64420000D01*
X40346359Y-65180000D02*
X40653641Y-65180000D01*
%TO.C,Q3*%
X59437500Y-66190000D02*
X58787500Y-66190000D01*
X59437500Y-66190000D02*
X60087500Y-66190000D01*
X59437500Y-69310000D02*
X58787500Y-69310000D01*
X59437500Y-69310000D02*
X60087500Y-69310000D01*
X60600000Y-66240000D02*
X60360000Y-65910000D01*
X60840000Y-65910000D01*
X60600000Y-66240000D01*
G36*
X60600000Y-66240000D02*
G01*
X60360000Y-65910000D01*
X60840000Y-65910000D01*
X60600000Y-66240000D01*
G37*
%TO.C,U9*%
X56140000Y-76810000D02*
X57550000Y-76810000D01*
X56150000Y-74490000D02*
X57550000Y-74490000D01*
X56010000Y-77090000D02*
X55530000Y-77090000D01*
X55770000Y-76760000D01*
X56010000Y-77090000D01*
G36*
X56010000Y-77090000D02*
G01*
X55530000Y-77090000D01*
X55770000Y-76760000D01*
X56010000Y-77090000D01*
G37*
%TO.C,C10*%
X46040000Y-80087836D02*
X46040000Y-79872164D01*
X46760000Y-80087836D02*
X46760000Y-79872164D01*
%TO.C,C9*%
X54107836Y-74640000D02*
X53892164Y-74640000D01*
X54107836Y-75360000D02*
X53892164Y-75360000D01*
%TO.C,C11*%
X44740000Y-80087836D02*
X44740000Y-79872164D01*
X45460000Y-80087836D02*
X45460000Y-79872164D01*
%TO.C,R15*%
X40256359Y-66020000D02*
X40563641Y-66020000D01*
X40256359Y-66780000D02*
X40563641Y-66780000D01*
%TO.C,U10*%
X47540000Y-83300000D02*
X50850000Y-83300000D01*
X50450000Y-77480000D02*
X47560000Y-77480000D01*
X51170000Y-77550000D02*
X50890000Y-77550000D01*
X50890000Y-77270000D01*
X51170000Y-77550000D01*
G36*
X51170000Y-77550000D02*
G01*
X50890000Y-77550000D01*
X50890000Y-77270000D01*
X51170000Y-77550000D01*
G37*
%TO.C,R3*%
X61643641Y-64620000D02*
X61336359Y-64620000D01*
X61643641Y-65380000D02*
X61336359Y-65380000D01*
%TO.C,SW2*%
D11*
X67900000Y-65000000D02*
X67000000Y-65000000D01*
X67000000Y-65900000D01*
X67900000Y-65900000D01*
X67900000Y-65000000D01*
X69700000Y-64600000D02*
X65300000Y-64600000D01*
X65300000Y-66300000D01*
X69700000Y-66300000D01*
X69700000Y-64600000D01*
D13*
%TO.C,R5*%
X64120000Y-68153641D02*
X64120000Y-67846359D01*
X64880000Y-68153641D02*
X64880000Y-67846359D01*
%TO.C,C12*%
X45692164Y-81740000D02*
X45907836Y-81740000D01*
X45692164Y-82460000D02*
X45907836Y-82460000D01*
D14*
%TO.C,G\u002A\u002A\u002A*%
G36*
X69497345Y-96578694D02*
G01*
X69575771Y-96588935D01*
X69641761Y-96614135D01*
X69695508Y-96654361D01*
X69696710Y-96655574D01*
X69733619Y-96705933D01*
X69754664Y-96763114D01*
X69759991Y-96823283D01*
X69749744Y-96882607D01*
X69724066Y-96937249D01*
X69683104Y-96983377D01*
X69672762Y-96991449D01*
X69648544Y-97007479D01*
X69615275Y-97026396D01*
X69570718Y-97049380D01*
X69512637Y-97077611D01*
X69438796Y-97112267D01*
X69428071Y-97117876D01*
X69398490Y-97139232D01*
X69377775Y-97162391D01*
X69371632Y-97174385D01*
X69361290Y-97212754D01*
X69360272Y-97253072D01*
X69369213Y-97286156D01*
X69383759Y-97304080D01*
X69416637Y-97323085D01*
X69458730Y-97332797D01*
X69504836Y-97332229D01*
X69549754Y-97320395D01*
X69560071Y-97315249D01*
X69591651Y-97288223D01*
X69614232Y-97251909D01*
X69622887Y-97213510D01*
X69622936Y-97207606D01*
X69625395Y-97192765D01*
X69635718Y-97188505D01*
X69659558Y-97191422D01*
X69663940Y-97192103D01*
X69700567Y-97195955D01*
X69737712Y-97197584D01*
X69752033Y-97197743D01*
X69770767Y-97200359D01*
X69777950Y-97209529D01*
X69779017Y-97229442D01*
X69775052Y-97257145D01*
X69761226Y-97298573D01*
X69740916Y-97339554D01*
X69717734Y-97371705D01*
X69705349Y-97383866D01*
X69652109Y-97420161D01*
X69583052Y-97446574D01*
X69570343Y-97449674D01*
X69517080Y-97456404D01*
X69456303Y-97456981D01*
X69396509Y-97451623D01*
X69346195Y-97440544D01*
X69329370Y-97433389D01*
X69296746Y-97414108D01*
X69265642Y-97390415D01*
X69247917Y-97372740D01*
X69214610Y-97321061D01*
X69197409Y-97260754D01*
X69197405Y-97194939D01*
X69200075Y-97178029D01*
X69214594Y-97127582D01*
X69239369Y-97083370D01*
X69276232Y-97043694D01*
X69327011Y-97006855D01*
X69393537Y-96971156D01*
X69477641Y-96934898D01*
X69511512Y-96919443D01*
X69557704Y-96888120D01*
X69586399Y-96852298D01*
X69596937Y-96812951D01*
X69588659Y-96771050D01*
X69569199Y-96740517D01*
X69533714Y-96715449D01*
X69488392Y-96705767D01*
X69477851Y-96705799D01*
X69429976Y-96714770D01*
X69392433Y-96736820D01*
X69367924Y-96769740D01*
X69359154Y-96811322D01*
X69359154Y-96811565D01*
X69358410Y-96823539D01*
X69353603Y-96830832D01*
X69340864Y-96834605D01*
X69316325Y-96836017D01*
X69276116Y-96836230D01*
X69255398Y-96836210D01*
X69219801Y-96834839D01*
X69199953Y-96828859D01*
X69193201Y-96814861D01*
X69196894Y-96789436D01*
X69208378Y-96749176D01*
X69209109Y-96746762D01*
X69236673Y-96688909D01*
X69279316Y-96642121D01*
X69335393Y-96607425D01*
X69403260Y-96585853D01*
X69481270Y-96578433D01*
X69497345Y-96578694D01*
G37*
G36*
X68360870Y-96638404D02*
G01*
X68362862Y-96649444D01*
X68368767Y-96683795D01*
X68376834Y-96732026D01*
X68386471Y-96790552D01*
X68397086Y-96855790D01*
X68408086Y-96924154D01*
X68414997Y-96967111D01*
X68424871Y-97027578D01*
X68433540Y-97079593D01*
X68440543Y-97120442D01*
X68445421Y-97147416D01*
X68447714Y-97157801D01*
X68449895Y-97159669D01*
X68453872Y-97156900D01*
X68458811Y-97145103D01*
X68465259Y-97122246D01*
X68473763Y-97086296D01*
X68484871Y-97035225D01*
X68499130Y-96966999D01*
X68509903Y-96915021D01*
X68523945Y-96847605D01*
X68537436Y-96783175D01*
X68549246Y-96727114D01*
X68558249Y-96684807D01*
X68579227Y-96587115D01*
X68649248Y-96592000D01*
X68719270Y-96596884D01*
X68777885Y-96870572D01*
X68781041Y-96885250D01*
X68796296Y-96954581D01*
X68810596Y-97017029D01*
X68823338Y-97070144D01*
X68833922Y-97111477D01*
X68841746Y-97138577D01*
X68846209Y-97148995D01*
X68851460Y-97145023D01*
X68858055Y-97125889D01*
X68863656Y-97095115D01*
X68864674Y-97087624D01*
X68869407Y-97054662D01*
X68876399Y-97007513D01*
X68885082Y-96949965D01*
X68894884Y-96885807D01*
X68905235Y-96818827D01*
X68910142Y-96787171D01*
X68919414Y-96726755D01*
X68927373Y-96674118D01*
X68933589Y-96632142D01*
X68937634Y-96603706D01*
X68939077Y-96591692D01*
X68940218Y-96590070D01*
X68955136Y-96586015D01*
X68984187Y-96583251D01*
X69023364Y-96582230D01*
X69107651Y-96582230D01*
X69101216Y-96623750D01*
X69101014Y-96625026D01*
X69097344Y-96645857D01*
X69090621Y-96682216D01*
X69081322Y-96731623D01*
X69069929Y-96791597D01*
X69056919Y-96859659D01*
X69042774Y-96933327D01*
X69027972Y-97010124D01*
X69012994Y-97087568D01*
X68998318Y-97163179D01*
X68984424Y-97234477D01*
X68971792Y-97298983D01*
X68960902Y-97354216D01*
X68952233Y-97397697D01*
X68946264Y-97426945D01*
X68943475Y-97439480D01*
X68943023Y-97440517D01*
X68930984Y-97446872D01*
X68902677Y-97450524D01*
X68856532Y-97451692D01*
X68825243Y-97451531D01*
X68796438Y-97450280D01*
X68780058Y-97446907D01*
X68771994Y-97440391D01*
X68768139Y-97429711D01*
X68765573Y-97418507D01*
X68759099Y-97389726D01*
X68749551Y-97347024D01*
X68737561Y-97293239D01*
X68723764Y-97231208D01*
X68708791Y-97163768D01*
X68695937Y-97106225D01*
X68682147Y-97045450D01*
X68670108Y-96993426D01*
X68660428Y-96952736D01*
X68653713Y-96925965D01*
X68650569Y-96915696D01*
X68648125Y-96915358D01*
X68641867Y-96925198D01*
X68641377Y-96926891D01*
X68637138Y-96944371D01*
X68629578Y-96977268D01*
X68619339Y-97022681D01*
X68607066Y-97077708D01*
X68593400Y-97139448D01*
X68578984Y-97205000D01*
X68564462Y-97271464D01*
X68550475Y-97335937D01*
X68537666Y-97395519D01*
X68525660Y-97451692D01*
X68440682Y-97451692D01*
X68355703Y-97451692D01*
X68329162Y-97317365D01*
X68325818Y-97300543D01*
X68316555Y-97254506D01*
X68304881Y-97197017D01*
X68291370Y-97130858D01*
X68276597Y-97058811D01*
X68261135Y-96983657D01*
X68245560Y-96908177D01*
X68230445Y-96835152D01*
X68216366Y-96767365D01*
X68203895Y-96707595D01*
X68193609Y-96658626D01*
X68186081Y-96623237D01*
X68181886Y-96604211D01*
X68181704Y-96603437D01*
X68180288Y-96593255D01*
X68184215Y-96586999D01*
X68197034Y-96583713D01*
X68222294Y-96582442D01*
X68263543Y-96582230D01*
X68350381Y-96582230D01*
X68360870Y-96638404D01*
G37*
G36*
X70060436Y-96986913D02*
G01*
X70060761Y-97091232D01*
X70061017Y-97248938D01*
X70060920Y-97387191D01*
X70060468Y-97505978D01*
X70059664Y-97605289D01*
X70058506Y-97685111D01*
X70056994Y-97745433D01*
X70055129Y-97786242D01*
X70052911Y-97807528D01*
X70049457Y-97822772D01*
X70019433Y-97906150D01*
X69973652Y-97979365D01*
X69913805Y-98040621D01*
X69841581Y-98088124D01*
X69758670Y-98120078D01*
X69747197Y-98122570D01*
X69729653Y-98125015D01*
X69705872Y-98127118D01*
X69674523Y-98128905D01*
X69634277Y-98130401D01*
X69583804Y-98131633D01*
X69521773Y-98132625D01*
X69446854Y-98133403D01*
X69357717Y-98133994D01*
X69253033Y-98134422D01*
X69131470Y-98134714D01*
X68991699Y-98134895D01*
X68854451Y-98134888D01*
X68724254Y-98134605D01*
X68606839Y-98134052D01*
X68503170Y-98133240D01*
X68414214Y-98132183D01*
X68340936Y-98130890D01*
X68284300Y-98129374D01*
X68245271Y-98127646D01*
X68224815Y-98125717D01*
X68186485Y-98116589D01*
X68106677Y-98083584D01*
X68035940Y-98034338D01*
X67976297Y-97970442D01*
X67929769Y-97893489D01*
X67898654Y-97827807D01*
X67898654Y-97021846D01*
X67898654Y-96263349D01*
X68054962Y-96263349D01*
X68054962Y-97021155D01*
X68054962Y-97028290D01*
X68054972Y-97166943D01*
X68055026Y-97287480D01*
X68055158Y-97391255D01*
X68055401Y-97479628D01*
X68055792Y-97553953D01*
X68056364Y-97615587D01*
X68057151Y-97665886D01*
X68058189Y-97706208D01*
X68059512Y-97737909D01*
X68061154Y-97762345D01*
X68063150Y-97780873D01*
X68065534Y-97794849D01*
X68068341Y-97805630D01*
X68071605Y-97814572D01*
X68075361Y-97823032D01*
X68100273Y-97865462D01*
X68147952Y-97916680D01*
X68206275Y-97953946D01*
X68210830Y-97956018D01*
X68219703Y-97959611D01*
X68229867Y-97962710D01*
X68242726Y-97965356D01*
X68259685Y-97967591D01*
X68282146Y-97969458D01*
X68311513Y-97970998D01*
X68349190Y-97972254D01*
X68396580Y-97973267D01*
X68455087Y-97974078D01*
X68526114Y-97974732D01*
X68611066Y-97975268D01*
X68711345Y-97975730D01*
X68828355Y-97976159D01*
X68963500Y-97976597D01*
X69063184Y-97976899D01*
X69185817Y-97977214D01*
X69291342Y-97977380D01*
X69381172Y-97977368D01*
X69456721Y-97977151D01*
X69519401Y-97976701D01*
X69570626Y-97975988D01*
X69611808Y-97974984D01*
X69644360Y-97973662D01*
X69669696Y-97971992D01*
X69689229Y-97969947D01*
X69704371Y-97967498D01*
X69716536Y-97964617D01*
X69727137Y-97961275D01*
X69736801Y-97957776D01*
X69795254Y-97928478D01*
X69839654Y-97888691D01*
X69873723Y-97835215D01*
X69901346Y-97778961D01*
X69901346Y-97016961D01*
X69901346Y-96254961D01*
X69871217Y-96201230D01*
X69863772Y-96188897D01*
X69822071Y-96139178D01*
X69769695Y-96099482D01*
X69712579Y-96074548D01*
X69711301Y-96074253D01*
X69691850Y-96072354D01*
X69655086Y-96070656D01*
X69602947Y-96069160D01*
X69537374Y-96067865D01*
X69460305Y-96066771D01*
X69373681Y-96065879D01*
X69279440Y-96065189D01*
X69179523Y-96064700D01*
X69075868Y-96064412D01*
X68970416Y-96064326D01*
X68865106Y-96064442D01*
X68761878Y-96064759D01*
X68662670Y-96065277D01*
X68569423Y-96065997D01*
X68484077Y-96066919D01*
X68408570Y-96068042D01*
X68344842Y-96069366D01*
X68294833Y-96070892D01*
X68260482Y-96072619D01*
X68243730Y-96074548D01*
X68236491Y-96076686D01*
X68175425Y-96105528D01*
X68123361Y-96149589D01*
X68084489Y-96205424D01*
X68054962Y-96263349D01*
X67898654Y-96263349D01*
X67898654Y-96215884D01*
X67921463Y-96159373D01*
X67929986Y-96140908D01*
X67961109Y-96091130D01*
X68002069Y-96040887D01*
X68047526Y-95996306D01*
X68092142Y-95963512D01*
X68093485Y-95962725D01*
X68110415Y-95952840D01*
X68126194Y-95944214D01*
X68142199Y-95936766D01*
X68159811Y-95930415D01*
X68180409Y-95925081D01*
X68205372Y-95920683D01*
X68236080Y-95917139D01*
X68273912Y-95914369D01*
X68320247Y-95912292D01*
X68376465Y-95910827D01*
X68443945Y-95909894D01*
X68524067Y-95909410D01*
X68618210Y-95909296D01*
X68727753Y-95909470D01*
X68854075Y-95909853D01*
X68998557Y-95910361D01*
X69754808Y-95913038D01*
X69811636Y-95935966D01*
X69872793Y-95969168D01*
X69932699Y-96018408D01*
X69984705Y-96078388D01*
X70024269Y-96144648D01*
X70057654Y-96215884D01*
X70057795Y-96254961D01*
X70060436Y-96986913D01*
G37*
G36*
X71630270Y-97056038D02*
G01*
X71629783Y-97153494D01*
X71628118Y-97239920D01*
X71624869Y-97315009D01*
X71619626Y-97382938D01*
X71611981Y-97447886D01*
X71601526Y-97514030D01*
X71587851Y-97585547D01*
X71570549Y-97666615D01*
X71564152Y-97694827D01*
X71504818Y-97907109D01*
X71427461Y-98113215D01*
X71332836Y-98312143D01*
X71221698Y-98502891D01*
X71094800Y-98684457D01*
X70952899Y-98855839D01*
X70796747Y-99016035D01*
X70627100Y-99164043D01*
X70444713Y-99298861D01*
X70250340Y-99419487D01*
X70083081Y-99505548D01*
X69900445Y-99582963D01*
X69711632Y-99647604D01*
X69521456Y-99697826D01*
X69334731Y-99731988D01*
X69299249Y-99736943D01*
X69255191Y-99743110D01*
X69219617Y-99748106D01*
X69197962Y-99751168D01*
X69196771Y-99751313D01*
X69177246Y-99752270D01*
X69141354Y-99752947D01*
X69091902Y-99753330D01*
X69031693Y-99753408D01*
X68963535Y-99753166D01*
X68890231Y-99752592D01*
X68832358Y-99751890D01*
X68742477Y-99750096D01*
X68668516Y-99747515D01*
X68608161Y-99744030D01*
X68559095Y-99739524D01*
X68519000Y-99733881D01*
X68340974Y-99698170D01*
X68115944Y-99637044D01*
X67902137Y-99559967D01*
X67699475Y-99466913D01*
X67507885Y-99357852D01*
X67413813Y-99296179D01*
X67226329Y-99156882D01*
X67053644Y-99005454D01*
X66896148Y-98842617D01*
X66754230Y-98669092D01*
X66628280Y-98485602D01*
X66518688Y-98292868D01*
X66425843Y-98091612D01*
X66350134Y-97882555D01*
X66291951Y-97666421D01*
X66251683Y-97443931D01*
X66229720Y-97215806D01*
X66228304Y-97114830D01*
X66499421Y-97114830D01*
X66513007Y-97322451D01*
X66544550Y-97527527D01*
X66593813Y-97728995D01*
X66660561Y-97925787D01*
X66744559Y-98116840D01*
X66845571Y-98301089D01*
X66963361Y-98477467D01*
X67097695Y-98644911D01*
X67248336Y-98802355D01*
X67298754Y-98849420D01*
X67468071Y-98990563D01*
X67646440Y-99114434D01*
X67833513Y-99220870D01*
X68028947Y-99309708D01*
X68232395Y-99380784D01*
X68443511Y-99433937D01*
X68661949Y-99469001D01*
X68717852Y-99474399D01*
X68813874Y-99479877D01*
X68917280Y-99482062D01*
X69021409Y-99480955D01*
X69119599Y-99476558D01*
X69205189Y-99468873D01*
X69332072Y-99450085D01*
X69535362Y-99405776D01*
X69734074Y-99345103D01*
X69924930Y-99269125D01*
X70104653Y-99178897D01*
X70271763Y-99077142D01*
X70449453Y-98948438D01*
X70612576Y-98806737D01*
X70761077Y-98652098D01*
X70894902Y-98484576D01*
X71013997Y-98304230D01*
X71118307Y-98111115D01*
X71163602Y-98012788D01*
X71240647Y-97812703D01*
X71298471Y-97610034D01*
X71337254Y-97403916D01*
X71357182Y-97193487D01*
X71358436Y-96977884D01*
X71358217Y-96972067D01*
X71341799Y-96757642D01*
X71309174Y-96553013D01*
X71259782Y-96356302D01*
X71193062Y-96165634D01*
X71108456Y-95979133D01*
X71005403Y-95794923D01*
X70988689Y-95768035D01*
X70867057Y-95593340D01*
X70730524Y-95430449D01*
X70580272Y-95280204D01*
X70417483Y-95143447D01*
X70243338Y-95021020D01*
X70059020Y-94913766D01*
X69865710Y-94822525D01*
X69664590Y-94748141D01*
X69456842Y-94691456D01*
X69449995Y-94689921D01*
X69243037Y-94653711D01*
X69031894Y-94635881D01*
X68818918Y-94636430D01*
X68606464Y-94655354D01*
X68396885Y-94692650D01*
X68342245Y-94705849D01*
X68200426Y-94747797D01*
X68053916Y-94801028D01*
X67908556Y-94863122D01*
X67770188Y-94931659D01*
X67644654Y-95004218D01*
X67594864Y-95036410D01*
X67420798Y-95163195D01*
X67258850Y-95304060D01*
X67110070Y-95457745D01*
X66975507Y-95622992D01*
X66856210Y-95798544D01*
X66753230Y-95983141D01*
X66667615Y-96175526D01*
X66629344Y-96280209D01*
X66568751Y-96487355D01*
X66527057Y-96696217D01*
X66504025Y-96905731D01*
X66499421Y-97114830D01*
X66228304Y-97114830D01*
X66226452Y-96982769D01*
X66236522Y-96800039D01*
X66260809Y-96603162D01*
X66299709Y-96412371D01*
X66354182Y-96223062D01*
X66425190Y-96030630D01*
X66479741Y-95906480D01*
X66582134Y-95711707D01*
X66701237Y-95524974D01*
X66835832Y-95347709D01*
X66984702Y-95181344D01*
X67146628Y-95027311D01*
X67320394Y-94887040D01*
X67504781Y-94761962D01*
X67535261Y-94743387D01*
X67731433Y-94636141D01*
X67934987Y-94545856D01*
X68147132Y-94472104D01*
X68369079Y-94414454D01*
X68602039Y-94372477D01*
X68606995Y-94371791D01*
X68662170Y-94366420D01*
X68732167Y-94362636D01*
X68812796Y-94360406D01*
X68899866Y-94359698D01*
X68989187Y-94360477D01*
X69076570Y-94362713D01*
X69157822Y-94366371D01*
X69228755Y-94371420D01*
X69285177Y-94377825D01*
X69443781Y-94404888D01*
X69629848Y-94447388D01*
X69806573Y-94500845D01*
X69978572Y-94566692D01*
X70150462Y-94646361D01*
X70222764Y-94684066D01*
X70415589Y-94799103D01*
X70597527Y-94929235D01*
X70767699Y-95073374D01*
X70925226Y-95230432D01*
X71069228Y-95399323D01*
X71198825Y-95578957D01*
X71313137Y-95768249D01*
X71411284Y-95966110D01*
X71492387Y-96171454D01*
X71555566Y-96383192D01*
X71563681Y-96415957D01*
X71584322Y-96505752D01*
X71600446Y-96588818D01*
X71612537Y-96669520D01*
X71621080Y-96752226D01*
X71626560Y-96841303D01*
X71629462Y-96941118D01*
X71629721Y-96977884D01*
X71630270Y-97056038D01*
G37*
G36*
X70204193Y-97857115D02*
G01*
X70178793Y-97922361D01*
X70164215Y-97956460D01*
X70142509Y-98000593D01*
X70121678Y-98037030D01*
X70085639Y-98085104D01*
X70022285Y-98147079D01*
X69948446Y-98199501D01*
X69868858Y-98239160D01*
X69788261Y-98262848D01*
X69757131Y-98269110D01*
X69727839Y-98276142D01*
X69711095Y-98281587D01*
X69709082Y-98282620D01*
X69704617Y-98285719D01*
X69700579Y-98291106D01*
X69696582Y-98300673D01*
X69692241Y-98316308D01*
X69687172Y-98339903D01*
X69680989Y-98373347D01*
X69673309Y-98418532D01*
X69663745Y-98477346D01*
X69651913Y-98551682D01*
X69637428Y-98643427D01*
X69625849Y-98715064D01*
X69612864Y-98790882D01*
X69601036Y-98855021D01*
X69590737Y-98905561D01*
X69582341Y-98940581D01*
X69576221Y-98958163D01*
X69556849Y-98980875D01*
X69530617Y-98999612D01*
X69525947Y-99001560D01*
X69514541Y-99004549D01*
X69497666Y-99007049D01*
X69473756Y-99009103D01*
X69441251Y-99010752D01*
X69398585Y-99012038D01*
X69344197Y-99013004D01*
X69276523Y-99013693D01*
X69193999Y-99014145D01*
X69095064Y-99014403D01*
X68978154Y-99014510D01*
X68965434Y-99014514D01*
X68852800Y-99014522D01*
X68757899Y-99014428D01*
X68679096Y-99014178D01*
X68614755Y-99013716D01*
X68563241Y-99012986D01*
X68522917Y-99011932D01*
X68492148Y-99010500D01*
X68469298Y-99008634D01*
X68452731Y-99006278D01*
X68440812Y-99003377D01*
X68431905Y-98999875D01*
X68424374Y-98995717D01*
X68421619Y-98993987D01*
X68398120Y-98975448D01*
X68382780Y-98957179D01*
X68382443Y-98956462D01*
X68377912Y-98939964D01*
X68370964Y-98907134D01*
X68362095Y-98860647D01*
X68351799Y-98803181D01*
X68340572Y-98737414D01*
X68328909Y-98666021D01*
X68328534Y-98663679D01*
X68316695Y-98590279D01*
X68305280Y-98520698D01*
X68294810Y-98458032D01*
X68285810Y-98405379D01*
X68278801Y-98365834D01*
X68274306Y-98342493D01*
X68272215Y-98333042D01*
X68265072Y-98308609D01*
X68254484Y-98292252D01*
X68236488Y-98281182D01*
X68207122Y-98272611D01*
X68162423Y-98263749D01*
X68132529Y-98257018D01*
X68049292Y-98225584D01*
X67971290Y-98177987D01*
X67901030Y-98116661D01*
X67841019Y-98044043D01*
X67793766Y-97962567D01*
X67761778Y-97874668D01*
X67760531Y-97869589D01*
X67756510Y-97847572D01*
X67753332Y-97818762D01*
X67750917Y-97781035D01*
X67749181Y-97732267D01*
X67748043Y-97670336D01*
X67747420Y-97593116D01*
X67747231Y-97498486D01*
X67747231Y-97494851D01*
X67816733Y-97494851D01*
X67816898Y-97571574D01*
X67817278Y-97635796D01*
X67817898Y-97688855D01*
X67818784Y-97732090D01*
X67819962Y-97766840D01*
X67821458Y-97794445D01*
X67823296Y-97816242D01*
X67825504Y-97833570D01*
X67828106Y-97847770D01*
X67831128Y-97860180D01*
X67834596Y-97872138D01*
X67842274Y-97895214D01*
X67882663Y-97979592D01*
X67938240Y-98054408D01*
X68006648Y-98117386D01*
X68085531Y-98166247D01*
X68172534Y-98198717D01*
X68181865Y-98200846D01*
X68197530Y-98203397D01*
X68217915Y-98205586D01*
X68244368Y-98207439D01*
X68278237Y-98208979D01*
X68320867Y-98210229D01*
X68373606Y-98211213D01*
X68437801Y-98211955D01*
X68514800Y-98212479D01*
X68605948Y-98212808D01*
X68712594Y-98212965D01*
X68836083Y-98212975D01*
X68977764Y-98212861D01*
X69051302Y-98212761D01*
X69192825Y-98212434D01*
X69316289Y-98211938D01*
X69422699Y-98211257D01*
X69513056Y-98210376D01*
X69588367Y-98209276D01*
X69649634Y-98207944D01*
X69697862Y-98206361D01*
X69734054Y-98204511D01*
X69759214Y-98202380D01*
X69774346Y-98199949D01*
X69821280Y-98185684D01*
X69905787Y-98145244D01*
X69980632Y-98089499D01*
X70043746Y-98020501D01*
X70093059Y-97940299D01*
X70126502Y-97850947D01*
X70129100Y-97833430D01*
X70131773Y-97796742D01*
X70134143Y-97744029D01*
X70136208Y-97677162D01*
X70137971Y-97598010D01*
X70139432Y-97508444D01*
X70140592Y-97410334D01*
X70141452Y-97305550D01*
X70142012Y-97195961D01*
X70142274Y-97083439D01*
X70142239Y-96969853D01*
X70141907Y-96857074D01*
X70141279Y-96746971D01*
X70140357Y-96641415D01*
X70139140Y-96542276D01*
X70137631Y-96451423D01*
X70135829Y-96370727D01*
X70133736Y-96302059D01*
X70131352Y-96247288D01*
X70128679Y-96208284D01*
X70125717Y-96186918D01*
X70113576Y-96147717D01*
X70073327Y-96063702D01*
X70016950Y-95988557D01*
X69946187Y-95924358D01*
X69862776Y-95873182D01*
X69785129Y-95834884D01*
X68977924Y-95834884D01*
X68170720Y-95834884D01*
X68087110Y-95876314D01*
X68047674Y-95897901D01*
X67970324Y-95955508D01*
X67906519Y-96027010D01*
X67855603Y-96113076D01*
X67820500Y-96186577D01*
X67817837Y-96997387D01*
X67817711Y-97036158D01*
X67817272Y-97176279D01*
X67816946Y-97298542D01*
X67816758Y-97404286D01*
X67816733Y-97494851D01*
X67747231Y-97494851D01*
X67747231Y-97178154D01*
X67724675Y-97178154D01*
X67707997Y-97175549D01*
X67683156Y-97164279D01*
X67683028Y-97164185D01*
X67676438Y-97158183D01*
X67671665Y-97149442D01*
X67668483Y-97135163D01*
X67666664Y-97112547D01*
X67665982Y-97078796D01*
X67666209Y-97031109D01*
X67667117Y-96966689D01*
X67667668Y-96935290D01*
X67669429Y-96871614D01*
X67672277Y-96824167D01*
X67676827Y-96790605D01*
X67683692Y-96768583D01*
X67693487Y-96755755D01*
X67706825Y-96749779D01*
X67724322Y-96748307D01*
X67747231Y-96748307D01*
X67747231Y-96486591D01*
X67747266Y-96452580D01*
X67747742Y-96372771D01*
X67748868Y-96309146D01*
X67750759Y-96259258D01*
X67753529Y-96220660D01*
X67757292Y-96190906D01*
X67762162Y-96167549D01*
X67773073Y-96131402D01*
X67812925Y-96043205D01*
X67867984Y-95963110D01*
X67935841Y-95893352D01*
X68014087Y-95836167D01*
X68100313Y-95793790D01*
X68192111Y-95768459D01*
X68212509Y-95764708D01*
X68241261Y-95757229D01*
X68257464Y-95748096D01*
X68265750Y-95735219D01*
X68266964Y-95730997D01*
X68271778Y-95708555D01*
X68279026Y-95670466D01*
X68288255Y-95619277D01*
X68299012Y-95557533D01*
X68310842Y-95487778D01*
X68323291Y-95412559D01*
X68328729Y-95379518D01*
X68341035Y-95306350D01*
X68352589Y-95239752D01*
X68362928Y-95182268D01*
X68371589Y-95136444D01*
X68378108Y-95104826D01*
X68382023Y-95089958D01*
X68383242Y-95087471D01*
X68399689Y-95067205D01*
X68423551Y-95048475D01*
X68425875Y-95047084D01*
X68433615Y-95043058D01*
X68443010Y-95039678D01*
X68455684Y-95036887D01*
X68473265Y-95034629D01*
X68497378Y-95032847D01*
X68529648Y-95031484D01*
X68571701Y-95030484D01*
X68625164Y-95029792D01*
X68691662Y-95029349D01*
X68772821Y-95029101D01*
X68870266Y-95028990D01*
X68985625Y-95028959D01*
X69515749Y-95028923D01*
X69550459Y-95060732D01*
X69585170Y-95092542D01*
X69633447Y-95395329D01*
X69638818Y-95428817D01*
X69650929Y-95502943D01*
X69662331Y-95570887D01*
X69672563Y-95630025D01*
X69681167Y-95677730D01*
X69687685Y-95711379D01*
X69691658Y-95728346D01*
X69693399Y-95733438D01*
X69700573Y-95747677D01*
X69712642Y-95756944D01*
X69734418Y-95763831D01*
X69770716Y-95770931D01*
X69809657Y-95779579D01*
X69899593Y-95812994D01*
X69982257Y-95862448D01*
X70055382Y-95925773D01*
X70116706Y-96000799D01*
X70163962Y-96085356D01*
X70194886Y-96177274D01*
X70195629Y-96180617D01*
X70198233Y-96195237D01*
X70200483Y-96213785D01*
X70202395Y-96237565D01*
X70203989Y-96267875D01*
X70205282Y-96306017D01*
X70206292Y-96353292D01*
X70207037Y-96410999D01*
X70207536Y-96480440D01*
X70207805Y-96562916D01*
X70207864Y-96659727D01*
X70207731Y-96772174D01*
X70207422Y-96901558D01*
X70206957Y-97049178D01*
X70206840Y-97083439D01*
X70204193Y-97857115D01*
G37*
D13*
%TO.C,C3*%
X50892164Y-69240000D02*
X51107836Y-69240000D01*
X50892164Y-69960000D02*
X51107836Y-69960000D01*
%TO.C,C13*%
X45887836Y-82940000D02*
X45672164Y-82940000D01*
X45887836Y-83660000D02*
X45672164Y-83660000D01*
%TO.C,SW1*%
D11*
X67900000Y-61500000D02*
X67000000Y-61500000D01*
X67000000Y-62400000D01*
X67900000Y-62400000D01*
X67900000Y-61500000D01*
X69700000Y-61100000D02*
X65300000Y-61100000D01*
X65300000Y-62800000D01*
X69700000Y-62800000D01*
X69700000Y-61100000D01*
D13*
%TO.C,C19*%
X61315580Y-78790000D02*
X61034420Y-78790000D01*
X61315580Y-79810000D02*
X61034420Y-79810000D01*
%TO.C,U1*%
X42675000Y-69135000D02*
X40725000Y-69135000D01*
X42675000Y-69135000D02*
X44625000Y-69135000D01*
X42675000Y-74255000D02*
X40725000Y-74255000D01*
X42675000Y-74255000D02*
X44625000Y-74255000D01*
X45375000Y-69230000D02*
X45135000Y-68900000D01*
X45615000Y-68900000D01*
X45375000Y-69230000D01*
G36*
X45375000Y-69230000D02*
G01*
X45135000Y-68900000D01*
X45615000Y-68900000D01*
X45375000Y-69230000D01*
G37*
%TO.C,R14*%
X57336359Y-65920000D02*
X57643641Y-65920000D01*
X57336359Y-66680000D02*
X57643641Y-66680000D01*
%TO.C,C6*%
X33640000Y-67587836D02*
X33640000Y-67372164D01*
X34360000Y-67587836D02*
X34360000Y-67372164D01*
%TO.C,R12*%
X58346359Y-64620000D02*
X58653641Y-64620000D01*
X58346359Y-65380000D02*
X58653641Y-65380000D01*
%TO.C,Q2*%
X41940000Y-66562500D02*
X41940000Y-65912500D01*
X41940000Y-66562500D02*
X41940000Y-67212500D01*
X45060000Y-66562500D02*
X45060000Y-65912500D01*
X45060000Y-66562500D02*
X45060000Y-67212500D01*
X41990000Y-65400000D02*
X41660000Y-65640000D01*
X41660000Y-65160000D01*
X41990000Y-65400000D01*
G36*
X41990000Y-65400000D02*
G01*
X41660000Y-65640000D01*
X41660000Y-65160000D01*
X41990000Y-65400000D01*
G37*
%TO.C,C1*%
X37927836Y-69340000D02*
X37712164Y-69340000D01*
X37927836Y-70060000D02*
X37712164Y-70060000D01*
%TO.C,C18*%
X61315580Y-76790000D02*
X61034420Y-76790000D01*
X61315580Y-77810000D02*
X61034420Y-77810000D01*
%TO.C,C2*%
X50892164Y-71840000D02*
X51107836Y-71840000D01*
X50892164Y-72560000D02*
X51107836Y-72560000D01*
%TO.C,Y1*%
X47390000Y-71440000D02*
X47390000Y-70460000D01*
X49300000Y-72960000D02*
X47500000Y-72960000D01*
X49410000Y-71440000D02*
X49410000Y-70460000D01*
%TD*%
M02*
