M48
; DRILL file KiCad 10.0.0 date 2026-03-23T22:13:51
; FORMAT={-:-/ absolute / metric / decimal}
; #@! TF.CreationDate,2026-03-23T22:13:51-04:00
; #@! TF.GenerationSoftware,Kicad,Pcbnew,10.0.0
; #@! TF.FileFunction,Plated,1,4,PTH
FMAT,2
METRIC
; #@! TA.AperFunction,Plated,PTH,ViaDrill
T1C0.300
; #@! TA.AperFunction,Plated,PTH,ViaDrill
T2C0.400
; #@! TA.AperFunction,Plated,PTH,ViaDrill
T3C0.500
; #@! TA.AperFunction,Plated,PTH,ComponentDrill
T4C0.500
; #@! TA.AperFunction,Plated,PTH,ComponentDrill
T5C0.800
; #@! TA.AperFunction,Plated,PTH,ComponentDrill
T6C1.000
%
G90
G05
T1
X71.576Y-76.9
X72.136Y-71.933
X72.15Y-75.802
X72.6Y-45.7
X72.834Y-75.401
X72.844Y-70.592
X72.847Y-72.822
X72.898Y-73.863
X72.976Y-49.153
X72.99Y-45.07
X73.406Y-49.911
X73.533Y-64.516
X73.75Y-72.65
X73.787Y-71.044
X74.117Y-51.994
X74.168Y-44.983
X74.414Y-66.3
X75.243Y-71.534
X75.529Y-66.3
X75.725Y-60.122
X75.95Y-55.1
X76.008Y-76.956
X76.15Y-60.8
X76.454Y-78.349
X76.523Y-73.471
X76.653Y-54.28
X77.213Y-73.355
X77.9Y-62.85
X78.023Y-72.663
X78.511Y-71.552
X79.223Y-47.828
X79.248Y-54.356
X79.6Y-60.8
X79.6Y-61.6
X79.736Y-66.3
X79.782Y-71.943
X80.239Y-73.177
X80.442Y-64.084
X80.518Y-71.772
X80.525Y-50.275
X80.874Y-70.612
X81.163Y-58.317
X81.214Y-45.361
X81.534Y-59.055
X81.571Y-60.198
X81.61Y-70.282
X81.988Y-61.975
X82.33Y-65.159
X82.372Y-66.142
X82.676Y-70.654
X83.269Y-51.675
X83.312Y-70.256
X83.57Y-48.16
X83.591Y-66.192
X83.606Y-68.745
X83.668Y-50.013
X83.693Y-49.022
X83.72Y-65.105
X84.531Y-59.385
X84.813Y-69.814
X84.887Y-52.115
X85.598Y-64.837
X86.055Y-54.748
X86.094Y-53.222
X86.198Y-53.914
X86.225Y-62.1
X87.249Y-55.118
X87.75Y-49.25
X87.833Y-50.241
X87.884Y-70.046
X88.258Y-64.375
X88.265Y-54.869
X88.29Y-51.41
X88.292Y-66.036
X88.309Y-62.23
X89.052Y-70.266
X89.789Y-70.739
X89.962Y-48.5
X90.013Y-49.914
X91.16Y-60.85
X91.3Y-58.015
X91.513Y-52.991
X91.542Y-53.691
X91.669Y-62.9
X91.897Y-55.27
X92.558Y-62.805
X92.583Y-60.55
X92.6Y-59.35
X92.73Y-56.846
X92.837Y-57.785
X92.915Y-53.854
X93.15Y-44.45
X93.32Y-52.172
X93.65Y-49.541
X94.0Y-46.1
X94.069Y-58.711
X94.142Y-66.921
X94.259Y-69.317
X94.299Y-65.616
X94.513Y-48.539
X94.679Y-60.441
X94.774Y-57.474
X94.81Y-67.42
X94.92Y-62.382
X95.03Y-58.26
X95.352Y-69.52
X95.67Y-67.28
X95.844Y-64.277
X95.91Y-68.859
X96.05Y-65.05
X96.35Y-61.468
X97.384Y-54.712
X97.536Y-59.055
X97.612Y-56.49
X97.71Y-64.32
X97.739Y-62.027
X97.833Y-60.409
X98.077Y-55.111
X98.086Y-58.547
X98.298Y-59.817
X98.529Y-61.856
X99.459Y-61.699
X99.746Y-58.217
X100.061Y-62.301
X100.659Y-64.225
X101.625Y-64.592
X101.719Y-59.006
X102.083Y-52.629
X102.499Y-67.574
X102.986Y-57.998
X103.022Y-57.125
X103.334Y-64.331
X103.378Y-61.849
X103.581Y-52.934
X103.81Y-59.715
X104.064Y-68.986
X104.076Y-68.275
X104.292Y-60.935
T2
X78.05Y-50.05
X80.086Y-53.4
T3
X72.5Y-41.4
X72.669Y-60.985
X75.0Y-51.7
X75.0Y-57.8
X94.2Y-54.25
X94.2Y-61.55
X95.9Y-52.85
X99.275Y-68.275
X100.457Y-52.705
X103.8Y-70.65
T5
X71.79Y-51.3
X71.79Y-53.3
T6
X80.3Y-43.0
X82.84Y-43.0
X85.38Y-43.0
X87.92Y-43.0
X90.46Y-43.0
X93.0Y-43.0
X95.54Y-43.0
X98.08Y-43.0
T4
G00X71.14Y-56.51
M15
G01X70.54Y-56.51
M16
G05
G00X71.14Y-65.49
M15
G01X70.54Y-65.49
M16
G05
G00X77.09Y-56.87
M15
G01X76.49Y-56.87
M16
G05
G00X77.09Y-65.13
M15
G01X76.49Y-65.13
M16
G05
M30
