%TF.GenerationSoftware,KiCad,Pcbnew,9.0.4*%
%TF.CreationDate,2026-03-10T13:44:35-04:00*%
%TF.ProjectId,Smarter Watch Stuff,536d6172-7465-4722-9057-617463682053,rev?*%
%TF.SameCoordinates,Original*%
%TF.FileFunction,Paste,Bot*%
%TF.FilePolarity,Positive*%
%FSLAX46Y46*%
G04 Gerber Fmt 4.6, Leading zero omitted, Abs format (unit mm)*
G04 Created by KiCad (PCBNEW 9.0.4) date 2026-03-10 13:44:35*
%MOMM*%
%LPD*%
G01*
G04 APERTURE LIST*
G04 Aperture macros list*
%AMRoundRect*
0 Rectangle with rounded corners*
0 $1 Rounding radius*
0 $2 $3 $4 $5 $6 $7 $8 $9 X,Y pos of 4 corners*
0 Add a 4 corners polygon primitive as box body*
4,1,4,$2,$3,$4,$5,$6,$7,$8,$9,$2,$3,0*
0 Add four circle primitives for the rounded corners*
1,1,$1+$1,$2,$3*
1,1,$1+$1,$4,$5*
1,1,$1+$1,$6,$7*
1,1,$1+$1,$8,$9*
0 Add four rect primitives between the rounded corners*
20,1,$1+$1,$2,$3,$4,$5,0*
20,1,$1+$1,$4,$5,$6,$7,0*
20,1,$1+$1,$6,$7,$8,$9,0*
20,1,$1+$1,$8,$9,$2,$3,0*%
G04 Aperture macros list end*
%ADD10C,0.010000*%
%ADD11RoundRect,0.140000X0.170000X-0.140000X0.170000X0.140000X-0.170000X0.140000X-0.170000X-0.140000X0*%
%ADD12RoundRect,0.225000X0.775000X0.525000X-0.775000X0.525000X-0.775000X-0.525000X0.775000X-0.525000X0*%
%ADD13RoundRect,0.140000X0.140000X0.170000X-0.140000X0.170000X-0.140000X-0.170000X0.140000X-0.170000X0*%
%ADD14RoundRect,0.140000X-0.140000X-0.170000X0.140000X-0.170000X0.140000X0.170000X-0.140000X0.170000X0*%
%ADD15R,0.750000X0.350000*%
%ADD16RoundRect,0.067500X0.067500X0.067500X-0.067500X0.067500X-0.067500X-0.067500X0.067500X-0.067500X0*%
%ADD17RoundRect,0.040000X-0.340000X-0.120000X0.340000X-0.120000X0.340000X0.120000X-0.340000X0.120000X0*%
%ADD18R,1.170000X0.400000*%
G04 APERTURE END LIST*
D10*
%TO.C,U17*%
X89282000Y-53999000D02*
X88342000Y-53999000D01*
X88342000Y-52539000D01*
X89282000Y-52539000D01*
X89282000Y-53999000D01*
G36*
X89282000Y-53999000D02*
G01*
X88342000Y-53999000D01*
X88342000Y-52539000D01*
X89282000Y-52539000D01*
X89282000Y-53999000D01*
G37*
%TD*%
D11*
%TO.C,C11*%
X86230000Y-58210000D03*
X86230000Y-57250000D03*
%TD*%
D12*
%TO.C,SW1*%
X79250000Y-46050000D03*
X71050000Y-46050000D03*
%TD*%
D13*
%TO.C,C13*%
X86230000Y-59110000D03*
X85270000Y-59110000D03*
%TD*%
D14*
%TO.C,C12*%
X85280000Y-60040000D03*
X86240000Y-60040000D03*
%TD*%
D11*
%TO.C,C9*%
X81420000Y-57480000D03*
X81420000Y-56520000D03*
%TD*%
D15*
%TO.C,U10*%
X89900000Y-55900000D03*
X89900000Y-56700000D03*
X89900000Y-57500000D03*
X89900000Y-58300000D03*
X89900000Y-59100000D03*
X89900000Y-59900000D03*
X89900000Y-60700000D03*
X87500000Y-60700000D03*
X87500000Y-59900000D03*
X87500000Y-59100000D03*
X87500000Y-58300000D03*
X87500000Y-57500000D03*
X87500000Y-56700000D03*
X87500000Y-55900000D03*
%TD*%
D16*
%TO.C,C20*%
X87722800Y-51003200D03*
X87172800Y-51003200D03*
%TD*%
D12*
%TO.C,SW2*%
X79250000Y-49150000D03*
X71050000Y-49150000D03*
%TD*%
D17*
%TO.C,U17*%
X87327000Y-54244000D03*
X87327000Y-53594000D03*
X87327000Y-52944000D03*
X87327000Y-52294000D03*
X90297000Y-52294000D03*
X90297000Y-52944000D03*
X90297000Y-53594000D03*
X90297000Y-54244000D03*
%TD*%
D18*
%TO.C,U9*%
X82980000Y-57300000D03*
X82980000Y-56650000D03*
X82980000Y-56000000D03*
X84920000Y-56000000D03*
X84920000Y-57300000D03*
%TD*%
M02*
