%TF.GenerationSoftware,KiCad,Pcbnew,9.0.4*%
%TF.CreationDate,2026-03-10T13:44:35-04:00*%
%TF.ProjectId,Smarter Watch Stuff,536d6172-7465-4722-9057-617463682053,rev?*%
%TF.SameCoordinates,Original*%
%TF.FileFunction,Legend,Top*%
%TF.FilePolarity,Positive*%
%FSLAX46Y46*%
G04 Gerber Fmt 4.6, Leading zero omitted, Abs format (unit mm)*
G04 Created by KiCad (PCBNEW 9.0.4) date 2026-03-10 13:44:35*
%MOMM*%
%LPD*%
G01*
G04 APERTURE LIST*
%ADD10C,0.100000*%
%ADD11C,0.150000*%
%ADD12C,0.120000*%
%ADD13C,0.152400*%
%ADD14C,0.000000*%
%ADD15C,0.127000*%
%ADD16C,0.200000*%
%ADD17C,0.050000*%
G04 APERTURE END LIST*
D10*
X96520000Y-76631800D02*
X95275400Y-77876400D01*
X95275400Y-75387200D01*
X96520000Y-76631800D01*
G36*
X96520000Y-76631800D02*
G01*
X95275400Y-77876400D01*
X95275400Y-75387200D01*
X96520000Y-76631800D01*
G37*
X82499200Y-76682600D02*
X82499200Y-77876400D01*
X80797400Y-77876400D01*
X82042000Y-76631800D01*
X82448400Y-76631800D01*
X82499200Y-76682600D01*
G36*
X82499200Y-76682600D02*
G01*
X82499200Y-77876400D01*
X80797400Y-77876400D01*
X82042000Y-76631800D01*
X82448400Y-76631800D01*
X82499200Y-76682600D01*
G37*
X82448400Y-76631800D02*
X82042000Y-76631800D01*
X80797400Y-75387200D01*
X82448400Y-75387200D01*
X82448400Y-76631800D01*
G36*
X82448400Y-76631800D02*
G01*
X82042000Y-76631800D01*
X80797400Y-75387200D01*
X82448400Y-75387200D01*
X82448400Y-76631800D01*
G37*
X95275400Y-75387200D02*
X82448400Y-75387200D01*
X95275400Y-77876400D02*
X95275400Y-75387200D01*
X82499200Y-77876400D02*
X95275400Y-77876400D01*
X81559400Y-77876400D02*
X83261200Y-77876400D01*
X82804000Y-76631800D02*
X81559400Y-77876400D01*
X81559400Y-75387200D02*
X83210400Y-75387200D01*
X82804000Y-76631800D02*
X81559400Y-75387200D01*
G36*
X96492279Y-75629346D02*
G01*
X97087743Y-75629346D01*
X97297181Y-76730027D01*
X97602241Y-75629346D01*
X98194163Y-75629346D01*
X98500688Y-76728073D01*
X98710004Y-75629346D01*
X99302782Y-75629346D01*
X98859847Y-77638000D01*
X98247042Y-77638000D01*
X97898874Y-76388942D01*
X97552049Y-77638000D01*
X96939366Y-77638000D01*
X96492279Y-75629346D01*
G37*
G36*
X100404817Y-76153136D02*
G01*
X100569303Y-76173397D01*
X100667449Y-76199760D01*
X100751504Y-76239089D01*
X100823560Y-76291122D01*
X100885993Y-76363452D01*
X100936644Y-76466855D01*
X100968002Y-76579985D01*
X100977921Y-76683743D01*
X100977921Y-77325002D01*
X100981593Y-77421570D01*
X100990744Y-77484859D01*
X101009842Y-77546257D01*
X101049973Y-77638000D01*
X100519477Y-77638000D01*
X100477101Y-77548240D01*
X100459027Y-77461046D01*
X100350694Y-77550566D01*
X100245925Y-77608324D01*
X100145323Y-77641291D01*
X100031226Y-77662003D01*
X99901543Y-77669263D01*
X99769798Y-77660439D01*
X99662510Y-77636031D01*
X99575337Y-77598269D01*
X99504770Y-77548118D01*
X99444556Y-77482880D01*
X99402712Y-77412254D01*
X99377571Y-77334954D01*
X99368971Y-77249043D01*
X99373581Y-77206056D01*
X99934149Y-77206056D01*
X99945438Y-77263542D01*
X99978724Y-77308882D01*
X100030720Y-77337811D01*
X100110615Y-77348816D01*
X100199502Y-77337805D01*
X100281463Y-77304974D01*
X100350667Y-77254701D01*
X100393448Y-77198118D01*
X100417398Y-77129297D01*
X100426421Y-77033743D01*
X100426421Y-76951799D01*
X100192192Y-77021408D01*
X100040967Y-77070957D01*
X99979334Y-77107870D01*
X99945059Y-77154943D01*
X99934149Y-77206056D01*
X99373581Y-77206056D01*
X99380474Y-77141787D01*
X99413285Y-77051586D01*
X99466913Y-76974758D01*
X99539986Y-76915674D01*
X99655126Y-76861656D01*
X99827049Y-76815390D01*
X100232492Y-76727462D01*
X100426421Y-76662249D01*
X100414522Y-76572090D01*
X100385144Y-76521810D01*
X100333845Y-76493104D01*
X100239087Y-76481265D01*
X100113544Y-76493613D01*
X100036243Y-76524374D01*
X99991629Y-76569138D01*
X99950758Y-76653457D01*
X99411836Y-76598013D01*
X99451838Y-76464038D01*
X99500130Y-76373676D01*
X99567691Y-76300474D01*
X99664750Y-76234214D01*
X99750047Y-76198372D01*
X99876142Y-76168390D01*
X100013397Y-76151193D01*
X100166669Y-76145187D01*
X100404817Y-76153136D01*
G37*
G36*
X101934987Y-75626904D02*
G01*
X101934987Y-76176450D01*
X102241023Y-76176450D01*
X102241023Y-76590686D01*
X101934987Y-76590686D01*
X101934987Y-77104329D01*
X101940483Y-77188474D01*
X101952206Y-77225962D01*
X101986781Y-77258718D01*
X102044408Y-77270658D01*
X102111118Y-77262972D01*
X102220018Y-77233655D01*
X102261906Y-77623589D01*
X102054855Y-77658375D01*
X101872339Y-77669263D01*
X101732801Y-77661874D01*
X101633268Y-77642716D01*
X101564348Y-77615407D01*
X101504122Y-77573560D01*
X101455401Y-77519610D01*
X101417314Y-77451886D01*
X101393614Y-77376345D01*
X101376511Y-77262515D01*
X101369809Y-77098101D01*
X101369809Y-76590686D01*
X101164889Y-76590686D01*
X101164889Y-76176450D01*
X101369809Y-76176450D01*
X101369809Y-75913889D01*
X101934987Y-75626904D01*
G37*
G36*
X103557004Y-77059266D02*
G01*
X104093239Y-77122769D01*
X104056221Y-77232648D01*
X104007723Y-77329168D01*
X103947914Y-77413907D01*
X103875720Y-77487947D01*
X103790817Y-77550613D01*
X103691703Y-77602218D01*
X103585649Y-77637686D01*
X103455288Y-77660858D01*
X103295908Y-77669263D01*
X103074499Y-77657414D01*
X102910126Y-77626154D01*
X102810562Y-77590763D01*
X102722427Y-77544117D01*
X102644390Y-77486203D01*
X102544952Y-77380725D01*
X102469879Y-77258935D01*
X102436721Y-77169636D01*
X102414794Y-77056212D01*
X102406742Y-76913331D01*
X102416198Y-76764990D01*
X102442573Y-76641558D01*
X102483678Y-76538907D01*
X102549752Y-76435494D01*
X102637551Y-76342047D01*
X102738512Y-76264731D01*
X102838197Y-76212354D01*
X102949152Y-76176943D01*
X103086792Y-76153666D01*
X103256341Y-76145187D01*
X103438862Y-76154799D01*
X103586627Y-76181181D01*
X103705433Y-76221359D01*
X103800269Y-76273415D01*
X103885508Y-76343535D01*
X103957737Y-76428776D01*
X104017580Y-76530937D01*
X104064784Y-76652602D01*
X103533434Y-76724043D01*
X103497289Y-76635376D01*
X103444530Y-76576642D01*
X103372934Y-76541233D01*
X103272705Y-76528160D01*
X103186432Y-76539417D01*
X103114042Y-76571877D01*
X103052154Y-76626346D01*
X103008084Y-76696764D01*
X102978849Y-76793377D01*
X102967890Y-76924322D01*
X102978484Y-77040224D01*
X103007192Y-77128079D01*
X103051421Y-77194332D01*
X103112245Y-77245399D01*
X103182284Y-77275794D01*
X103264523Y-77286290D01*
X103334680Y-77279809D01*
X103394498Y-77261339D01*
X103445995Y-77231457D01*
X103489078Y-77190246D01*
X103526207Y-77133967D01*
X103557004Y-77059266D01*
G37*
G36*
X104316232Y-75629346D02*
G01*
X104880067Y-75629346D01*
X104880067Y-76360121D01*
X104991830Y-76260785D01*
X105100008Y-76196600D01*
X105219468Y-76158753D01*
X105366721Y-76145187D01*
X105479472Y-76154694D01*
X105575100Y-76181645D01*
X105656755Y-76224810D01*
X105726735Y-76284528D01*
X105780797Y-76357208D01*
X105821830Y-76449401D01*
X105848612Y-76565528D01*
X105858382Y-76711098D01*
X105858382Y-77638000D01*
X105291738Y-77638000D01*
X105291738Y-76836639D01*
X105284939Y-76747424D01*
X105267461Y-76686465D01*
X105242279Y-76646129D01*
X105205926Y-76615986D01*
X105160401Y-76597350D01*
X105102939Y-76590686D01*
X105040289Y-76599227D01*
X104987417Y-76623989D01*
X104941860Y-76665913D01*
X104910974Y-76720318D01*
X104888849Y-76806704D01*
X104880067Y-76937755D01*
X104880067Y-77638000D01*
X104316232Y-77638000D01*
X104316232Y-75629346D01*
G37*
G36*
X88552999Y-77033743D02*
G01*
X88543976Y-77129297D01*
X88520026Y-77198118D01*
X88477245Y-77254701D01*
X88408041Y-77304974D01*
X88326080Y-77337805D01*
X88237193Y-77348816D01*
X88157298Y-77337811D01*
X88105302Y-77308882D01*
X88072016Y-77263542D01*
X88060727Y-77206056D01*
X88071637Y-77154943D01*
X88105912Y-77107870D01*
X88167545Y-77070957D01*
X88318770Y-77021408D01*
X88552999Y-76951799D01*
X88552999Y-77033743D01*
G37*
G36*
X92901906Y-76489305D02*
G01*
X92961777Y-76512080D01*
X93011652Y-76549165D01*
X93049257Y-76598960D01*
X93078367Y-76670466D01*
X93096893Y-76770449D01*
X92557605Y-76770449D01*
X92581638Y-76657195D01*
X92620497Y-76583725D01*
X92678790Y-76526542D01*
X92747214Y-76492886D01*
X92829203Y-76481265D01*
X92901906Y-76489305D01*
G37*
G36*
X95296871Y-77891485D02*
G01*
X82449776Y-77891485D01*
X82449776Y-76964256D01*
X82671998Y-76964256D01*
X82696902Y-77115607D01*
X82742799Y-77248796D01*
X82809040Y-77366663D01*
X82896335Y-77471304D01*
X82976078Y-77535083D01*
X83080814Y-77588687D01*
X83216134Y-77630828D01*
X83388835Y-77658919D01*
X83606715Y-77669263D01*
X83800389Y-77658803D01*
X83959884Y-77629864D01*
X84090682Y-77585365D01*
X84211057Y-77519568D01*
X84310036Y-77437704D01*
X84390124Y-77338924D01*
X84449921Y-77226657D01*
X84485400Y-77108959D01*
X84497346Y-76983673D01*
X84488189Y-76876525D01*
X84461342Y-76778205D01*
X84416868Y-76686918D01*
X84355411Y-76606333D01*
X84271182Y-76532413D01*
X84160047Y-76465023D01*
X84037701Y-76413083D01*
X83850153Y-76354259D01*
X83577528Y-76288558D01*
X83430939Y-76248509D01*
X83371509Y-76216018D01*
X83338084Y-76175686D01*
X83327790Y-76133341D01*
X83340811Y-76075344D01*
X83381157Y-76025508D01*
X83443425Y-75993459D01*
X83541136Y-75981056D01*
X83625713Y-75988599D01*
X83692112Y-76009324D01*
X83744224Y-76041628D01*
X83785256Y-76086937D01*
X83817989Y-76151021D01*
X83841188Y-76239221D01*
X84432256Y-76204660D01*
X84426457Y-76176450D01*
X84767968Y-76176450D01*
X84767968Y-77638000D01*
X85333145Y-77638000D01*
X85333145Y-76890372D01*
X85341356Y-76781765D01*
X85362647Y-76705953D01*
X85393596Y-76654434D01*
X85437930Y-76614456D01*
X85488609Y-76590939D01*
X85547835Y-76582870D01*
X85601964Y-76591213D01*
X85647975Y-76615721D01*
X85684221Y-76653539D01*
X85708180Y-76702305D01*
X85715449Y-76743664D01*
X85718805Y-76831387D01*
X85718805Y-77638000D01*
X86284105Y-77638000D01*
X86284105Y-76880236D01*
X86292036Y-76776939D01*
X86312743Y-76703807D01*
X86343090Y-76653212D01*
X86386585Y-76614183D01*
X86437669Y-76590937D01*
X86498794Y-76582870D01*
X86549404Y-76590876D01*
X86594205Y-76614811D01*
X86635082Y-76656998D01*
X86661864Y-76712153D01*
X86672451Y-76801834D01*
X86672451Y-77638000D01*
X87237751Y-77638000D01*
X87237751Y-77249043D01*
X87495550Y-77249043D01*
X87504150Y-77334954D01*
X87529290Y-77412254D01*
X87571134Y-77482880D01*
X87631349Y-77548118D01*
X87701915Y-77598269D01*
X87789088Y-77636031D01*
X87896376Y-77660439D01*
X88028121Y-77669263D01*
X88157804Y-77662003D01*
X88271901Y-77641291D01*
X88372503Y-77608324D01*
X88477272Y-77550566D01*
X88585605Y-77461046D01*
X88603679Y-77548240D01*
X88646055Y-77638000D01*
X89176551Y-77638000D01*
X89136421Y-77546257D01*
X89117322Y-77484859D01*
X89108171Y-77421570D01*
X89104499Y-77325002D01*
X89104499Y-76683743D01*
X89094580Y-76579985D01*
X89063222Y-76466855D01*
X89012571Y-76363452D01*
X88950138Y-76291122D01*
X88878083Y-76239089D01*
X88794027Y-76199760D01*
X88707247Y-76176450D01*
X89435326Y-76176450D01*
X89435326Y-77638000D01*
X90001970Y-77638000D01*
X90001970Y-77146217D01*
X90014527Y-76911911D01*
X90045595Y-76761951D01*
X90087455Y-76671653D01*
X90132479Y-76622007D01*
X90186793Y-76592944D01*
X90253540Y-76582870D01*
X90314527Y-76591699D01*
X90411321Y-76625247D01*
X90586443Y-76222246D01*
X90483999Y-76177562D01*
X90479911Y-76176450D01*
X90649457Y-76176450D01*
X90649457Y-76590686D01*
X90854377Y-76590686D01*
X90854377Y-77098101D01*
X90861079Y-77262515D01*
X90878182Y-77376345D01*
X90901882Y-77451886D01*
X90939970Y-77519610D01*
X90988691Y-77573560D01*
X91048917Y-77615407D01*
X91117836Y-77642716D01*
X91217370Y-77661874D01*
X91356907Y-77669263D01*
X91539423Y-77658375D01*
X91746474Y-77623589D01*
X91704587Y-77233655D01*
X91595686Y-77262972D01*
X91528976Y-77270658D01*
X91471350Y-77258718D01*
X91436774Y-77225962D01*
X91425051Y-77188474D01*
X91419555Y-77104329D01*
X91419555Y-76909912D01*
X91982413Y-76909912D01*
X91995187Y-77066959D01*
X92031939Y-77205238D01*
X92091589Y-77328055D01*
X92172730Y-77438125D01*
X92264280Y-77523701D01*
X92367095Y-77587563D01*
X92481088Y-77630124D01*
X92630101Y-77658661D01*
X92822486Y-77669263D01*
X93044004Y-77656496D01*
X93210648Y-77622548D01*
X93333931Y-77572542D01*
X93443102Y-77497169D01*
X93545543Y-77390793D01*
X93641677Y-77247699D01*
X93085780Y-77200194D01*
X93031858Y-77259691D01*
X92988571Y-77292640D01*
X92913367Y-77323123D01*
X92834698Y-77333184D01*
X92753730Y-77322445D01*
X92685626Y-77291408D01*
X92627214Y-77239151D01*
X92596181Y-77192449D01*
X92572026Y-77128910D01*
X92556261Y-77044001D01*
X93670619Y-77044001D01*
X93670619Y-76977567D01*
X93658735Y-76788359D01*
X93626038Y-76635505D01*
X93575853Y-76512528D01*
X93502907Y-76402494D01*
X93411510Y-76312049D01*
X93299737Y-76239465D01*
X93175108Y-76190175D01*
X93107545Y-76176450D01*
X93923533Y-76176450D01*
X93923533Y-77638000D01*
X94490176Y-77638000D01*
X94490176Y-77146217D01*
X94502733Y-76911911D01*
X94533801Y-76761951D01*
X94575661Y-76671653D01*
X94620685Y-76622007D01*
X94674999Y-76592944D01*
X94741746Y-76582870D01*
X94802734Y-76591699D01*
X94899527Y-76625247D01*
X95074649Y-76222246D01*
X94972206Y-76177562D01*
X94881535Y-76152898D01*
X94800487Y-76145187D01*
X94723223Y-76152107D01*
X94657395Y-76171800D01*
X94600818Y-76203561D01*
X94552175Y-76247230D01*
X94502536Y-76311349D01*
X94451830Y-76401032D01*
X94451830Y-76176450D01*
X93923533Y-76176450D01*
X93107545Y-76176450D01*
X93013468Y-76157339D01*
X92806000Y-76145187D01*
X92649952Y-76154707D01*
X92514153Y-76181781D01*
X92395688Y-76224802D01*
X92292101Y-76283045D01*
X92201499Y-76356702D01*
X92106653Y-76469062D01*
X92038845Y-76596546D01*
X91997013Y-76742122D01*
X91994548Y-76770449D01*
X91982413Y-76909912D01*
X91419555Y-76909912D01*
X91419555Y-76590686D01*
X91725591Y-76590686D01*
X91725591Y-76176450D01*
X91419555Y-76176450D01*
X91419555Y-75626904D01*
X90854377Y-75913889D01*
X90854377Y-76176450D01*
X90649457Y-76176450D01*
X90479911Y-76176450D01*
X90393329Y-76152898D01*
X90312280Y-76145187D01*
X90235016Y-76152107D01*
X90169189Y-76171800D01*
X90112612Y-76203561D01*
X90063968Y-76247230D01*
X90014330Y-76311349D01*
X89963624Y-76401032D01*
X89963624Y-76176450D01*
X89435326Y-76176450D01*
X88707247Y-76176450D01*
X88695881Y-76173397D01*
X88531395Y-76153136D01*
X88293247Y-76145187D01*
X88139975Y-76151193D01*
X88002720Y-76168390D01*
X87876625Y-76198372D01*
X87791328Y-76234214D01*
X87694269Y-76300474D01*
X87626708Y-76373676D01*
X87578416Y-76464038D01*
X87538414Y-76598013D01*
X88077336Y-76653457D01*
X88118207Y-76569138D01*
X88162821Y-76524374D01*
X88240122Y-76493613D01*
X88365665Y-76481265D01*
X88460423Y-76493104D01*
X88511722Y-76521810D01*
X88541100Y-76572090D01*
X88552999Y-76662249D01*
X88359070Y-76727462D01*
X87953627Y-76815390D01*
X87781704Y-76861656D01*
X87666564Y-76915674D01*
X87593491Y-76974758D01*
X87539863Y-77051586D01*
X87507052Y-77141787D01*
X87500160Y-77206056D01*
X87495550Y-77249043D01*
X87237751Y-77249043D01*
X87237751Y-76722089D01*
X87227830Y-76571182D01*
X87200757Y-76451863D01*
X87159513Y-76358130D01*
X87105494Y-76285138D01*
X87035173Y-76225415D01*
X86952281Y-76182038D01*
X86854324Y-76154825D01*
X86737908Y-76145187D01*
X86632526Y-76151474D01*
X86544061Y-76169055D01*
X86469852Y-76196478D01*
X86363342Y-76263713D01*
X86233180Y-76385156D01*
X86186303Y-76312158D01*
X86131691Y-76253251D01*
X86068927Y-76206859D01*
X85998197Y-76174366D01*
X85907646Y-76153024D01*
X85792444Y-76145187D01*
X85685540Y-76151952D01*
X85594004Y-76171060D01*
X85515473Y-76201241D01*
X85406302Y-76271432D01*
X85294921Y-76381248D01*
X85294921Y-76176450D01*
X84767968Y-76176450D01*
X84426457Y-76176450D01*
X84400056Y-76048016D01*
X84348226Y-75922149D01*
X84278482Y-75821509D01*
X84190455Y-75742187D01*
X84087530Y-75683509D01*
X83958970Y-75638390D01*
X83799437Y-75608835D01*
X83602685Y-75598083D01*
X83393352Y-75608366D01*
X83231563Y-75635966D01*
X83108337Y-75676852D01*
X82994754Y-75738132D01*
X82905711Y-75810362D01*
X82837716Y-75893739D01*
X82787133Y-75988897D01*
X82757470Y-76086117D01*
X82747591Y-76187075D01*
X82758927Y-76301600D01*
X82791816Y-76402871D01*
X82846135Y-76493691D01*
X82923812Y-76575909D01*
X83012444Y-76640284D01*
X83133807Y-76703038D01*
X83295474Y-76763194D01*
X83506087Y-76819175D01*
X83673039Y-76862727D01*
X83770606Y-76901035D01*
X83821404Y-76933847D01*
X83859658Y-76977090D01*
X83881230Y-77021771D01*
X83888327Y-77069402D01*
X83880798Y-77119471D01*
X83858021Y-77165781D01*
X83817741Y-77209964D01*
X83767333Y-77242181D01*
X83701624Y-77263013D01*
X83616240Y-77270658D01*
X83530456Y-77262455D01*
X83458541Y-77239206D01*
X83397706Y-77201726D01*
X83346108Y-77149147D01*
X83314036Y-77096038D01*
X83287659Y-77023511D01*
X83268561Y-76926520D01*
X82671998Y-76964256D01*
X82449776Y-76964256D01*
X82449776Y-75375861D01*
X95296871Y-75375861D01*
X95296871Y-77891485D01*
G37*
X70300000Y-51250000D02*
X70025000Y-51250000D01*
X70025000Y-51250000D02*
X70025000Y-50950000D01*
X69800000Y-53400000D02*
X70350000Y-53400000D01*
X69750000Y-51250000D02*
X70300000Y-51250000D01*
X70025000Y-50950000D02*
X70025000Y-51550000D01*
D11*
X81142261Y-75100057D02*
X81047023Y-75052438D01*
X81047023Y-75052438D02*
X80951785Y-74957200D01*
X80951785Y-74957200D02*
X80808928Y-74814342D01*
X80808928Y-74814342D02*
X80713690Y-74766723D01*
X80713690Y-74766723D02*
X80618452Y-74766723D01*
X80666071Y-75004819D02*
X80570833Y-74957200D01*
X80570833Y-74957200D02*
X80475595Y-74861961D01*
X80475595Y-74861961D02*
X80427976Y-74671485D01*
X80427976Y-74671485D02*
X80427976Y-74338152D01*
X80427976Y-74338152D02*
X80475595Y-74147676D01*
X80475595Y-74147676D02*
X80570833Y-74052438D01*
X80570833Y-74052438D02*
X80666071Y-74004819D01*
X80666071Y-74004819D02*
X80856547Y-74004819D01*
X80856547Y-74004819D02*
X80951785Y-74052438D01*
X80951785Y-74052438D02*
X81047023Y-74147676D01*
X81047023Y-74147676D02*
X81094642Y-74338152D01*
X81094642Y-74338152D02*
X81094642Y-74671485D01*
X81094642Y-74671485D02*
X81047023Y-74861961D01*
X81047023Y-74861961D02*
X80951785Y-74957200D01*
X80951785Y-74957200D02*
X80856547Y-75004819D01*
X80856547Y-75004819D02*
X80666071Y-75004819D01*
X82047023Y-75004819D02*
X81475595Y-75004819D01*
X81761309Y-75004819D02*
X81761309Y-74004819D01*
X81761309Y-74004819D02*
X81666071Y-74147676D01*
X81666071Y-74147676D02*
X81570833Y-74242914D01*
X81570833Y-74242914D02*
X81475595Y-74290533D01*
X76984819Y-43761904D02*
X77794342Y-43761904D01*
X77794342Y-43761904D02*
X77889580Y-43714285D01*
X77889580Y-43714285D02*
X77937200Y-43666666D01*
X77937200Y-43666666D02*
X77984819Y-43571428D01*
X77984819Y-43571428D02*
X77984819Y-43380952D01*
X77984819Y-43380952D02*
X77937200Y-43285714D01*
X77937200Y-43285714D02*
X77889580Y-43238095D01*
X77889580Y-43238095D02*
X77794342Y-43190476D01*
X77794342Y-43190476D02*
X76984819Y-43190476D01*
X77413390Y-42571428D02*
X77365771Y-42666666D01*
X77365771Y-42666666D02*
X77318152Y-42714285D01*
X77318152Y-42714285D02*
X77222914Y-42761904D01*
X77222914Y-42761904D02*
X77175295Y-42761904D01*
X77175295Y-42761904D02*
X77080057Y-42714285D01*
X77080057Y-42714285D02*
X77032438Y-42666666D01*
X77032438Y-42666666D02*
X76984819Y-42571428D01*
X76984819Y-42571428D02*
X76984819Y-42380952D01*
X76984819Y-42380952D02*
X77032438Y-42285714D01*
X77032438Y-42285714D02*
X77080057Y-42238095D01*
X77080057Y-42238095D02*
X77175295Y-42190476D01*
X77175295Y-42190476D02*
X77222914Y-42190476D01*
X77222914Y-42190476D02*
X77318152Y-42238095D01*
X77318152Y-42238095D02*
X77365771Y-42285714D01*
X77365771Y-42285714D02*
X77413390Y-42380952D01*
X77413390Y-42380952D02*
X77413390Y-42571428D01*
X77413390Y-42571428D02*
X77461009Y-42666666D01*
X77461009Y-42666666D02*
X77508628Y-42714285D01*
X77508628Y-42714285D02*
X77603866Y-42761904D01*
X77603866Y-42761904D02*
X77794342Y-42761904D01*
X77794342Y-42761904D02*
X77889580Y-42714285D01*
X77889580Y-42714285D02*
X77937200Y-42666666D01*
X77937200Y-42666666D02*
X77984819Y-42571428D01*
X77984819Y-42571428D02*
X77984819Y-42380952D01*
X77984819Y-42380952D02*
X77937200Y-42285714D01*
X77937200Y-42285714D02*
X77889580Y-42238095D01*
X77889580Y-42238095D02*
X77794342Y-42190476D01*
X77794342Y-42190476D02*
X77603866Y-42190476D01*
X77603866Y-42190476D02*
X77508628Y-42238095D01*
X77508628Y-42238095D02*
X77461009Y-42285714D01*
X77461009Y-42285714D02*
X77413390Y-42380952D01*
X87512557Y-47645238D02*
X87464938Y-47740476D01*
X87464938Y-47740476D02*
X87369700Y-47835714D01*
X87369700Y-47835714D02*
X87226842Y-47978571D01*
X87226842Y-47978571D02*
X87179223Y-48073809D01*
X87179223Y-48073809D02*
X87179223Y-48169047D01*
X87417319Y-48121428D02*
X87369700Y-48216666D01*
X87369700Y-48216666D02*
X87274461Y-48311904D01*
X87274461Y-48311904D02*
X87083985Y-48359523D01*
X87083985Y-48359523D02*
X86750652Y-48359523D01*
X86750652Y-48359523D02*
X86560176Y-48311904D01*
X86560176Y-48311904D02*
X86464938Y-48216666D01*
X86464938Y-48216666D02*
X86417319Y-48121428D01*
X86417319Y-48121428D02*
X86417319Y-47930952D01*
X86417319Y-47930952D02*
X86464938Y-47835714D01*
X86464938Y-47835714D02*
X86560176Y-47740476D01*
X86560176Y-47740476D02*
X86750652Y-47692857D01*
X86750652Y-47692857D02*
X87083985Y-47692857D01*
X87083985Y-47692857D02*
X87274461Y-47740476D01*
X87274461Y-47740476D02*
X87369700Y-47835714D01*
X87369700Y-47835714D02*
X87417319Y-47930952D01*
X87417319Y-47930952D02*
X87417319Y-48121428D01*
X86512557Y-47311904D02*
X86464938Y-47264285D01*
X86464938Y-47264285D02*
X86417319Y-47169047D01*
X86417319Y-47169047D02*
X86417319Y-46930952D01*
X86417319Y-46930952D02*
X86464938Y-46835714D01*
X86464938Y-46835714D02*
X86512557Y-46788095D01*
X86512557Y-46788095D02*
X86607795Y-46740476D01*
X86607795Y-46740476D02*
X86703033Y-46740476D01*
X86703033Y-46740476D02*
X86845890Y-46788095D01*
X86845890Y-46788095D02*
X87417319Y-47359523D01*
X87417319Y-47359523D02*
X87417319Y-46740476D01*
X86504542Y-69921780D02*
X86456923Y-69969400D01*
X86456923Y-69969400D02*
X86314066Y-70017019D01*
X86314066Y-70017019D02*
X86218828Y-70017019D01*
X86218828Y-70017019D02*
X86075971Y-69969400D01*
X86075971Y-69969400D02*
X85980733Y-69874161D01*
X85980733Y-69874161D02*
X85933114Y-69778923D01*
X85933114Y-69778923D02*
X85885495Y-69588447D01*
X85885495Y-69588447D02*
X85885495Y-69445590D01*
X85885495Y-69445590D02*
X85933114Y-69255114D01*
X85933114Y-69255114D02*
X85980733Y-69159876D01*
X85980733Y-69159876D02*
X86075971Y-69064638D01*
X86075971Y-69064638D02*
X86218828Y-69017019D01*
X86218828Y-69017019D02*
X86314066Y-69017019D01*
X86314066Y-69017019D02*
X86456923Y-69064638D01*
X86456923Y-69064638D02*
X86504542Y-69112257D01*
X86885495Y-69112257D02*
X86933114Y-69064638D01*
X86933114Y-69064638D02*
X87028352Y-69017019D01*
X87028352Y-69017019D02*
X87266447Y-69017019D01*
X87266447Y-69017019D02*
X87361685Y-69064638D01*
X87361685Y-69064638D02*
X87409304Y-69112257D01*
X87409304Y-69112257D02*
X87456923Y-69207495D01*
X87456923Y-69207495D02*
X87456923Y-69302733D01*
X87456923Y-69302733D02*
X87409304Y-69445590D01*
X87409304Y-69445590D02*
X86837876Y-70017019D01*
X86837876Y-70017019D02*
X87456923Y-70017019D01*
X88409304Y-70017019D02*
X87837876Y-70017019D01*
X88123590Y-70017019D02*
X88123590Y-69017019D01*
X88123590Y-69017019D02*
X88028352Y-69159876D01*
X88028352Y-69159876D02*
X87933114Y-69255114D01*
X87933114Y-69255114D02*
X87837876Y-69302733D01*
X82383333Y-67699580D02*
X82335714Y-67747200D01*
X82335714Y-67747200D02*
X82192857Y-67794819D01*
X82192857Y-67794819D02*
X82097619Y-67794819D01*
X82097619Y-67794819D02*
X81954762Y-67747200D01*
X81954762Y-67747200D02*
X81859524Y-67651961D01*
X81859524Y-67651961D02*
X81811905Y-67556723D01*
X81811905Y-67556723D02*
X81764286Y-67366247D01*
X81764286Y-67366247D02*
X81764286Y-67223390D01*
X81764286Y-67223390D02*
X81811905Y-67032914D01*
X81811905Y-67032914D02*
X81859524Y-66937676D01*
X81859524Y-66937676D02*
X81954762Y-66842438D01*
X81954762Y-66842438D02*
X82097619Y-66794819D01*
X82097619Y-66794819D02*
X82192857Y-66794819D01*
X82192857Y-66794819D02*
X82335714Y-66842438D01*
X82335714Y-66842438D02*
X82383333Y-66890057D01*
X82954762Y-67223390D02*
X82859524Y-67175771D01*
X82859524Y-67175771D02*
X82811905Y-67128152D01*
X82811905Y-67128152D02*
X82764286Y-67032914D01*
X82764286Y-67032914D02*
X82764286Y-66985295D01*
X82764286Y-66985295D02*
X82811905Y-66890057D01*
X82811905Y-66890057D02*
X82859524Y-66842438D01*
X82859524Y-66842438D02*
X82954762Y-66794819D01*
X82954762Y-66794819D02*
X83145238Y-66794819D01*
X83145238Y-66794819D02*
X83240476Y-66842438D01*
X83240476Y-66842438D02*
X83288095Y-66890057D01*
X83288095Y-66890057D02*
X83335714Y-66985295D01*
X83335714Y-66985295D02*
X83335714Y-67032914D01*
X83335714Y-67032914D02*
X83288095Y-67128152D01*
X83288095Y-67128152D02*
X83240476Y-67175771D01*
X83240476Y-67175771D02*
X83145238Y-67223390D01*
X83145238Y-67223390D02*
X82954762Y-67223390D01*
X82954762Y-67223390D02*
X82859524Y-67271009D01*
X82859524Y-67271009D02*
X82811905Y-67318628D01*
X82811905Y-67318628D02*
X82764286Y-67413866D01*
X82764286Y-67413866D02*
X82764286Y-67604342D01*
X82764286Y-67604342D02*
X82811905Y-67699580D01*
X82811905Y-67699580D02*
X82859524Y-67747200D01*
X82859524Y-67747200D02*
X82954762Y-67794819D01*
X82954762Y-67794819D02*
X83145238Y-67794819D01*
X83145238Y-67794819D02*
X83240476Y-67747200D01*
X83240476Y-67747200D02*
X83288095Y-67699580D01*
X83288095Y-67699580D02*
X83335714Y-67604342D01*
X83335714Y-67604342D02*
X83335714Y-67413866D01*
X83335714Y-67413866D02*
X83288095Y-67318628D01*
X83288095Y-67318628D02*
X83240476Y-67271009D01*
X83240476Y-67271009D02*
X83145238Y-67223390D01*
X103852742Y-56155780D02*
X103805123Y-56203400D01*
X103805123Y-56203400D02*
X103662266Y-56251019D01*
X103662266Y-56251019D02*
X103567028Y-56251019D01*
X103567028Y-56251019D02*
X103424171Y-56203400D01*
X103424171Y-56203400D02*
X103328933Y-56108161D01*
X103328933Y-56108161D02*
X103281314Y-56012923D01*
X103281314Y-56012923D02*
X103233695Y-55822447D01*
X103233695Y-55822447D02*
X103233695Y-55679590D01*
X103233695Y-55679590D02*
X103281314Y-55489114D01*
X103281314Y-55489114D02*
X103328933Y-55393876D01*
X103328933Y-55393876D02*
X103424171Y-55298638D01*
X103424171Y-55298638D02*
X103567028Y-55251019D01*
X103567028Y-55251019D02*
X103662266Y-55251019D01*
X103662266Y-55251019D02*
X103805123Y-55298638D01*
X103805123Y-55298638D02*
X103852742Y-55346257D01*
X104805123Y-56251019D02*
X104233695Y-56251019D01*
X104519409Y-56251019D02*
X104519409Y-55251019D01*
X104519409Y-55251019D02*
X104424171Y-55393876D01*
X104424171Y-55393876D02*
X104328933Y-55489114D01*
X104328933Y-55489114D02*
X104233695Y-55536733D01*
X105138457Y-55251019D02*
X105805123Y-55251019D01*
X105805123Y-55251019D02*
X105376552Y-56251019D01*
X78684780Y-77198457D02*
X78732400Y-77246076D01*
X78732400Y-77246076D02*
X78780019Y-77388933D01*
X78780019Y-77388933D02*
X78780019Y-77484171D01*
X78780019Y-77484171D02*
X78732400Y-77627028D01*
X78732400Y-77627028D02*
X78637161Y-77722266D01*
X78637161Y-77722266D02*
X78541923Y-77769885D01*
X78541923Y-77769885D02*
X78351447Y-77817504D01*
X78351447Y-77817504D02*
X78208590Y-77817504D01*
X78208590Y-77817504D02*
X78018114Y-77769885D01*
X78018114Y-77769885D02*
X77922876Y-77722266D01*
X77922876Y-77722266D02*
X77827638Y-77627028D01*
X77827638Y-77627028D02*
X77780019Y-77484171D01*
X77780019Y-77484171D02*
X77780019Y-77388933D01*
X77780019Y-77388933D02*
X77827638Y-77246076D01*
X77827638Y-77246076D02*
X77875257Y-77198457D01*
X77875257Y-76817504D02*
X77827638Y-76769885D01*
X77827638Y-76769885D02*
X77780019Y-76674647D01*
X77780019Y-76674647D02*
X77780019Y-76436552D01*
X77780019Y-76436552D02*
X77827638Y-76341314D01*
X77827638Y-76341314D02*
X77875257Y-76293695D01*
X77875257Y-76293695D02*
X77970495Y-76246076D01*
X77970495Y-76246076D02*
X78065733Y-76246076D01*
X78065733Y-76246076D02*
X78208590Y-76293695D01*
X78208590Y-76293695D02*
X78780019Y-76865123D01*
X78780019Y-76865123D02*
X78780019Y-76246076D01*
X77780019Y-75912742D02*
X77780019Y-75246076D01*
X77780019Y-75246076D02*
X78780019Y-75674647D01*
X71004285Y-49121009D02*
X71147142Y-49168628D01*
X71147142Y-49168628D02*
X71194761Y-49216247D01*
X71194761Y-49216247D02*
X71242380Y-49311485D01*
X71242380Y-49311485D02*
X71242380Y-49454342D01*
X71242380Y-49454342D02*
X71194761Y-49549580D01*
X71194761Y-49549580D02*
X71147142Y-49597200D01*
X71147142Y-49597200D02*
X71051904Y-49644819D01*
X71051904Y-49644819D02*
X70670952Y-49644819D01*
X70670952Y-49644819D02*
X70670952Y-48644819D01*
X70670952Y-48644819D02*
X71004285Y-48644819D01*
X71004285Y-48644819D02*
X71099523Y-48692438D01*
X71099523Y-48692438D02*
X71147142Y-48740057D01*
X71147142Y-48740057D02*
X71194761Y-48835295D01*
X71194761Y-48835295D02*
X71194761Y-48930533D01*
X71194761Y-48930533D02*
X71147142Y-49025771D01*
X71147142Y-49025771D02*
X71099523Y-49073390D01*
X71099523Y-49073390D02*
X71004285Y-49121009D01*
X71004285Y-49121009D02*
X70670952Y-49121009D01*
X71528095Y-48644819D02*
X72099523Y-48644819D01*
X71813809Y-49644819D02*
X71813809Y-48644819D01*
X72956666Y-49644819D02*
X72385238Y-49644819D01*
X72670952Y-49644819D02*
X72670952Y-48644819D01*
X72670952Y-48644819D02*
X72575714Y-48787676D01*
X72575714Y-48787676D02*
X72480476Y-48882914D01*
X72480476Y-48882914D02*
X72385238Y-48930533D01*
X89370180Y-63936905D02*
X88560657Y-63936905D01*
X88560657Y-63936905D02*
X88465419Y-63984524D01*
X88465419Y-63984524D02*
X88417800Y-64032143D01*
X88417800Y-64032143D02*
X88370180Y-64127381D01*
X88370180Y-64127381D02*
X88370180Y-64317857D01*
X88370180Y-64317857D02*
X88417800Y-64413095D01*
X88417800Y-64413095D02*
X88465419Y-64460714D01*
X88465419Y-64460714D02*
X88560657Y-64508333D01*
X88560657Y-64508333D02*
X89370180Y-64508333D01*
X89274942Y-64936905D02*
X89322561Y-64984524D01*
X89322561Y-64984524D02*
X89370180Y-65079762D01*
X89370180Y-65079762D02*
X89370180Y-65317857D01*
X89370180Y-65317857D02*
X89322561Y-65413095D01*
X89322561Y-65413095D02*
X89274942Y-65460714D01*
X89274942Y-65460714D02*
X89179704Y-65508333D01*
X89179704Y-65508333D02*
X89084466Y-65508333D01*
X89084466Y-65508333D02*
X88941609Y-65460714D01*
X88941609Y-65460714D02*
X88370180Y-64889286D01*
X88370180Y-64889286D02*
X88370180Y-65508333D01*
X88370180Y-66460714D02*
X88370180Y-65889286D01*
X88370180Y-66175000D02*
X89370180Y-66175000D01*
X89370180Y-66175000D02*
X89227323Y-66079762D01*
X89227323Y-66079762D02*
X89132085Y-65984524D01*
X89132085Y-65984524D02*
X89084466Y-65889286D01*
X86910820Y-62911400D02*
X87148915Y-62911400D01*
X87053677Y-63149495D02*
X87148915Y-62911400D01*
X87148915Y-62911400D02*
X87053677Y-62673305D01*
X87339391Y-63054257D02*
X87148915Y-62911400D01*
X87148915Y-62911400D02*
X87339391Y-62768543D01*
X88001181Y-62911401D02*
X87763086Y-62911401D01*
X87858324Y-62673306D02*
X87763086Y-62911401D01*
X87763086Y-62911401D02*
X87858324Y-63149496D01*
X87572610Y-62768544D02*
X87763086Y-62911401D01*
X87763086Y-62911401D02*
X87572610Y-63054258D01*
X106748342Y-59175819D02*
X106415009Y-58699628D01*
X106176914Y-59175819D02*
X106176914Y-58175819D01*
X106176914Y-58175819D02*
X106557866Y-58175819D01*
X106557866Y-58175819D02*
X106653104Y-58223438D01*
X106653104Y-58223438D02*
X106700723Y-58271057D01*
X106700723Y-58271057D02*
X106748342Y-58366295D01*
X106748342Y-58366295D02*
X106748342Y-58509152D01*
X106748342Y-58509152D02*
X106700723Y-58604390D01*
X106700723Y-58604390D02*
X106653104Y-58652009D01*
X106653104Y-58652009D02*
X106557866Y-58699628D01*
X106557866Y-58699628D02*
X106176914Y-58699628D01*
X107129295Y-58271057D02*
X107176914Y-58223438D01*
X107176914Y-58223438D02*
X107272152Y-58175819D01*
X107272152Y-58175819D02*
X107510247Y-58175819D01*
X107510247Y-58175819D02*
X107605485Y-58223438D01*
X107605485Y-58223438D02*
X107653104Y-58271057D01*
X107653104Y-58271057D02*
X107700723Y-58366295D01*
X107700723Y-58366295D02*
X107700723Y-58461533D01*
X107700723Y-58461533D02*
X107653104Y-58604390D01*
X107653104Y-58604390D02*
X107081676Y-59175819D01*
X107081676Y-59175819D02*
X107700723Y-59175819D01*
X108034057Y-58175819D02*
X108653104Y-58175819D01*
X108653104Y-58175819D02*
X108319771Y-58556771D01*
X108319771Y-58556771D02*
X108462628Y-58556771D01*
X108462628Y-58556771D02*
X108557866Y-58604390D01*
X108557866Y-58604390D02*
X108605485Y-58652009D01*
X108605485Y-58652009D02*
X108653104Y-58747247D01*
X108653104Y-58747247D02*
X108653104Y-58985342D01*
X108653104Y-58985342D02*
X108605485Y-59080580D01*
X108605485Y-59080580D02*
X108557866Y-59128200D01*
X108557866Y-59128200D02*
X108462628Y-59175819D01*
X108462628Y-59175819D02*
X108176914Y-59175819D01*
X108176914Y-59175819D02*
X108081676Y-59128200D01*
X108081676Y-59128200D02*
X108034057Y-59080580D01*
X106646742Y-55121980D02*
X106599123Y-55169600D01*
X106599123Y-55169600D02*
X106456266Y-55217219D01*
X106456266Y-55217219D02*
X106361028Y-55217219D01*
X106361028Y-55217219D02*
X106218171Y-55169600D01*
X106218171Y-55169600D02*
X106122933Y-55074361D01*
X106122933Y-55074361D02*
X106075314Y-54979123D01*
X106075314Y-54979123D02*
X106027695Y-54788647D01*
X106027695Y-54788647D02*
X106027695Y-54645790D01*
X106027695Y-54645790D02*
X106075314Y-54455314D01*
X106075314Y-54455314D02*
X106122933Y-54360076D01*
X106122933Y-54360076D02*
X106218171Y-54264838D01*
X106218171Y-54264838D02*
X106361028Y-54217219D01*
X106361028Y-54217219D02*
X106456266Y-54217219D01*
X106456266Y-54217219D02*
X106599123Y-54264838D01*
X106599123Y-54264838D02*
X106646742Y-54312457D01*
X107599123Y-55217219D02*
X107027695Y-55217219D01*
X107313409Y-55217219D02*
X107313409Y-54217219D01*
X107313409Y-54217219D02*
X107218171Y-54360076D01*
X107218171Y-54360076D02*
X107122933Y-54455314D01*
X107122933Y-54455314D02*
X107027695Y-54502933D01*
X108503885Y-54217219D02*
X108027695Y-54217219D01*
X108027695Y-54217219D02*
X107980076Y-54693409D01*
X107980076Y-54693409D02*
X108027695Y-54645790D01*
X108027695Y-54645790D02*
X108122933Y-54598171D01*
X108122933Y-54598171D02*
X108361028Y-54598171D01*
X108361028Y-54598171D02*
X108456266Y-54645790D01*
X108456266Y-54645790D02*
X108503885Y-54693409D01*
X108503885Y-54693409D02*
X108551504Y-54788647D01*
X108551504Y-54788647D02*
X108551504Y-55026742D01*
X108551504Y-55026742D02*
X108503885Y-55121980D01*
X108503885Y-55121980D02*
X108456266Y-55169600D01*
X108456266Y-55169600D02*
X108361028Y-55217219D01*
X108361028Y-55217219D02*
X108122933Y-55217219D01*
X108122933Y-55217219D02*
X108027695Y-55169600D01*
X108027695Y-55169600D02*
X107980076Y-55121980D01*
X82437180Y-54242457D02*
X82484800Y-54290076D01*
X82484800Y-54290076D02*
X82532419Y-54432933D01*
X82532419Y-54432933D02*
X82532419Y-54528171D01*
X82532419Y-54528171D02*
X82484800Y-54671028D01*
X82484800Y-54671028D02*
X82389561Y-54766266D01*
X82389561Y-54766266D02*
X82294323Y-54813885D01*
X82294323Y-54813885D02*
X82103847Y-54861504D01*
X82103847Y-54861504D02*
X81960990Y-54861504D01*
X81960990Y-54861504D02*
X81770514Y-54813885D01*
X81770514Y-54813885D02*
X81675276Y-54766266D01*
X81675276Y-54766266D02*
X81580038Y-54671028D01*
X81580038Y-54671028D02*
X81532419Y-54528171D01*
X81532419Y-54528171D02*
X81532419Y-54432933D01*
X81532419Y-54432933D02*
X81580038Y-54290076D01*
X81580038Y-54290076D02*
X81627657Y-54242457D01*
X82532419Y-53290076D02*
X82532419Y-53861504D01*
X82532419Y-53575790D02*
X81532419Y-53575790D01*
X81532419Y-53575790D02*
X81675276Y-53671028D01*
X81675276Y-53671028D02*
X81770514Y-53766266D01*
X81770514Y-53766266D02*
X81818133Y-53861504D01*
X81865752Y-52432933D02*
X82532419Y-52432933D01*
X81484800Y-52671028D02*
X82199085Y-52909123D01*
X82199085Y-52909123D02*
X82199085Y-52290076D01*
X82782142Y-66509580D02*
X82734523Y-66557200D01*
X82734523Y-66557200D02*
X82591666Y-66604819D01*
X82591666Y-66604819D02*
X82496428Y-66604819D01*
X82496428Y-66604819D02*
X82353571Y-66557200D01*
X82353571Y-66557200D02*
X82258333Y-66461961D01*
X82258333Y-66461961D02*
X82210714Y-66366723D01*
X82210714Y-66366723D02*
X82163095Y-66176247D01*
X82163095Y-66176247D02*
X82163095Y-66033390D01*
X82163095Y-66033390D02*
X82210714Y-65842914D01*
X82210714Y-65842914D02*
X82258333Y-65747676D01*
X82258333Y-65747676D02*
X82353571Y-65652438D01*
X82353571Y-65652438D02*
X82496428Y-65604819D01*
X82496428Y-65604819D02*
X82591666Y-65604819D01*
X82591666Y-65604819D02*
X82734523Y-65652438D01*
X82734523Y-65652438D02*
X82782142Y-65700057D01*
X83163095Y-65700057D02*
X83210714Y-65652438D01*
X83210714Y-65652438D02*
X83305952Y-65604819D01*
X83305952Y-65604819D02*
X83544047Y-65604819D01*
X83544047Y-65604819D02*
X83639285Y-65652438D01*
X83639285Y-65652438D02*
X83686904Y-65700057D01*
X83686904Y-65700057D02*
X83734523Y-65795295D01*
X83734523Y-65795295D02*
X83734523Y-65890533D01*
X83734523Y-65890533D02*
X83686904Y-66033390D01*
X83686904Y-66033390D02*
X83115476Y-66604819D01*
X83115476Y-66604819D02*
X83734523Y-66604819D01*
X84591666Y-65938152D02*
X84591666Y-66604819D01*
X84353571Y-65557200D02*
X84115476Y-66271485D01*
X84115476Y-66271485D02*
X84734523Y-66271485D01*
X100703142Y-55612180D02*
X100655523Y-55659800D01*
X100655523Y-55659800D02*
X100512666Y-55707419D01*
X100512666Y-55707419D02*
X100417428Y-55707419D01*
X100417428Y-55707419D02*
X100274571Y-55659800D01*
X100274571Y-55659800D02*
X100179333Y-55564561D01*
X100179333Y-55564561D02*
X100131714Y-55469323D01*
X100131714Y-55469323D02*
X100084095Y-55278847D01*
X100084095Y-55278847D02*
X100084095Y-55135990D01*
X100084095Y-55135990D02*
X100131714Y-54945514D01*
X100131714Y-54945514D02*
X100179333Y-54850276D01*
X100179333Y-54850276D02*
X100274571Y-54755038D01*
X100274571Y-54755038D02*
X100417428Y-54707419D01*
X100417428Y-54707419D02*
X100512666Y-54707419D01*
X100512666Y-54707419D02*
X100655523Y-54755038D01*
X100655523Y-54755038D02*
X100703142Y-54802657D01*
X101655523Y-55707419D02*
X101084095Y-55707419D01*
X101369809Y-55707419D02*
X101369809Y-54707419D01*
X101369809Y-54707419D02*
X101274571Y-54850276D01*
X101274571Y-54850276D02*
X101179333Y-54945514D01*
X101179333Y-54945514D02*
X101084095Y-54993133D01*
X102512666Y-54707419D02*
X102322190Y-54707419D01*
X102322190Y-54707419D02*
X102226952Y-54755038D01*
X102226952Y-54755038D02*
X102179333Y-54802657D01*
X102179333Y-54802657D02*
X102084095Y-54945514D01*
X102084095Y-54945514D02*
X102036476Y-55135990D01*
X102036476Y-55135990D02*
X102036476Y-55516942D01*
X102036476Y-55516942D02*
X102084095Y-55612180D01*
X102084095Y-55612180D02*
X102131714Y-55659800D01*
X102131714Y-55659800D02*
X102226952Y-55707419D01*
X102226952Y-55707419D02*
X102417428Y-55707419D01*
X102417428Y-55707419D02*
X102512666Y-55659800D01*
X102512666Y-55659800D02*
X102560285Y-55612180D01*
X102560285Y-55612180D02*
X102607904Y-55516942D01*
X102607904Y-55516942D02*
X102607904Y-55278847D01*
X102607904Y-55278847D02*
X102560285Y-55183609D01*
X102560285Y-55183609D02*
X102512666Y-55135990D01*
X102512666Y-55135990D02*
X102417428Y-55088371D01*
X102417428Y-55088371D02*
X102226952Y-55088371D01*
X102226952Y-55088371D02*
X102131714Y-55135990D01*
X102131714Y-55135990D02*
X102084095Y-55183609D01*
X102084095Y-55183609D02*
X102036476Y-55278847D01*
X75199618Y-65884376D02*
X75199618Y-66402471D01*
X75199618Y-66402471D02*
X75230095Y-66463423D01*
X75230095Y-66463423D02*
X75260571Y-66493900D01*
X75260571Y-66493900D02*
X75321523Y-66524376D01*
X75321523Y-66524376D02*
X75443428Y-66524376D01*
X75443428Y-66524376D02*
X75504380Y-66493900D01*
X75504380Y-66493900D02*
X75534857Y-66463423D01*
X75534857Y-66463423D02*
X75565333Y-66402471D01*
X75565333Y-66402471D02*
X75565333Y-65884376D01*
X75839618Y-65945328D02*
X75870094Y-65914852D01*
X75870094Y-65914852D02*
X75931047Y-65884376D01*
X75931047Y-65884376D02*
X76083428Y-65884376D01*
X76083428Y-65884376D02*
X76144380Y-65914852D01*
X76144380Y-65914852D02*
X76174856Y-65945328D01*
X76174856Y-65945328D02*
X76205333Y-66006280D01*
X76205333Y-66006280D02*
X76205333Y-66067233D01*
X76205333Y-66067233D02*
X76174856Y-66158661D01*
X76174856Y-66158661D02*
X75809142Y-66524376D01*
X75809142Y-66524376D02*
X76205333Y-66524376D01*
X76753904Y-66097709D02*
X76753904Y-66524376D01*
X76601523Y-65853900D02*
X76449142Y-66311042D01*
X76449142Y-66311042D02*
X76845333Y-66311042D01*
X106545142Y-53431619D02*
X106211809Y-52955428D01*
X105973714Y-53431619D02*
X105973714Y-52431619D01*
X105973714Y-52431619D02*
X106354666Y-52431619D01*
X106354666Y-52431619D02*
X106449904Y-52479238D01*
X106449904Y-52479238D02*
X106497523Y-52526857D01*
X106497523Y-52526857D02*
X106545142Y-52622095D01*
X106545142Y-52622095D02*
X106545142Y-52764952D01*
X106545142Y-52764952D02*
X106497523Y-52860190D01*
X106497523Y-52860190D02*
X106449904Y-52907809D01*
X106449904Y-52907809D02*
X106354666Y-52955428D01*
X106354666Y-52955428D02*
X105973714Y-52955428D01*
X106926095Y-52526857D02*
X106973714Y-52479238D01*
X106973714Y-52479238D02*
X107068952Y-52431619D01*
X107068952Y-52431619D02*
X107307047Y-52431619D01*
X107307047Y-52431619D02*
X107402285Y-52479238D01*
X107402285Y-52479238D02*
X107449904Y-52526857D01*
X107449904Y-52526857D02*
X107497523Y-52622095D01*
X107497523Y-52622095D02*
X107497523Y-52717333D01*
X107497523Y-52717333D02*
X107449904Y-52860190D01*
X107449904Y-52860190D02*
X106878476Y-53431619D01*
X106878476Y-53431619D02*
X107497523Y-53431619D01*
X108402285Y-52431619D02*
X107926095Y-52431619D01*
X107926095Y-52431619D02*
X107878476Y-52907809D01*
X107878476Y-52907809D02*
X107926095Y-52860190D01*
X107926095Y-52860190D02*
X108021333Y-52812571D01*
X108021333Y-52812571D02*
X108259428Y-52812571D01*
X108259428Y-52812571D02*
X108354666Y-52860190D01*
X108354666Y-52860190D02*
X108402285Y-52907809D01*
X108402285Y-52907809D02*
X108449904Y-53003047D01*
X108449904Y-53003047D02*
X108449904Y-53241142D01*
X108449904Y-53241142D02*
X108402285Y-53336380D01*
X108402285Y-53336380D02*
X108354666Y-53384000D01*
X108354666Y-53384000D02*
X108259428Y-53431619D01*
X108259428Y-53431619D02*
X108021333Y-53431619D01*
X108021333Y-53431619D02*
X107926095Y-53384000D01*
X107926095Y-53384000D02*
X107878476Y-53336380D01*
X81082142Y-70059580D02*
X81034523Y-70107200D01*
X81034523Y-70107200D02*
X80891666Y-70154819D01*
X80891666Y-70154819D02*
X80796428Y-70154819D01*
X80796428Y-70154819D02*
X80653571Y-70107200D01*
X80653571Y-70107200D02*
X80558333Y-70011961D01*
X80558333Y-70011961D02*
X80510714Y-69916723D01*
X80510714Y-69916723D02*
X80463095Y-69726247D01*
X80463095Y-69726247D02*
X80463095Y-69583390D01*
X80463095Y-69583390D02*
X80510714Y-69392914D01*
X80510714Y-69392914D02*
X80558333Y-69297676D01*
X80558333Y-69297676D02*
X80653571Y-69202438D01*
X80653571Y-69202438D02*
X80796428Y-69154819D01*
X80796428Y-69154819D02*
X80891666Y-69154819D01*
X80891666Y-69154819D02*
X81034523Y-69202438D01*
X81034523Y-69202438D02*
X81082142Y-69250057D01*
X81463095Y-69250057D02*
X81510714Y-69202438D01*
X81510714Y-69202438D02*
X81605952Y-69154819D01*
X81605952Y-69154819D02*
X81844047Y-69154819D01*
X81844047Y-69154819D02*
X81939285Y-69202438D01*
X81939285Y-69202438D02*
X81986904Y-69250057D01*
X81986904Y-69250057D02*
X82034523Y-69345295D01*
X82034523Y-69345295D02*
X82034523Y-69440533D01*
X82034523Y-69440533D02*
X81986904Y-69583390D01*
X81986904Y-69583390D02*
X81415476Y-70154819D01*
X81415476Y-70154819D02*
X82034523Y-70154819D01*
X82939285Y-69154819D02*
X82463095Y-69154819D01*
X82463095Y-69154819D02*
X82415476Y-69631009D01*
X82415476Y-69631009D02*
X82463095Y-69583390D01*
X82463095Y-69583390D02*
X82558333Y-69535771D01*
X82558333Y-69535771D02*
X82796428Y-69535771D01*
X82796428Y-69535771D02*
X82891666Y-69583390D01*
X82891666Y-69583390D02*
X82939285Y-69631009D01*
X82939285Y-69631009D02*
X82986904Y-69726247D01*
X82986904Y-69726247D02*
X82986904Y-69964342D01*
X82986904Y-69964342D02*
X82939285Y-70059580D01*
X82939285Y-70059580D02*
X82891666Y-70107200D01*
X82891666Y-70107200D02*
X82796428Y-70154819D01*
X82796428Y-70154819D02*
X82558333Y-70154819D01*
X82558333Y-70154819D02*
X82463095Y-70107200D01*
X82463095Y-70107200D02*
X82415476Y-70059580D01*
X83657142Y-50304819D02*
X83323809Y-49828628D01*
X83085714Y-50304819D02*
X83085714Y-49304819D01*
X83085714Y-49304819D02*
X83466666Y-49304819D01*
X83466666Y-49304819D02*
X83561904Y-49352438D01*
X83561904Y-49352438D02*
X83609523Y-49400057D01*
X83609523Y-49400057D02*
X83657142Y-49495295D01*
X83657142Y-49495295D02*
X83657142Y-49638152D01*
X83657142Y-49638152D02*
X83609523Y-49733390D01*
X83609523Y-49733390D02*
X83561904Y-49781009D01*
X83561904Y-49781009D02*
X83466666Y-49828628D01*
X83466666Y-49828628D02*
X83085714Y-49828628D01*
X84609523Y-50304819D02*
X84038095Y-50304819D01*
X84323809Y-50304819D02*
X84323809Y-49304819D01*
X84323809Y-49304819D02*
X84228571Y-49447676D01*
X84228571Y-49447676D02*
X84133333Y-49542914D01*
X84133333Y-49542914D02*
X84038095Y-49590533D01*
X85514285Y-49304819D02*
X85038095Y-49304819D01*
X85038095Y-49304819D02*
X84990476Y-49781009D01*
X84990476Y-49781009D02*
X85038095Y-49733390D01*
X85038095Y-49733390D02*
X85133333Y-49685771D01*
X85133333Y-49685771D02*
X85371428Y-49685771D01*
X85371428Y-49685771D02*
X85466666Y-49733390D01*
X85466666Y-49733390D02*
X85514285Y-49781009D01*
X85514285Y-49781009D02*
X85561904Y-49876247D01*
X85561904Y-49876247D02*
X85561904Y-50114342D01*
X85561904Y-50114342D02*
X85514285Y-50209580D01*
X85514285Y-50209580D02*
X85466666Y-50257200D01*
X85466666Y-50257200D02*
X85371428Y-50304819D01*
X85371428Y-50304819D02*
X85133333Y-50304819D01*
X85133333Y-50304819D02*
X85038095Y-50257200D01*
X85038095Y-50257200D02*
X84990476Y-50209580D01*
X73112333Y-47671819D02*
X72779000Y-47195628D01*
X72540905Y-47671819D02*
X72540905Y-46671819D01*
X72540905Y-46671819D02*
X72921857Y-46671819D01*
X72921857Y-46671819D02*
X73017095Y-46719438D01*
X73017095Y-46719438D02*
X73064714Y-46767057D01*
X73064714Y-46767057D02*
X73112333Y-46862295D01*
X73112333Y-46862295D02*
X73112333Y-47005152D01*
X73112333Y-47005152D02*
X73064714Y-47100390D01*
X73064714Y-47100390D02*
X73017095Y-47148009D01*
X73017095Y-47148009D02*
X72921857Y-47195628D01*
X72921857Y-47195628D02*
X72540905Y-47195628D01*
X73493286Y-46767057D02*
X73540905Y-46719438D01*
X73540905Y-46719438D02*
X73636143Y-46671819D01*
X73636143Y-46671819D02*
X73874238Y-46671819D01*
X73874238Y-46671819D02*
X73969476Y-46719438D01*
X73969476Y-46719438D02*
X74017095Y-46767057D01*
X74017095Y-46767057D02*
X74064714Y-46862295D01*
X74064714Y-46862295D02*
X74064714Y-46957533D01*
X74064714Y-46957533D02*
X74017095Y-47100390D01*
X74017095Y-47100390D02*
X73445667Y-47671819D01*
X73445667Y-47671819D02*
X74064714Y-47671819D01*
X97524819Y-60110666D02*
X97048628Y-60443999D01*
X97524819Y-60682094D02*
X96524819Y-60682094D01*
X96524819Y-60682094D02*
X96524819Y-60301142D01*
X96524819Y-60301142D02*
X96572438Y-60205904D01*
X96572438Y-60205904D02*
X96620057Y-60158285D01*
X96620057Y-60158285D02*
X96715295Y-60110666D01*
X96715295Y-60110666D02*
X96858152Y-60110666D01*
X96858152Y-60110666D02*
X96953390Y-60158285D01*
X96953390Y-60158285D02*
X97001009Y-60205904D01*
X97001009Y-60205904D02*
X97048628Y-60301142D01*
X97048628Y-60301142D02*
X97048628Y-60682094D01*
X96858152Y-59253523D02*
X97524819Y-59253523D01*
X96477200Y-59491618D02*
X97191485Y-59729713D01*
X97191485Y-59729713D02*
X97191485Y-59110666D01*
X85857142Y-72654819D02*
X85523809Y-72178628D01*
X85285714Y-72654819D02*
X85285714Y-71654819D01*
X85285714Y-71654819D02*
X85666666Y-71654819D01*
X85666666Y-71654819D02*
X85761904Y-71702438D01*
X85761904Y-71702438D02*
X85809523Y-71750057D01*
X85809523Y-71750057D02*
X85857142Y-71845295D01*
X85857142Y-71845295D02*
X85857142Y-71988152D01*
X85857142Y-71988152D02*
X85809523Y-72083390D01*
X85809523Y-72083390D02*
X85761904Y-72131009D01*
X85761904Y-72131009D02*
X85666666Y-72178628D01*
X85666666Y-72178628D02*
X85285714Y-72178628D01*
X86809523Y-72654819D02*
X86238095Y-72654819D01*
X86523809Y-72654819D02*
X86523809Y-71654819D01*
X86523809Y-71654819D02*
X86428571Y-71797676D01*
X86428571Y-71797676D02*
X86333333Y-71892914D01*
X86333333Y-71892914D02*
X86238095Y-71940533D01*
X87428571Y-71654819D02*
X87523809Y-71654819D01*
X87523809Y-71654819D02*
X87619047Y-71702438D01*
X87619047Y-71702438D02*
X87666666Y-71750057D01*
X87666666Y-71750057D02*
X87714285Y-71845295D01*
X87714285Y-71845295D02*
X87761904Y-72035771D01*
X87761904Y-72035771D02*
X87761904Y-72273866D01*
X87761904Y-72273866D02*
X87714285Y-72464342D01*
X87714285Y-72464342D02*
X87666666Y-72559580D01*
X87666666Y-72559580D02*
X87619047Y-72607200D01*
X87619047Y-72607200D02*
X87523809Y-72654819D01*
X87523809Y-72654819D02*
X87428571Y-72654819D01*
X87428571Y-72654819D02*
X87333333Y-72607200D01*
X87333333Y-72607200D02*
X87285714Y-72559580D01*
X87285714Y-72559580D02*
X87238095Y-72464342D01*
X87238095Y-72464342D02*
X87190476Y-72273866D01*
X87190476Y-72273866D02*
X87190476Y-72035771D01*
X87190476Y-72035771D02*
X87238095Y-71845295D01*
X87238095Y-71845295D02*
X87285714Y-71750057D01*
X87285714Y-71750057D02*
X87333333Y-71702438D01*
X87333333Y-71702438D02*
X87428571Y-71654819D01*
X80534819Y-47016666D02*
X80058628Y-47349999D01*
X80534819Y-47588094D02*
X79534819Y-47588094D01*
X79534819Y-47588094D02*
X79534819Y-47207142D01*
X79534819Y-47207142D02*
X79582438Y-47111904D01*
X79582438Y-47111904D02*
X79630057Y-47064285D01*
X79630057Y-47064285D02*
X79725295Y-47016666D01*
X79725295Y-47016666D02*
X79868152Y-47016666D01*
X79868152Y-47016666D02*
X79963390Y-47064285D01*
X79963390Y-47064285D02*
X80011009Y-47111904D01*
X80011009Y-47111904D02*
X80058628Y-47207142D01*
X80058628Y-47207142D02*
X80058628Y-47588094D01*
X79963390Y-46445237D02*
X79915771Y-46540475D01*
X79915771Y-46540475D02*
X79868152Y-46588094D01*
X79868152Y-46588094D02*
X79772914Y-46635713D01*
X79772914Y-46635713D02*
X79725295Y-46635713D01*
X79725295Y-46635713D02*
X79630057Y-46588094D01*
X79630057Y-46588094D02*
X79582438Y-46540475D01*
X79582438Y-46540475D02*
X79534819Y-46445237D01*
X79534819Y-46445237D02*
X79534819Y-46254761D01*
X79534819Y-46254761D02*
X79582438Y-46159523D01*
X79582438Y-46159523D02*
X79630057Y-46111904D01*
X79630057Y-46111904D02*
X79725295Y-46064285D01*
X79725295Y-46064285D02*
X79772914Y-46064285D01*
X79772914Y-46064285D02*
X79868152Y-46111904D01*
X79868152Y-46111904D02*
X79915771Y-46159523D01*
X79915771Y-46159523D02*
X79963390Y-46254761D01*
X79963390Y-46254761D02*
X79963390Y-46445237D01*
X79963390Y-46445237D02*
X80011009Y-46540475D01*
X80011009Y-46540475D02*
X80058628Y-46588094D01*
X80058628Y-46588094D02*
X80153866Y-46635713D01*
X80153866Y-46635713D02*
X80344342Y-46635713D01*
X80344342Y-46635713D02*
X80439580Y-46588094D01*
X80439580Y-46588094D02*
X80487200Y-46540475D01*
X80487200Y-46540475D02*
X80534819Y-46445237D01*
X80534819Y-46445237D02*
X80534819Y-46254761D01*
X80534819Y-46254761D02*
X80487200Y-46159523D01*
X80487200Y-46159523D02*
X80439580Y-46111904D01*
X80439580Y-46111904D02*
X80344342Y-46064285D01*
X80344342Y-46064285D02*
X80153866Y-46064285D01*
X80153866Y-46064285D02*
X80058628Y-46111904D01*
X80058628Y-46111904D02*
X80011009Y-46159523D01*
X80011009Y-46159523D02*
X79963390Y-46254761D01*
X74851324Y-71954295D02*
X74851324Y-72601914D01*
X74851324Y-72601914D02*
X74889419Y-72678104D01*
X74889419Y-72678104D02*
X74927514Y-72716200D01*
X74927514Y-72716200D02*
X75003705Y-72754295D01*
X75003705Y-72754295D02*
X75156086Y-72754295D01*
X75156086Y-72754295D02*
X75232276Y-72716200D01*
X75232276Y-72716200D02*
X75270371Y-72678104D01*
X75270371Y-72678104D02*
X75308467Y-72601914D01*
X75308467Y-72601914D02*
X75308467Y-71954295D01*
X75651323Y-72030485D02*
X75689419Y-71992390D01*
X75689419Y-71992390D02*
X75765609Y-71954295D01*
X75765609Y-71954295D02*
X75956085Y-71954295D01*
X75956085Y-71954295D02*
X76032276Y-71992390D01*
X76032276Y-71992390D02*
X76070371Y-72030485D01*
X76070371Y-72030485D02*
X76108466Y-72106676D01*
X76108466Y-72106676D02*
X76108466Y-72182866D01*
X76108466Y-72182866D02*
X76070371Y-72297152D01*
X76070371Y-72297152D02*
X75613228Y-72754295D01*
X75613228Y-72754295D02*
X76108466Y-72754295D01*
X76832276Y-71954295D02*
X76451324Y-71954295D01*
X76451324Y-71954295D02*
X76413228Y-72335247D01*
X76413228Y-72335247D02*
X76451324Y-72297152D01*
X76451324Y-72297152D02*
X76527514Y-72259057D01*
X76527514Y-72259057D02*
X76717990Y-72259057D01*
X76717990Y-72259057D02*
X76794181Y-72297152D01*
X76794181Y-72297152D02*
X76832276Y-72335247D01*
X76832276Y-72335247D02*
X76870371Y-72411438D01*
X76870371Y-72411438D02*
X76870371Y-72601914D01*
X76870371Y-72601914D02*
X76832276Y-72678104D01*
X76832276Y-72678104D02*
X76794181Y-72716200D01*
X76794181Y-72716200D02*
X76717990Y-72754295D01*
X76717990Y-72754295D02*
X76527514Y-72754295D01*
X76527514Y-72754295D02*
X76451324Y-72716200D01*
X76451324Y-72716200D02*
X76413228Y-72678104D01*
X101312742Y-60659180D02*
X101265123Y-60706800D01*
X101265123Y-60706800D02*
X101122266Y-60754419D01*
X101122266Y-60754419D02*
X101027028Y-60754419D01*
X101027028Y-60754419D02*
X100884171Y-60706800D01*
X100884171Y-60706800D02*
X100788933Y-60611561D01*
X100788933Y-60611561D02*
X100741314Y-60516323D01*
X100741314Y-60516323D02*
X100693695Y-60325847D01*
X100693695Y-60325847D02*
X100693695Y-60182990D01*
X100693695Y-60182990D02*
X100741314Y-59992514D01*
X100741314Y-59992514D02*
X100788933Y-59897276D01*
X100788933Y-59897276D02*
X100884171Y-59802038D01*
X100884171Y-59802038D02*
X101027028Y-59754419D01*
X101027028Y-59754419D02*
X101122266Y-59754419D01*
X101122266Y-59754419D02*
X101265123Y-59802038D01*
X101265123Y-59802038D02*
X101312742Y-59849657D01*
X102265123Y-60754419D02*
X101693695Y-60754419D01*
X101979409Y-60754419D02*
X101979409Y-59754419D01*
X101979409Y-59754419D02*
X101884171Y-59897276D01*
X101884171Y-59897276D02*
X101788933Y-59992514D01*
X101788933Y-59992514D02*
X101693695Y-60040133D01*
X102741314Y-60754419D02*
X102931790Y-60754419D01*
X102931790Y-60754419D02*
X103027028Y-60706800D01*
X103027028Y-60706800D02*
X103074647Y-60659180D01*
X103074647Y-60659180D02*
X103169885Y-60516323D01*
X103169885Y-60516323D02*
X103217504Y-60325847D01*
X103217504Y-60325847D02*
X103217504Y-59944895D01*
X103217504Y-59944895D02*
X103169885Y-59849657D01*
X103169885Y-59849657D02*
X103122266Y-59802038D01*
X103122266Y-59802038D02*
X103027028Y-59754419D01*
X103027028Y-59754419D02*
X102836552Y-59754419D01*
X102836552Y-59754419D02*
X102741314Y-59802038D01*
X102741314Y-59802038D02*
X102693695Y-59849657D01*
X102693695Y-59849657D02*
X102646076Y-59944895D01*
X102646076Y-59944895D02*
X102646076Y-60182990D01*
X102646076Y-60182990D02*
X102693695Y-60278228D01*
X102693695Y-60278228D02*
X102741314Y-60325847D01*
X102741314Y-60325847D02*
X102836552Y-60373466D01*
X102836552Y-60373466D02*
X103027028Y-60373466D01*
X103027028Y-60373466D02*
X103122266Y-60325847D01*
X103122266Y-60325847D02*
X103169885Y-60278228D01*
X103169885Y-60278228D02*
X103217504Y-60182990D01*
X79507142Y-67784819D02*
X79173809Y-67308628D01*
X78935714Y-67784819D02*
X78935714Y-66784819D01*
X78935714Y-66784819D02*
X79316666Y-66784819D01*
X79316666Y-66784819D02*
X79411904Y-66832438D01*
X79411904Y-66832438D02*
X79459523Y-66880057D01*
X79459523Y-66880057D02*
X79507142Y-66975295D01*
X79507142Y-66975295D02*
X79507142Y-67118152D01*
X79507142Y-67118152D02*
X79459523Y-67213390D01*
X79459523Y-67213390D02*
X79411904Y-67261009D01*
X79411904Y-67261009D02*
X79316666Y-67308628D01*
X79316666Y-67308628D02*
X78935714Y-67308628D01*
X79840476Y-66784819D02*
X80459523Y-66784819D01*
X80459523Y-66784819D02*
X80126190Y-67165771D01*
X80126190Y-67165771D02*
X80269047Y-67165771D01*
X80269047Y-67165771D02*
X80364285Y-67213390D01*
X80364285Y-67213390D02*
X80411904Y-67261009D01*
X80411904Y-67261009D02*
X80459523Y-67356247D01*
X80459523Y-67356247D02*
X80459523Y-67594342D01*
X80459523Y-67594342D02*
X80411904Y-67689580D01*
X80411904Y-67689580D02*
X80364285Y-67737200D01*
X80364285Y-67737200D02*
X80269047Y-67784819D01*
X80269047Y-67784819D02*
X79983333Y-67784819D01*
X79983333Y-67784819D02*
X79888095Y-67737200D01*
X79888095Y-67737200D02*
X79840476Y-67689580D01*
X81411904Y-67784819D02*
X80840476Y-67784819D01*
X81126190Y-67784819D02*
X81126190Y-66784819D01*
X81126190Y-66784819D02*
X81030952Y-66927676D01*
X81030952Y-66927676D02*
X80935714Y-67022914D01*
X80935714Y-67022914D02*
X80840476Y-67070533D01*
X89204819Y-69717857D02*
X88728628Y-70051190D01*
X89204819Y-70289285D02*
X88204819Y-70289285D01*
X88204819Y-70289285D02*
X88204819Y-69908333D01*
X88204819Y-69908333D02*
X88252438Y-69813095D01*
X88252438Y-69813095D02*
X88300057Y-69765476D01*
X88300057Y-69765476D02*
X88395295Y-69717857D01*
X88395295Y-69717857D02*
X88538152Y-69717857D01*
X88538152Y-69717857D02*
X88633390Y-69765476D01*
X88633390Y-69765476D02*
X88681009Y-69813095D01*
X88681009Y-69813095D02*
X88728628Y-69908333D01*
X88728628Y-69908333D02*
X88728628Y-70289285D01*
X88300057Y-69336904D02*
X88252438Y-69289285D01*
X88252438Y-69289285D02*
X88204819Y-69194047D01*
X88204819Y-69194047D02*
X88204819Y-68955952D01*
X88204819Y-68955952D02*
X88252438Y-68860714D01*
X88252438Y-68860714D02*
X88300057Y-68813095D01*
X88300057Y-68813095D02*
X88395295Y-68765476D01*
X88395295Y-68765476D02*
X88490533Y-68765476D01*
X88490533Y-68765476D02*
X88633390Y-68813095D01*
X88633390Y-68813095D02*
X89204819Y-69384523D01*
X89204819Y-69384523D02*
X89204819Y-68765476D01*
X88204819Y-68146428D02*
X88204819Y-68051190D01*
X88204819Y-68051190D02*
X88252438Y-67955952D01*
X88252438Y-67955952D02*
X88300057Y-67908333D01*
X88300057Y-67908333D02*
X88395295Y-67860714D01*
X88395295Y-67860714D02*
X88585771Y-67813095D01*
X88585771Y-67813095D02*
X88823866Y-67813095D01*
X88823866Y-67813095D02*
X89014342Y-67860714D01*
X89014342Y-67860714D02*
X89109580Y-67908333D01*
X89109580Y-67908333D02*
X89157200Y-67955952D01*
X89157200Y-67955952D02*
X89204819Y-68051190D01*
X89204819Y-68051190D02*
X89204819Y-68146428D01*
X89204819Y-68146428D02*
X89157200Y-68241666D01*
X89157200Y-68241666D02*
X89109580Y-68289285D01*
X89109580Y-68289285D02*
X89014342Y-68336904D01*
X89014342Y-68336904D02*
X88823866Y-68384523D01*
X88823866Y-68384523D02*
X88585771Y-68384523D01*
X88585771Y-68384523D02*
X88395295Y-68336904D01*
X88395295Y-68336904D02*
X88300057Y-68289285D01*
X88300057Y-68289285D02*
X88252438Y-68241666D01*
X88252438Y-68241666D02*
X88204819Y-68146428D01*
X90279380Y-62334877D02*
X90279380Y-62852972D01*
X90279380Y-62852972D02*
X90309857Y-62913924D01*
X90309857Y-62913924D02*
X90340333Y-62944401D01*
X90340333Y-62944401D02*
X90401285Y-62974877D01*
X90401285Y-62974877D02*
X90523190Y-62974877D01*
X90523190Y-62974877D02*
X90584142Y-62944401D01*
X90584142Y-62944401D02*
X90614619Y-62913924D01*
X90614619Y-62913924D02*
X90645095Y-62852972D01*
X90645095Y-62852972D02*
X90645095Y-62334877D01*
X90888904Y-62334877D02*
X91315571Y-62334877D01*
X91315571Y-62334877D02*
X91041285Y-62974877D01*
X85857142Y-73804819D02*
X85523809Y-73328628D01*
X85285714Y-73804819D02*
X85285714Y-72804819D01*
X85285714Y-72804819D02*
X85666666Y-72804819D01*
X85666666Y-72804819D02*
X85761904Y-72852438D01*
X85761904Y-72852438D02*
X85809523Y-72900057D01*
X85809523Y-72900057D02*
X85857142Y-72995295D01*
X85857142Y-72995295D02*
X85857142Y-73138152D01*
X85857142Y-73138152D02*
X85809523Y-73233390D01*
X85809523Y-73233390D02*
X85761904Y-73281009D01*
X85761904Y-73281009D02*
X85666666Y-73328628D01*
X85666666Y-73328628D02*
X85285714Y-73328628D01*
X86809523Y-73804819D02*
X86238095Y-73804819D01*
X86523809Y-73804819D02*
X86523809Y-72804819D01*
X86523809Y-72804819D02*
X86428571Y-72947676D01*
X86428571Y-72947676D02*
X86333333Y-73042914D01*
X86333333Y-73042914D02*
X86238095Y-73090533D01*
X87761904Y-73804819D02*
X87190476Y-73804819D01*
X87476190Y-73804819D02*
X87476190Y-72804819D01*
X87476190Y-72804819D02*
X87380952Y-72947676D01*
X87380952Y-72947676D02*
X87285714Y-73042914D01*
X87285714Y-73042914D02*
X87190476Y-73090533D01*
X77693695Y-47004818D02*
X77693695Y-47814341D01*
X77693695Y-47814341D02*
X77741314Y-47909579D01*
X77741314Y-47909579D02*
X77788933Y-47957199D01*
X77788933Y-47957199D02*
X77884171Y-48004818D01*
X77884171Y-48004818D02*
X78074647Y-48004818D01*
X78074647Y-48004818D02*
X78169885Y-47957199D01*
X78169885Y-47957199D02*
X78217504Y-47909579D01*
X78217504Y-47909579D02*
X78265123Y-47814341D01*
X78265123Y-47814341D02*
X78265123Y-47004818D01*
X79169885Y-47338151D02*
X79169885Y-48004818D01*
X78931790Y-46957199D02*
X78693695Y-47671484D01*
X78693695Y-47671484D02*
X79312742Y-47671484D01*
X76557200Y-46853018D02*
X76557200Y-47091113D01*
X76319105Y-46995875D02*
X76557200Y-47091113D01*
X76557200Y-47091113D02*
X76795295Y-46995875D01*
X76414343Y-47281589D02*
X76557200Y-47091113D01*
X76557200Y-47091113D02*
X76700057Y-47281589D01*
X76557200Y-46853018D02*
X76557200Y-47091113D01*
X76319105Y-46995875D02*
X76557200Y-47091113D01*
X76557200Y-47091113D02*
X76795295Y-46995875D01*
X76414343Y-47281589D02*
X76557200Y-47091113D01*
X76557200Y-47091113D02*
X76700057Y-47281589D01*
X78596342Y-74959219D02*
X78263009Y-74483028D01*
X78024914Y-74959219D02*
X78024914Y-73959219D01*
X78024914Y-73959219D02*
X78405866Y-73959219D01*
X78405866Y-73959219D02*
X78501104Y-74006838D01*
X78501104Y-74006838D02*
X78548723Y-74054457D01*
X78548723Y-74054457D02*
X78596342Y-74149695D01*
X78596342Y-74149695D02*
X78596342Y-74292552D01*
X78596342Y-74292552D02*
X78548723Y-74387790D01*
X78548723Y-74387790D02*
X78501104Y-74435409D01*
X78501104Y-74435409D02*
X78405866Y-74483028D01*
X78405866Y-74483028D02*
X78024914Y-74483028D01*
X78929676Y-73959219D02*
X79548723Y-73959219D01*
X79548723Y-73959219D02*
X79215390Y-74340171D01*
X79215390Y-74340171D02*
X79358247Y-74340171D01*
X79358247Y-74340171D02*
X79453485Y-74387790D01*
X79453485Y-74387790D02*
X79501104Y-74435409D01*
X79501104Y-74435409D02*
X79548723Y-74530647D01*
X79548723Y-74530647D02*
X79548723Y-74768742D01*
X79548723Y-74768742D02*
X79501104Y-74863980D01*
X79501104Y-74863980D02*
X79453485Y-74911600D01*
X79453485Y-74911600D02*
X79358247Y-74959219D01*
X79358247Y-74959219D02*
X79072533Y-74959219D01*
X79072533Y-74959219D02*
X78977295Y-74911600D01*
X78977295Y-74911600D02*
X78929676Y-74863980D01*
X79929676Y-74054457D02*
X79977295Y-74006838D01*
X79977295Y-74006838D02*
X80072533Y-73959219D01*
X80072533Y-73959219D02*
X80310628Y-73959219D01*
X80310628Y-73959219D02*
X80405866Y-74006838D01*
X80405866Y-74006838D02*
X80453485Y-74054457D01*
X80453485Y-74054457D02*
X80501104Y-74149695D01*
X80501104Y-74149695D02*
X80501104Y-74244933D01*
X80501104Y-74244933D02*
X80453485Y-74387790D01*
X80453485Y-74387790D02*
X79882057Y-74959219D01*
X79882057Y-74959219D02*
X80501104Y-74959219D01*
X73914095Y-77001019D02*
X73914095Y-77810542D01*
X73914095Y-77810542D02*
X73961714Y-77905780D01*
X73961714Y-77905780D02*
X74009333Y-77953400D01*
X74009333Y-77953400D02*
X74104571Y-78001019D01*
X74104571Y-78001019D02*
X74295047Y-78001019D01*
X74295047Y-78001019D02*
X74390285Y-77953400D01*
X74390285Y-77953400D02*
X74437904Y-77905780D01*
X74437904Y-77905780D02*
X74485523Y-77810542D01*
X74485523Y-77810542D02*
X74485523Y-77001019D01*
X74914095Y-77096257D02*
X74961714Y-77048638D01*
X74961714Y-77048638D02*
X75056952Y-77001019D01*
X75056952Y-77001019D02*
X75295047Y-77001019D01*
X75295047Y-77001019D02*
X75390285Y-77048638D01*
X75390285Y-77048638D02*
X75437904Y-77096257D01*
X75437904Y-77096257D02*
X75485523Y-77191495D01*
X75485523Y-77191495D02*
X75485523Y-77286733D01*
X75485523Y-77286733D02*
X75437904Y-77429590D01*
X75437904Y-77429590D02*
X74866476Y-78001019D01*
X74866476Y-78001019D02*
X75485523Y-78001019D01*
X71957142Y-73159580D02*
X71909523Y-73207200D01*
X71909523Y-73207200D02*
X71766666Y-73254819D01*
X71766666Y-73254819D02*
X71671428Y-73254819D01*
X71671428Y-73254819D02*
X71528571Y-73207200D01*
X71528571Y-73207200D02*
X71433333Y-73111961D01*
X71433333Y-73111961D02*
X71385714Y-73016723D01*
X71385714Y-73016723D02*
X71338095Y-72826247D01*
X71338095Y-72826247D02*
X71338095Y-72683390D01*
X71338095Y-72683390D02*
X71385714Y-72492914D01*
X71385714Y-72492914D02*
X71433333Y-72397676D01*
X71433333Y-72397676D02*
X71528571Y-72302438D01*
X71528571Y-72302438D02*
X71671428Y-72254819D01*
X71671428Y-72254819D02*
X71766666Y-72254819D01*
X71766666Y-72254819D02*
X71909523Y-72302438D01*
X71909523Y-72302438D02*
X71957142Y-72350057D01*
X72338095Y-72350057D02*
X72385714Y-72302438D01*
X72385714Y-72302438D02*
X72480952Y-72254819D01*
X72480952Y-72254819D02*
X72719047Y-72254819D01*
X72719047Y-72254819D02*
X72814285Y-72302438D01*
X72814285Y-72302438D02*
X72861904Y-72350057D01*
X72861904Y-72350057D02*
X72909523Y-72445295D01*
X72909523Y-72445295D02*
X72909523Y-72540533D01*
X72909523Y-72540533D02*
X72861904Y-72683390D01*
X72861904Y-72683390D02*
X72290476Y-73254819D01*
X72290476Y-73254819D02*
X72909523Y-73254819D01*
X73242857Y-72254819D02*
X73861904Y-72254819D01*
X73861904Y-72254819D02*
X73528571Y-72635771D01*
X73528571Y-72635771D02*
X73671428Y-72635771D01*
X73671428Y-72635771D02*
X73766666Y-72683390D01*
X73766666Y-72683390D02*
X73814285Y-72731009D01*
X73814285Y-72731009D02*
X73861904Y-72826247D01*
X73861904Y-72826247D02*
X73861904Y-73064342D01*
X73861904Y-73064342D02*
X73814285Y-73159580D01*
X73814285Y-73159580D02*
X73766666Y-73207200D01*
X73766666Y-73207200D02*
X73671428Y-73254819D01*
X73671428Y-73254819D02*
X73385714Y-73254819D01*
X73385714Y-73254819D02*
X73290476Y-73207200D01*
X73290476Y-73207200D02*
X73242857Y-73159580D01*
X70516666Y-65661009D02*
X70183333Y-65661009D01*
X70183333Y-66184819D02*
X70183333Y-65184819D01*
X70183333Y-65184819D02*
X70659523Y-65184819D01*
X71373809Y-65661009D02*
X71516666Y-65708628D01*
X71516666Y-65708628D02*
X71564285Y-65756247D01*
X71564285Y-65756247D02*
X71611904Y-65851485D01*
X71611904Y-65851485D02*
X71611904Y-65994342D01*
X71611904Y-65994342D02*
X71564285Y-66089580D01*
X71564285Y-66089580D02*
X71516666Y-66137200D01*
X71516666Y-66137200D02*
X71421428Y-66184819D01*
X71421428Y-66184819D02*
X71040476Y-66184819D01*
X71040476Y-66184819D02*
X71040476Y-65184819D01*
X71040476Y-65184819D02*
X71373809Y-65184819D01*
X71373809Y-65184819D02*
X71469047Y-65232438D01*
X71469047Y-65232438D02*
X71516666Y-65280057D01*
X71516666Y-65280057D02*
X71564285Y-65375295D01*
X71564285Y-65375295D02*
X71564285Y-65470533D01*
X71564285Y-65470533D02*
X71516666Y-65565771D01*
X71516666Y-65565771D02*
X71469047Y-65613390D01*
X71469047Y-65613390D02*
X71373809Y-65661009D01*
X71373809Y-65661009D02*
X71040476Y-65661009D01*
X72564285Y-66184819D02*
X71992857Y-66184819D01*
X72278571Y-66184819D02*
X72278571Y-65184819D01*
X72278571Y-65184819D02*
X72183333Y-65327676D01*
X72183333Y-65327676D02*
X72088095Y-65422914D01*
X72088095Y-65422914D02*
X71992857Y-65470533D01*
X88457142Y-49884819D02*
X88123809Y-49408628D01*
X87885714Y-49884819D02*
X87885714Y-48884819D01*
X87885714Y-48884819D02*
X88266666Y-48884819D01*
X88266666Y-48884819D02*
X88361904Y-48932438D01*
X88361904Y-48932438D02*
X88409523Y-48980057D01*
X88409523Y-48980057D02*
X88457142Y-49075295D01*
X88457142Y-49075295D02*
X88457142Y-49218152D01*
X88457142Y-49218152D02*
X88409523Y-49313390D01*
X88409523Y-49313390D02*
X88361904Y-49361009D01*
X88361904Y-49361009D02*
X88266666Y-49408628D01*
X88266666Y-49408628D02*
X87885714Y-49408628D01*
X89409523Y-49884819D02*
X88838095Y-49884819D01*
X89123809Y-49884819D02*
X89123809Y-48884819D01*
X89123809Y-48884819D02*
X89028571Y-49027676D01*
X89028571Y-49027676D02*
X88933333Y-49122914D01*
X88933333Y-49122914D02*
X88838095Y-49170533D01*
X90266666Y-49218152D02*
X90266666Y-49884819D01*
X90028571Y-48837200D02*
X89790476Y-49551485D01*
X89790476Y-49551485D02*
X90409523Y-49551485D01*
X83888342Y-70203219D02*
X83555009Y-69727028D01*
X83316914Y-70203219D02*
X83316914Y-69203219D01*
X83316914Y-69203219D02*
X83697866Y-69203219D01*
X83697866Y-69203219D02*
X83793104Y-69250838D01*
X83793104Y-69250838D02*
X83840723Y-69298457D01*
X83840723Y-69298457D02*
X83888342Y-69393695D01*
X83888342Y-69393695D02*
X83888342Y-69536552D01*
X83888342Y-69536552D02*
X83840723Y-69631790D01*
X83840723Y-69631790D02*
X83793104Y-69679409D01*
X83793104Y-69679409D02*
X83697866Y-69727028D01*
X83697866Y-69727028D02*
X83316914Y-69727028D01*
X84269295Y-69298457D02*
X84316914Y-69250838D01*
X84316914Y-69250838D02*
X84412152Y-69203219D01*
X84412152Y-69203219D02*
X84650247Y-69203219D01*
X84650247Y-69203219D02*
X84745485Y-69250838D01*
X84745485Y-69250838D02*
X84793104Y-69298457D01*
X84793104Y-69298457D02*
X84840723Y-69393695D01*
X84840723Y-69393695D02*
X84840723Y-69488933D01*
X84840723Y-69488933D02*
X84793104Y-69631790D01*
X84793104Y-69631790D02*
X84221676Y-70203219D01*
X84221676Y-70203219D02*
X84840723Y-70203219D01*
X85412152Y-69631790D02*
X85316914Y-69584171D01*
X85316914Y-69584171D02*
X85269295Y-69536552D01*
X85269295Y-69536552D02*
X85221676Y-69441314D01*
X85221676Y-69441314D02*
X85221676Y-69393695D01*
X85221676Y-69393695D02*
X85269295Y-69298457D01*
X85269295Y-69298457D02*
X85316914Y-69250838D01*
X85316914Y-69250838D02*
X85412152Y-69203219D01*
X85412152Y-69203219D02*
X85602628Y-69203219D01*
X85602628Y-69203219D02*
X85697866Y-69250838D01*
X85697866Y-69250838D02*
X85745485Y-69298457D01*
X85745485Y-69298457D02*
X85793104Y-69393695D01*
X85793104Y-69393695D02*
X85793104Y-69441314D01*
X85793104Y-69441314D02*
X85745485Y-69536552D01*
X85745485Y-69536552D02*
X85697866Y-69584171D01*
X85697866Y-69584171D02*
X85602628Y-69631790D01*
X85602628Y-69631790D02*
X85412152Y-69631790D01*
X85412152Y-69631790D02*
X85316914Y-69679409D01*
X85316914Y-69679409D02*
X85269295Y-69727028D01*
X85269295Y-69727028D02*
X85221676Y-69822266D01*
X85221676Y-69822266D02*
X85221676Y-70012742D01*
X85221676Y-70012742D02*
X85269295Y-70107980D01*
X85269295Y-70107980D02*
X85316914Y-70155600D01*
X85316914Y-70155600D02*
X85412152Y-70203219D01*
X85412152Y-70203219D02*
X85602628Y-70203219D01*
X85602628Y-70203219D02*
X85697866Y-70155600D01*
X85697866Y-70155600D02*
X85745485Y-70107980D01*
X85745485Y-70107980D02*
X85793104Y-70012742D01*
X85793104Y-70012742D02*
X85793104Y-69822266D01*
X85793104Y-69822266D02*
X85745485Y-69727028D01*
X85745485Y-69727028D02*
X85697866Y-69679409D01*
X85697866Y-69679409D02*
X85602628Y-69631790D01*
X92583333Y-57024819D02*
X92250000Y-56548628D01*
X92011905Y-57024819D02*
X92011905Y-56024819D01*
X92011905Y-56024819D02*
X92392857Y-56024819D01*
X92392857Y-56024819D02*
X92488095Y-56072438D01*
X92488095Y-56072438D02*
X92535714Y-56120057D01*
X92535714Y-56120057D02*
X92583333Y-56215295D01*
X92583333Y-56215295D02*
X92583333Y-56358152D01*
X92583333Y-56358152D02*
X92535714Y-56453390D01*
X92535714Y-56453390D02*
X92488095Y-56501009D01*
X92488095Y-56501009D02*
X92392857Y-56548628D01*
X92392857Y-56548628D02*
X92011905Y-56548628D01*
X92916667Y-56024819D02*
X93583333Y-56024819D01*
X93583333Y-56024819D02*
X93154762Y-57024819D01*
X70635905Y-50011819D02*
X70635905Y-49011819D01*
X70635905Y-49011819D02*
X70874000Y-49011819D01*
X70874000Y-49011819D02*
X71016857Y-49059438D01*
X71016857Y-49059438D02*
X71112095Y-49154676D01*
X71112095Y-49154676D02*
X71159714Y-49249914D01*
X71159714Y-49249914D02*
X71207333Y-49440390D01*
X71207333Y-49440390D02*
X71207333Y-49583247D01*
X71207333Y-49583247D02*
X71159714Y-49773723D01*
X71159714Y-49773723D02*
X71112095Y-49868961D01*
X71112095Y-49868961D02*
X71016857Y-49964200D01*
X71016857Y-49964200D02*
X70874000Y-50011819D01*
X70874000Y-50011819D02*
X70635905Y-50011819D01*
X72159714Y-50011819D02*
X71588286Y-50011819D01*
X71874000Y-50011819D02*
X71874000Y-49011819D01*
X71874000Y-49011819D02*
X71778762Y-49154676D01*
X71778762Y-49154676D02*
X71683524Y-49249914D01*
X71683524Y-49249914D02*
X71588286Y-49297533D01*
X98525819Y-56014857D02*
X98049628Y-56348190D01*
X98525819Y-56586285D02*
X97525819Y-56586285D01*
X97525819Y-56586285D02*
X97525819Y-56205333D01*
X97525819Y-56205333D02*
X97573438Y-56110095D01*
X97573438Y-56110095D02*
X97621057Y-56062476D01*
X97621057Y-56062476D02*
X97716295Y-56014857D01*
X97716295Y-56014857D02*
X97859152Y-56014857D01*
X97859152Y-56014857D02*
X97954390Y-56062476D01*
X97954390Y-56062476D02*
X98002009Y-56110095D01*
X98002009Y-56110095D02*
X98049628Y-56205333D01*
X98049628Y-56205333D02*
X98049628Y-56586285D01*
X97525819Y-55681523D02*
X97525819Y-55062476D01*
X97525819Y-55062476D02*
X97906771Y-55395809D01*
X97906771Y-55395809D02*
X97906771Y-55252952D01*
X97906771Y-55252952D02*
X97954390Y-55157714D01*
X97954390Y-55157714D02*
X98002009Y-55110095D01*
X98002009Y-55110095D02*
X98097247Y-55062476D01*
X98097247Y-55062476D02*
X98335342Y-55062476D01*
X98335342Y-55062476D02*
X98430580Y-55110095D01*
X98430580Y-55110095D02*
X98478200Y-55157714D01*
X98478200Y-55157714D02*
X98525819Y-55252952D01*
X98525819Y-55252952D02*
X98525819Y-55538666D01*
X98525819Y-55538666D02*
X98478200Y-55633904D01*
X98478200Y-55633904D02*
X98430580Y-55681523D01*
X97525819Y-54729142D02*
X97525819Y-54062476D01*
X97525819Y-54062476D02*
X98525819Y-54491047D01*
X87988095Y-54754819D02*
X87988095Y-55564342D01*
X87988095Y-55564342D02*
X88035714Y-55659580D01*
X88035714Y-55659580D02*
X88083333Y-55707200D01*
X88083333Y-55707200D02*
X88178571Y-55754819D01*
X88178571Y-55754819D02*
X88369047Y-55754819D01*
X88369047Y-55754819D02*
X88464285Y-55707200D01*
X88464285Y-55707200D02*
X88511904Y-55659580D01*
X88511904Y-55659580D02*
X88559523Y-55564342D01*
X88559523Y-55564342D02*
X88559523Y-54754819D01*
X89464285Y-54754819D02*
X89273809Y-54754819D01*
X89273809Y-54754819D02*
X89178571Y-54802438D01*
X89178571Y-54802438D02*
X89130952Y-54850057D01*
X89130952Y-54850057D02*
X89035714Y-54992914D01*
X89035714Y-54992914D02*
X88988095Y-55183390D01*
X88988095Y-55183390D02*
X88988095Y-55564342D01*
X88988095Y-55564342D02*
X89035714Y-55659580D01*
X89035714Y-55659580D02*
X89083333Y-55707200D01*
X89083333Y-55707200D02*
X89178571Y-55754819D01*
X89178571Y-55754819D02*
X89369047Y-55754819D01*
X89369047Y-55754819D02*
X89464285Y-55707200D01*
X89464285Y-55707200D02*
X89511904Y-55659580D01*
X89511904Y-55659580D02*
X89559523Y-55564342D01*
X89559523Y-55564342D02*
X89559523Y-55326247D01*
X89559523Y-55326247D02*
X89511904Y-55231009D01*
X89511904Y-55231009D02*
X89464285Y-55183390D01*
X89464285Y-55183390D02*
X89369047Y-55135771D01*
X89369047Y-55135771D02*
X89178571Y-55135771D01*
X89178571Y-55135771D02*
X89083333Y-55183390D01*
X89083333Y-55183390D02*
X89035714Y-55231009D01*
X89035714Y-55231009D02*
X88988095Y-55326247D01*
D10*
X99457419Y-47309523D02*
X98457419Y-47309523D01*
X98457419Y-47309523D02*
X99171704Y-46976190D01*
X99171704Y-46976190D02*
X98457419Y-46642857D01*
X98457419Y-46642857D02*
X99457419Y-46642857D01*
X99457419Y-45642857D02*
X99457419Y-46214285D01*
X99457419Y-45928571D02*
X98457419Y-45928571D01*
X98457419Y-45928571D02*
X98600276Y-46023809D01*
X98600276Y-46023809D02*
X98695514Y-46119047D01*
X98695514Y-46119047D02*
X98743133Y-46214285D01*
D11*
X82284333Y-48221580D02*
X82236714Y-48269200D01*
X82236714Y-48269200D02*
X82093857Y-48316819D01*
X82093857Y-48316819D02*
X81998619Y-48316819D01*
X81998619Y-48316819D02*
X81855762Y-48269200D01*
X81855762Y-48269200D02*
X81760524Y-48173961D01*
X81760524Y-48173961D02*
X81712905Y-48078723D01*
X81712905Y-48078723D02*
X81665286Y-47888247D01*
X81665286Y-47888247D02*
X81665286Y-47745390D01*
X81665286Y-47745390D02*
X81712905Y-47554914D01*
X81712905Y-47554914D02*
X81760524Y-47459676D01*
X81760524Y-47459676D02*
X81855762Y-47364438D01*
X81855762Y-47364438D02*
X81998619Y-47316819D01*
X81998619Y-47316819D02*
X82093857Y-47316819D01*
X82093857Y-47316819D02*
X82236714Y-47364438D01*
X82236714Y-47364438D02*
X82284333Y-47412057D01*
X82617667Y-47316819D02*
X83284333Y-47316819D01*
X83284333Y-47316819D02*
X82855762Y-48316819D01*
X79384819Y-60192857D02*
X78908628Y-60526190D01*
X79384819Y-60764285D02*
X78384819Y-60764285D01*
X78384819Y-60764285D02*
X78384819Y-60383333D01*
X78384819Y-60383333D02*
X78432438Y-60288095D01*
X78432438Y-60288095D02*
X78480057Y-60240476D01*
X78480057Y-60240476D02*
X78575295Y-60192857D01*
X78575295Y-60192857D02*
X78718152Y-60192857D01*
X78718152Y-60192857D02*
X78813390Y-60240476D01*
X78813390Y-60240476D02*
X78861009Y-60288095D01*
X78861009Y-60288095D02*
X78908628Y-60383333D01*
X78908628Y-60383333D02*
X78908628Y-60764285D01*
X79384819Y-59240476D02*
X79384819Y-59811904D01*
X79384819Y-59526190D02*
X78384819Y-59526190D01*
X78384819Y-59526190D02*
X78527676Y-59621428D01*
X78527676Y-59621428D02*
X78622914Y-59716666D01*
X78622914Y-59716666D02*
X78670533Y-59811904D01*
X78384819Y-58907142D02*
X78384819Y-58240476D01*
X78384819Y-58240476D02*
X79384819Y-58669047D01*
X79494819Y-61333333D02*
X80209104Y-61333333D01*
X80209104Y-61333333D02*
X80351961Y-61380952D01*
X80351961Y-61380952D02*
X80447200Y-61476190D01*
X80447200Y-61476190D02*
X80494819Y-61619047D01*
X80494819Y-61619047D02*
X80494819Y-61714285D01*
X79494819Y-60380952D02*
X79494819Y-60857142D01*
X79494819Y-60857142D02*
X79971009Y-60904761D01*
X79971009Y-60904761D02*
X79923390Y-60857142D01*
X79923390Y-60857142D02*
X79875771Y-60761904D01*
X79875771Y-60761904D02*
X79875771Y-60523809D01*
X79875771Y-60523809D02*
X79923390Y-60428571D01*
X79923390Y-60428571D02*
X79971009Y-60380952D01*
X79971009Y-60380952D02*
X80066247Y-60333333D01*
X80066247Y-60333333D02*
X80304342Y-60333333D01*
X80304342Y-60333333D02*
X80399580Y-60380952D01*
X80399580Y-60380952D02*
X80447200Y-60428571D01*
X80447200Y-60428571D02*
X80494819Y-60523809D01*
X80494819Y-60523809D02*
X80494819Y-60761904D01*
X80494819Y-60761904D02*
X80447200Y-60857142D01*
X80447200Y-60857142D02*
X80399580Y-60904761D01*
X93897142Y-48784819D02*
X93563809Y-48308628D01*
X93325714Y-48784819D02*
X93325714Y-47784819D01*
X93325714Y-47784819D02*
X93706666Y-47784819D01*
X93706666Y-47784819D02*
X93801904Y-47832438D01*
X93801904Y-47832438D02*
X93849523Y-47880057D01*
X93849523Y-47880057D02*
X93897142Y-47975295D01*
X93897142Y-47975295D02*
X93897142Y-48118152D01*
X93897142Y-48118152D02*
X93849523Y-48213390D01*
X93849523Y-48213390D02*
X93801904Y-48261009D01*
X93801904Y-48261009D02*
X93706666Y-48308628D01*
X93706666Y-48308628D02*
X93325714Y-48308628D01*
X94278095Y-47880057D02*
X94325714Y-47832438D01*
X94325714Y-47832438D02*
X94420952Y-47784819D01*
X94420952Y-47784819D02*
X94659047Y-47784819D01*
X94659047Y-47784819D02*
X94754285Y-47832438D01*
X94754285Y-47832438D02*
X94801904Y-47880057D01*
X94801904Y-47880057D02*
X94849523Y-47975295D01*
X94849523Y-47975295D02*
X94849523Y-48070533D01*
X94849523Y-48070533D02*
X94801904Y-48213390D01*
X94801904Y-48213390D02*
X94230476Y-48784819D01*
X94230476Y-48784819D02*
X94849523Y-48784819D01*
X95801904Y-48784819D02*
X95230476Y-48784819D01*
X95516190Y-48784819D02*
X95516190Y-47784819D01*
X95516190Y-47784819D02*
X95420952Y-47927676D01*
X95420952Y-47927676D02*
X95325714Y-48022914D01*
X95325714Y-48022914D02*
X95230476Y-48070533D01*
X90097780Y-61247257D02*
X90145400Y-61294876D01*
X90145400Y-61294876D02*
X90193019Y-61437733D01*
X90193019Y-61437733D02*
X90193019Y-61532971D01*
X90193019Y-61532971D02*
X90145400Y-61675828D01*
X90145400Y-61675828D02*
X90050161Y-61771066D01*
X90050161Y-61771066D02*
X89954923Y-61818685D01*
X89954923Y-61818685D02*
X89764447Y-61866304D01*
X89764447Y-61866304D02*
X89621590Y-61866304D01*
X89621590Y-61866304D02*
X89431114Y-61818685D01*
X89431114Y-61818685D02*
X89335876Y-61771066D01*
X89335876Y-61771066D02*
X89240638Y-61675828D01*
X89240638Y-61675828D02*
X89193019Y-61532971D01*
X89193019Y-61532971D02*
X89193019Y-61437733D01*
X89193019Y-61437733D02*
X89240638Y-61294876D01*
X89240638Y-61294876D02*
X89288257Y-61247257D01*
X89288257Y-60866304D02*
X89240638Y-60818685D01*
X89240638Y-60818685D02*
X89193019Y-60723447D01*
X89193019Y-60723447D02*
X89193019Y-60485352D01*
X89193019Y-60485352D02*
X89240638Y-60390114D01*
X89240638Y-60390114D02*
X89288257Y-60342495D01*
X89288257Y-60342495D02*
X89383495Y-60294876D01*
X89383495Y-60294876D02*
X89478733Y-60294876D01*
X89478733Y-60294876D02*
X89621590Y-60342495D01*
X89621590Y-60342495D02*
X90193019Y-60913923D01*
X90193019Y-60913923D02*
X90193019Y-60294876D01*
X89621590Y-59723447D02*
X89573971Y-59818685D01*
X89573971Y-59818685D02*
X89526352Y-59866304D01*
X89526352Y-59866304D02*
X89431114Y-59913923D01*
X89431114Y-59913923D02*
X89383495Y-59913923D01*
X89383495Y-59913923D02*
X89288257Y-59866304D01*
X89288257Y-59866304D02*
X89240638Y-59818685D01*
X89240638Y-59818685D02*
X89193019Y-59723447D01*
X89193019Y-59723447D02*
X89193019Y-59532971D01*
X89193019Y-59532971D02*
X89240638Y-59437733D01*
X89240638Y-59437733D02*
X89288257Y-59390114D01*
X89288257Y-59390114D02*
X89383495Y-59342495D01*
X89383495Y-59342495D02*
X89431114Y-59342495D01*
X89431114Y-59342495D02*
X89526352Y-59390114D01*
X89526352Y-59390114D02*
X89573971Y-59437733D01*
X89573971Y-59437733D02*
X89621590Y-59532971D01*
X89621590Y-59532971D02*
X89621590Y-59723447D01*
X89621590Y-59723447D02*
X89669209Y-59818685D01*
X89669209Y-59818685D02*
X89716828Y-59866304D01*
X89716828Y-59866304D02*
X89812066Y-59913923D01*
X89812066Y-59913923D02*
X90002542Y-59913923D01*
X90002542Y-59913923D02*
X90097780Y-59866304D01*
X90097780Y-59866304D02*
X90145400Y-59818685D01*
X90145400Y-59818685D02*
X90193019Y-59723447D01*
X90193019Y-59723447D02*
X90193019Y-59532971D01*
X90193019Y-59532971D02*
X90145400Y-59437733D01*
X90145400Y-59437733D02*
X90097780Y-59390114D01*
X90097780Y-59390114D02*
X90002542Y-59342495D01*
X90002542Y-59342495D02*
X89812066Y-59342495D01*
X89812066Y-59342495D02*
X89716828Y-59390114D01*
X89716828Y-59390114D02*
X89669209Y-59437733D01*
X89669209Y-59437733D02*
X89621590Y-59532971D01*
X79807142Y-56784819D02*
X79473809Y-56308628D01*
X79235714Y-56784819D02*
X79235714Y-55784819D01*
X79235714Y-55784819D02*
X79616666Y-55784819D01*
X79616666Y-55784819D02*
X79711904Y-55832438D01*
X79711904Y-55832438D02*
X79759523Y-55880057D01*
X79759523Y-55880057D02*
X79807142Y-55975295D01*
X79807142Y-55975295D02*
X79807142Y-56118152D01*
X79807142Y-56118152D02*
X79759523Y-56213390D01*
X79759523Y-56213390D02*
X79711904Y-56261009D01*
X79711904Y-56261009D02*
X79616666Y-56308628D01*
X79616666Y-56308628D02*
X79235714Y-56308628D01*
X80759523Y-56784819D02*
X80188095Y-56784819D01*
X80473809Y-56784819D02*
X80473809Y-55784819D01*
X80473809Y-55784819D02*
X80378571Y-55927676D01*
X80378571Y-55927676D02*
X80283333Y-56022914D01*
X80283333Y-56022914D02*
X80188095Y-56070533D01*
X81330952Y-56213390D02*
X81235714Y-56165771D01*
X81235714Y-56165771D02*
X81188095Y-56118152D01*
X81188095Y-56118152D02*
X81140476Y-56022914D01*
X81140476Y-56022914D02*
X81140476Y-55975295D01*
X81140476Y-55975295D02*
X81188095Y-55880057D01*
X81188095Y-55880057D02*
X81235714Y-55832438D01*
X81235714Y-55832438D02*
X81330952Y-55784819D01*
X81330952Y-55784819D02*
X81521428Y-55784819D01*
X81521428Y-55784819D02*
X81616666Y-55832438D01*
X81616666Y-55832438D02*
X81664285Y-55880057D01*
X81664285Y-55880057D02*
X81711904Y-55975295D01*
X81711904Y-55975295D02*
X81711904Y-56022914D01*
X81711904Y-56022914D02*
X81664285Y-56118152D01*
X81664285Y-56118152D02*
X81616666Y-56165771D01*
X81616666Y-56165771D02*
X81521428Y-56213390D01*
X81521428Y-56213390D02*
X81330952Y-56213390D01*
X81330952Y-56213390D02*
X81235714Y-56261009D01*
X81235714Y-56261009D02*
X81188095Y-56308628D01*
X81188095Y-56308628D02*
X81140476Y-56403866D01*
X81140476Y-56403866D02*
X81140476Y-56594342D01*
X81140476Y-56594342D02*
X81188095Y-56689580D01*
X81188095Y-56689580D02*
X81235714Y-56737200D01*
X81235714Y-56737200D02*
X81330952Y-56784819D01*
X81330952Y-56784819D02*
X81521428Y-56784819D01*
X81521428Y-56784819D02*
X81616666Y-56737200D01*
X81616666Y-56737200D02*
X81664285Y-56689580D01*
X81664285Y-56689580D02*
X81711904Y-56594342D01*
X81711904Y-56594342D02*
X81711904Y-56403866D01*
X81711904Y-56403866D02*
X81664285Y-56308628D01*
X81664285Y-56308628D02*
X81616666Y-56261009D01*
X81616666Y-56261009D02*
X81521428Y-56213390D01*
X94863142Y-60044819D02*
X94529809Y-59568628D01*
X94291714Y-60044819D02*
X94291714Y-59044819D01*
X94291714Y-59044819D02*
X94672666Y-59044819D01*
X94672666Y-59044819D02*
X94767904Y-59092438D01*
X94767904Y-59092438D02*
X94815523Y-59140057D01*
X94815523Y-59140057D02*
X94863142Y-59235295D01*
X94863142Y-59235295D02*
X94863142Y-59378152D01*
X94863142Y-59378152D02*
X94815523Y-59473390D01*
X94815523Y-59473390D02*
X94767904Y-59521009D01*
X94767904Y-59521009D02*
X94672666Y-59568628D01*
X94672666Y-59568628D02*
X94291714Y-59568628D01*
X95196476Y-59044819D02*
X95815523Y-59044819D01*
X95815523Y-59044819D02*
X95482190Y-59425771D01*
X95482190Y-59425771D02*
X95625047Y-59425771D01*
X95625047Y-59425771D02*
X95720285Y-59473390D01*
X95720285Y-59473390D02*
X95767904Y-59521009D01*
X95767904Y-59521009D02*
X95815523Y-59616247D01*
X95815523Y-59616247D02*
X95815523Y-59854342D01*
X95815523Y-59854342D02*
X95767904Y-59949580D01*
X95767904Y-59949580D02*
X95720285Y-59997200D01*
X95720285Y-59997200D02*
X95625047Y-60044819D01*
X95625047Y-60044819D02*
X95339333Y-60044819D01*
X95339333Y-60044819D02*
X95244095Y-59997200D01*
X95244095Y-59997200D02*
X95196476Y-59949580D01*
X96672666Y-59044819D02*
X96482190Y-59044819D01*
X96482190Y-59044819D02*
X96386952Y-59092438D01*
X96386952Y-59092438D02*
X96339333Y-59140057D01*
X96339333Y-59140057D02*
X96244095Y-59282914D01*
X96244095Y-59282914D02*
X96196476Y-59473390D01*
X96196476Y-59473390D02*
X96196476Y-59854342D01*
X96196476Y-59854342D02*
X96244095Y-59949580D01*
X96244095Y-59949580D02*
X96291714Y-59997200D01*
X96291714Y-59997200D02*
X96386952Y-60044819D01*
X96386952Y-60044819D02*
X96577428Y-60044819D01*
X96577428Y-60044819D02*
X96672666Y-59997200D01*
X96672666Y-59997200D02*
X96720285Y-59949580D01*
X96720285Y-59949580D02*
X96767904Y-59854342D01*
X96767904Y-59854342D02*
X96767904Y-59616247D01*
X96767904Y-59616247D02*
X96720285Y-59521009D01*
X96720285Y-59521009D02*
X96672666Y-59473390D01*
X96672666Y-59473390D02*
X96577428Y-59425771D01*
X96577428Y-59425771D02*
X96386952Y-59425771D01*
X96386952Y-59425771D02*
X96291714Y-59473390D01*
X96291714Y-59473390D02*
X96244095Y-59521009D01*
X96244095Y-59521009D02*
X96196476Y-59616247D01*
X80808533Y-51608819D02*
X80475200Y-51132628D01*
X80237105Y-51608819D02*
X80237105Y-50608819D01*
X80237105Y-50608819D02*
X80618057Y-50608819D01*
X80618057Y-50608819D02*
X80713295Y-50656438D01*
X80713295Y-50656438D02*
X80760914Y-50704057D01*
X80760914Y-50704057D02*
X80808533Y-50799295D01*
X80808533Y-50799295D02*
X80808533Y-50942152D01*
X80808533Y-50942152D02*
X80760914Y-51037390D01*
X80760914Y-51037390D02*
X80713295Y-51085009D01*
X80713295Y-51085009D02*
X80618057Y-51132628D01*
X80618057Y-51132628D02*
X80237105Y-51132628D01*
X81760914Y-51608819D02*
X81189486Y-51608819D01*
X81475200Y-51608819D02*
X81475200Y-50608819D01*
X81475200Y-50608819D02*
X81379962Y-50751676D01*
X81379962Y-50751676D02*
X81284724Y-50846914D01*
X81284724Y-50846914D02*
X81189486Y-50894533D01*
X94654819Y-58310666D02*
X94178628Y-58643999D01*
X94654819Y-58882094D02*
X93654819Y-58882094D01*
X93654819Y-58882094D02*
X93654819Y-58501142D01*
X93654819Y-58501142D02*
X93702438Y-58405904D01*
X93702438Y-58405904D02*
X93750057Y-58358285D01*
X93750057Y-58358285D02*
X93845295Y-58310666D01*
X93845295Y-58310666D02*
X93988152Y-58310666D01*
X93988152Y-58310666D02*
X94083390Y-58358285D01*
X94083390Y-58358285D02*
X94131009Y-58405904D01*
X94131009Y-58405904D02*
X94178628Y-58501142D01*
X94178628Y-58501142D02*
X94178628Y-58882094D01*
X93654819Y-57405904D02*
X93654819Y-57882094D01*
X93654819Y-57882094D02*
X94131009Y-57929713D01*
X94131009Y-57929713D02*
X94083390Y-57882094D01*
X94083390Y-57882094D02*
X94035771Y-57786856D01*
X94035771Y-57786856D02*
X94035771Y-57548761D01*
X94035771Y-57548761D02*
X94083390Y-57453523D01*
X94083390Y-57453523D02*
X94131009Y-57405904D01*
X94131009Y-57405904D02*
X94226247Y-57358285D01*
X94226247Y-57358285D02*
X94464342Y-57358285D01*
X94464342Y-57358285D02*
X94559580Y-57405904D01*
X94559580Y-57405904D02*
X94607200Y-57453523D01*
X94607200Y-57453523D02*
X94654819Y-57548761D01*
X94654819Y-57548761D02*
X94654819Y-57786856D01*
X94654819Y-57786856D02*
X94607200Y-57882094D01*
X94607200Y-57882094D02*
X94559580Y-57929713D01*
X81976933Y-63097580D02*
X81929314Y-63145200D01*
X81929314Y-63145200D02*
X81786457Y-63192819D01*
X81786457Y-63192819D02*
X81691219Y-63192819D01*
X81691219Y-63192819D02*
X81548362Y-63145200D01*
X81548362Y-63145200D02*
X81453124Y-63049961D01*
X81453124Y-63049961D02*
X81405505Y-62954723D01*
X81405505Y-62954723D02*
X81357886Y-62764247D01*
X81357886Y-62764247D02*
X81357886Y-62621390D01*
X81357886Y-62621390D02*
X81405505Y-62430914D01*
X81405505Y-62430914D02*
X81453124Y-62335676D01*
X81453124Y-62335676D02*
X81548362Y-62240438D01*
X81548362Y-62240438D02*
X81691219Y-62192819D01*
X81691219Y-62192819D02*
X81786457Y-62192819D01*
X81786457Y-62192819D02*
X81929314Y-62240438D01*
X81929314Y-62240438D02*
X81976933Y-62288057D01*
X82881695Y-62192819D02*
X82405505Y-62192819D01*
X82405505Y-62192819D02*
X82357886Y-62669009D01*
X82357886Y-62669009D02*
X82405505Y-62621390D01*
X82405505Y-62621390D02*
X82500743Y-62573771D01*
X82500743Y-62573771D02*
X82738838Y-62573771D01*
X82738838Y-62573771D02*
X82834076Y-62621390D01*
X82834076Y-62621390D02*
X82881695Y-62669009D01*
X82881695Y-62669009D02*
X82929314Y-62764247D01*
X82929314Y-62764247D02*
X82929314Y-63002342D01*
X82929314Y-63002342D02*
X82881695Y-63097580D01*
X82881695Y-63097580D02*
X82834076Y-63145200D01*
X82834076Y-63145200D02*
X82738838Y-63192819D01*
X82738838Y-63192819D02*
X82500743Y-63192819D01*
X82500743Y-63192819D02*
X82405505Y-63145200D01*
X82405505Y-63145200D02*
X82357886Y-63097580D01*
X80017142Y-67014819D02*
X79683809Y-66538628D01*
X79445714Y-67014819D02*
X79445714Y-66014819D01*
X79445714Y-66014819D02*
X79826666Y-66014819D01*
X79826666Y-66014819D02*
X79921904Y-66062438D01*
X79921904Y-66062438D02*
X79969523Y-66110057D01*
X79969523Y-66110057D02*
X80017142Y-66205295D01*
X80017142Y-66205295D02*
X80017142Y-66348152D01*
X80017142Y-66348152D02*
X79969523Y-66443390D01*
X79969523Y-66443390D02*
X79921904Y-66491009D01*
X79921904Y-66491009D02*
X79826666Y-66538628D01*
X79826666Y-66538628D02*
X79445714Y-66538628D01*
X80969523Y-67014819D02*
X80398095Y-67014819D01*
X80683809Y-67014819D02*
X80683809Y-66014819D01*
X80683809Y-66014819D02*
X80588571Y-66157676D01*
X80588571Y-66157676D02*
X80493333Y-66252914D01*
X80493333Y-66252914D02*
X80398095Y-66300533D01*
X81445714Y-67014819D02*
X81636190Y-67014819D01*
X81636190Y-67014819D02*
X81731428Y-66967200D01*
X81731428Y-66967200D02*
X81779047Y-66919580D01*
X81779047Y-66919580D02*
X81874285Y-66776723D01*
X81874285Y-66776723D02*
X81921904Y-66586247D01*
X81921904Y-66586247D02*
X81921904Y-66205295D01*
X81921904Y-66205295D02*
X81874285Y-66110057D01*
X81874285Y-66110057D02*
X81826666Y-66062438D01*
X81826666Y-66062438D02*
X81731428Y-66014819D01*
X81731428Y-66014819D02*
X81540952Y-66014819D01*
X81540952Y-66014819D02*
X81445714Y-66062438D01*
X81445714Y-66062438D02*
X81398095Y-66110057D01*
X81398095Y-66110057D02*
X81350476Y-66205295D01*
X81350476Y-66205295D02*
X81350476Y-66443390D01*
X81350476Y-66443390D02*
X81398095Y-66538628D01*
X81398095Y-66538628D02*
X81445714Y-66586247D01*
X81445714Y-66586247D02*
X81540952Y-66633866D01*
X81540952Y-66633866D02*
X81731428Y-66633866D01*
X81731428Y-66633866D02*
X81826666Y-66586247D01*
X81826666Y-66586247D02*
X81874285Y-66538628D01*
X81874285Y-66538628D02*
X81921904Y-66443390D01*
X92112557Y-47595238D02*
X92064938Y-47690476D01*
X92064938Y-47690476D02*
X91969700Y-47785714D01*
X91969700Y-47785714D02*
X91826842Y-47928571D01*
X91826842Y-47928571D02*
X91779223Y-48023809D01*
X91779223Y-48023809D02*
X91779223Y-48119047D01*
X92017319Y-48071428D02*
X91969700Y-48166666D01*
X91969700Y-48166666D02*
X91874461Y-48261904D01*
X91874461Y-48261904D02*
X91683985Y-48309523D01*
X91683985Y-48309523D02*
X91350652Y-48309523D01*
X91350652Y-48309523D02*
X91160176Y-48261904D01*
X91160176Y-48261904D02*
X91064938Y-48166666D01*
X91064938Y-48166666D02*
X91017319Y-48071428D01*
X91017319Y-48071428D02*
X91017319Y-47880952D01*
X91017319Y-47880952D02*
X91064938Y-47785714D01*
X91064938Y-47785714D02*
X91160176Y-47690476D01*
X91160176Y-47690476D02*
X91350652Y-47642857D01*
X91350652Y-47642857D02*
X91683985Y-47642857D01*
X91683985Y-47642857D02*
X91874461Y-47690476D01*
X91874461Y-47690476D02*
X91969700Y-47785714D01*
X91969700Y-47785714D02*
X92017319Y-47880952D01*
X92017319Y-47880952D02*
X92017319Y-48071428D01*
X91017319Y-47309523D02*
X91017319Y-46690476D01*
X91017319Y-46690476D02*
X91398271Y-47023809D01*
X91398271Y-47023809D02*
X91398271Y-46880952D01*
X91398271Y-46880952D02*
X91445890Y-46785714D01*
X91445890Y-46785714D02*
X91493509Y-46738095D01*
X91493509Y-46738095D02*
X91588747Y-46690476D01*
X91588747Y-46690476D02*
X91826842Y-46690476D01*
X91826842Y-46690476D02*
X91922080Y-46738095D01*
X91922080Y-46738095D02*
X91969700Y-46785714D01*
X91969700Y-46785714D02*
X92017319Y-46880952D01*
X92017319Y-46880952D02*
X92017319Y-47166666D01*
X92017319Y-47166666D02*
X91969700Y-47261904D01*
X91969700Y-47261904D02*
X91922080Y-47309523D01*
D10*
X97602580Y-55851905D02*
X96793057Y-55851905D01*
X96793057Y-55851905D02*
X96697819Y-55899524D01*
X96697819Y-55899524D02*
X96650200Y-55947143D01*
X96650200Y-55947143D02*
X96602580Y-56042381D01*
X96602580Y-56042381D02*
X96602580Y-56232857D01*
X96602580Y-56232857D02*
X96650200Y-56328095D01*
X96650200Y-56328095D02*
X96697819Y-56375714D01*
X96697819Y-56375714D02*
X96793057Y-56423333D01*
X96793057Y-56423333D02*
X97602580Y-56423333D01*
X97507342Y-56851905D02*
X97554961Y-56899524D01*
X97554961Y-56899524D02*
X97602580Y-56994762D01*
X97602580Y-56994762D02*
X97602580Y-57232857D01*
X97602580Y-57232857D02*
X97554961Y-57328095D01*
X97554961Y-57328095D02*
X97507342Y-57375714D01*
X97507342Y-57375714D02*
X97412104Y-57423333D01*
X97412104Y-57423333D02*
X97316866Y-57423333D01*
X97316866Y-57423333D02*
X97174009Y-57375714D01*
X97174009Y-57375714D02*
X96602580Y-56804286D01*
X96602580Y-56804286D02*
X96602580Y-57423333D01*
X97602580Y-58280476D02*
X97602580Y-58090000D01*
X97602580Y-58090000D02*
X97554961Y-57994762D01*
X97554961Y-57994762D02*
X97507342Y-57947143D01*
X97507342Y-57947143D02*
X97364485Y-57851905D01*
X97364485Y-57851905D02*
X97174009Y-57804286D01*
X97174009Y-57804286D02*
X96793057Y-57804286D01*
X96793057Y-57804286D02*
X96697819Y-57851905D01*
X96697819Y-57851905D02*
X96650200Y-57899524D01*
X96650200Y-57899524D02*
X96602580Y-57994762D01*
X96602580Y-57994762D02*
X96602580Y-58185238D01*
X96602580Y-58185238D02*
X96650200Y-58280476D01*
X96650200Y-58280476D02*
X96697819Y-58328095D01*
X96697819Y-58328095D02*
X96793057Y-58375714D01*
X96793057Y-58375714D02*
X97031152Y-58375714D01*
X97031152Y-58375714D02*
X97126390Y-58328095D01*
X97126390Y-58328095D02*
X97174009Y-58280476D01*
X97174009Y-58280476D02*
X97221628Y-58185238D01*
X97221628Y-58185238D02*
X97221628Y-57994762D01*
X97221628Y-57994762D02*
X97174009Y-57899524D01*
X97174009Y-57899524D02*
X97126390Y-57851905D01*
X97126390Y-57851905D02*
X97031152Y-57804286D01*
D11*
X74016666Y-54981009D02*
X73683333Y-54981009D01*
X73683333Y-55504819D02*
X73683333Y-54504819D01*
X73683333Y-54504819D02*
X74159523Y-54504819D01*
X74873809Y-54981009D02*
X75016666Y-55028628D01*
X75016666Y-55028628D02*
X75064285Y-55076247D01*
X75064285Y-55076247D02*
X75111904Y-55171485D01*
X75111904Y-55171485D02*
X75111904Y-55314342D01*
X75111904Y-55314342D02*
X75064285Y-55409580D01*
X75064285Y-55409580D02*
X75016666Y-55457200D01*
X75016666Y-55457200D02*
X74921428Y-55504819D01*
X74921428Y-55504819D02*
X74540476Y-55504819D01*
X74540476Y-55504819D02*
X74540476Y-54504819D01*
X74540476Y-54504819D02*
X74873809Y-54504819D01*
X74873809Y-54504819D02*
X74969047Y-54552438D01*
X74969047Y-54552438D02*
X75016666Y-54600057D01*
X75016666Y-54600057D02*
X75064285Y-54695295D01*
X75064285Y-54695295D02*
X75064285Y-54790533D01*
X75064285Y-54790533D02*
X75016666Y-54885771D01*
X75016666Y-54885771D02*
X74969047Y-54933390D01*
X74969047Y-54933390D02*
X74873809Y-54981009D01*
X74873809Y-54981009D02*
X74540476Y-54981009D01*
X75492857Y-54600057D02*
X75540476Y-54552438D01*
X75540476Y-54552438D02*
X75635714Y-54504819D01*
X75635714Y-54504819D02*
X75873809Y-54504819D01*
X75873809Y-54504819D02*
X75969047Y-54552438D01*
X75969047Y-54552438D02*
X76016666Y-54600057D01*
X76016666Y-54600057D02*
X76064285Y-54695295D01*
X76064285Y-54695295D02*
X76064285Y-54790533D01*
X76064285Y-54790533D02*
X76016666Y-54933390D01*
X76016666Y-54933390D02*
X75445238Y-55504819D01*
X75445238Y-55504819D02*
X76064285Y-55504819D01*
X89569104Y-57915085D02*
X89569104Y-57438895D01*
X89854819Y-58010323D02*
X88854819Y-57676990D01*
X88854819Y-57676990D02*
X89854819Y-57343657D01*
X89854819Y-56486514D02*
X89854819Y-57057942D01*
X89854819Y-56772228D02*
X88854819Y-56772228D01*
X88854819Y-56772228D02*
X88997676Y-56867466D01*
X88997676Y-56867466D02*
X89092914Y-56962704D01*
X89092914Y-56962704D02*
X89140533Y-57057942D01*
X86733142Y-70150819D02*
X86399809Y-69674628D01*
X86161714Y-70150819D02*
X86161714Y-69150819D01*
X86161714Y-69150819D02*
X86542666Y-69150819D01*
X86542666Y-69150819D02*
X86637904Y-69198438D01*
X86637904Y-69198438D02*
X86685523Y-69246057D01*
X86685523Y-69246057D02*
X86733142Y-69341295D01*
X86733142Y-69341295D02*
X86733142Y-69484152D01*
X86733142Y-69484152D02*
X86685523Y-69579390D01*
X86685523Y-69579390D02*
X86637904Y-69627009D01*
X86637904Y-69627009D02*
X86542666Y-69674628D01*
X86542666Y-69674628D02*
X86161714Y-69674628D01*
X87114095Y-69246057D02*
X87161714Y-69198438D01*
X87161714Y-69198438D02*
X87256952Y-69150819D01*
X87256952Y-69150819D02*
X87495047Y-69150819D01*
X87495047Y-69150819D02*
X87590285Y-69198438D01*
X87590285Y-69198438D02*
X87637904Y-69246057D01*
X87637904Y-69246057D02*
X87685523Y-69341295D01*
X87685523Y-69341295D02*
X87685523Y-69436533D01*
X87685523Y-69436533D02*
X87637904Y-69579390D01*
X87637904Y-69579390D02*
X87066476Y-70150819D01*
X87066476Y-70150819D02*
X87685523Y-70150819D01*
X88161714Y-70150819D02*
X88352190Y-70150819D01*
X88352190Y-70150819D02*
X88447428Y-70103200D01*
X88447428Y-70103200D02*
X88495047Y-70055580D01*
X88495047Y-70055580D02*
X88590285Y-69912723D01*
X88590285Y-69912723D02*
X88637904Y-69722247D01*
X88637904Y-69722247D02*
X88637904Y-69341295D01*
X88637904Y-69341295D02*
X88590285Y-69246057D01*
X88590285Y-69246057D02*
X88542666Y-69198438D01*
X88542666Y-69198438D02*
X88447428Y-69150819D01*
X88447428Y-69150819D02*
X88256952Y-69150819D01*
X88256952Y-69150819D02*
X88161714Y-69198438D01*
X88161714Y-69198438D02*
X88114095Y-69246057D01*
X88114095Y-69246057D02*
X88066476Y-69341295D01*
X88066476Y-69341295D02*
X88066476Y-69579390D01*
X88066476Y-69579390D02*
X88114095Y-69674628D01*
X88114095Y-69674628D02*
X88161714Y-69722247D01*
X88161714Y-69722247D02*
X88256952Y-69769866D01*
X88256952Y-69769866D02*
X88447428Y-69769866D01*
X88447428Y-69769866D02*
X88542666Y-69722247D01*
X88542666Y-69722247D02*
X88590285Y-69674628D01*
X88590285Y-69674628D02*
X88637904Y-69579390D01*
X72760771Y-44455530D02*
X72760771Y-43453995D01*
X72760771Y-43453995D02*
X72999232Y-43453995D01*
X72999232Y-43453995D02*
X73142308Y-43501687D01*
X73142308Y-43501687D02*
X73237693Y-43597071D01*
X73237693Y-43597071D02*
X73285385Y-43692455D01*
X73285385Y-43692455D02*
X73333077Y-43883224D01*
X73333077Y-43883224D02*
X73333077Y-44026300D01*
X73333077Y-44026300D02*
X73285385Y-44217069D01*
X73285385Y-44217069D02*
X73237693Y-44312453D01*
X73237693Y-44312453D02*
X73142308Y-44407838D01*
X73142308Y-44407838D02*
X72999232Y-44455530D01*
X72999232Y-44455530D02*
X72760771Y-44455530D01*
X73714614Y-43549379D02*
X73762306Y-43501687D01*
X73762306Y-43501687D02*
X73857691Y-43453995D01*
X73857691Y-43453995D02*
X74096151Y-43453995D01*
X74096151Y-43453995D02*
X74191536Y-43501687D01*
X74191536Y-43501687D02*
X74239228Y-43549379D01*
X74239228Y-43549379D02*
X74286920Y-43644763D01*
X74286920Y-43644763D02*
X74286920Y-43740148D01*
X74286920Y-43740148D02*
X74239228Y-43883224D01*
X74239228Y-43883224D02*
X73666922Y-44455530D01*
X73666922Y-44455530D02*
X74286920Y-44455530D01*
X78815419Y-75344257D02*
X78339228Y-75677590D01*
X78815419Y-75915685D02*
X77815419Y-75915685D01*
X77815419Y-75915685D02*
X77815419Y-75534733D01*
X77815419Y-75534733D02*
X77863038Y-75439495D01*
X77863038Y-75439495D02*
X77910657Y-75391876D01*
X77910657Y-75391876D02*
X78005895Y-75344257D01*
X78005895Y-75344257D02*
X78148752Y-75344257D01*
X78148752Y-75344257D02*
X78243990Y-75391876D01*
X78243990Y-75391876D02*
X78291609Y-75439495D01*
X78291609Y-75439495D02*
X78339228Y-75534733D01*
X78339228Y-75534733D02*
X78339228Y-75915685D01*
X77815419Y-75010923D02*
X77815419Y-74391876D01*
X77815419Y-74391876D02*
X78196371Y-74725209D01*
X78196371Y-74725209D02*
X78196371Y-74582352D01*
X78196371Y-74582352D02*
X78243990Y-74487114D01*
X78243990Y-74487114D02*
X78291609Y-74439495D01*
X78291609Y-74439495D02*
X78386847Y-74391876D01*
X78386847Y-74391876D02*
X78624942Y-74391876D01*
X78624942Y-74391876D02*
X78720180Y-74439495D01*
X78720180Y-74439495D02*
X78767800Y-74487114D01*
X78767800Y-74487114D02*
X78815419Y-74582352D01*
X78815419Y-74582352D02*
X78815419Y-74868066D01*
X78815419Y-74868066D02*
X78767800Y-74963304D01*
X78767800Y-74963304D02*
X78720180Y-75010923D01*
X78148752Y-73534733D02*
X78815419Y-73534733D01*
X77767800Y-73772828D02*
X78482085Y-74010923D01*
X78482085Y-74010923D02*
X78482085Y-73391876D01*
X83876905Y-55219819D02*
X83876905Y-56029342D01*
X83876905Y-56029342D02*
X83924524Y-56124580D01*
X83924524Y-56124580D02*
X83972143Y-56172200D01*
X83972143Y-56172200D02*
X84067381Y-56219819D01*
X84067381Y-56219819D02*
X84257857Y-56219819D01*
X84257857Y-56219819D02*
X84353095Y-56172200D01*
X84353095Y-56172200D02*
X84400714Y-56124580D01*
X84400714Y-56124580D02*
X84448333Y-56029342D01*
X84448333Y-56029342D02*
X84448333Y-55219819D01*
X85448333Y-56219819D02*
X84876905Y-56219819D01*
X85162619Y-56219819D02*
X85162619Y-55219819D01*
X85162619Y-55219819D02*
X85067381Y-55362676D01*
X85067381Y-55362676D02*
X84972143Y-55457914D01*
X84972143Y-55457914D02*
X84876905Y-55505533D01*
X86353095Y-55219819D02*
X85876905Y-55219819D01*
X85876905Y-55219819D02*
X85829286Y-55696009D01*
X85829286Y-55696009D02*
X85876905Y-55648390D01*
X85876905Y-55648390D02*
X85972143Y-55600771D01*
X85972143Y-55600771D02*
X86210238Y-55600771D01*
X86210238Y-55600771D02*
X86305476Y-55648390D01*
X86305476Y-55648390D02*
X86353095Y-55696009D01*
X86353095Y-55696009D02*
X86400714Y-55791247D01*
X86400714Y-55791247D02*
X86400714Y-56029342D01*
X86400714Y-56029342D02*
X86353095Y-56124580D01*
X86353095Y-56124580D02*
X86305476Y-56172200D01*
X86305476Y-56172200D02*
X86210238Y-56219819D01*
X86210238Y-56219819D02*
X85972143Y-56219819D01*
X85972143Y-56219819D02*
X85876905Y-56172200D01*
X85876905Y-56172200D02*
X85829286Y-56124580D01*
X76090542Y-74163580D02*
X76042923Y-74211200D01*
X76042923Y-74211200D02*
X75900066Y-74258819D01*
X75900066Y-74258819D02*
X75804828Y-74258819D01*
X75804828Y-74258819D02*
X75661971Y-74211200D01*
X75661971Y-74211200D02*
X75566733Y-74115961D01*
X75566733Y-74115961D02*
X75519114Y-74020723D01*
X75519114Y-74020723D02*
X75471495Y-73830247D01*
X75471495Y-73830247D02*
X75471495Y-73687390D01*
X75471495Y-73687390D02*
X75519114Y-73496914D01*
X75519114Y-73496914D02*
X75566733Y-73401676D01*
X75566733Y-73401676D02*
X75661971Y-73306438D01*
X75661971Y-73306438D02*
X75804828Y-73258819D01*
X75804828Y-73258819D02*
X75900066Y-73258819D01*
X75900066Y-73258819D02*
X76042923Y-73306438D01*
X76042923Y-73306438D02*
X76090542Y-73354057D01*
X76471495Y-73354057D02*
X76519114Y-73306438D01*
X76519114Y-73306438D02*
X76614352Y-73258819D01*
X76614352Y-73258819D02*
X76852447Y-73258819D01*
X76852447Y-73258819D02*
X76947685Y-73306438D01*
X76947685Y-73306438D02*
X76995304Y-73354057D01*
X76995304Y-73354057D02*
X77042923Y-73449295D01*
X77042923Y-73449295D02*
X77042923Y-73544533D01*
X77042923Y-73544533D02*
X76995304Y-73687390D01*
X76995304Y-73687390D02*
X76423876Y-74258819D01*
X76423876Y-74258819D02*
X77042923Y-74258819D01*
X77900066Y-73258819D02*
X77709590Y-73258819D01*
X77709590Y-73258819D02*
X77614352Y-73306438D01*
X77614352Y-73306438D02*
X77566733Y-73354057D01*
X77566733Y-73354057D02*
X77471495Y-73496914D01*
X77471495Y-73496914D02*
X77423876Y-73687390D01*
X77423876Y-73687390D02*
X77423876Y-74068342D01*
X77423876Y-74068342D02*
X77471495Y-74163580D01*
X77471495Y-74163580D02*
X77519114Y-74211200D01*
X77519114Y-74211200D02*
X77614352Y-74258819D01*
X77614352Y-74258819D02*
X77804828Y-74258819D01*
X77804828Y-74258819D02*
X77900066Y-74211200D01*
X77900066Y-74211200D02*
X77947685Y-74163580D01*
X77947685Y-74163580D02*
X77995304Y-74068342D01*
X77995304Y-74068342D02*
X77995304Y-73830247D01*
X77995304Y-73830247D02*
X77947685Y-73735009D01*
X77947685Y-73735009D02*
X77900066Y-73687390D01*
X77900066Y-73687390D02*
X77804828Y-73639771D01*
X77804828Y-73639771D02*
X77614352Y-73639771D01*
X77614352Y-73639771D02*
X77519114Y-73687390D01*
X77519114Y-73687390D02*
X77471495Y-73735009D01*
X77471495Y-73735009D02*
X77423876Y-73830247D01*
X97604761Y-48650057D02*
X97509523Y-48602438D01*
X97509523Y-48602438D02*
X97414285Y-48507200D01*
X97414285Y-48507200D02*
X97271428Y-48364342D01*
X97271428Y-48364342D02*
X97176190Y-48316723D01*
X97176190Y-48316723D02*
X97080952Y-48316723D01*
X97128571Y-48554819D02*
X97033333Y-48507200D01*
X97033333Y-48507200D02*
X96938095Y-48411961D01*
X96938095Y-48411961D02*
X96890476Y-48221485D01*
X96890476Y-48221485D02*
X96890476Y-47888152D01*
X96890476Y-47888152D02*
X96938095Y-47697676D01*
X96938095Y-47697676D02*
X97033333Y-47602438D01*
X97033333Y-47602438D02*
X97128571Y-47554819D01*
X97128571Y-47554819D02*
X97319047Y-47554819D01*
X97319047Y-47554819D02*
X97414285Y-47602438D01*
X97414285Y-47602438D02*
X97509523Y-47697676D01*
X97509523Y-47697676D02*
X97557142Y-47888152D01*
X97557142Y-47888152D02*
X97557142Y-48221485D01*
X97557142Y-48221485D02*
X97509523Y-48411961D01*
X97509523Y-48411961D02*
X97414285Y-48507200D01*
X97414285Y-48507200D02*
X97319047Y-48554819D01*
X97319047Y-48554819D02*
X97128571Y-48554819D01*
X98414285Y-47888152D02*
X98414285Y-48554819D01*
X98176190Y-47507200D02*
X97938095Y-48221485D01*
X97938095Y-48221485D02*
X98557142Y-48221485D01*
X87730819Y-53017657D02*
X87254628Y-53350990D01*
X87730819Y-53589085D02*
X86730819Y-53589085D01*
X86730819Y-53589085D02*
X86730819Y-53208133D01*
X86730819Y-53208133D02*
X86778438Y-53112895D01*
X86778438Y-53112895D02*
X86826057Y-53065276D01*
X86826057Y-53065276D02*
X86921295Y-53017657D01*
X86921295Y-53017657D02*
X87064152Y-53017657D01*
X87064152Y-53017657D02*
X87159390Y-53065276D01*
X87159390Y-53065276D02*
X87207009Y-53112895D01*
X87207009Y-53112895D02*
X87254628Y-53208133D01*
X87254628Y-53208133D02*
X87254628Y-53589085D01*
X86826057Y-52636704D02*
X86778438Y-52589085D01*
X86778438Y-52589085D02*
X86730819Y-52493847D01*
X86730819Y-52493847D02*
X86730819Y-52255752D01*
X86730819Y-52255752D02*
X86778438Y-52160514D01*
X86778438Y-52160514D02*
X86826057Y-52112895D01*
X86826057Y-52112895D02*
X86921295Y-52065276D01*
X86921295Y-52065276D02*
X87016533Y-52065276D01*
X87016533Y-52065276D02*
X87159390Y-52112895D01*
X87159390Y-52112895D02*
X87730819Y-52684323D01*
X87730819Y-52684323D02*
X87730819Y-52065276D01*
X86730819Y-51208133D02*
X86730819Y-51398609D01*
X86730819Y-51398609D02*
X86778438Y-51493847D01*
X86778438Y-51493847D02*
X86826057Y-51541466D01*
X86826057Y-51541466D02*
X86968914Y-51636704D01*
X86968914Y-51636704D02*
X87159390Y-51684323D01*
X87159390Y-51684323D02*
X87540342Y-51684323D01*
X87540342Y-51684323D02*
X87635580Y-51636704D01*
X87635580Y-51636704D02*
X87683200Y-51589085D01*
X87683200Y-51589085D02*
X87730819Y-51493847D01*
X87730819Y-51493847D02*
X87730819Y-51303371D01*
X87730819Y-51303371D02*
X87683200Y-51208133D01*
X87683200Y-51208133D02*
X87635580Y-51160514D01*
X87635580Y-51160514D02*
X87540342Y-51112895D01*
X87540342Y-51112895D02*
X87302247Y-51112895D01*
X87302247Y-51112895D02*
X87207009Y-51160514D01*
X87207009Y-51160514D02*
X87159390Y-51208133D01*
X87159390Y-51208133D02*
X87111771Y-51303371D01*
X87111771Y-51303371D02*
X87111771Y-51493847D01*
X87111771Y-51493847D02*
X87159390Y-51589085D01*
X87159390Y-51589085D02*
X87207009Y-51636704D01*
X87207009Y-51636704D02*
X87302247Y-51684323D01*
X101719142Y-59389180D02*
X101671523Y-59436800D01*
X101671523Y-59436800D02*
X101528666Y-59484419D01*
X101528666Y-59484419D02*
X101433428Y-59484419D01*
X101433428Y-59484419D02*
X101290571Y-59436800D01*
X101290571Y-59436800D02*
X101195333Y-59341561D01*
X101195333Y-59341561D02*
X101147714Y-59246323D01*
X101147714Y-59246323D02*
X101100095Y-59055847D01*
X101100095Y-59055847D02*
X101100095Y-58912990D01*
X101100095Y-58912990D02*
X101147714Y-58722514D01*
X101147714Y-58722514D02*
X101195333Y-58627276D01*
X101195333Y-58627276D02*
X101290571Y-58532038D01*
X101290571Y-58532038D02*
X101433428Y-58484419D01*
X101433428Y-58484419D02*
X101528666Y-58484419D01*
X101528666Y-58484419D02*
X101671523Y-58532038D01*
X101671523Y-58532038D02*
X101719142Y-58579657D01*
X102671523Y-59484419D02*
X102100095Y-59484419D01*
X102385809Y-59484419D02*
X102385809Y-58484419D01*
X102385809Y-58484419D02*
X102290571Y-58627276D01*
X102290571Y-58627276D02*
X102195333Y-58722514D01*
X102195333Y-58722514D02*
X102100095Y-58770133D01*
X103242952Y-58912990D02*
X103147714Y-58865371D01*
X103147714Y-58865371D02*
X103100095Y-58817752D01*
X103100095Y-58817752D02*
X103052476Y-58722514D01*
X103052476Y-58722514D02*
X103052476Y-58674895D01*
X103052476Y-58674895D02*
X103100095Y-58579657D01*
X103100095Y-58579657D02*
X103147714Y-58532038D01*
X103147714Y-58532038D02*
X103242952Y-58484419D01*
X103242952Y-58484419D02*
X103433428Y-58484419D01*
X103433428Y-58484419D02*
X103528666Y-58532038D01*
X103528666Y-58532038D02*
X103576285Y-58579657D01*
X103576285Y-58579657D02*
X103623904Y-58674895D01*
X103623904Y-58674895D02*
X103623904Y-58722514D01*
X103623904Y-58722514D02*
X103576285Y-58817752D01*
X103576285Y-58817752D02*
X103528666Y-58865371D01*
X103528666Y-58865371D02*
X103433428Y-58912990D01*
X103433428Y-58912990D02*
X103242952Y-58912990D01*
X103242952Y-58912990D02*
X103147714Y-58960609D01*
X103147714Y-58960609D02*
X103100095Y-59008228D01*
X103100095Y-59008228D02*
X103052476Y-59103466D01*
X103052476Y-59103466D02*
X103052476Y-59293942D01*
X103052476Y-59293942D02*
X103100095Y-59389180D01*
X103100095Y-59389180D02*
X103147714Y-59436800D01*
X103147714Y-59436800D02*
X103242952Y-59484419D01*
X103242952Y-59484419D02*
X103433428Y-59484419D01*
X103433428Y-59484419D02*
X103528666Y-59436800D01*
X103528666Y-59436800D02*
X103576285Y-59389180D01*
X103576285Y-59389180D02*
X103623904Y-59293942D01*
X103623904Y-59293942D02*
X103623904Y-59103466D01*
X103623904Y-59103466D02*
X103576285Y-59008228D01*
X103576285Y-59008228D02*
X103528666Y-58960609D01*
X103528666Y-58960609D02*
X103433428Y-58912990D01*
X98718019Y-54374894D02*
X99527542Y-54374894D01*
X99527542Y-54374894D02*
X99622780Y-54327275D01*
X99622780Y-54327275D02*
X99670400Y-54279656D01*
X99670400Y-54279656D02*
X99718019Y-54184418D01*
X99718019Y-54184418D02*
X99718019Y-53993942D01*
X99718019Y-53993942D02*
X99670400Y-53898704D01*
X99670400Y-53898704D02*
X99622780Y-53851085D01*
X99622780Y-53851085D02*
X99527542Y-53803466D01*
X99527542Y-53803466D02*
X98718019Y-53803466D01*
X99718019Y-52803466D02*
X99718019Y-53374894D01*
X99718019Y-53089180D02*
X98718019Y-53089180D01*
X98718019Y-53089180D02*
X98860876Y-53184418D01*
X98860876Y-53184418D02*
X98956114Y-53279656D01*
X98956114Y-53279656D02*
X99003733Y-53374894D01*
X98718019Y-51946323D02*
X98718019Y-52136799D01*
X98718019Y-52136799D02*
X98765638Y-52232037D01*
X98765638Y-52232037D02*
X98813257Y-52279656D01*
X98813257Y-52279656D02*
X98956114Y-52374894D01*
X98956114Y-52374894D02*
X99146590Y-52422513D01*
X99146590Y-52422513D02*
X99527542Y-52422513D01*
X99527542Y-52422513D02*
X99622780Y-52374894D01*
X99622780Y-52374894D02*
X99670400Y-52327275D01*
X99670400Y-52327275D02*
X99718019Y-52232037D01*
X99718019Y-52232037D02*
X99718019Y-52041561D01*
X99718019Y-52041561D02*
X99670400Y-51946323D01*
X99670400Y-51946323D02*
X99622780Y-51898704D01*
X99622780Y-51898704D02*
X99527542Y-51851085D01*
X99527542Y-51851085D02*
X99289447Y-51851085D01*
X99289447Y-51851085D02*
X99194209Y-51898704D01*
X99194209Y-51898704D02*
X99146590Y-51946323D01*
X99146590Y-51946323D02*
X99098971Y-52041561D01*
X99098971Y-52041561D02*
X99098971Y-52232037D01*
X99098971Y-52232037D02*
X99146590Y-52327275D01*
X99146590Y-52327275D02*
X99194209Y-52374894D01*
X99194209Y-52374894D02*
X99289447Y-52422513D01*
X100036904Y-61920180D02*
X100036904Y-61110657D01*
X100036904Y-61110657D02*
X99989285Y-61015419D01*
X99989285Y-61015419D02*
X99941666Y-60967800D01*
X99941666Y-60967800D02*
X99846428Y-60920180D01*
X99846428Y-60920180D02*
X99655952Y-60920180D01*
X99655952Y-60920180D02*
X99560714Y-60967800D01*
X99560714Y-60967800D02*
X99513095Y-61015419D01*
X99513095Y-61015419D02*
X99465476Y-61110657D01*
X99465476Y-61110657D02*
X99465476Y-61920180D01*
X98513095Y-61920180D02*
X98989285Y-61920180D01*
X98989285Y-61920180D02*
X99036904Y-61443990D01*
X99036904Y-61443990D02*
X98989285Y-61491609D01*
X98989285Y-61491609D02*
X98894047Y-61539228D01*
X98894047Y-61539228D02*
X98655952Y-61539228D01*
X98655952Y-61539228D02*
X98560714Y-61491609D01*
X98560714Y-61491609D02*
X98513095Y-61443990D01*
X98513095Y-61443990D02*
X98465476Y-61348752D01*
X98465476Y-61348752D02*
X98465476Y-61110657D01*
X98465476Y-61110657D02*
X98513095Y-61015419D01*
X98513095Y-61015419D02*
X98560714Y-60967800D01*
X98560714Y-60967800D02*
X98655952Y-60920180D01*
X98655952Y-60920180D02*
X98894047Y-60920180D01*
X98894047Y-60920180D02*
X98989285Y-60967800D01*
X98989285Y-60967800D02*
X99036904Y-61015419D01*
D10*
X69557419Y-73516666D02*
X69557419Y-73992856D01*
X69557419Y-73992856D02*
X68557419Y-73992856D01*
X69557419Y-72659523D02*
X69557419Y-73230951D01*
X69557419Y-72945237D02*
X68557419Y-72945237D01*
X68557419Y-72945237D02*
X68700276Y-73040475D01*
X68700276Y-73040475D02*
X68795514Y-73135713D01*
X68795514Y-73135713D02*
X68843133Y-73230951D01*
D11*
X74077533Y-49999580D02*
X74029914Y-50047200D01*
X74029914Y-50047200D02*
X73887057Y-50094819D01*
X73887057Y-50094819D02*
X73791819Y-50094819D01*
X73791819Y-50094819D02*
X73648962Y-50047200D01*
X73648962Y-50047200D02*
X73553724Y-49951961D01*
X73553724Y-49951961D02*
X73506105Y-49856723D01*
X73506105Y-49856723D02*
X73458486Y-49666247D01*
X73458486Y-49666247D02*
X73458486Y-49523390D01*
X73458486Y-49523390D02*
X73506105Y-49332914D01*
X73506105Y-49332914D02*
X73553724Y-49237676D01*
X73553724Y-49237676D02*
X73648962Y-49142438D01*
X73648962Y-49142438D02*
X73791819Y-49094819D01*
X73791819Y-49094819D02*
X73887057Y-49094819D01*
X73887057Y-49094819D02*
X74029914Y-49142438D01*
X74029914Y-49142438D02*
X74077533Y-49190057D01*
X74934676Y-49094819D02*
X74744200Y-49094819D01*
X74744200Y-49094819D02*
X74648962Y-49142438D01*
X74648962Y-49142438D02*
X74601343Y-49190057D01*
X74601343Y-49190057D02*
X74506105Y-49332914D01*
X74506105Y-49332914D02*
X74458486Y-49523390D01*
X74458486Y-49523390D02*
X74458486Y-49904342D01*
X74458486Y-49904342D02*
X74506105Y-49999580D01*
X74506105Y-49999580D02*
X74553724Y-50047200D01*
X74553724Y-50047200D02*
X74648962Y-50094819D01*
X74648962Y-50094819D02*
X74839438Y-50094819D01*
X74839438Y-50094819D02*
X74934676Y-50047200D01*
X74934676Y-50047200D02*
X74982295Y-49999580D01*
X74982295Y-49999580D02*
X75029914Y-49904342D01*
X75029914Y-49904342D02*
X75029914Y-49666247D01*
X75029914Y-49666247D02*
X74982295Y-49571009D01*
X74982295Y-49571009D02*
X74934676Y-49523390D01*
X74934676Y-49523390D02*
X74839438Y-49475771D01*
X74839438Y-49475771D02*
X74648962Y-49475771D01*
X74648962Y-49475771D02*
X74553724Y-49523390D01*
X74553724Y-49523390D02*
X74506105Y-49571009D01*
X74506105Y-49571009D02*
X74458486Y-49666247D01*
X91203542Y-53185219D02*
X90870209Y-52709028D01*
X90632114Y-53185219D02*
X90632114Y-52185219D01*
X90632114Y-52185219D02*
X91013066Y-52185219D01*
X91013066Y-52185219D02*
X91108304Y-52232838D01*
X91108304Y-52232838D02*
X91155923Y-52280457D01*
X91155923Y-52280457D02*
X91203542Y-52375695D01*
X91203542Y-52375695D02*
X91203542Y-52518552D01*
X91203542Y-52518552D02*
X91155923Y-52613790D01*
X91155923Y-52613790D02*
X91108304Y-52661409D01*
X91108304Y-52661409D02*
X91013066Y-52709028D01*
X91013066Y-52709028D02*
X90632114Y-52709028D01*
X91584495Y-52280457D02*
X91632114Y-52232838D01*
X91632114Y-52232838D02*
X91727352Y-52185219D01*
X91727352Y-52185219D02*
X91965447Y-52185219D01*
X91965447Y-52185219D02*
X92060685Y-52232838D01*
X92060685Y-52232838D02*
X92108304Y-52280457D01*
X92108304Y-52280457D02*
X92155923Y-52375695D01*
X92155923Y-52375695D02*
X92155923Y-52470933D01*
X92155923Y-52470933D02*
X92108304Y-52613790D01*
X92108304Y-52613790D02*
X91536876Y-53185219D01*
X91536876Y-53185219D02*
X92155923Y-53185219D01*
X92489257Y-52185219D02*
X93155923Y-52185219D01*
X93155923Y-52185219D02*
X92727352Y-53185219D01*
X90354819Y-69742857D02*
X89878628Y-70076190D01*
X90354819Y-70314285D02*
X89354819Y-70314285D01*
X89354819Y-70314285D02*
X89354819Y-69933333D01*
X89354819Y-69933333D02*
X89402438Y-69838095D01*
X89402438Y-69838095D02*
X89450057Y-69790476D01*
X89450057Y-69790476D02*
X89545295Y-69742857D01*
X89545295Y-69742857D02*
X89688152Y-69742857D01*
X89688152Y-69742857D02*
X89783390Y-69790476D01*
X89783390Y-69790476D02*
X89831009Y-69838095D01*
X89831009Y-69838095D02*
X89878628Y-69933333D01*
X89878628Y-69933333D02*
X89878628Y-70314285D01*
X89354819Y-69409523D02*
X89354819Y-68790476D01*
X89354819Y-68790476D02*
X89735771Y-69123809D01*
X89735771Y-69123809D02*
X89735771Y-68980952D01*
X89735771Y-68980952D02*
X89783390Y-68885714D01*
X89783390Y-68885714D02*
X89831009Y-68838095D01*
X89831009Y-68838095D02*
X89926247Y-68790476D01*
X89926247Y-68790476D02*
X90164342Y-68790476D01*
X90164342Y-68790476D02*
X90259580Y-68838095D01*
X90259580Y-68838095D02*
X90307200Y-68885714D01*
X90307200Y-68885714D02*
X90354819Y-68980952D01*
X90354819Y-68980952D02*
X90354819Y-69266666D01*
X90354819Y-69266666D02*
X90307200Y-69361904D01*
X90307200Y-69361904D02*
X90259580Y-69409523D01*
X89354819Y-68171428D02*
X89354819Y-68076190D01*
X89354819Y-68076190D02*
X89402438Y-67980952D01*
X89402438Y-67980952D02*
X89450057Y-67933333D01*
X89450057Y-67933333D02*
X89545295Y-67885714D01*
X89545295Y-67885714D02*
X89735771Y-67838095D01*
X89735771Y-67838095D02*
X89973866Y-67838095D01*
X89973866Y-67838095D02*
X90164342Y-67885714D01*
X90164342Y-67885714D02*
X90259580Y-67933333D01*
X90259580Y-67933333D02*
X90307200Y-67980952D01*
X90307200Y-67980952D02*
X90354819Y-68076190D01*
X90354819Y-68076190D02*
X90354819Y-68171428D01*
X90354819Y-68171428D02*
X90307200Y-68266666D01*
X90307200Y-68266666D02*
X90259580Y-68314285D01*
X90259580Y-68314285D02*
X90164342Y-68361904D01*
X90164342Y-68361904D02*
X89973866Y-68409523D01*
X89973866Y-68409523D02*
X89735771Y-68409523D01*
X89735771Y-68409523D02*
X89545295Y-68361904D01*
X89545295Y-68361904D02*
X89450057Y-68314285D01*
X89450057Y-68314285D02*
X89402438Y-68266666D01*
X89402438Y-68266666D02*
X89354819Y-68171428D01*
X94383333Y-47054819D02*
X94050000Y-46578628D01*
X93811905Y-47054819D02*
X93811905Y-46054819D01*
X93811905Y-46054819D02*
X94192857Y-46054819D01*
X94192857Y-46054819D02*
X94288095Y-46102438D01*
X94288095Y-46102438D02*
X94335714Y-46150057D01*
X94335714Y-46150057D02*
X94383333Y-46245295D01*
X94383333Y-46245295D02*
X94383333Y-46388152D01*
X94383333Y-46388152D02*
X94335714Y-46483390D01*
X94335714Y-46483390D02*
X94288095Y-46531009D01*
X94288095Y-46531009D02*
X94192857Y-46578628D01*
X94192857Y-46578628D02*
X93811905Y-46578628D01*
X94859524Y-47054819D02*
X95050000Y-47054819D01*
X95050000Y-47054819D02*
X95145238Y-47007200D01*
X95145238Y-47007200D02*
X95192857Y-46959580D01*
X95192857Y-46959580D02*
X95288095Y-46816723D01*
X95288095Y-46816723D02*
X95335714Y-46626247D01*
X95335714Y-46626247D02*
X95335714Y-46245295D01*
X95335714Y-46245295D02*
X95288095Y-46150057D01*
X95288095Y-46150057D02*
X95240476Y-46102438D01*
X95240476Y-46102438D02*
X95145238Y-46054819D01*
X95145238Y-46054819D02*
X94954762Y-46054819D01*
X94954762Y-46054819D02*
X94859524Y-46102438D01*
X94859524Y-46102438D02*
X94811905Y-46150057D01*
X94811905Y-46150057D02*
X94764286Y-46245295D01*
X94764286Y-46245295D02*
X94764286Y-46483390D01*
X94764286Y-46483390D02*
X94811905Y-46578628D01*
X94811905Y-46578628D02*
X94859524Y-46626247D01*
X94859524Y-46626247D02*
X94954762Y-46673866D01*
X94954762Y-46673866D02*
X95145238Y-46673866D01*
X95145238Y-46673866D02*
X95240476Y-46626247D01*
X95240476Y-46626247D02*
X95288095Y-46578628D01*
X95288095Y-46578628D02*
X95335714Y-46483390D01*
X93897142Y-50774819D02*
X93563809Y-50298628D01*
X93325714Y-50774819D02*
X93325714Y-49774819D01*
X93325714Y-49774819D02*
X93706666Y-49774819D01*
X93706666Y-49774819D02*
X93801904Y-49822438D01*
X93801904Y-49822438D02*
X93849523Y-49870057D01*
X93849523Y-49870057D02*
X93897142Y-49965295D01*
X93897142Y-49965295D02*
X93897142Y-50108152D01*
X93897142Y-50108152D02*
X93849523Y-50203390D01*
X93849523Y-50203390D02*
X93801904Y-50251009D01*
X93801904Y-50251009D02*
X93706666Y-50298628D01*
X93706666Y-50298628D02*
X93325714Y-50298628D01*
X94278095Y-49870057D02*
X94325714Y-49822438D01*
X94325714Y-49822438D02*
X94420952Y-49774819D01*
X94420952Y-49774819D02*
X94659047Y-49774819D01*
X94659047Y-49774819D02*
X94754285Y-49822438D01*
X94754285Y-49822438D02*
X94801904Y-49870057D01*
X94801904Y-49870057D02*
X94849523Y-49965295D01*
X94849523Y-49965295D02*
X94849523Y-50060533D01*
X94849523Y-50060533D02*
X94801904Y-50203390D01*
X94801904Y-50203390D02*
X94230476Y-50774819D01*
X94230476Y-50774819D02*
X94849523Y-50774819D01*
X95230476Y-49870057D02*
X95278095Y-49822438D01*
X95278095Y-49822438D02*
X95373333Y-49774819D01*
X95373333Y-49774819D02*
X95611428Y-49774819D01*
X95611428Y-49774819D02*
X95706666Y-49822438D01*
X95706666Y-49822438D02*
X95754285Y-49870057D01*
X95754285Y-49870057D02*
X95801904Y-49965295D01*
X95801904Y-49965295D02*
X95801904Y-50060533D01*
X95801904Y-50060533D02*
X95754285Y-50203390D01*
X95754285Y-50203390D02*
X95182857Y-50774819D01*
X95182857Y-50774819D02*
X95801904Y-50774819D01*
X93924819Y-54116666D02*
X93448628Y-54449999D01*
X93924819Y-54688094D02*
X92924819Y-54688094D01*
X92924819Y-54688094D02*
X92924819Y-54307142D01*
X92924819Y-54307142D02*
X92972438Y-54211904D01*
X92972438Y-54211904D02*
X93020057Y-54164285D01*
X93020057Y-54164285D02*
X93115295Y-54116666D01*
X93115295Y-54116666D02*
X93258152Y-54116666D01*
X93258152Y-54116666D02*
X93353390Y-54164285D01*
X93353390Y-54164285D02*
X93401009Y-54211904D01*
X93401009Y-54211904D02*
X93448628Y-54307142D01*
X93448628Y-54307142D02*
X93448628Y-54688094D01*
X92924819Y-53259523D02*
X92924819Y-53449999D01*
X92924819Y-53449999D02*
X92972438Y-53545237D01*
X92972438Y-53545237D02*
X93020057Y-53592856D01*
X93020057Y-53592856D02*
X93162914Y-53688094D01*
X93162914Y-53688094D02*
X93353390Y-53735713D01*
X93353390Y-53735713D02*
X93734342Y-53735713D01*
X93734342Y-53735713D02*
X93829580Y-53688094D01*
X93829580Y-53688094D02*
X93877200Y-53640475D01*
X93877200Y-53640475D02*
X93924819Y-53545237D01*
X93924819Y-53545237D02*
X93924819Y-53354761D01*
X93924819Y-53354761D02*
X93877200Y-53259523D01*
X93877200Y-53259523D02*
X93829580Y-53211904D01*
X93829580Y-53211904D02*
X93734342Y-53164285D01*
X93734342Y-53164285D02*
X93496247Y-53164285D01*
X93496247Y-53164285D02*
X93401009Y-53211904D01*
X93401009Y-53211904D02*
X93353390Y-53259523D01*
X93353390Y-53259523D02*
X93305771Y-53354761D01*
X93305771Y-53354761D02*
X93305771Y-53545237D01*
X93305771Y-53545237D02*
X93353390Y-53640475D01*
X93353390Y-53640475D02*
X93401009Y-53688094D01*
X93401009Y-53688094D02*
X93496247Y-53735713D01*
X77188095Y-54854819D02*
X77188095Y-55664342D01*
X77188095Y-55664342D02*
X77235714Y-55759580D01*
X77235714Y-55759580D02*
X77283333Y-55807200D01*
X77283333Y-55807200D02*
X77378571Y-55854819D01*
X77378571Y-55854819D02*
X77569047Y-55854819D01*
X77569047Y-55854819D02*
X77664285Y-55807200D01*
X77664285Y-55807200D02*
X77711904Y-55759580D01*
X77711904Y-55759580D02*
X77759523Y-55664342D01*
X77759523Y-55664342D02*
X77759523Y-54854819D01*
X78140476Y-54854819D02*
X78759523Y-54854819D01*
X78759523Y-54854819D02*
X78426190Y-55235771D01*
X78426190Y-55235771D02*
X78569047Y-55235771D01*
X78569047Y-55235771D02*
X78664285Y-55283390D01*
X78664285Y-55283390D02*
X78711904Y-55331009D01*
X78711904Y-55331009D02*
X78759523Y-55426247D01*
X78759523Y-55426247D02*
X78759523Y-55664342D01*
X78759523Y-55664342D02*
X78711904Y-55759580D01*
X78711904Y-55759580D02*
X78664285Y-55807200D01*
X78664285Y-55807200D02*
X78569047Y-55854819D01*
X78569047Y-55854819D02*
X78283333Y-55854819D01*
X78283333Y-55854819D02*
X78188095Y-55807200D01*
X78188095Y-55807200D02*
X78140476Y-55759580D01*
X94207142Y-56129580D02*
X94159523Y-56177200D01*
X94159523Y-56177200D02*
X94016666Y-56224819D01*
X94016666Y-56224819D02*
X93921428Y-56224819D01*
X93921428Y-56224819D02*
X93778571Y-56177200D01*
X93778571Y-56177200D02*
X93683333Y-56081961D01*
X93683333Y-56081961D02*
X93635714Y-55986723D01*
X93635714Y-55986723D02*
X93588095Y-55796247D01*
X93588095Y-55796247D02*
X93588095Y-55653390D01*
X93588095Y-55653390D02*
X93635714Y-55462914D01*
X93635714Y-55462914D02*
X93683333Y-55367676D01*
X93683333Y-55367676D02*
X93778571Y-55272438D01*
X93778571Y-55272438D02*
X93921428Y-55224819D01*
X93921428Y-55224819D02*
X94016666Y-55224819D01*
X94016666Y-55224819D02*
X94159523Y-55272438D01*
X94159523Y-55272438D02*
X94207142Y-55320057D01*
X95159523Y-56224819D02*
X94588095Y-56224819D01*
X94873809Y-56224819D02*
X94873809Y-55224819D01*
X94873809Y-55224819D02*
X94778571Y-55367676D01*
X94778571Y-55367676D02*
X94683333Y-55462914D01*
X94683333Y-55462914D02*
X94588095Y-55510533D01*
X95778571Y-55224819D02*
X95873809Y-55224819D01*
X95873809Y-55224819D02*
X95969047Y-55272438D01*
X95969047Y-55272438D02*
X96016666Y-55320057D01*
X96016666Y-55320057D02*
X96064285Y-55415295D01*
X96064285Y-55415295D02*
X96111904Y-55605771D01*
X96111904Y-55605771D02*
X96111904Y-55843866D01*
X96111904Y-55843866D02*
X96064285Y-56034342D01*
X96064285Y-56034342D02*
X96016666Y-56129580D01*
X96016666Y-56129580D02*
X95969047Y-56177200D01*
X95969047Y-56177200D02*
X95873809Y-56224819D01*
X95873809Y-56224819D02*
X95778571Y-56224819D01*
X95778571Y-56224819D02*
X95683333Y-56177200D01*
X95683333Y-56177200D02*
X95635714Y-56129580D01*
X95635714Y-56129580D02*
X95588095Y-56034342D01*
X95588095Y-56034342D02*
X95540476Y-55843866D01*
X95540476Y-55843866D02*
X95540476Y-55605771D01*
X95540476Y-55605771D02*
X95588095Y-55415295D01*
X95588095Y-55415295D02*
X95635714Y-55320057D01*
X95635714Y-55320057D02*
X95683333Y-55272438D01*
X95683333Y-55272438D02*
X95778571Y-55224819D01*
X91940142Y-61491019D02*
X91606809Y-61014828D01*
X91368714Y-61491019D02*
X91368714Y-60491019D01*
X91368714Y-60491019D02*
X91749666Y-60491019D01*
X91749666Y-60491019D02*
X91844904Y-60538638D01*
X91844904Y-60538638D02*
X91892523Y-60586257D01*
X91892523Y-60586257D02*
X91940142Y-60681495D01*
X91940142Y-60681495D02*
X91940142Y-60824352D01*
X91940142Y-60824352D02*
X91892523Y-60919590D01*
X91892523Y-60919590D02*
X91844904Y-60967209D01*
X91844904Y-60967209D02*
X91749666Y-61014828D01*
X91749666Y-61014828D02*
X91368714Y-61014828D01*
X92273476Y-60491019D02*
X92892523Y-60491019D01*
X92892523Y-60491019D02*
X92559190Y-60871971D01*
X92559190Y-60871971D02*
X92702047Y-60871971D01*
X92702047Y-60871971D02*
X92797285Y-60919590D01*
X92797285Y-60919590D02*
X92844904Y-60967209D01*
X92844904Y-60967209D02*
X92892523Y-61062447D01*
X92892523Y-61062447D02*
X92892523Y-61300542D01*
X92892523Y-61300542D02*
X92844904Y-61395780D01*
X92844904Y-61395780D02*
X92797285Y-61443400D01*
X92797285Y-61443400D02*
X92702047Y-61491019D01*
X92702047Y-61491019D02*
X92416333Y-61491019D01*
X92416333Y-61491019D02*
X92321095Y-61443400D01*
X92321095Y-61443400D02*
X92273476Y-61395780D01*
X93797285Y-60491019D02*
X93321095Y-60491019D01*
X93321095Y-60491019D02*
X93273476Y-60967209D01*
X93273476Y-60967209D02*
X93321095Y-60919590D01*
X93321095Y-60919590D02*
X93416333Y-60871971D01*
X93416333Y-60871971D02*
X93654428Y-60871971D01*
X93654428Y-60871971D02*
X93749666Y-60919590D01*
X93749666Y-60919590D02*
X93797285Y-60967209D01*
X93797285Y-60967209D02*
X93844904Y-61062447D01*
X93844904Y-61062447D02*
X93844904Y-61300542D01*
X93844904Y-61300542D02*
X93797285Y-61395780D01*
X93797285Y-61395780D02*
X93749666Y-61443400D01*
X93749666Y-61443400D02*
X93654428Y-61491019D01*
X93654428Y-61491019D02*
X93416333Y-61491019D01*
X93416333Y-61491019D02*
X93321095Y-61443400D01*
X93321095Y-61443400D02*
X93273476Y-61395780D01*
X78684780Y-78576466D02*
X78732400Y-78624085D01*
X78732400Y-78624085D02*
X78780019Y-78766942D01*
X78780019Y-78766942D02*
X78780019Y-78862180D01*
X78780019Y-78862180D02*
X78732400Y-79005037D01*
X78732400Y-79005037D02*
X78637161Y-79100275D01*
X78637161Y-79100275D02*
X78541923Y-79147894D01*
X78541923Y-79147894D02*
X78351447Y-79195513D01*
X78351447Y-79195513D02*
X78208590Y-79195513D01*
X78208590Y-79195513D02*
X78018114Y-79147894D01*
X78018114Y-79147894D02*
X77922876Y-79100275D01*
X77922876Y-79100275D02*
X77827638Y-79005037D01*
X77827638Y-79005037D02*
X77780019Y-78862180D01*
X77780019Y-78862180D02*
X77780019Y-78766942D01*
X77780019Y-78766942D02*
X77827638Y-78624085D01*
X77827638Y-78624085D02*
X77875257Y-78576466D01*
X78113352Y-77719323D02*
X78780019Y-77719323D01*
X77732400Y-77957418D02*
X78446685Y-78195513D01*
X78446685Y-78195513D02*
X78446685Y-77576466D01*
X84044819Y-64342857D02*
X83568628Y-64676190D01*
X84044819Y-64914285D02*
X83044819Y-64914285D01*
X83044819Y-64914285D02*
X83044819Y-64533333D01*
X83044819Y-64533333D02*
X83092438Y-64438095D01*
X83092438Y-64438095D02*
X83140057Y-64390476D01*
X83140057Y-64390476D02*
X83235295Y-64342857D01*
X83235295Y-64342857D02*
X83378152Y-64342857D01*
X83378152Y-64342857D02*
X83473390Y-64390476D01*
X83473390Y-64390476D02*
X83521009Y-64438095D01*
X83521009Y-64438095D02*
X83568628Y-64533333D01*
X83568628Y-64533333D02*
X83568628Y-64914285D01*
X84044819Y-63390476D02*
X84044819Y-63961904D01*
X84044819Y-63676190D02*
X83044819Y-63676190D01*
X83044819Y-63676190D02*
X83187676Y-63771428D01*
X83187676Y-63771428D02*
X83282914Y-63866666D01*
X83282914Y-63866666D02*
X83330533Y-63961904D01*
X83044819Y-62533333D02*
X83044819Y-62723809D01*
X83044819Y-62723809D02*
X83092438Y-62819047D01*
X83092438Y-62819047D02*
X83140057Y-62866666D01*
X83140057Y-62866666D02*
X83282914Y-62961904D01*
X83282914Y-62961904D02*
X83473390Y-63009523D01*
X83473390Y-63009523D02*
X83854342Y-63009523D01*
X83854342Y-63009523D02*
X83949580Y-62961904D01*
X83949580Y-62961904D02*
X83997200Y-62914285D01*
X83997200Y-62914285D02*
X84044819Y-62819047D01*
X84044819Y-62819047D02*
X84044819Y-62628571D01*
X84044819Y-62628571D02*
X83997200Y-62533333D01*
X83997200Y-62533333D02*
X83949580Y-62485714D01*
X83949580Y-62485714D02*
X83854342Y-62438095D01*
X83854342Y-62438095D02*
X83616247Y-62438095D01*
X83616247Y-62438095D02*
X83521009Y-62485714D01*
X83521009Y-62485714D02*
X83473390Y-62533333D01*
X83473390Y-62533333D02*
X83425771Y-62628571D01*
X83425771Y-62628571D02*
X83425771Y-62819047D01*
X83425771Y-62819047D02*
X83473390Y-62914285D01*
X83473390Y-62914285D02*
X83521009Y-62961904D01*
X83521009Y-62961904D02*
X83616247Y-63009523D01*
X106595942Y-56588819D02*
X106262609Y-56112628D01*
X106024514Y-56588819D02*
X106024514Y-55588819D01*
X106024514Y-55588819D02*
X106405466Y-55588819D01*
X106405466Y-55588819D02*
X106500704Y-55636438D01*
X106500704Y-55636438D02*
X106548323Y-55684057D01*
X106548323Y-55684057D02*
X106595942Y-55779295D01*
X106595942Y-55779295D02*
X106595942Y-55922152D01*
X106595942Y-55922152D02*
X106548323Y-56017390D01*
X106548323Y-56017390D02*
X106500704Y-56065009D01*
X106500704Y-56065009D02*
X106405466Y-56112628D01*
X106405466Y-56112628D02*
X106024514Y-56112628D01*
X106976895Y-55684057D02*
X107024514Y-55636438D01*
X107024514Y-55636438D02*
X107119752Y-55588819D01*
X107119752Y-55588819D02*
X107357847Y-55588819D01*
X107357847Y-55588819D02*
X107453085Y-55636438D01*
X107453085Y-55636438D02*
X107500704Y-55684057D01*
X107500704Y-55684057D02*
X107548323Y-55779295D01*
X107548323Y-55779295D02*
X107548323Y-55874533D01*
X107548323Y-55874533D02*
X107500704Y-56017390D01*
X107500704Y-56017390D02*
X106929276Y-56588819D01*
X106929276Y-56588819D02*
X107548323Y-56588819D01*
X108405466Y-55922152D02*
X108405466Y-56588819D01*
X108167371Y-55541200D02*
X107929276Y-56255485D01*
X107929276Y-56255485D02*
X108548323Y-56255485D01*
X81480819Y-49315666D02*
X81004628Y-49648999D01*
X81480819Y-49887094D02*
X80480819Y-49887094D01*
X80480819Y-49887094D02*
X80480819Y-49506142D01*
X80480819Y-49506142D02*
X80528438Y-49410904D01*
X80528438Y-49410904D02*
X80576057Y-49363285D01*
X80576057Y-49363285D02*
X80671295Y-49315666D01*
X80671295Y-49315666D02*
X80814152Y-49315666D01*
X80814152Y-49315666D02*
X80909390Y-49363285D01*
X80909390Y-49363285D02*
X80957009Y-49410904D01*
X80957009Y-49410904D02*
X81004628Y-49506142D01*
X81004628Y-49506142D02*
X81004628Y-49887094D01*
X80480819Y-48982332D02*
X80480819Y-48363285D01*
X80480819Y-48363285D02*
X80861771Y-48696618D01*
X80861771Y-48696618D02*
X80861771Y-48553761D01*
X80861771Y-48553761D02*
X80909390Y-48458523D01*
X80909390Y-48458523D02*
X80957009Y-48410904D01*
X80957009Y-48410904D02*
X81052247Y-48363285D01*
X81052247Y-48363285D02*
X81290342Y-48363285D01*
X81290342Y-48363285D02*
X81385580Y-48410904D01*
X81385580Y-48410904D02*
X81433200Y-48458523D01*
X81433200Y-48458523D02*
X81480819Y-48553761D01*
X81480819Y-48553761D02*
X81480819Y-48839475D01*
X81480819Y-48839475D02*
X81433200Y-48934713D01*
X81433200Y-48934713D02*
X81385580Y-48982332D01*
X94737142Y-63069580D02*
X94689523Y-63117200D01*
X94689523Y-63117200D02*
X94546666Y-63164819D01*
X94546666Y-63164819D02*
X94451428Y-63164819D01*
X94451428Y-63164819D02*
X94308571Y-63117200D01*
X94308571Y-63117200D02*
X94213333Y-63021961D01*
X94213333Y-63021961D02*
X94165714Y-62926723D01*
X94165714Y-62926723D02*
X94118095Y-62736247D01*
X94118095Y-62736247D02*
X94118095Y-62593390D01*
X94118095Y-62593390D02*
X94165714Y-62402914D01*
X94165714Y-62402914D02*
X94213333Y-62307676D01*
X94213333Y-62307676D02*
X94308571Y-62212438D01*
X94308571Y-62212438D02*
X94451428Y-62164819D01*
X94451428Y-62164819D02*
X94546666Y-62164819D01*
X94546666Y-62164819D02*
X94689523Y-62212438D01*
X94689523Y-62212438D02*
X94737142Y-62260057D01*
X95118095Y-62260057D02*
X95165714Y-62212438D01*
X95165714Y-62212438D02*
X95260952Y-62164819D01*
X95260952Y-62164819D02*
X95499047Y-62164819D01*
X95499047Y-62164819D02*
X95594285Y-62212438D01*
X95594285Y-62212438D02*
X95641904Y-62260057D01*
X95641904Y-62260057D02*
X95689523Y-62355295D01*
X95689523Y-62355295D02*
X95689523Y-62450533D01*
X95689523Y-62450533D02*
X95641904Y-62593390D01*
X95641904Y-62593390D02*
X95070476Y-63164819D01*
X95070476Y-63164819D02*
X95689523Y-63164819D01*
X96260952Y-62593390D02*
X96165714Y-62545771D01*
X96165714Y-62545771D02*
X96118095Y-62498152D01*
X96118095Y-62498152D02*
X96070476Y-62402914D01*
X96070476Y-62402914D02*
X96070476Y-62355295D01*
X96070476Y-62355295D02*
X96118095Y-62260057D01*
X96118095Y-62260057D02*
X96165714Y-62212438D01*
X96165714Y-62212438D02*
X96260952Y-62164819D01*
X96260952Y-62164819D02*
X96451428Y-62164819D01*
X96451428Y-62164819D02*
X96546666Y-62212438D01*
X96546666Y-62212438D02*
X96594285Y-62260057D01*
X96594285Y-62260057D02*
X96641904Y-62355295D01*
X96641904Y-62355295D02*
X96641904Y-62402914D01*
X96641904Y-62402914D02*
X96594285Y-62498152D01*
X96594285Y-62498152D02*
X96546666Y-62545771D01*
X96546666Y-62545771D02*
X96451428Y-62593390D01*
X96451428Y-62593390D02*
X96260952Y-62593390D01*
X96260952Y-62593390D02*
X96165714Y-62641009D01*
X96165714Y-62641009D02*
X96118095Y-62688628D01*
X96118095Y-62688628D02*
X96070476Y-62783866D01*
X96070476Y-62783866D02*
X96070476Y-62974342D01*
X96070476Y-62974342D02*
X96118095Y-63069580D01*
X96118095Y-63069580D02*
X96165714Y-63117200D01*
X96165714Y-63117200D02*
X96260952Y-63164819D01*
X96260952Y-63164819D02*
X96451428Y-63164819D01*
X96451428Y-63164819D02*
X96546666Y-63117200D01*
X96546666Y-63117200D02*
X96594285Y-63069580D01*
X96594285Y-63069580D02*
X96641904Y-62974342D01*
X96641904Y-62974342D02*
X96641904Y-62783866D01*
X96641904Y-62783866D02*
X96594285Y-62688628D01*
X96594285Y-62688628D02*
X96546666Y-62641009D01*
X96546666Y-62641009D02*
X96451428Y-62593390D01*
X80729719Y-56229694D02*
X81539242Y-56229694D01*
X81539242Y-56229694D02*
X81634480Y-56182075D01*
X81634480Y-56182075D02*
X81682100Y-56134456D01*
X81682100Y-56134456D02*
X81729719Y-56039218D01*
X81729719Y-56039218D02*
X81729719Y-55848742D01*
X81729719Y-55848742D02*
X81682100Y-55753504D01*
X81682100Y-55753504D02*
X81634480Y-55705885D01*
X81634480Y-55705885D02*
X81539242Y-55658266D01*
X81539242Y-55658266D02*
X80729719Y-55658266D01*
X81729719Y-54658266D02*
X81729719Y-55229694D01*
X81729719Y-54943980D02*
X80729719Y-54943980D01*
X80729719Y-54943980D02*
X80872576Y-55039218D01*
X80872576Y-55039218D02*
X80967814Y-55134456D01*
X80967814Y-55134456D02*
X81015433Y-55229694D01*
X81729719Y-53705885D02*
X81729719Y-54277313D01*
X81729719Y-53991599D02*
X80729719Y-53991599D01*
X80729719Y-53991599D02*
X80872576Y-54086837D01*
X80872576Y-54086837D02*
X80967814Y-54182075D01*
X80967814Y-54182075D02*
X81015433Y-54277313D01*
X81737200Y-51896419D02*
X81737200Y-52134514D01*
X81499105Y-52039276D02*
X81737200Y-52134514D01*
X81737200Y-52134514D02*
X81975295Y-52039276D01*
X81594343Y-52324990D02*
X81737200Y-52134514D01*
X81737200Y-52134514D02*
X81880057Y-52324990D01*
X81737200Y-51896419D02*
X81737200Y-52134514D01*
X81499105Y-52039276D02*
X81737200Y-52134514D01*
X81737200Y-52134514D02*
X81975295Y-52039276D01*
X81594343Y-52324990D02*
X81737200Y-52134514D01*
X81737200Y-52134514D02*
X81880057Y-52324990D01*
X83607142Y-51554819D02*
X83273809Y-51078628D01*
X83035714Y-51554819D02*
X83035714Y-50554819D01*
X83035714Y-50554819D02*
X83416666Y-50554819D01*
X83416666Y-50554819D02*
X83511904Y-50602438D01*
X83511904Y-50602438D02*
X83559523Y-50650057D01*
X83559523Y-50650057D02*
X83607142Y-50745295D01*
X83607142Y-50745295D02*
X83607142Y-50888152D01*
X83607142Y-50888152D02*
X83559523Y-50983390D01*
X83559523Y-50983390D02*
X83511904Y-51031009D01*
X83511904Y-51031009D02*
X83416666Y-51078628D01*
X83416666Y-51078628D02*
X83035714Y-51078628D01*
X84559523Y-51554819D02*
X83988095Y-51554819D01*
X84273809Y-51554819D02*
X84273809Y-50554819D01*
X84273809Y-50554819D02*
X84178571Y-50697676D01*
X84178571Y-50697676D02*
X84083333Y-50792914D01*
X84083333Y-50792914D02*
X83988095Y-50840533D01*
X84892857Y-50554819D02*
X85511904Y-50554819D01*
X85511904Y-50554819D02*
X85178571Y-50935771D01*
X85178571Y-50935771D02*
X85321428Y-50935771D01*
X85321428Y-50935771D02*
X85416666Y-50983390D01*
X85416666Y-50983390D02*
X85464285Y-51031009D01*
X85464285Y-51031009D02*
X85511904Y-51126247D01*
X85511904Y-51126247D02*
X85511904Y-51364342D01*
X85511904Y-51364342D02*
X85464285Y-51459580D01*
X85464285Y-51459580D02*
X85416666Y-51507200D01*
X85416666Y-51507200D02*
X85321428Y-51554819D01*
X85321428Y-51554819D02*
X85035714Y-51554819D01*
X85035714Y-51554819D02*
X84940476Y-51507200D01*
X84940476Y-51507200D02*
X84892857Y-51459580D01*
X88457142Y-51154819D02*
X88123809Y-50678628D01*
X87885714Y-51154819D02*
X87885714Y-50154819D01*
X87885714Y-50154819D02*
X88266666Y-50154819D01*
X88266666Y-50154819D02*
X88361904Y-50202438D01*
X88361904Y-50202438D02*
X88409523Y-50250057D01*
X88409523Y-50250057D02*
X88457142Y-50345295D01*
X88457142Y-50345295D02*
X88457142Y-50488152D01*
X88457142Y-50488152D02*
X88409523Y-50583390D01*
X88409523Y-50583390D02*
X88361904Y-50631009D01*
X88361904Y-50631009D02*
X88266666Y-50678628D01*
X88266666Y-50678628D02*
X87885714Y-50678628D01*
X89409523Y-51154819D02*
X88838095Y-51154819D01*
X89123809Y-51154819D02*
X89123809Y-50154819D01*
X89123809Y-50154819D02*
X89028571Y-50297676D01*
X89028571Y-50297676D02*
X88933333Y-50392914D01*
X88933333Y-50392914D02*
X88838095Y-50440533D01*
X89790476Y-50250057D02*
X89838095Y-50202438D01*
X89838095Y-50202438D02*
X89933333Y-50154819D01*
X89933333Y-50154819D02*
X90171428Y-50154819D01*
X90171428Y-50154819D02*
X90266666Y-50202438D01*
X90266666Y-50202438D02*
X90314285Y-50250057D01*
X90314285Y-50250057D02*
X90361904Y-50345295D01*
X90361904Y-50345295D02*
X90361904Y-50440533D01*
X90361904Y-50440533D02*
X90314285Y-50583390D01*
X90314285Y-50583390D02*
X89742857Y-51154819D01*
X89742857Y-51154819D02*
X90361904Y-51154819D01*
X85463142Y-68888780D02*
X85415523Y-68936400D01*
X85415523Y-68936400D02*
X85272666Y-68984019D01*
X85272666Y-68984019D02*
X85177428Y-68984019D01*
X85177428Y-68984019D02*
X85034571Y-68936400D01*
X85034571Y-68936400D02*
X84939333Y-68841161D01*
X84939333Y-68841161D02*
X84891714Y-68745923D01*
X84891714Y-68745923D02*
X84844095Y-68555447D01*
X84844095Y-68555447D02*
X84844095Y-68412590D01*
X84844095Y-68412590D02*
X84891714Y-68222114D01*
X84891714Y-68222114D02*
X84939333Y-68126876D01*
X84939333Y-68126876D02*
X85034571Y-68031638D01*
X85034571Y-68031638D02*
X85177428Y-67984019D01*
X85177428Y-67984019D02*
X85272666Y-67984019D01*
X85272666Y-67984019D02*
X85415523Y-68031638D01*
X85415523Y-68031638D02*
X85463142Y-68079257D01*
X85844095Y-68079257D02*
X85891714Y-68031638D01*
X85891714Y-68031638D02*
X85986952Y-67984019D01*
X85986952Y-67984019D02*
X86225047Y-67984019D01*
X86225047Y-67984019D02*
X86320285Y-68031638D01*
X86320285Y-68031638D02*
X86367904Y-68079257D01*
X86367904Y-68079257D02*
X86415523Y-68174495D01*
X86415523Y-68174495D02*
X86415523Y-68269733D01*
X86415523Y-68269733D02*
X86367904Y-68412590D01*
X86367904Y-68412590D02*
X85796476Y-68984019D01*
X85796476Y-68984019D02*
X86415523Y-68984019D01*
X86796476Y-68079257D02*
X86844095Y-68031638D01*
X86844095Y-68031638D02*
X86939333Y-67984019D01*
X86939333Y-67984019D02*
X87177428Y-67984019D01*
X87177428Y-67984019D02*
X87272666Y-68031638D01*
X87272666Y-68031638D02*
X87320285Y-68079257D01*
X87320285Y-68079257D02*
X87367904Y-68174495D01*
X87367904Y-68174495D02*
X87367904Y-68269733D01*
X87367904Y-68269733D02*
X87320285Y-68412590D01*
X87320285Y-68412590D02*
X86748857Y-68984019D01*
X86748857Y-68984019D02*
X87367904Y-68984019D01*
D12*
%TO.C,Q1*%
X81237500Y-70590000D02*
X80587500Y-70590000D01*
X81237500Y-70590000D02*
X81887500Y-70590000D01*
X81237500Y-73710000D02*
X80587500Y-73710000D01*
X81237500Y-73710000D02*
X81887500Y-73710000D01*
X82640000Y-73990000D02*
X82160000Y-73990000D01*
X82400000Y-73660000D01*
X82640000Y-73990000D01*
G36*
X82640000Y-73990000D02*
G01*
X82160000Y-73990000D01*
X82400000Y-73660000D01*
X82640000Y-73990000D01*
G37*
%TO.C,U8*%
X78970000Y-41670000D02*
X80300000Y-41670000D01*
X78970000Y-43000000D02*
X78970000Y-41670000D01*
X81570000Y-41670000D02*
X99410000Y-41670000D01*
X81570000Y-44330000D02*
X81570000Y-41670000D01*
X81570000Y-44330000D02*
X99410000Y-44330000D01*
X99410000Y-44330000D02*
X99410000Y-41670000D01*
%TO.C,Q2*%
X83002500Y-47550000D02*
X83002500Y-46900000D01*
X83002500Y-47550000D02*
X83002500Y-48200000D01*
X86122500Y-47550000D02*
X86122500Y-46900000D01*
X86122500Y-47550000D02*
X86122500Y-48200000D01*
X86402500Y-46627500D02*
X86072500Y-46387500D01*
X86402500Y-46147500D01*
X86402500Y-46627500D01*
G36*
X86402500Y-46627500D02*
G01*
X86072500Y-46387500D01*
X86402500Y-46147500D01*
X86402500Y-46627500D01*
G37*
%TO.C,C21*%
X87255236Y-68042200D02*
X87039564Y-68042200D01*
X87255236Y-68762200D02*
X87039564Y-68762200D01*
%TO.C,C8*%
X82292164Y-68140000D02*
X82507836Y-68140000D01*
X82292164Y-68860000D02*
X82507836Y-68860000D01*
%TO.C,C17*%
X104355020Y-56716200D02*
X104636180Y-56716200D01*
X104355020Y-57736200D02*
X104636180Y-57736200D01*
%TO.C,C27*%
X76805200Y-76447764D02*
X76805200Y-76663436D01*
X77525200Y-76447764D02*
X77525200Y-76663436D01*
%TO.C,BT1*%
X70680000Y-50190000D02*
X71790000Y-50190000D01*
X70680000Y-51300000D02*
X70680000Y-50190000D01*
X70680000Y-52300000D02*
X70680000Y-54410000D01*
X70680000Y-52300000D02*
X72900000Y-52300000D01*
X70680000Y-54410000D02*
X72900000Y-54410000D01*
X72900000Y-52300000D02*
X72900000Y-54410000D01*
D13*
%TO.C,U21*%
X84195401Y-63170401D02*
X84195401Y-66929601D01*
X84195401Y-66929601D02*
X87954601Y-66929601D01*
X87954601Y-63170401D02*
X84195401Y-63170401D01*
X87954601Y-66929601D02*
X87954601Y-63170401D01*
D14*
G36*
X86015502Y-67061600D02*
G01*
X85634501Y-67061600D01*
X85634501Y-66807600D01*
X86015502Y-66807600D01*
X86015502Y-67061600D01*
G37*
D12*
%TO.C,R23*%
X105153641Y-58217800D02*
X104846359Y-58217800D01*
X105153641Y-58977800D02*
X104846359Y-58977800D01*
%TO.C,C15*%
X104342020Y-54201600D02*
X104623180Y-54201600D01*
X104342020Y-55221600D02*
X104623180Y-55221600D01*
%TO.C,C14*%
X80767600Y-53841764D02*
X80767600Y-54057436D01*
X81487600Y-53841764D02*
X81487600Y-54057436D01*
%TO.C,C24*%
X81192164Y-65740000D02*
X81407836Y-65740000D01*
X81192164Y-66460000D02*
X81407836Y-66460000D01*
%TO.C,C16*%
X101486580Y-53312600D02*
X101205420Y-53312600D01*
X101486580Y-54332600D02*
X101205420Y-54332600D01*
D15*
%TO.C,U24*%
X74500000Y-67500000D02*
X74500000Y-68050000D01*
X74500000Y-67500000D02*
X75050000Y-67500000D01*
X74500000Y-71500000D02*
X74500000Y-70950000D01*
X74500000Y-71500000D02*
X75050000Y-71500000D01*
X78500000Y-67500000D02*
X77950000Y-67500000D01*
X78500000Y-67500000D02*
X78500000Y-68050000D01*
X78500000Y-71500000D02*
X77950000Y-71500000D01*
X78500000Y-71500000D02*
X78500000Y-70950000D01*
D16*
X73600000Y-68525000D02*
G75*
G02*
X73400000Y-68525000I-100000J0D01*
G01*
X73400000Y-68525000D02*
G75*
G02*
X73600000Y-68525000I100000J0D01*
G01*
D12*
%TO.C,R25*%
X105106441Y-52553600D02*
X104799159Y-52553600D01*
X105106441Y-53313600D02*
X104799159Y-53313600D01*
%TO.C,C25*%
X79440000Y-70277836D02*
X79440000Y-70062164D01*
X80160000Y-70277836D02*
X80160000Y-70062164D01*
%TO.C,R15*%
X86703641Y-48870000D02*
X86396359Y-48870000D01*
X86703641Y-49630000D02*
X86396359Y-49630000D01*
%TO.C,R2*%
X73125359Y-48007000D02*
X73432641Y-48007000D01*
X73125359Y-48767000D02*
X73432641Y-48767000D01*
%TO.C,R4*%
X95520000Y-59790359D02*
X95520000Y-60097641D01*
X96280000Y-59790359D02*
X96280000Y-60097641D01*
%TO.C,R10*%
X84343641Y-71770000D02*
X84036359Y-71770000D01*
X84343641Y-72530000D02*
X84036359Y-72530000D01*
%TO.C,R8*%
X80870000Y-47003641D02*
X80870000Y-46696359D01*
X81630000Y-47003641D02*
X81630000Y-46696359D01*
D15*
%TO.C,U25*%
X74421800Y-73430000D02*
X75531800Y-73430000D01*
X75531800Y-75870000D02*
X74421800Y-75870000D01*
D16*
X73076800Y-73850000D02*
G75*
G02*
X72876800Y-73850000I-100000J0D01*
G01*
X72876800Y-73850000D02*
G75*
G02*
X73076800Y-73850000I100000J0D01*
G01*
D12*
%TO.C,C19*%
X99561764Y-59838000D02*
X99777436Y-59838000D01*
X99561764Y-60558000D02*
X99777436Y-60558000D01*
%TO.C,R31*%
X80356359Y-68120000D02*
X80663641Y-68120000D01*
X80356359Y-68880000D02*
X80663641Y-68880000D01*
%TO.C,R20*%
X88445000Y-66646359D02*
X88445000Y-66953641D01*
X89205000Y-66646359D02*
X89205000Y-66953641D01*
D15*
%TO.C,U7*%
X89475000Y-63270001D02*
X91475000Y-63270001D01*
X89475000Y-65530001D02*
X91475000Y-65530001D01*
D16*
X88665000Y-63750001D02*
G75*
G02*
X88465000Y-63750001I-100000J0D01*
G01*
X88465000Y-63750001D02*
G75*
G02*
X88665000Y-63750001I100000J0D01*
G01*
D12*
%TO.C,R11*%
X84343641Y-72970000D02*
X84036359Y-72970000D01*
X84343641Y-73730000D02*
X84036359Y-73730000D01*
D13*
%TO.C,U4*%
X77028500Y-51624799D02*
X78882700Y-51624799D01*
X78882700Y-48475199D02*
X77028500Y-48475199D01*
D12*
%TO.C,R32*%
X78842841Y-72924400D02*
X78535559Y-72924400D01*
X78842841Y-73684400D02*
X78535559Y-73684400D01*
D13*
%TO.C,U2*%
X73545700Y-78879700D02*
X75806300Y-78879700D01*
X75806300Y-76212700D02*
X73545700Y-76212700D01*
X72819514Y-76896214D02*
G75*
G02*
X72616314Y-76896214I-101600J0D01*
G01*
X72616314Y-76896214D02*
G75*
G02*
X72819514Y-76896214I101600J0D01*
G01*
D12*
%TO.C,C23*%
X74907836Y-72290000D02*
X74692164Y-72290000D01*
X74907836Y-73010000D02*
X74692164Y-73010000D01*
%TO.C,FB1*%
X71196359Y-66520000D02*
X71503641Y-66520000D01*
X71196359Y-67280000D02*
X71503641Y-67280000D01*
%TO.C,R14*%
X91296359Y-48670000D02*
X91603641Y-48670000D01*
X91296359Y-49430000D02*
X91603641Y-49430000D01*
%TO.C,R28*%
X85190359Y-70536800D02*
X85497641Y-70536800D01*
X85190359Y-71296800D02*
X85497641Y-71296800D01*
%TO.C,R7*%
X92903641Y-55020000D02*
X92596359Y-55020000D01*
X92903641Y-55780000D02*
X92596359Y-55780000D01*
D10*
%TO.C,D1*%
X72514000Y-48387000D02*
G75*
G02*
X72414000Y-48387000I-50000J0D01*
G01*
X72414000Y-48387000D02*
G75*
G02*
X72514000Y-48387000I50000J0D01*
G01*
D12*
%TO.C,R37*%
X96521000Y-55218359D02*
X96521000Y-55525641D01*
X97281000Y-55218359D02*
X97281000Y-55525641D01*
D13*
%TO.C,U6*%
X87647600Y-54430301D02*
X88381265Y-54430301D01*
X88381265Y-52169701D02*
X87647600Y-52169701D01*
X89174535Y-54430301D02*
X89908200Y-54430301D01*
X89908200Y-52169701D02*
X89174535Y-52169701D01*
X86520602Y-52800002D02*
G75*
G02*
X86317402Y-52800002I-101600J0D01*
G01*
X86317402Y-52800002D02*
G75*
G02*
X86520602Y-52800002I101600J0D01*
G01*
D10*
%TO.C,M1*%
X101300000Y-41100000D02*
X103700000Y-43500000D01*
X101300000Y-41400000D02*
X103700000Y-43800000D01*
X101300000Y-41700000D02*
X103400000Y-43800000D01*
X101300000Y-42000000D02*
X101300000Y-41600000D01*
X101300000Y-42000000D02*
X101300000Y-41750000D01*
X101300000Y-42300000D02*
X102800000Y-43800000D01*
X101300000Y-42400000D02*
X101300000Y-41100000D01*
X101300000Y-42400000D02*
X101300000Y-43800000D01*
X101300000Y-42600000D02*
X101300000Y-42300000D01*
X101300000Y-42900000D02*
X102200000Y-43800000D01*
X101300000Y-43200000D02*
X101300000Y-42900000D01*
X101300000Y-43500000D02*
X101600000Y-43800000D01*
X101300000Y-43800000D02*
X101300000Y-42400000D01*
X101600000Y-41100000D02*
X101900000Y-41100000D01*
X101600000Y-43800000D02*
X101900000Y-43800000D01*
X101900000Y-41100000D02*
X103700000Y-42900000D01*
X101900000Y-43800000D02*
X101300000Y-43200000D01*
X102200000Y-41100000D02*
X102500000Y-41100000D01*
X102200000Y-43800000D02*
X102500000Y-43800000D01*
X102500000Y-41100000D02*
X103700000Y-42300000D01*
X102500000Y-43800000D02*
X101300000Y-42600000D01*
X102800000Y-41100000D02*
X103200000Y-41100000D01*
X102800000Y-43800000D02*
X103100000Y-43800000D01*
X103100000Y-41100000D02*
X103700000Y-41700000D01*
X103100000Y-43800000D02*
X101300000Y-42000000D01*
X103700000Y-41100000D02*
X103700000Y-41800000D01*
X103700000Y-41400000D02*
X103400000Y-41100000D01*
X103700000Y-41700000D02*
X103700000Y-41400000D01*
X103700000Y-41800000D02*
X103700000Y-41100000D01*
X103700000Y-41800000D02*
X103700000Y-43800000D01*
X103700000Y-42000000D02*
X102800000Y-41100000D01*
X103700000Y-42300000D02*
X103700000Y-42000000D01*
X103700000Y-42600000D02*
X102200000Y-41100000D01*
X103700000Y-42900000D02*
X103700000Y-42500000D01*
X103700000Y-43200000D02*
X101600000Y-41100000D01*
X103700000Y-43500000D02*
X103700000Y-43100000D01*
X100900000Y-43800000D02*
X104100000Y-43800000D01*
X104100000Y-41100000D01*
X100900000Y-41100000D01*
X100900000Y-43800000D01*
D12*
%TO.C,C7*%
X82343164Y-48662000D02*
X82558836Y-48662000D01*
X82343164Y-49382000D02*
X82558836Y-49382000D01*
%TO.C,R17*%
X79720000Y-59703641D02*
X79720000Y-59396359D01*
X80480000Y-59703641D02*
X80480000Y-59396359D01*
%TO.C,J5*%
X79050000Y-56250000D02*
X71790000Y-56250000D01*
X79050000Y-56250000D02*
X79050000Y-57750000D01*
X79050000Y-64250000D02*
X79050000Y-65750000D01*
X79050000Y-65750000D02*
X71790000Y-65750000D01*
%TO.C,R21*%
X94386359Y-49120000D02*
X94693641Y-49120000D01*
X94386359Y-49880000D02*
X94693641Y-49880000D01*
%TO.C,C28*%
X90942164Y-59590000D02*
X91157836Y-59590000D01*
X90942164Y-60310000D02*
X91157836Y-60310000D01*
%TO.C,R18*%
X80296359Y-57120000D02*
X80603641Y-57120000D01*
X80296359Y-57880000D02*
X80603641Y-57880000D01*
%TO.C,R36*%
X95659641Y-58040000D02*
X95352359Y-58040000D01*
X95659641Y-58800000D02*
X95352359Y-58800000D01*
%TO.C,R1*%
X80821559Y-51944000D02*
X81128841Y-51944000D01*
X80821559Y-52704000D02*
X81128841Y-52704000D01*
%TO.C,R5*%
X93720000Y-59790359D02*
X93720000Y-60097641D01*
X94480000Y-59790359D02*
X94480000Y-60097641D01*
%TO.C,C5*%
X80575036Y-61920800D02*
X80359364Y-61920800D01*
X80575036Y-62640800D02*
X80359364Y-62640800D01*
%TO.C,R19*%
X80703641Y-64570000D02*
X80396359Y-64570000D01*
X80703641Y-65330000D02*
X80396359Y-65330000D01*
%TO.C,Q3*%
X87602500Y-47500000D02*
X87602500Y-46850000D01*
X87602500Y-47500000D02*
X87602500Y-48150000D01*
X90722500Y-47500000D02*
X90722500Y-46850000D01*
X90722500Y-47500000D02*
X90722500Y-48150000D01*
X91002500Y-46577500D02*
X90672500Y-46337500D01*
X91002500Y-46097500D01*
X91002500Y-46577500D01*
G36*
X91002500Y-46577500D02*
G01*
X90672500Y-46337500D01*
X91002500Y-46097500D01*
X91002500Y-46577500D01*
G37*
D17*
%TO.C,U26*%
X95310000Y-56415000D02*
X95310000Y-56365000D01*
X95310000Y-56715000D02*
X95310000Y-56765000D01*
X95310000Y-57065000D02*
X95310000Y-57115000D01*
X95310000Y-57415000D02*
X95310000Y-57465000D01*
X95310000Y-57815000D02*
X95310000Y-57765000D01*
X96310000Y-56365000D02*
X95310000Y-56365000D01*
X96310000Y-56415000D02*
X96310000Y-56365000D01*
X96310000Y-56715000D02*
X96310000Y-56765000D01*
X96310000Y-57065000D02*
X96310000Y-57115000D01*
X96310000Y-57415000D02*
X96310000Y-57465000D01*
X96310000Y-57815000D02*
X95310000Y-57815000D01*
X96310000Y-57815000D02*
X96310000Y-57765000D01*
D12*
%TO.C,FB2*%
X77136359Y-54720000D02*
X77443641Y-54720000D01*
X77136359Y-55480000D02*
X77443641Y-55480000D01*
%TO.C,A1*%
X90240000Y-56902500D02*
X90665000Y-56902500D01*
X90240000Y-57077500D02*
X90240000Y-56902500D01*
X90665000Y-59132500D02*
X90470000Y-59132500D01*
X92460000Y-56902500D02*
X92035000Y-56902500D01*
X92460000Y-57077500D02*
X92460000Y-56902500D01*
X92460000Y-58947500D02*
X92460000Y-59122500D01*
X92460000Y-59122500D02*
X92035000Y-59122500D01*
X90230000Y-59132500D02*
X90040000Y-59272500D01*
X90040000Y-58992500D01*
X90230000Y-59132500D01*
G36*
X90230000Y-59132500D02*
G01*
X90040000Y-59272500D01*
X90040000Y-58992500D01*
X90230000Y-59132500D01*
G37*
%TO.C,R29*%
X87222359Y-70486000D02*
X87529641Y-70486000D01*
X87222359Y-71246000D02*
X87529641Y-71246000D01*
D15*
%TO.C,D2*%
X71050000Y-41600000D02*
X76050000Y-41600000D01*
X76050000Y-46600000D02*
X71050000Y-46600000D01*
D16*
X70597000Y-41520000D02*
G75*
G02*
X70397000Y-41520000I-100000J0D01*
G01*
X70397000Y-41520000D02*
G75*
G02*
X70597000Y-41520000I100000J0D01*
G01*
D12*
%TO.C,R34*%
X76810600Y-74547759D02*
X76810600Y-74855041D01*
X77570600Y-74547759D02*
X77570600Y-74855041D01*
D15*
%TO.C,U15*%
X84480000Y-56950000D02*
X86820000Y-56950000D01*
X84480000Y-61850000D02*
X86820000Y-61850000D01*
D16*
X81500000Y-57495000D02*
G75*
G02*
X81300000Y-57495000I-100000J0D01*
G01*
X81300000Y-57495000D02*
G75*
G02*
X81500000Y-57495000I100000J0D01*
G01*
D12*
%TO.C,C26*%
X76841236Y-72284000D02*
X76625564Y-72284000D01*
X76841236Y-73004000D02*
X76625564Y-73004000D01*
%TO.C,Q4*%
X97700000Y-48940000D02*
X97050000Y-48940000D01*
X97700000Y-48940000D02*
X98350000Y-48940000D01*
X97700000Y-52060000D02*
X97050000Y-52060000D01*
X97700000Y-52060000D02*
X98350000Y-52060000D01*
X96537500Y-48990000D02*
X96297500Y-48660000D01*
X96777500Y-48660000D01*
X96537500Y-48990000D01*
G36*
X96537500Y-48990000D02*
G01*
X96297500Y-48660000D01*
X96777500Y-48660000D01*
X96537500Y-48990000D01*
G37*
%TO.C,R26*%
X85726000Y-52221159D02*
X85726000Y-52528441D01*
X86486000Y-52221159D02*
X86486000Y-52528441D01*
%TO.C,C18*%
X99617620Y-58367200D02*
X99898780Y-58367200D01*
X99617620Y-59387200D02*
X99898780Y-59387200D01*
%TO.C,U16*%
X99100000Y-54740000D02*
X102100000Y-54740000D01*
X99100000Y-58010000D02*
X102100000Y-58010000D01*
X98580000Y-54825000D02*
X98100000Y-54825000D01*
X98580000Y-54345000D01*
X98580000Y-54825000D01*
G36*
X98580000Y-54825000D02*
G01*
X98100000Y-54825000D01*
X98580000Y-54345000D01*
X98580000Y-54825000D01*
G37*
%TO.C,U5*%
X92525000Y-62525000D02*
X106025000Y-62525000D01*
X92525000Y-79425000D02*
X92525000Y-62525000D01*
X106025000Y-62525000D02*
X106025000Y-79425000D01*
X106025000Y-79425000D02*
X92525000Y-79425000D01*
X106711000Y-72515000D02*
X106375000Y-72275000D01*
X106711000Y-72035000D01*
X106711000Y-72515000D01*
G36*
X106711000Y-72515000D02*
G01*
X106375000Y-72275000D01*
X106711000Y-72035000D01*
X106711000Y-72515000D01*
G37*
D10*
%TO.C,L1*%
X69850000Y-67500000D02*
X73350000Y-67500000D01*
X69850000Y-76800000D02*
X69850000Y-67500000D01*
X69850000Y-79200000D02*
X69850000Y-77150000D01*
X69850000Y-79200000D02*
X73350000Y-79200000D01*
X70150000Y-78900000D02*
X73050000Y-78900000D01*
X73350000Y-67500000D02*
X73350000Y-76800000D01*
X73350000Y-77150000D02*
X73350000Y-79200000D01*
D12*
%TO.C,C6*%
X74136364Y-50440000D02*
X74352036Y-50440000D01*
X74136364Y-51160000D02*
X74352036Y-51160000D01*
%TO.C,R27*%
X94080359Y-52248800D02*
X94387641Y-52248800D01*
X94080359Y-53008800D02*
X94387641Y-53008800D01*
%TO.C,R30*%
X89470000Y-66953641D02*
X89470000Y-66646359D01*
X90230000Y-66953641D02*
X90230000Y-66646359D01*
%TO.C,R9*%
X92720000Y-46753641D02*
X92720000Y-46446359D01*
X93480000Y-46753641D02*
X93480000Y-46446359D01*
%TO.C,R22*%
X94386359Y-51110000D02*
X94693641Y-51110000D01*
X94386359Y-51870000D02*
X94693641Y-51870000D01*
%TO.C,R6*%
X91920000Y-53796359D02*
X91920000Y-54103641D01*
X92680000Y-53796359D02*
X92680000Y-54103641D01*
D13*
%TO.C,U3*%
X77175167Y-54280300D02*
X78724833Y-54280300D01*
X78724833Y-52019700D02*
X77175167Y-52019700D01*
X75813860Y-52473829D02*
G75*
G02*
X75813860Y-52326171I-18860J73829D01*
G01*
D12*
%TO.C,C10*%
X94097836Y-56550000D02*
X93882164Y-56550000D01*
X94097836Y-57270000D02*
X93882164Y-57270000D01*
%TO.C,R35*%
X91792359Y-61088000D02*
X92099641Y-61088000D01*
X91792359Y-61848000D02*
X92099641Y-61848000D01*
%TO.C,C4*%
X76805200Y-78301964D02*
X76805200Y-78517636D01*
X77525200Y-78301964D02*
X77525200Y-78517636D01*
%TO.C,R16*%
X81946359Y-63320000D02*
X82253641Y-63320000D01*
X81946359Y-64080000D02*
X82253641Y-64080000D01*
%TO.C,R24*%
X105153641Y-55630000D02*
X104846359Y-55630000D01*
X105153641Y-56390000D02*
X104846359Y-56390000D01*
%TO.C,R3*%
X82396359Y-49620000D02*
X82703641Y-49620000D01*
X82396359Y-50380000D02*
X82703641Y-50380000D01*
%TO.C,C28*%
X95487836Y-61190000D02*
X95272164Y-61190000D01*
X95487836Y-61910000D02*
X95272164Y-61910000D01*
D13*
%TO.C,U11*%
X82143600Y-52120800D02*
X82143600Y-52322818D01*
X82143600Y-54560382D02*
X82143600Y-54762400D01*
X82143600Y-54762400D02*
X82853310Y-54762400D01*
X82853310Y-52120800D02*
X82143600Y-52120800D01*
X84685090Y-54762400D02*
X85394800Y-54762400D01*
X85394800Y-52120800D02*
X84685090Y-52120800D01*
X85394800Y-52322818D02*
X85394800Y-52120800D01*
X85394800Y-54762400D02*
X85394800Y-54560382D01*
D14*
G36*
X85674200Y-53382101D02*
G01*
X85420200Y-53382101D01*
X85420200Y-53001100D01*
X85674200Y-53001100D01*
X85674200Y-53382101D01*
G37*
D12*
%TO.C,R13*%
X86703641Y-49870000D02*
X86396359Y-49870000D01*
X86703641Y-50630000D02*
X86396359Y-50630000D01*
%TO.C,R12*%
X91286359Y-49670000D02*
X91593641Y-49670000D01*
X91286359Y-50430000D02*
X91593641Y-50430000D01*
%TO.C,C22*%
X85998164Y-67102400D02*
X86213836Y-67102400D01*
X85998164Y-67822400D02*
X86213836Y-67822400D01*
%TD*%
M02*
