%TF.GenerationSoftware,KiCad,Pcbnew,9.0.4*%
%TF.CreationDate,2025-10-06T13:40:32-04:00*%
%TF.ProjectId,Smarter Watch Stuff,536d6172-7465-4722-9057-617463682053,rev?*%
%TF.SameCoordinates,Original*%
%TF.FileFunction,Legend,Top*%
%TF.FilePolarity,Positive*%
%FSLAX46Y46*%
G04 Gerber Fmt 4.6, Leading zero omitted, Abs format (unit mm)*
G04 Created by KiCad (PCBNEW 9.0.4) date 2025-10-06 13:40:32*
%MOMM*%
%LPD*%
G01*
G04 APERTURE LIST*
%ADD10C,0.100000*%
%ADD11C,0.400000*%
%ADD12C,0.300000*%
%ADD13C,0.150000*%
%ADD14C,0.120000*%
G04 APERTURE END LIST*
D10*
X57200000Y-98300000D02*
X41100000Y-98300000D01*
X57200000Y-94300000D02*
X41200000Y-94300000D01*
X59200000Y-96300000D02*
X57200000Y-98300000D01*
X57200000Y-94300000D01*
X59200000Y-96300000D01*
G36*
X59200000Y-96300000D02*
G01*
X57200000Y-98300000D01*
X57200000Y-94300000D01*
X59200000Y-96300000D01*
G37*
X41500000Y-98300000D02*
X39200000Y-98300000D01*
X41200000Y-96300000D01*
X39200000Y-94300000D01*
X41200000Y-94300000D01*
X41500000Y-98300000D01*
G36*
X41500000Y-98300000D02*
G01*
X39200000Y-98300000D01*
X41200000Y-96300000D01*
X39200000Y-94300000D01*
X41200000Y-94300000D01*
X41500000Y-98300000D01*
G37*
D11*
X59648871Y-95012057D02*
X60291728Y-98012057D01*
X60291728Y-98012057D02*
X60806014Y-95869200D01*
X60806014Y-95869200D02*
X61320299Y-98012057D01*
X61320299Y-98012057D02*
X61963157Y-95012057D01*
X64148871Y-98012057D02*
X64148871Y-96440628D01*
X64148871Y-96440628D02*
X64020299Y-96154914D01*
X64020299Y-96154914D02*
X63763156Y-96012057D01*
X63763156Y-96012057D02*
X63248871Y-96012057D01*
X63248871Y-96012057D02*
X62991728Y-96154914D01*
X64148871Y-97869200D02*
X63891728Y-98012057D01*
X63891728Y-98012057D02*
X63248871Y-98012057D01*
X63248871Y-98012057D02*
X62991728Y-97869200D01*
X62991728Y-97869200D02*
X62863156Y-97583485D01*
X62863156Y-97583485D02*
X62863156Y-97297771D01*
X62863156Y-97297771D02*
X62991728Y-97012057D01*
X62991728Y-97012057D02*
X63248871Y-96869200D01*
X63248871Y-96869200D02*
X63891728Y-96869200D01*
X63891728Y-96869200D02*
X64148871Y-96726342D01*
X65048870Y-96012057D02*
X66077442Y-96012057D01*
X65434585Y-95012057D02*
X65434585Y-97583485D01*
X65434585Y-97583485D02*
X65563156Y-97869200D01*
X65563156Y-97869200D02*
X65820299Y-98012057D01*
X65820299Y-98012057D02*
X66077442Y-98012057D01*
X68134585Y-97869200D02*
X67877442Y-98012057D01*
X67877442Y-98012057D02*
X67363156Y-98012057D01*
X67363156Y-98012057D02*
X67106013Y-97869200D01*
X67106013Y-97869200D02*
X66977442Y-97726342D01*
X66977442Y-97726342D02*
X66848870Y-97440628D01*
X66848870Y-97440628D02*
X66848870Y-96583485D01*
X66848870Y-96583485D02*
X66977442Y-96297771D01*
X66977442Y-96297771D02*
X67106013Y-96154914D01*
X67106013Y-96154914D02*
X67363156Y-96012057D01*
X67363156Y-96012057D02*
X67877442Y-96012057D01*
X67877442Y-96012057D02*
X68134585Y-96154914D01*
X69291728Y-98012057D02*
X69291728Y-95012057D01*
X70448871Y-98012057D02*
X70448871Y-96440628D01*
X70448871Y-96440628D02*
X70320299Y-96154914D01*
X70320299Y-96154914D02*
X70063156Y-96012057D01*
X70063156Y-96012057D02*
X69677442Y-96012057D01*
X69677442Y-96012057D02*
X69420299Y-96154914D01*
X69420299Y-96154914D02*
X69291728Y-96297771D01*
D10*
X40003884Y-99472419D02*
X40003884Y-98472419D01*
X40003884Y-98472419D02*
X40337217Y-99186704D01*
X40337217Y-99186704D02*
X40670550Y-98472419D01*
X40670550Y-98472419D02*
X40670550Y-99472419D01*
X41575312Y-99472419D02*
X41575312Y-98948609D01*
X41575312Y-98948609D02*
X41527693Y-98853371D01*
X41527693Y-98853371D02*
X41432455Y-98805752D01*
X41432455Y-98805752D02*
X41241979Y-98805752D01*
X41241979Y-98805752D02*
X41146741Y-98853371D01*
X41575312Y-99424800D02*
X41480074Y-99472419D01*
X41480074Y-99472419D02*
X41241979Y-99472419D01*
X41241979Y-99472419D02*
X41146741Y-99424800D01*
X41146741Y-99424800D02*
X41099122Y-99329561D01*
X41099122Y-99329561D02*
X41099122Y-99234323D01*
X41099122Y-99234323D02*
X41146741Y-99139085D01*
X41146741Y-99139085D02*
X41241979Y-99091466D01*
X41241979Y-99091466D02*
X41480074Y-99091466D01*
X41480074Y-99091466D02*
X41575312Y-99043847D01*
X42480074Y-99472419D02*
X42480074Y-98472419D01*
X42480074Y-99424800D02*
X42384836Y-99472419D01*
X42384836Y-99472419D02*
X42194360Y-99472419D01*
X42194360Y-99472419D02*
X42099122Y-99424800D01*
X42099122Y-99424800D02*
X42051503Y-99377180D01*
X42051503Y-99377180D02*
X42003884Y-99281942D01*
X42003884Y-99281942D02*
X42003884Y-98996228D01*
X42003884Y-98996228D02*
X42051503Y-98900990D01*
X42051503Y-98900990D02*
X42099122Y-98853371D01*
X42099122Y-98853371D02*
X42194360Y-98805752D01*
X42194360Y-98805752D02*
X42384836Y-98805752D01*
X42384836Y-98805752D02*
X42480074Y-98853371D01*
X43337217Y-99424800D02*
X43241979Y-99472419D01*
X43241979Y-99472419D02*
X43051503Y-99472419D01*
X43051503Y-99472419D02*
X42956265Y-99424800D01*
X42956265Y-99424800D02*
X42908646Y-99329561D01*
X42908646Y-99329561D02*
X42908646Y-98948609D01*
X42908646Y-98948609D02*
X42956265Y-98853371D01*
X42956265Y-98853371D02*
X43051503Y-98805752D01*
X43051503Y-98805752D02*
X43241979Y-98805752D01*
X43241979Y-98805752D02*
X43337217Y-98853371D01*
X43337217Y-98853371D02*
X43384836Y-98948609D01*
X43384836Y-98948609D02*
X43384836Y-99043847D01*
X43384836Y-99043847D02*
X42908646Y-99139085D01*
X44575313Y-99472419D02*
X44575313Y-98472419D01*
X44575313Y-98853371D02*
X44670551Y-98805752D01*
X44670551Y-98805752D02*
X44861027Y-98805752D01*
X44861027Y-98805752D02*
X44956265Y-98853371D01*
X44956265Y-98853371D02*
X45003884Y-98900990D01*
X45003884Y-98900990D02*
X45051503Y-98996228D01*
X45051503Y-98996228D02*
X45051503Y-99281942D01*
X45051503Y-99281942D02*
X45003884Y-99377180D01*
X45003884Y-99377180D02*
X44956265Y-99424800D01*
X44956265Y-99424800D02*
X44861027Y-99472419D01*
X44861027Y-99472419D02*
X44670551Y-99472419D01*
X44670551Y-99472419D02*
X44575313Y-99424800D01*
X45384837Y-98805752D02*
X45622932Y-99472419D01*
X45861027Y-98805752D02*
X45622932Y-99472419D01*
X45622932Y-99472419D02*
X45527694Y-99710514D01*
X45527694Y-99710514D02*
X45480075Y-99758133D01*
X45480075Y-99758133D02*
X45384837Y-99805752D01*
X47289599Y-98472419D02*
X47289599Y-99186704D01*
X47289599Y-99186704D02*
X47241980Y-99329561D01*
X47241980Y-99329561D02*
X47146742Y-99424800D01*
X47146742Y-99424800D02*
X47003885Y-99472419D01*
X47003885Y-99472419D02*
X46908647Y-99472419D01*
X48194361Y-98805752D02*
X48194361Y-99472419D01*
X47765790Y-98805752D02*
X47765790Y-99329561D01*
X47765790Y-99329561D02*
X47813409Y-99424800D01*
X47813409Y-99424800D02*
X47908647Y-99472419D01*
X47908647Y-99472419D02*
X48051504Y-99472419D01*
X48051504Y-99472419D02*
X48146742Y-99424800D01*
X48146742Y-99424800D02*
X48194361Y-99377180D01*
X48813409Y-99472419D02*
X48718171Y-99424800D01*
X48718171Y-99424800D02*
X48670552Y-99329561D01*
X48670552Y-99329561D02*
X48670552Y-98472419D01*
X49194362Y-99472419D02*
X49194362Y-98805752D01*
X49194362Y-98472419D02*
X49146743Y-98520038D01*
X49146743Y-98520038D02*
X49194362Y-98567657D01*
X49194362Y-98567657D02*
X49241981Y-98520038D01*
X49241981Y-98520038D02*
X49194362Y-98472419D01*
X49194362Y-98472419D02*
X49194362Y-98567657D01*
X50099123Y-99472419D02*
X50099123Y-98948609D01*
X50099123Y-98948609D02*
X50051504Y-98853371D01*
X50051504Y-98853371D02*
X49956266Y-98805752D01*
X49956266Y-98805752D02*
X49765790Y-98805752D01*
X49765790Y-98805752D02*
X49670552Y-98853371D01*
X50099123Y-99424800D02*
X50003885Y-99472419D01*
X50003885Y-99472419D02*
X49765790Y-99472419D01*
X49765790Y-99472419D02*
X49670552Y-99424800D01*
X49670552Y-99424800D02*
X49622933Y-99329561D01*
X49622933Y-99329561D02*
X49622933Y-99234323D01*
X49622933Y-99234323D02*
X49670552Y-99139085D01*
X49670552Y-99139085D02*
X49765790Y-99091466D01*
X49765790Y-99091466D02*
X50003885Y-99091466D01*
X50003885Y-99091466D02*
X50099123Y-99043847D01*
X50575314Y-98805752D02*
X50575314Y-99472419D01*
X50575314Y-98900990D02*
X50622933Y-98853371D01*
X50622933Y-98853371D02*
X50718171Y-98805752D01*
X50718171Y-98805752D02*
X50861028Y-98805752D01*
X50861028Y-98805752D02*
X50956266Y-98853371D01*
X50956266Y-98853371D02*
X51003885Y-98948609D01*
X51003885Y-98948609D02*
X51003885Y-99472419D01*
X52241981Y-99472419D02*
X52241981Y-98472419D01*
X52241981Y-98948609D02*
X52813409Y-98948609D01*
X52813409Y-99472419D02*
X52813409Y-98472419D01*
X53718171Y-99472419D02*
X53718171Y-98948609D01*
X53718171Y-98948609D02*
X53670552Y-98853371D01*
X53670552Y-98853371D02*
X53575314Y-98805752D01*
X53575314Y-98805752D02*
X53384838Y-98805752D01*
X53384838Y-98805752D02*
X53289600Y-98853371D01*
X53718171Y-99424800D02*
X53622933Y-99472419D01*
X53622933Y-99472419D02*
X53384838Y-99472419D01*
X53384838Y-99472419D02*
X53289600Y-99424800D01*
X53289600Y-99424800D02*
X53241981Y-99329561D01*
X53241981Y-99329561D02*
X53241981Y-99234323D01*
X53241981Y-99234323D02*
X53289600Y-99139085D01*
X53289600Y-99139085D02*
X53384838Y-99091466D01*
X53384838Y-99091466D02*
X53622933Y-99091466D01*
X53622933Y-99091466D02*
X53718171Y-99043847D01*
X54337219Y-99472419D02*
X54241981Y-99424800D01*
X54241981Y-99424800D02*
X54194362Y-99329561D01*
X54194362Y-99329561D02*
X54194362Y-98472419D01*
X54861029Y-99472419D02*
X54765791Y-99424800D01*
X54765791Y-99424800D02*
X54718172Y-99329561D01*
X54718172Y-99329561D02*
X54718172Y-98472419D01*
X55384839Y-99472419D02*
X55289601Y-99424800D01*
X55289601Y-99424800D02*
X55241982Y-99377180D01*
X55241982Y-99377180D02*
X55194363Y-99281942D01*
X55194363Y-99281942D02*
X55194363Y-98996228D01*
X55194363Y-98996228D02*
X55241982Y-98900990D01*
X55241982Y-98900990D02*
X55289601Y-98853371D01*
X55289601Y-98853371D02*
X55384839Y-98805752D01*
X55384839Y-98805752D02*
X55527696Y-98805752D01*
X55527696Y-98805752D02*
X55622934Y-98853371D01*
X55622934Y-98853371D02*
X55670553Y-98900990D01*
X55670553Y-98900990D02*
X55718172Y-98996228D01*
X55718172Y-98996228D02*
X55718172Y-99281942D01*
X55718172Y-99281942D02*
X55670553Y-99377180D01*
X55670553Y-99377180D02*
X55622934Y-99424800D01*
X55622934Y-99424800D02*
X55527696Y-99472419D01*
X55527696Y-99472419D02*
X55384839Y-99472419D01*
X56146744Y-99472419D02*
X56146744Y-98805752D01*
X56146744Y-98996228D02*
X56194363Y-98900990D01*
X56194363Y-98900990D02*
X56241982Y-98853371D01*
X56241982Y-98853371D02*
X56337220Y-98805752D01*
X56337220Y-98805752D02*
X56432458Y-98805752D01*
X57194363Y-99472419D02*
X57194363Y-98948609D01*
X57194363Y-98948609D02*
X57146744Y-98853371D01*
X57146744Y-98853371D02*
X57051506Y-98805752D01*
X57051506Y-98805752D02*
X56861030Y-98805752D01*
X56861030Y-98805752D02*
X56765792Y-98853371D01*
X57194363Y-99424800D02*
X57099125Y-99472419D01*
X57099125Y-99472419D02*
X56861030Y-99472419D01*
X56861030Y-99472419D02*
X56765792Y-99424800D01*
X56765792Y-99424800D02*
X56718173Y-99329561D01*
X56718173Y-99329561D02*
X56718173Y-99234323D01*
X56718173Y-99234323D02*
X56765792Y-99139085D01*
X56765792Y-99139085D02*
X56861030Y-99091466D01*
X56861030Y-99091466D02*
X57099125Y-99091466D01*
X57099125Y-99091466D02*
X57194363Y-99043847D01*
X57670554Y-98805752D02*
X57670554Y-99472419D01*
X57670554Y-98900990D02*
X57718173Y-98853371D01*
X57718173Y-98853371D02*
X57813411Y-98805752D01*
X57813411Y-98805752D02*
X57956268Y-98805752D01*
X57956268Y-98805752D02*
X58051506Y-98853371D01*
X58051506Y-98853371D02*
X58099125Y-98948609D01*
X58099125Y-98948609D02*
X58099125Y-99472419D01*
X59765792Y-99472419D02*
X59765792Y-98948609D01*
X59765792Y-98948609D02*
X59718173Y-98853371D01*
X59718173Y-98853371D02*
X59622935Y-98805752D01*
X59622935Y-98805752D02*
X59432459Y-98805752D01*
X59432459Y-98805752D02*
X59337221Y-98853371D01*
X59765792Y-99424800D02*
X59670554Y-99472419D01*
X59670554Y-99472419D02*
X59432459Y-99472419D01*
X59432459Y-99472419D02*
X59337221Y-99424800D01*
X59337221Y-99424800D02*
X59289602Y-99329561D01*
X59289602Y-99329561D02*
X59289602Y-99234323D01*
X59289602Y-99234323D02*
X59337221Y-99139085D01*
X59337221Y-99139085D02*
X59432459Y-99091466D01*
X59432459Y-99091466D02*
X59670554Y-99091466D01*
X59670554Y-99091466D02*
X59765792Y-99043847D01*
X60241983Y-98805752D02*
X60241983Y-99472419D01*
X60241983Y-98900990D02*
X60289602Y-98853371D01*
X60289602Y-98853371D02*
X60384840Y-98805752D01*
X60384840Y-98805752D02*
X60527697Y-98805752D01*
X60527697Y-98805752D02*
X60622935Y-98853371D01*
X60622935Y-98853371D02*
X60670554Y-98948609D01*
X60670554Y-98948609D02*
X60670554Y-99472419D01*
X61575316Y-99472419D02*
X61575316Y-98472419D01*
X61575316Y-99424800D02*
X61480078Y-99472419D01*
X61480078Y-99472419D02*
X61289602Y-99472419D01*
X61289602Y-99472419D02*
X61194364Y-99424800D01*
X61194364Y-99424800D02*
X61146745Y-99377180D01*
X61146745Y-99377180D02*
X61099126Y-99281942D01*
X61099126Y-99281942D02*
X61099126Y-98996228D01*
X61099126Y-98996228D02*
X61146745Y-98900990D01*
X61146745Y-98900990D02*
X61194364Y-98853371D01*
X61194364Y-98853371D02*
X61289602Y-98805752D01*
X61289602Y-98805752D02*
X61480078Y-98805752D01*
X61480078Y-98805752D02*
X61575316Y-98853371D01*
X62765793Y-99186704D02*
X63241983Y-99186704D01*
X62670555Y-99472419D02*
X63003888Y-98472419D01*
X63003888Y-98472419D02*
X63337221Y-99472419D01*
X63670555Y-99472419D02*
X63670555Y-98472419D01*
X64099126Y-99472419D02*
X64099126Y-98948609D01*
X64099126Y-98948609D02*
X64051507Y-98853371D01*
X64051507Y-98853371D02*
X63956269Y-98805752D01*
X63956269Y-98805752D02*
X63813412Y-98805752D01*
X63813412Y-98805752D02*
X63718174Y-98853371D01*
X63718174Y-98853371D02*
X63670555Y-98900990D01*
X64575317Y-99472419D02*
X64575317Y-98805752D01*
X64575317Y-98900990D02*
X64622936Y-98853371D01*
X64622936Y-98853371D02*
X64718174Y-98805752D01*
X64718174Y-98805752D02*
X64861031Y-98805752D01*
X64861031Y-98805752D02*
X64956269Y-98853371D01*
X64956269Y-98853371D02*
X65003888Y-98948609D01*
X65003888Y-98948609D02*
X65003888Y-99472419D01*
X65003888Y-98948609D02*
X65051507Y-98853371D01*
X65051507Y-98853371D02*
X65146745Y-98805752D01*
X65146745Y-98805752D02*
X65289602Y-98805752D01*
X65289602Y-98805752D02*
X65384841Y-98853371D01*
X65384841Y-98853371D02*
X65432460Y-98948609D01*
X65432460Y-98948609D02*
X65432460Y-99472419D01*
X66337221Y-99472419D02*
X66337221Y-98948609D01*
X66337221Y-98948609D02*
X66289602Y-98853371D01*
X66289602Y-98853371D02*
X66194364Y-98805752D01*
X66194364Y-98805752D02*
X66003888Y-98805752D01*
X66003888Y-98805752D02*
X65908650Y-98853371D01*
X66337221Y-99424800D02*
X66241983Y-99472419D01*
X66241983Y-99472419D02*
X66003888Y-99472419D01*
X66003888Y-99472419D02*
X65908650Y-99424800D01*
X65908650Y-99424800D02*
X65861031Y-99329561D01*
X65861031Y-99329561D02*
X65861031Y-99234323D01*
X65861031Y-99234323D02*
X65908650Y-99139085D01*
X65908650Y-99139085D02*
X66003888Y-99091466D01*
X66003888Y-99091466D02*
X66241983Y-99091466D01*
X66241983Y-99091466D02*
X66337221Y-99043847D01*
X67241983Y-99472419D02*
X67241983Y-98472419D01*
X67241983Y-99424800D02*
X67146745Y-99472419D01*
X67146745Y-99472419D02*
X66956269Y-99472419D01*
X66956269Y-99472419D02*
X66861031Y-99424800D01*
X66861031Y-99424800D02*
X66813412Y-99377180D01*
X66813412Y-99377180D02*
X66765793Y-99281942D01*
X66765793Y-99281942D02*
X66765793Y-98996228D01*
X66765793Y-98996228D02*
X66813412Y-98900990D01*
X66813412Y-98900990D02*
X66861031Y-98853371D01*
X66861031Y-98853371D02*
X66956269Y-98805752D01*
X66956269Y-98805752D02*
X67146745Y-98805752D01*
X67146745Y-98805752D02*
X67241983Y-98853371D01*
X68813412Y-98948609D02*
X68956269Y-98996228D01*
X68956269Y-98996228D02*
X69003888Y-99043847D01*
X69003888Y-99043847D02*
X69051507Y-99139085D01*
X69051507Y-99139085D02*
X69051507Y-99281942D01*
X69051507Y-99281942D02*
X69003888Y-99377180D01*
X69003888Y-99377180D02*
X68956269Y-99424800D01*
X68956269Y-99424800D02*
X68861031Y-99472419D01*
X68861031Y-99472419D02*
X68480079Y-99472419D01*
X68480079Y-99472419D02*
X68480079Y-98472419D01*
X68480079Y-98472419D02*
X68813412Y-98472419D01*
X68813412Y-98472419D02*
X68908650Y-98520038D01*
X68908650Y-98520038D02*
X68956269Y-98567657D01*
X68956269Y-98567657D02*
X69003888Y-98662895D01*
X69003888Y-98662895D02*
X69003888Y-98758133D01*
X69003888Y-98758133D02*
X68956269Y-98853371D01*
X68956269Y-98853371D02*
X68908650Y-98900990D01*
X68908650Y-98900990D02*
X68813412Y-98948609D01*
X68813412Y-98948609D02*
X68480079Y-98948609D01*
X69908650Y-99472419D02*
X69908650Y-98948609D01*
X69908650Y-98948609D02*
X69861031Y-98853371D01*
X69861031Y-98853371D02*
X69765793Y-98805752D01*
X69765793Y-98805752D02*
X69575317Y-98805752D01*
X69575317Y-98805752D02*
X69480079Y-98853371D01*
X69908650Y-99424800D02*
X69813412Y-99472419D01*
X69813412Y-99472419D02*
X69575317Y-99472419D01*
X69575317Y-99472419D02*
X69480079Y-99424800D01*
X69480079Y-99424800D02*
X69432460Y-99329561D01*
X69432460Y-99329561D02*
X69432460Y-99234323D01*
X69432460Y-99234323D02*
X69480079Y-99139085D01*
X69480079Y-99139085D02*
X69575317Y-99091466D01*
X69575317Y-99091466D02*
X69813412Y-99091466D01*
X69813412Y-99091466D02*
X69908650Y-99043847D01*
X70384841Y-99472419D02*
X70384841Y-98805752D01*
X70384841Y-98472419D02*
X70337222Y-98520038D01*
X70337222Y-98520038D02*
X70384841Y-98567657D01*
X70384841Y-98567657D02*
X70432460Y-98520038D01*
X70432460Y-98520038D02*
X70384841Y-98472419D01*
X70384841Y-98472419D02*
X70384841Y-98567657D01*
X71289602Y-98805752D02*
X71289602Y-99615276D01*
X71289602Y-99615276D02*
X71241983Y-99710514D01*
X71241983Y-99710514D02*
X71194364Y-99758133D01*
X71194364Y-99758133D02*
X71099126Y-99805752D01*
X71099126Y-99805752D02*
X70956269Y-99805752D01*
X70956269Y-99805752D02*
X70861031Y-99758133D01*
X71289602Y-99424800D02*
X71194364Y-99472419D01*
X71194364Y-99472419D02*
X71003888Y-99472419D01*
X71003888Y-99472419D02*
X70908650Y-99424800D01*
X70908650Y-99424800D02*
X70861031Y-99377180D01*
X70861031Y-99377180D02*
X70813412Y-99281942D01*
X70813412Y-99281942D02*
X70813412Y-98996228D01*
X70813412Y-98996228D02*
X70861031Y-98900990D01*
X70861031Y-98900990D02*
X70908650Y-98853371D01*
X70908650Y-98853371D02*
X71003888Y-98805752D01*
X71003888Y-98805752D02*
X71194364Y-98805752D01*
X71194364Y-98805752D02*
X71289602Y-98853371D01*
D12*
G36*
X49018797Y-97586139D02*
G01*
X48872785Y-97667257D01*
X48307666Y-97667257D01*
X48128014Y-97567450D01*
X48033082Y-97356489D01*
X48033082Y-97135166D01*
X48128014Y-96924206D01*
X48307666Y-96824400D01*
X48911654Y-96824400D01*
X48940918Y-96821518D01*
X48948917Y-96818204D01*
X48957520Y-96817216D01*
X48984501Y-96805523D01*
X49018797Y-96786469D01*
X49018797Y-97586139D01*
G37*
G36*
X54581007Y-96067063D02*
G01*
X54675940Y-96278023D01*
X54675940Y-96411216D01*
X53690225Y-96630264D01*
X53690225Y-96278023D01*
X53785157Y-96067063D01*
X53964809Y-95967257D01*
X54401356Y-95967257D01*
X54581007Y-96067063D01*
G37*
G36*
X57234962Y-98300590D02*
G01*
X41228320Y-98300590D01*
X41228320Y-95388685D01*
X41561653Y-95388685D01*
X41561653Y-95674400D01*
X41564535Y-95703664D01*
X41565414Y-95705787D01*
X41565484Y-95708086D01*
X41574865Y-95735955D01*
X41703437Y-96021669D01*
X41709989Y-96033085D01*
X41711296Y-96036779D01*
X41714981Y-96041784D01*
X41718074Y-96047173D01*
X41720925Y-96049857D01*
X41728731Y-96060459D01*
X41857302Y-96203315D01*
X41869336Y-96214299D01*
X41871768Y-96217363D01*
X41875587Y-96220005D01*
X41879020Y-96223139D01*
X41882551Y-96224824D01*
X41895950Y-96234095D01*
X42153093Y-96376952D01*
X42156905Y-96378604D01*
X42158367Y-96379747D01*
X42169323Y-96383985D01*
X42180074Y-96388644D01*
X42181912Y-96388855D01*
X42185792Y-96390356D01*
X42682933Y-96528450D01*
X42902627Y-96650502D01*
X42998767Y-96757325D01*
X43104510Y-96992308D01*
X43104510Y-97213633D01*
X42998767Y-97448616D01*
X42902627Y-97555439D01*
X42701356Y-97667257D01*
X42124252Y-97667257D01*
X41763750Y-97533738D01*
X41735307Y-97526276D01*
X41676822Y-97528500D01*
X41623641Y-97552935D01*
X41583857Y-97595862D01*
X41563529Y-97650746D01*
X41565753Y-97709231D01*
X41590188Y-97762412D01*
X41633115Y-97802196D01*
X41659556Y-97815062D01*
X42045271Y-97957919D01*
X42065037Y-97963104D01*
X42068104Y-97964375D01*
X42070946Y-97964654D01*
X42073714Y-97965381D01*
X42077036Y-97965254D01*
X42097368Y-97967257D01*
X42740225Y-97967257D01*
X42769489Y-97964375D01*
X42777489Y-97961061D01*
X42786090Y-97960073D01*
X42813071Y-97948381D01*
X43070214Y-97805524D01*
X43083612Y-97796253D01*
X43087144Y-97794568D01*
X43090577Y-97791434D01*
X43094396Y-97788792D01*
X43096826Y-97785730D01*
X43108863Y-97774744D01*
X43237434Y-97631886D01*
X43245240Y-97621282D01*
X43248090Y-97618600D01*
X43251182Y-97613212D01*
X43254868Y-97608206D01*
X43256174Y-97604513D01*
X43262727Y-97593097D01*
X43391298Y-97307382D01*
X43400679Y-97279513D01*
X43400748Y-97277215D01*
X43401628Y-97275092D01*
X43404510Y-97245828D01*
X43404510Y-96960114D01*
X43401628Y-96930850D01*
X43400748Y-96928726D01*
X43400679Y-96926429D01*
X43391298Y-96898560D01*
X43262727Y-96612845D01*
X43256174Y-96601428D01*
X43254868Y-96597736D01*
X43251182Y-96592729D01*
X43248090Y-96587342D01*
X43245240Y-96584659D01*
X43237434Y-96574056D01*
X43108863Y-96431198D01*
X43096826Y-96420211D01*
X43094396Y-96417150D01*
X43090577Y-96414507D01*
X43087144Y-96411374D01*
X43083612Y-96409688D01*
X43070214Y-96400418D01*
X42813071Y-96257561D01*
X42809255Y-96255907D01*
X42807797Y-96254767D01*
X42796852Y-96250533D01*
X42786090Y-96245869D01*
X42784251Y-96245657D01*
X42780372Y-96244157D01*
X42283229Y-96106062D01*
X42063535Y-95984010D01*
X41967395Y-95877187D01*
X41940427Y-95817257D01*
X44261654Y-95817257D01*
X44261654Y-97817257D01*
X44264536Y-97846521D01*
X44286934Y-97900593D01*
X44328318Y-97941977D01*
X44382390Y-97964375D01*
X44440918Y-97964375D01*
X44494990Y-97941977D01*
X44536374Y-97900593D01*
X44558772Y-97846521D01*
X44561654Y-97817257D01*
X44561654Y-96160531D01*
X44634964Y-96079074D01*
X44836237Y-95967257D01*
X45144213Y-95967257D01*
X45323864Y-96067063D01*
X45418797Y-96278023D01*
X45418797Y-97817257D01*
X45421679Y-97846521D01*
X45444077Y-97900593D01*
X45485461Y-97941977D01*
X45539533Y-97964375D01*
X45598061Y-97964375D01*
X45652133Y-97941977D01*
X45693517Y-97900593D01*
X45715915Y-97846521D01*
X45718797Y-97817257D01*
X45718797Y-96278022D01*
X45813728Y-96067063D01*
X45993380Y-95967257D01*
X46301356Y-95967257D01*
X46481007Y-96067063D01*
X46575939Y-96278022D01*
X46575939Y-97817257D01*
X46578821Y-97846521D01*
X46601219Y-97900593D01*
X46642603Y-97941977D01*
X46696675Y-97964375D01*
X46755203Y-97964375D01*
X46809275Y-97941977D01*
X46850659Y-97900593D01*
X46873057Y-97846521D01*
X46875939Y-97817257D01*
X46875939Y-97102971D01*
X47733082Y-97102971D01*
X47733082Y-97388685D01*
X47735964Y-97417949D01*
X47736843Y-97420072D01*
X47736913Y-97422371D01*
X47746294Y-97450240D01*
X47874866Y-97735955D01*
X47877595Y-97740710D01*
X47878236Y-97742953D01*
X47880568Y-97745890D01*
X47889503Y-97761459D01*
X47903057Y-97774219D01*
X47914626Y-97788792D01*
X47929381Y-97799001D01*
X47932117Y-97801577D01*
X47934300Y-97802405D01*
X47938808Y-97805524D01*
X48195951Y-97948381D01*
X48222932Y-97960073D01*
X48231532Y-97961061D01*
X48239533Y-97964375D01*
X48268797Y-97967257D01*
X48911654Y-97967257D01*
X48940918Y-97964375D01*
X48948918Y-97961061D01*
X48957519Y-97960073D01*
X48984500Y-97948381D01*
X49053520Y-97910036D01*
X49085461Y-97941977D01*
X49139533Y-97964375D01*
X49198061Y-97964375D01*
X49252133Y-97941977D01*
X49293517Y-97900593D01*
X49315915Y-97846521D01*
X49318797Y-97817257D01*
X49318797Y-96245828D01*
X49315915Y-96216564D01*
X49315035Y-96214440D01*
X49314966Y-96212142D01*
X49305585Y-96184273D01*
X49177013Y-95898559D01*
X49174283Y-95893803D01*
X49173643Y-95891561D01*
X49171310Y-95888623D01*
X49162376Y-95873055D01*
X49148822Y-95860295D01*
X49137253Y-95845722D01*
X49122494Y-95835510D01*
X49119761Y-95832937D01*
X49117579Y-95832109D01*
X49113071Y-95828990D01*
X49091952Y-95817257D01*
X50304511Y-95817257D01*
X50304511Y-97817257D01*
X50307393Y-97846521D01*
X50329791Y-97900593D01*
X50371175Y-97941977D01*
X50425247Y-97964375D01*
X50483775Y-97964375D01*
X50537847Y-97941977D01*
X50579231Y-97900593D01*
X50601629Y-97846521D01*
X50604511Y-97817257D01*
X50604511Y-96420879D01*
X50710252Y-96185898D01*
X50806392Y-96079075D01*
X51007666Y-95967257D01*
X51225939Y-95967257D01*
X51255203Y-95964375D01*
X51309275Y-95941977D01*
X51350659Y-95900593D01*
X51373057Y-95846521D01*
X51373057Y-95787993D01*
X51593107Y-95787993D01*
X51593107Y-95846521D01*
X51615505Y-95900593D01*
X51656889Y-95941977D01*
X51710961Y-95964375D01*
X51740225Y-95967257D01*
X51975940Y-95967257D01*
X51975940Y-97388685D01*
X51978822Y-97417949D01*
X51979701Y-97420072D01*
X51979771Y-97422370D01*
X51989152Y-97450239D01*
X52117723Y-97735955D01*
X52120452Y-97740710D01*
X52121093Y-97742953D01*
X52123425Y-97745890D01*
X52132360Y-97761459D01*
X52145914Y-97774219D01*
X52157483Y-97788792D01*
X52172238Y-97799001D01*
X52174974Y-97801577D01*
X52177157Y-97802405D01*
X52181665Y-97805524D01*
X52438808Y-97948381D01*
X52465789Y-97960073D01*
X52474389Y-97961061D01*
X52482390Y-97964375D01*
X52511654Y-97967257D01*
X52768797Y-97967257D01*
X52798061Y-97964375D01*
X52852133Y-97941977D01*
X52893517Y-97900593D01*
X52915915Y-97846521D01*
X52915915Y-97787993D01*
X52893517Y-97733921D01*
X52852133Y-97692537D01*
X52798061Y-97670139D01*
X52768797Y-97667257D01*
X52550523Y-97667257D01*
X52370872Y-97567451D01*
X52275940Y-97356490D01*
X52275940Y-96245828D01*
X53390225Y-96245828D01*
X53390225Y-97388685D01*
X53393107Y-97417949D01*
X53393986Y-97420072D01*
X53394056Y-97422371D01*
X53403437Y-97450240D01*
X53532009Y-97735955D01*
X53534738Y-97740710D01*
X53535379Y-97742953D01*
X53537711Y-97745890D01*
X53546646Y-97761459D01*
X53560200Y-97774219D01*
X53571769Y-97788792D01*
X53586524Y-97799001D01*
X53589260Y-97801577D01*
X53591443Y-97802405D01*
X53595951Y-97805524D01*
X53853094Y-97948381D01*
X53880075Y-97960073D01*
X53888675Y-97961061D01*
X53896676Y-97964375D01*
X53925940Y-97967257D01*
X54440225Y-97967257D01*
X54469489Y-97964375D01*
X54477489Y-97961061D01*
X54486090Y-97960073D01*
X54513071Y-97948381D01*
X54770214Y-97805524D01*
X54794396Y-97788792D01*
X54830786Y-97742953D01*
X54846864Y-97686679D01*
X54840184Y-97628535D01*
X54811761Y-97577372D01*
X54765922Y-97540982D01*
X54709648Y-97524904D01*
X54651503Y-97531584D01*
X54624522Y-97543276D01*
X54401356Y-97667257D01*
X53964809Y-97667257D01*
X53785157Y-97567450D01*
X53690225Y-97356489D01*
X53690225Y-96937582D01*
X54858480Y-96677970D01*
X54886422Y-96668808D01*
X54897160Y-96661280D01*
X54909276Y-96656262D01*
X54920893Y-96644644D01*
X54934347Y-96635214D01*
X54941387Y-96624150D01*
X54950660Y-96614878D01*
X54956946Y-96599701D01*
X54965769Y-96585838D01*
X54968040Y-96572920D01*
X54973058Y-96560806D01*
X54975940Y-96531542D01*
X54975940Y-96245828D01*
X54973058Y-96216564D01*
X54972178Y-96214440D01*
X54972109Y-96212142D01*
X54962728Y-96184273D01*
X54834156Y-95898559D01*
X54831426Y-95893803D01*
X54830786Y-95891561D01*
X54828453Y-95888623D01*
X54819519Y-95873055D01*
X54805965Y-95860295D01*
X54794396Y-95845722D01*
X54779637Y-95835510D01*
X54776904Y-95832937D01*
X54774722Y-95832109D01*
X54770214Y-95828990D01*
X54749095Y-95817257D01*
X55833083Y-95817257D01*
X55833083Y-97817257D01*
X55835965Y-97846521D01*
X55858363Y-97900593D01*
X55899747Y-97941977D01*
X55953819Y-97964375D01*
X56012347Y-97964375D01*
X56066419Y-97941977D01*
X56107803Y-97900593D01*
X56130201Y-97846521D01*
X56133083Y-97817257D01*
X56133083Y-96420879D01*
X56238824Y-96185898D01*
X56334964Y-96079075D01*
X56536238Y-95967257D01*
X56754511Y-95967257D01*
X56783775Y-95964375D01*
X56837847Y-95941977D01*
X56879231Y-95900593D01*
X56901629Y-95846521D01*
X56901629Y-95787993D01*
X56879231Y-95733921D01*
X56837847Y-95692537D01*
X56783775Y-95670139D01*
X56754511Y-95667257D01*
X56497368Y-95667257D01*
X56468104Y-95670139D01*
X56460104Y-95673452D01*
X56451502Y-95674441D01*
X56424521Y-95686134D01*
X56167379Y-95828990D01*
X56153982Y-95838259D01*
X56150451Y-95839945D01*
X56147016Y-95843079D01*
X56143198Y-95845722D01*
X56140767Y-95848783D01*
X56133083Y-95855797D01*
X56133083Y-95817257D01*
X56130201Y-95787993D01*
X56107803Y-95733921D01*
X56066419Y-95692537D01*
X56012347Y-95670139D01*
X55953819Y-95670139D01*
X55899747Y-95692537D01*
X55858363Y-95733921D01*
X55835965Y-95787993D01*
X55833083Y-95817257D01*
X54749095Y-95817257D01*
X54513071Y-95686133D01*
X54486090Y-95674441D01*
X54477489Y-95673452D01*
X54469489Y-95670139D01*
X54440225Y-95667257D01*
X53925940Y-95667257D01*
X53896676Y-95670139D01*
X53888675Y-95673452D01*
X53880075Y-95674441D01*
X53853094Y-95686133D01*
X53595951Y-95828990D01*
X53591443Y-95832108D01*
X53589260Y-95832937D01*
X53586524Y-95835512D01*
X53571769Y-95845722D01*
X53560200Y-95860294D01*
X53546646Y-95873055D01*
X53537711Y-95888623D01*
X53535379Y-95891561D01*
X53534738Y-95893803D01*
X53532009Y-95898559D01*
X53403437Y-96184273D01*
X53394056Y-96212142D01*
X53393986Y-96214440D01*
X53393107Y-96216564D01*
X53390225Y-96245828D01*
X52275940Y-96245828D01*
X52275940Y-95967257D01*
X52768797Y-95967257D01*
X52798061Y-95964375D01*
X52852133Y-95941977D01*
X52893517Y-95900593D01*
X52915915Y-95846521D01*
X52915915Y-95787993D01*
X52893517Y-95733921D01*
X52852133Y-95692537D01*
X52798061Y-95670139D01*
X52768797Y-95667257D01*
X52275940Y-95667257D01*
X52275940Y-94817257D01*
X52273058Y-94787993D01*
X52250660Y-94733921D01*
X52209276Y-94692537D01*
X52155204Y-94670139D01*
X52096676Y-94670139D01*
X52042604Y-94692537D01*
X52001220Y-94733921D01*
X51978822Y-94787993D01*
X51975940Y-94817257D01*
X51975940Y-95667257D01*
X51740225Y-95667257D01*
X51710961Y-95670139D01*
X51656889Y-95692537D01*
X51615505Y-95733921D01*
X51593107Y-95787993D01*
X51373057Y-95787993D01*
X51350659Y-95733921D01*
X51309275Y-95692537D01*
X51255203Y-95670139D01*
X51225939Y-95667257D01*
X50968796Y-95667257D01*
X50939532Y-95670139D01*
X50931532Y-95673452D01*
X50922930Y-95674441D01*
X50895949Y-95686134D01*
X50638807Y-95828990D01*
X50625410Y-95838259D01*
X50621879Y-95839945D01*
X50618444Y-95843079D01*
X50614626Y-95845722D01*
X50612195Y-95848783D01*
X50604511Y-95855797D01*
X50604511Y-95817257D01*
X50601629Y-95787993D01*
X50579231Y-95733921D01*
X50537847Y-95692537D01*
X50483775Y-95670139D01*
X50425247Y-95670139D01*
X50371175Y-95692537D01*
X50329791Y-95733921D01*
X50307393Y-95787993D01*
X50304511Y-95817257D01*
X49091952Y-95817257D01*
X48855928Y-95686133D01*
X48828947Y-95674441D01*
X48820346Y-95673452D01*
X48812346Y-95670139D01*
X48783082Y-95667257D01*
X48268797Y-95667257D01*
X48239533Y-95670139D01*
X48231532Y-95673452D01*
X48222932Y-95674441D01*
X48195951Y-95686133D01*
X47938808Y-95828990D01*
X47914626Y-95845722D01*
X47878236Y-95891561D01*
X47862158Y-95947835D01*
X47868838Y-96005979D01*
X47897262Y-96057142D01*
X47943101Y-96093532D01*
X47999375Y-96109610D01*
X48057519Y-96102930D01*
X48084500Y-96091238D01*
X48307666Y-95967257D01*
X48744213Y-95967257D01*
X48923864Y-96067063D01*
X49018797Y-96278023D01*
X49018797Y-96443282D01*
X48872785Y-96524400D01*
X48268797Y-96524400D01*
X48239533Y-96527282D01*
X48231532Y-96530595D01*
X48222932Y-96531584D01*
X48195951Y-96543276D01*
X47938808Y-96686133D01*
X47934300Y-96689251D01*
X47932117Y-96690080D01*
X47929381Y-96692655D01*
X47914626Y-96702865D01*
X47903057Y-96717437D01*
X47889503Y-96730198D01*
X47880568Y-96745766D01*
X47878236Y-96748704D01*
X47877595Y-96750946D01*
X47874866Y-96755702D01*
X47746294Y-97041416D01*
X47736913Y-97069285D01*
X47736843Y-97071583D01*
X47735964Y-97073707D01*
X47733082Y-97102971D01*
X46875939Y-97102971D01*
X46875939Y-96245828D01*
X46873057Y-96216564D01*
X46872177Y-96214440D01*
X46872108Y-96212143D01*
X46862727Y-96184274D01*
X46734156Y-95898559D01*
X46731426Y-95893803D01*
X46730786Y-95891561D01*
X46728452Y-95888622D01*
X46719519Y-95873056D01*
X46705966Y-95860297D01*
X46694396Y-95845722D01*
X46679640Y-95835512D01*
X46676905Y-95832937D01*
X46674721Y-95832108D01*
X46670214Y-95828990D01*
X46413071Y-95686133D01*
X46386090Y-95674441D01*
X46377489Y-95673452D01*
X46369489Y-95670139D01*
X46340225Y-95667257D01*
X45954511Y-95667257D01*
X45925247Y-95670139D01*
X45917246Y-95673452D01*
X45908646Y-95674441D01*
X45881665Y-95686133D01*
X45624522Y-95828990D01*
X45620014Y-95832108D01*
X45617831Y-95832937D01*
X45615095Y-95835512D01*
X45600340Y-95845722D01*
X45588771Y-95860294D01*
X45575217Y-95873055D01*
X45568796Y-95884242D01*
X45562376Y-95873055D01*
X45548822Y-95860295D01*
X45537253Y-95845722D01*
X45522494Y-95835510D01*
X45519761Y-95832937D01*
X45517579Y-95832109D01*
X45513071Y-95828990D01*
X45255928Y-95686133D01*
X45228947Y-95674441D01*
X45220346Y-95673452D01*
X45212346Y-95670139D01*
X45183082Y-95667257D01*
X44797368Y-95667257D01*
X44768104Y-95670139D01*
X44760103Y-95673452D01*
X44751503Y-95674441D01*
X44724522Y-95686133D01*
X44555479Y-95780045D01*
X44536374Y-95733921D01*
X44494990Y-95692537D01*
X44440918Y-95670139D01*
X44382390Y-95670139D01*
X44328318Y-95692537D01*
X44286934Y-95733921D01*
X44264536Y-95787993D01*
X44261654Y-95817257D01*
X41940427Y-95817257D01*
X41861653Y-95642204D01*
X41861653Y-95420880D01*
X41967395Y-95185897D01*
X42063535Y-95079074D01*
X42264808Y-94967257D01*
X42841912Y-94967257D01*
X43202413Y-95100776D01*
X43230856Y-95108237D01*
X43289341Y-95106014D01*
X43342522Y-95081579D01*
X43382306Y-95038652D01*
X43402633Y-94983768D01*
X43400410Y-94925283D01*
X43375975Y-94872102D01*
X43333048Y-94832318D01*
X43306607Y-94819452D01*
X42920893Y-94676595D01*
X42901126Y-94671409D01*
X42898060Y-94670139D01*
X42895217Y-94669859D01*
X42892450Y-94669133D01*
X42889127Y-94669259D01*
X42868796Y-94667257D01*
X42225939Y-94667257D01*
X42196675Y-94670139D01*
X42188674Y-94673452D01*
X42180074Y-94674441D01*
X42153093Y-94686133D01*
X41895950Y-94828990D01*
X41882551Y-94838260D01*
X41879020Y-94839946D01*
X41875587Y-94843079D01*
X41871768Y-94845722D01*
X41869336Y-94848785D01*
X41857302Y-94859770D01*
X41728731Y-95002626D01*
X41720925Y-95013227D01*
X41718074Y-95015912D01*
X41714981Y-95021300D01*
X41711296Y-95026306D01*
X41709989Y-95029999D01*
X41703437Y-95041416D01*
X41574865Y-95327130D01*
X41565484Y-95354999D01*
X41565414Y-95357297D01*
X41564535Y-95359421D01*
X41561653Y-95388685D01*
X41228320Y-95388685D01*
X41228320Y-94333924D01*
X57234962Y-94333924D01*
X57234962Y-98300590D01*
G37*
D13*
X35533333Y-74354819D02*
X35200000Y-73878628D01*
X34961905Y-74354819D02*
X34961905Y-73354819D01*
X34961905Y-73354819D02*
X35342857Y-73354819D01*
X35342857Y-73354819D02*
X35438095Y-73402438D01*
X35438095Y-73402438D02*
X35485714Y-73450057D01*
X35485714Y-73450057D02*
X35533333Y-73545295D01*
X35533333Y-73545295D02*
X35533333Y-73688152D01*
X35533333Y-73688152D02*
X35485714Y-73783390D01*
X35485714Y-73783390D02*
X35438095Y-73831009D01*
X35438095Y-73831009D02*
X35342857Y-73878628D01*
X35342857Y-73878628D02*
X34961905Y-73878628D01*
X35914286Y-73450057D02*
X35961905Y-73402438D01*
X35961905Y-73402438D02*
X36057143Y-73354819D01*
X36057143Y-73354819D02*
X36295238Y-73354819D01*
X36295238Y-73354819D02*
X36390476Y-73402438D01*
X36390476Y-73402438D02*
X36438095Y-73450057D01*
X36438095Y-73450057D02*
X36485714Y-73545295D01*
X36485714Y-73545295D02*
X36485714Y-73640533D01*
X36485714Y-73640533D02*
X36438095Y-73783390D01*
X36438095Y-73783390D02*
X35866667Y-74354819D01*
X35866667Y-74354819D02*
X36485714Y-74354819D01*
X63786905Y-74554819D02*
X63786905Y-75364342D01*
X63786905Y-75364342D02*
X63834524Y-75459580D01*
X63834524Y-75459580D02*
X63882143Y-75507200D01*
X63882143Y-75507200D02*
X63977381Y-75554819D01*
X63977381Y-75554819D02*
X64167857Y-75554819D01*
X64167857Y-75554819D02*
X64263095Y-75507200D01*
X64263095Y-75507200D02*
X64310714Y-75459580D01*
X64310714Y-75459580D02*
X64358333Y-75364342D01*
X64358333Y-75364342D02*
X64358333Y-74554819D01*
X65358333Y-75554819D02*
X64786905Y-75554819D01*
X65072619Y-75554819D02*
X65072619Y-74554819D01*
X65072619Y-74554819D02*
X64977381Y-74697676D01*
X64977381Y-74697676D02*
X64882143Y-74792914D01*
X64882143Y-74792914D02*
X64786905Y-74840533D01*
X65691667Y-74554819D02*
X66310714Y-74554819D01*
X66310714Y-74554819D02*
X65977381Y-74935771D01*
X65977381Y-74935771D02*
X66120238Y-74935771D01*
X66120238Y-74935771D02*
X66215476Y-74983390D01*
X66215476Y-74983390D02*
X66263095Y-75031009D01*
X66263095Y-75031009D02*
X66310714Y-75126247D01*
X66310714Y-75126247D02*
X66310714Y-75364342D01*
X66310714Y-75364342D02*
X66263095Y-75459580D01*
X66263095Y-75459580D02*
X66215476Y-75507200D01*
X66215476Y-75507200D02*
X66120238Y-75554819D01*
X66120238Y-75554819D02*
X65834524Y-75554819D01*
X65834524Y-75554819D02*
X65739286Y-75507200D01*
X65739286Y-75507200D02*
X65691667Y-75459580D01*
D10*
X61990476Y-66057419D02*
X61990476Y-65057419D01*
X61990476Y-65057419D02*
X62323809Y-65771704D01*
X62323809Y-65771704D02*
X62657142Y-65057419D01*
X62657142Y-65057419D02*
X62657142Y-66057419D01*
X63657142Y-66057419D02*
X63085714Y-66057419D01*
X63371428Y-66057419D02*
X63371428Y-65057419D01*
X63371428Y-65057419D02*
X63276190Y-65200276D01*
X63276190Y-65200276D02*
X63180952Y-65295514D01*
X63180952Y-65295514D02*
X63085714Y-65343133D01*
D13*
X34554819Y-92242857D02*
X34078628Y-92576190D01*
X34554819Y-92814285D02*
X33554819Y-92814285D01*
X33554819Y-92814285D02*
X33554819Y-92433333D01*
X33554819Y-92433333D02*
X33602438Y-92338095D01*
X33602438Y-92338095D02*
X33650057Y-92290476D01*
X33650057Y-92290476D02*
X33745295Y-92242857D01*
X33745295Y-92242857D02*
X33888152Y-92242857D01*
X33888152Y-92242857D02*
X33983390Y-92290476D01*
X33983390Y-92290476D02*
X34031009Y-92338095D01*
X34031009Y-92338095D02*
X34078628Y-92433333D01*
X34078628Y-92433333D02*
X34078628Y-92814285D01*
X34554819Y-91290476D02*
X34554819Y-91861904D01*
X34554819Y-91576190D02*
X33554819Y-91576190D01*
X33554819Y-91576190D02*
X33697676Y-91671428D01*
X33697676Y-91671428D02*
X33792914Y-91766666D01*
X33792914Y-91766666D02*
X33840533Y-91861904D01*
X33983390Y-90719047D02*
X33935771Y-90814285D01*
X33935771Y-90814285D02*
X33888152Y-90861904D01*
X33888152Y-90861904D02*
X33792914Y-90909523D01*
X33792914Y-90909523D02*
X33745295Y-90909523D01*
X33745295Y-90909523D02*
X33650057Y-90861904D01*
X33650057Y-90861904D02*
X33602438Y-90814285D01*
X33602438Y-90814285D02*
X33554819Y-90719047D01*
X33554819Y-90719047D02*
X33554819Y-90528571D01*
X33554819Y-90528571D02*
X33602438Y-90433333D01*
X33602438Y-90433333D02*
X33650057Y-90385714D01*
X33650057Y-90385714D02*
X33745295Y-90338095D01*
X33745295Y-90338095D02*
X33792914Y-90338095D01*
X33792914Y-90338095D02*
X33888152Y-90385714D01*
X33888152Y-90385714D02*
X33935771Y-90433333D01*
X33935771Y-90433333D02*
X33983390Y-90528571D01*
X33983390Y-90528571D02*
X33983390Y-90719047D01*
X33983390Y-90719047D02*
X34031009Y-90814285D01*
X34031009Y-90814285D02*
X34078628Y-90861904D01*
X34078628Y-90861904D02*
X34173866Y-90909523D01*
X34173866Y-90909523D02*
X34364342Y-90909523D01*
X34364342Y-90909523D02*
X34459580Y-90861904D01*
X34459580Y-90861904D02*
X34507200Y-90814285D01*
X34507200Y-90814285D02*
X34554819Y-90719047D01*
X34554819Y-90719047D02*
X34554819Y-90528571D01*
X34554819Y-90528571D02*
X34507200Y-90433333D01*
X34507200Y-90433333D02*
X34459580Y-90385714D01*
X34459580Y-90385714D02*
X34364342Y-90338095D01*
X34364342Y-90338095D02*
X34173866Y-90338095D01*
X34173866Y-90338095D02*
X34078628Y-90385714D01*
X34078628Y-90385714D02*
X34031009Y-90433333D01*
X34031009Y-90433333D02*
X33983390Y-90528571D01*
X42814819Y-81333333D02*
X43529104Y-81333333D01*
X43529104Y-81333333D02*
X43671961Y-81380952D01*
X43671961Y-81380952D02*
X43767200Y-81476190D01*
X43767200Y-81476190D02*
X43814819Y-81619047D01*
X43814819Y-81619047D02*
X43814819Y-81714285D01*
X42814819Y-80952380D02*
X42814819Y-80333333D01*
X42814819Y-80333333D02*
X43195771Y-80666666D01*
X43195771Y-80666666D02*
X43195771Y-80523809D01*
X43195771Y-80523809D02*
X43243390Y-80428571D01*
X43243390Y-80428571D02*
X43291009Y-80380952D01*
X43291009Y-80380952D02*
X43386247Y-80333333D01*
X43386247Y-80333333D02*
X43624342Y-80333333D01*
X43624342Y-80333333D02*
X43719580Y-80380952D01*
X43719580Y-80380952D02*
X43767200Y-80428571D01*
X43767200Y-80428571D02*
X43814819Y-80523809D01*
X43814819Y-80523809D02*
X43814819Y-80809523D01*
X43814819Y-80809523D02*
X43767200Y-80904761D01*
X43767200Y-80904761D02*
X43719580Y-80952380D01*
X40024819Y-63261904D02*
X40834342Y-63261904D01*
X40834342Y-63261904D02*
X40929580Y-63214285D01*
X40929580Y-63214285D02*
X40977200Y-63166666D01*
X40977200Y-63166666D02*
X41024819Y-63071428D01*
X41024819Y-63071428D02*
X41024819Y-62880952D01*
X41024819Y-62880952D02*
X40977200Y-62785714D01*
X40977200Y-62785714D02*
X40929580Y-62738095D01*
X40929580Y-62738095D02*
X40834342Y-62690476D01*
X40834342Y-62690476D02*
X40024819Y-62690476D01*
X40453390Y-62071428D02*
X40405771Y-62166666D01*
X40405771Y-62166666D02*
X40358152Y-62214285D01*
X40358152Y-62214285D02*
X40262914Y-62261904D01*
X40262914Y-62261904D02*
X40215295Y-62261904D01*
X40215295Y-62261904D02*
X40120057Y-62214285D01*
X40120057Y-62214285D02*
X40072438Y-62166666D01*
X40072438Y-62166666D02*
X40024819Y-62071428D01*
X40024819Y-62071428D02*
X40024819Y-61880952D01*
X40024819Y-61880952D02*
X40072438Y-61785714D01*
X40072438Y-61785714D02*
X40120057Y-61738095D01*
X40120057Y-61738095D02*
X40215295Y-61690476D01*
X40215295Y-61690476D02*
X40262914Y-61690476D01*
X40262914Y-61690476D02*
X40358152Y-61738095D01*
X40358152Y-61738095D02*
X40405771Y-61785714D01*
X40405771Y-61785714D02*
X40453390Y-61880952D01*
X40453390Y-61880952D02*
X40453390Y-62071428D01*
X40453390Y-62071428D02*
X40501009Y-62166666D01*
X40501009Y-62166666D02*
X40548628Y-62214285D01*
X40548628Y-62214285D02*
X40643866Y-62261904D01*
X40643866Y-62261904D02*
X40834342Y-62261904D01*
X40834342Y-62261904D02*
X40929580Y-62214285D01*
X40929580Y-62214285D02*
X40977200Y-62166666D01*
X40977200Y-62166666D02*
X41024819Y-62071428D01*
X41024819Y-62071428D02*
X41024819Y-61880952D01*
X41024819Y-61880952D02*
X40977200Y-61785714D01*
X40977200Y-61785714D02*
X40929580Y-61738095D01*
X40929580Y-61738095D02*
X40834342Y-61690476D01*
X40834342Y-61690476D02*
X40643866Y-61690476D01*
X40643866Y-61690476D02*
X40548628Y-61738095D01*
X40548628Y-61738095D02*
X40501009Y-61785714D01*
X40501009Y-61785714D02*
X40453390Y-61880952D01*
X53024819Y-86776666D02*
X52548628Y-87109999D01*
X53024819Y-87348094D02*
X52024819Y-87348094D01*
X52024819Y-87348094D02*
X52024819Y-86967142D01*
X52024819Y-86967142D02*
X52072438Y-86871904D01*
X52072438Y-86871904D02*
X52120057Y-86824285D01*
X52120057Y-86824285D02*
X52215295Y-86776666D01*
X52215295Y-86776666D02*
X52358152Y-86776666D01*
X52358152Y-86776666D02*
X52453390Y-86824285D01*
X52453390Y-86824285D02*
X52501009Y-86871904D01*
X52501009Y-86871904D02*
X52548628Y-86967142D01*
X52548628Y-86967142D02*
X52548628Y-87348094D01*
X52024819Y-86443332D02*
X52024819Y-85776666D01*
X52024819Y-85776666D02*
X53024819Y-86205237D01*
X53625595Y-77204819D02*
X53625595Y-78014342D01*
X53625595Y-78014342D02*
X53673214Y-78109580D01*
X53673214Y-78109580D02*
X53720833Y-78157200D01*
X53720833Y-78157200D02*
X53816071Y-78204819D01*
X53816071Y-78204819D02*
X54006547Y-78204819D01*
X54006547Y-78204819D02*
X54101785Y-78157200D01*
X54101785Y-78157200D02*
X54149404Y-78109580D01*
X54149404Y-78109580D02*
X54197023Y-78014342D01*
X54197023Y-78014342D02*
X54197023Y-77204819D01*
X54625595Y-77300057D02*
X54673214Y-77252438D01*
X54673214Y-77252438D02*
X54768452Y-77204819D01*
X54768452Y-77204819D02*
X55006547Y-77204819D01*
X55006547Y-77204819D02*
X55101785Y-77252438D01*
X55101785Y-77252438D02*
X55149404Y-77300057D01*
X55149404Y-77300057D02*
X55197023Y-77395295D01*
X55197023Y-77395295D02*
X55197023Y-77490533D01*
X55197023Y-77490533D02*
X55149404Y-77633390D01*
X55149404Y-77633390D02*
X54577976Y-78204819D01*
X54577976Y-78204819D02*
X55197023Y-78204819D01*
X47954819Y-68066666D02*
X47478628Y-68399999D01*
X47954819Y-68638094D02*
X46954819Y-68638094D01*
X46954819Y-68638094D02*
X46954819Y-68257142D01*
X46954819Y-68257142D02*
X47002438Y-68161904D01*
X47002438Y-68161904D02*
X47050057Y-68114285D01*
X47050057Y-68114285D02*
X47145295Y-68066666D01*
X47145295Y-68066666D02*
X47288152Y-68066666D01*
X47288152Y-68066666D02*
X47383390Y-68114285D01*
X47383390Y-68114285D02*
X47431009Y-68161904D01*
X47431009Y-68161904D02*
X47478628Y-68257142D01*
X47478628Y-68257142D02*
X47478628Y-68638094D01*
X47954819Y-67590475D02*
X47954819Y-67399999D01*
X47954819Y-67399999D02*
X47907200Y-67304761D01*
X47907200Y-67304761D02*
X47859580Y-67257142D01*
X47859580Y-67257142D02*
X47716723Y-67161904D01*
X47716723Y-67161904D02*
X47526247Y-67114285D01*
X47526247Y-67114285D02*
X47145295Y-67114285D01*
X47145295Y-67114285D02*
X47050057Y-67161904D01*
X47050057Y-67161904D02*
X47002438Y-67209523D01*
X47002438Y-67209523D02*
X46954819Y-67304761D01*
X46954819Y-67304761D02*
X46954819Y-67495237D01*
X46954819Y-67495237D02*
X47002438Y-67590475D01*
X47002438Y-67590475D02*
X47050057Y-67638094D01*
X47050057Y-67638094D02*
X47145295Y-67685713D01*
X47145295Y-67685713D02*
X47383390Y-67685713D01*
X47383390Y-67685713D02*
X47478628Y-67638094D01*
X47478628Y-67638094D02*
X47526247Y-67590475D01*
X47526247Y-67590475D02*
X47573866Y-67495237D01*
X47573866Y-67495237D02*
X47573866Y-67304761D01*
X47573866Y-67304761D02*
X47526247Y-67209523D01*
X47526247Y-67209523D02*
X47478628Y-67161904D01*
X47478628Y-67161904D02*
X47383390Y-67114285D01*
X39554819Y-92442857D02*
X39078628Y-92776190D01*
X39554819Y-93014285D02*
X38554819Y-93014285D01*
X38554819Y-93014285D02*
X38554819Y-92633333D01*
X38554819Y-92633333D02*
X38602438Y-92538095D01*
X38602438Y-92538095D02*
X38650057Y-92490476D01*
X38650057Y-92490476D02*
X38745295Y-92442857D01*
X38745295Y-92442857D02*
X38888152Y-92442857D01*
X38888152Y-92442857D02*
X38983390Y-92490476D01*
X38983390Y-92490476D02*
X39031009Y-92538095D01*
X39031009Y-92538095D02*
X39078628Y-92633333D01*
X39078628Y-92633333D02*
X39078628Y-93014285D01*
X39554819Y-91490476D02*
X39554819Y-92061904D01*
X39554819Y-91776190D02*
X38554819Y-91776190D01*
X38554819Y-91776190D02*
X38697676Y-91871428D01*
X38697676Y-91871428D02*
X38792914Y-91966666D01*
X38792914Y-91966666D02*
X38840533Y-92061904D01*
X38554819Y-90633333D02*
X38554819Y-90823809D01*
X38554819Y-90823809D02*
X38602438Y-90919047D01*
X38602438Y-90919047D02*
X38650057Y-90966666D01*
X38650057Y-90966666D02*
X38792914Y-91061904D01*
X38792914Y-91061904D02*
X38983390Y-91109523D01*
X38983390Y-91109523D02*
X39364342Y-91109523D01*
X39364342Y-91109523D02*
X39459580Y-91061904D01*
X39459580Y-91061904D02*
X39507200Y-91014285D01*
X39507200Y-91014285D02*
X39554819Y-90919047D01*
X39554819Y-90919047D02*
X39554819Y-90728571D01*
X39554819Y-90728571D02*
X39507200Y-90633333D01*
X39507200Y-90633333D02*
X39459580Y-90585714D01*
X39459580Y-90585714D02*
X39364342Y-90538095D01*
X39364342Y-90538095D02*
X39126247Y-90538095D01*
X39126247Y-90538095D02*
X39031009Y-90585714D01*
X39031009Y-90585714D02*
X38983390Y-90633333D01*
X38983390Y-90633333D02*
X38935771Y-90728571D01*
X38935771Y-90728571D02*
X38935771Y-90919047D01*
X38935771Y-90919047D02*
X38983390Y-91014285D01*
X38983390Y-91014285D02*
X39031009Y-91061904D01*
X39031009Y-91061904D02*
X39126247Y-91109523D01*
X34961905Y-75554819D02*
X34961905Y-74554819D01*
X34961905Y-74554819D02*
X35200000Y-74554819D01*
X35200000Y-74554819D02*
X35342857Y-74602438D01*
X35342857Y-74602438D02*
X35438095Y-74697676D01*
X35438095Y-74697676D02*
X35485714Y-74792914D01*
X35485714Y-74792914D02*
X35533333Y-74983390D01*
X35533333Y-74983390D02*
X35533333Y-75126247D01*
X35533333Y-75126247D02*
X35485714Y-75316723D01*
X35485714Y-75316723D02*
X35438095Y-75411961D01*
X35438095Y-75411961D02*
X35342857Y-75507200D01*
X35342857Y-75507200D02*
X35200000Y-75554819D01*
X35200000Y-75554819D02*
X34961905Y-75554819D01*
X36485714Y-75554819D02*
X35914286Y-75554819D01*
X36200000Y-75554819D02*
X36200000Y-74554819D01*
X36200000Y-74554819D02*
X36104762Y-74697676D01*
X36104762Y-74697676D02*
X36009524Y-74792914D01*
X36009524Y-74792914D02*
X35914286Y-74840533D01*
X59654819Y-79656666D02*
X59178628Y-79989999D01*
X59654819Y-80228094D02*
X58654819Y-80228094D01*
X58654819Y-80228094D02*
X58654819Y-79847142D01*
X58654819Y-79847142D02*
X58702438Y-79751904D01*
X58702438Y-79751904D02*
X58750057Y-79704285D01*
X58750057Y-79704285D02*
X58845295Y-79656666D01*
X58845295Y-79656666D02*
X58988152Y-79656666D01*
X58988152Y-79656666D02*
X59083390Y-79704285D01*
X59083390Y-79704285D02*
X59131009Y-79751904D01*
X59131009Y-79751904D02*
X59178628Y-79847142D01*
X59178628Y-79847142D02*
X59178628Y-80228094D01*
X58988152Y-78799523D02*
X59654819Y-78799523D01*
X58607200Y-79037618D02*
X59321485Y-79275713D01*
X59321485Y-79275713D02*
X59321485Y-78656666D01*
X49867142Y-78754819D02*
X49533809Y-78278628D01*
X49295714Y-78754819D02*
X49295714Y-77754819D01*
X49295714Y-77754819D02*
X49676666Y-77754819D01*
X49676666Y-77754819D02*
X49771904Y-77802438D01*
X49771904Y-77802438D02*
X49819523Y-77850057D01*
X49819523Y-77850057D02*
X49867142Y-77945295D01*
X49867142Y-77945295D02*
X49867142Y-78088152D01*
X49867142Y-78088152D02*
X49819523Y-78183390D01*
X49819523Y-78183390D02*
X49771904Y-78231009D01*
X49771904Y-78231009D02*
X49676666Y-78278628D01*
X49676666Y-78278628D02*
X49295714Y-78278628D01*
X50819523Y-78754819D02*
X50248095Y-78754819D01*
X50533809Y-78754819D02*
X50533809Y-77754819D01*
X50533809Y-77754819D02*
X50438571Y-77897676D01*
X50438571Y-77897676D02*
X50343333Y-77992914D01*
X50343333Y-77992914D02*
X50248095Y-78040533D01*
X51438571Y-77754819D02*
X51533809Y-77754819D01*
X51533809Y-77754819D02*
X51629047Y-77802438D01*
X51629047Y-77802438D02*
X51676666Y-77850057D01*
X51676666Y-77850057D02*
X51724285Y-77945295D01*
X51724285Y-77945295D02*
X51771904Y-78135771D01*
X51771904Y-78135771D02*
X51771904Y-78373866D01*
X51771904Y-78373866D02*
X51724285Y-78564342D01*
X51724285Y-78564342D02*
X51676666Y-78659580D01*
X51676666Y-78659580D02*
X51629047Y-78707200D01*
X51629047Y-78707200D02*
X51533809Y-78754819D01*
X51533809Y-78754819D02*
X51438571Y-78754819D01*
X51438571Y-78754819D02*
X51343333Y-78707200D01*
X51343333Y-78707200D02*
X51295714Y-78659580D01*
X51295714Y-78659580D02*
X51248095Y-78564342D01*
X51248095Y-78564342D02*
X51200476Y-78373866D01*
X51200476Y-78373866D02*
X51200476Y-78135771D01*
X51200476Y-78135771D02*
X51248095Y-77945295D01*
X51248095Y-77945295D02*
X51295714Y-77850057D01*
X51295714Y-77850057D02*
X51343333Y-77802438D01*
X51343333Y-77802438D02*
X51438571Y-77754819D01*
X39333333Y-71059580D02*
X39285714Y-71107200D01*
X39285714Y-71107200D02*
X39142857Y-71154819D01*
X39142857Y-71154819D02*
X39047619Y-71154819D01*
X39047619Y-71154819D02*
X38904762Y-71107200D01*
X38904762Y-71107200D02*
X38809524Y-71011961D01*
X38809524Y-71011961D02*
X38761905Y-70916723D01*
X38761905Y-70916723D02*
X38714286Y-70726247D01*
X38714286Y-70726247D02*
X38714286Y-70583390D01*
X38714286Y-70583390D02*
X38761905Y-70392914D01*
X38761905Y-70392914D02*
X38809524Y-70297676D01*
X38809524Y-70297676D02*
X38904762Y-70202438D01*
X38904762Y-70202438D02*
X39047619Y-70154819D01*
X39047619Y-70154819D02*
X39142857Y-70154819D01*
X39142857Y-70154819D02*
X39285714Y-70202438D01*
X39285714Y-70202438D02*
X39333333Y-70250057D01*
X40238095Y-70154819D02*
X39761905Y-70154819D01*
X39761905Y-70154819D02*
X39714286Y-70631009D01*
X39714286Y-70631009D02*
X39761905Y-70583390D01*
X39761905Y-70583390D02*
X39857143Y-70535771D01*
X39857143Y-70535771D02*
X40095238Y-70535771D01*
X40095238Y-70535771D02*
X40190476Y-70583390D01*
X40190476Y-70583390D02*
X40238095Y-70631009D01*
X40238095Y-70631009D02*
X40285714Y-70726247D01*
X40285714Y-70726247D02*
X40285714Y-70964342D01*
X40285714Y-70964342D02*
X40238095Y-71059580D01*
X40238095Y-71059580D02*
X40190476Y-71107200D01*
X40190476Y-71107200D02*
X40095238Y-71154819D01*
X40095238Y-71154819D02*
X39857143Y-71154819D01*
X39857143Y-71154819D02*
X39761905Y-71107200D01*
X39761905Y-71107200D02*
X39714286Y-71059580D01*
X57967261Y-68650057D02*
X57872023Y-68602438D01*
X57872023Y-68602438D02*
X57776785Y-68507200D01*
X57776785Y-68507200D02*
X57633928Y-68364342D01*
X57633928Y-68364342D02*
X57538690Y-68316723D01*
X57538690Y-68316723D02*
X57443452Y-68316723D01*
X57491071Y-68554819D02*
X57395833Y-68507200D01*
X57395833Y-68507200D02*
X57300595Y-68411961D01*
X57300595Y-68411961D02*
X57252976Y-68221485D01*
X57252976Y-68221485D02*
X57252976Y-67888152D01*
X57252976Y-67888152D02*
X57300595Y-67697676D01*
X57300595Y-67697676D02*
X57395833Y-67602438D01*
X57395833Y-67602438D02*
X57491071Y-67554819D01*
X57491071Y-67554819D02*
X57681547Y-67554819D01*
X57681547Y-67554819D02*
X57776785Y-67602438D01*
X57776785Y-67602438D02*
X57872023Y-67697676D01*
X57872023Y-67697676D02*
X57919642Y-67888152D01*
X57919642Y-67888152D02*
X57919642Y-68221485D01*
X57919642Y-68221485D02*
X57872023Y-68411961D01*
X57872023Y-68411961D02*
X57776785Y-68507200D01*
X57776785Y-68507200D02*
X57681547Y-68554819D01*
X57681547Y-68554819D02*
X57491071Y-68554819D01*
X58776785Y-67888152D02*
X58776785Y-68554819D01*
X58538690Y-67507200D02*
X58300595Y-68221485D01*
X58300595Y-68221485D02*
X58919642Y-68221485D01*
X67957142Y-77054819D02*
X67623809Y-76578628D01*
X67385714Y-77054819D02*
X67385714Y-76054819D01*
X67385714Y-76054819D02*
X67766666Y-76054819D01*
X67766666Y-76054819D02*
X67861904Y-76102438D01*
X67861904Y-76102438D02*
X67909523Y-76150057D01*
X67909523Y-76150057D02*
X67957142Y-76245295D01*
X67957142Y-76245295D02*
X67957142Y-76388152D01*
X67957142Y-76388152D02*
X67909523Y-76483390D01*
X67909523Y-76483390D02*
X67861904Y-76531009D01*
X67861904Y-76531009D02*
X67766666Y-76578628D01*
X67766666Y-76578628D02*
X67385714Y-76578628D01*
X68338095Y-76150057D02*
X68385714Y-76102438D01*
X68385714Y-76102438D02*
X68480952Y-76054819D01*
X68480952Y-76054819D02*
X68719047Y-76054819D01*
X68719047Y-76054819D02*
X68814285Y-76102438D01*
X68814285Y-76102438D02*
X68861904Y-76150057D01*
X68861904Y-76150057D02*
X68909523Y-76245295D01*
X68909523Y-76245295D02*
X68909523Y-76340533D01*
X68909523Y-76340533D02*
X68861904Y-76483390D01*
X68861904Y-76483390D02*
X68290476Y-77054819D01*
X68290476Y-77054819D02*
X68909523Y-77054819D01*
X69290476Y-76150057D02*
X69338095Y-76102438D01*
X69338095Y-76102438D02*
X69433333Y-76054819D01*
X69433333Y-76054819D02*
X69671428Y-76054819D01*
X69671428Y-76054819D02*
X69766666Y-76102438D01*
X69766666Y-76102438D02*
X69814285Y-76150057D01*
X69814285Y-76150057D02*
X69861904Y-76245295D01*
X69861904Y-76245295D02*
X69861904Y-76340533D01*
X69861904Y-76340533D02*
X69814285Y-76483390D01*
X69814285Y-76483390D02*
X69242857Y-77054819D01*
X69242857Y-77054819D02*
X69861904Y-77054819D01*
X66757142Y-72259580D02*
X66709523Y-72307200D01*
X66709523Y-72307200D02*
X66566666Y-72354819D01*
X66566666Y-72354819D02*
X66471428Y-72354819D01*
X66471428Y-72354819D02*
X66328571Y-72307200D01*
X66328571Y-72307200D02*
X66233333Y-72211961D01*
X66233333Y-72211961D02*
X66185714Y-72116723D01*
X66185714Y-72116723D02*
X66138095Y-71926247D01*
X66138095Y-71926247D02*
X66138095Y-71783390D01*
X66138095Y-71783390D02*
X66185714Y-71592914D01*
X66185714Y-71592914D02*
X66233333Y-71497676D01*
X66233333Y-71497676D02*
X66328571Y-71402438D01*
X66328571Y-71402438D02*
X66471428Y-71354819D01*
X66471428Y-71354819D02*
X66566666Y-71354819D01*
X66566666Y-71354819D02*
X66709523Y-71402438D01*
X66709523Y-71402438D02*
X66757142Y-71450057D01*
X67709523Y-72354819D02*
X67138095Y-72354819D01*
X67423809Y-72354819D02*
X67423809Y-71354819D01*
X67423809Y-71354819D02*
X67328571Y-71497676D01*
X67328571Y-71497676D02*
X67233333Y-71592914D01*
X67233333Y-71592914D02*
X67138095Y-71640533D01*
X68614285Y-71354819D02*
X68138095Y-71354819D01*
X68138095Y-71354819D02*
X68090476Y-71831009D01*
X68090476Y-71831009D02*
X68138095Y-71783390D01*
X68138095Y-71783390D02*
X68233333Y-71735771D01*
X68233333Y-71735771D02*
X68471428Y-71735771D01*
X68471428Y-71735771D02*
X68566666Y-71783390D01*
X68566666Y-71783390D02*
X68614285Y-71831009D01*
X68614285Y-71831009D02*
X68661904Y-71926247D01*
X68661904Y-71926247D02*
X68661904Y-72164342D01*
X68661904Y-72164342D02*
X68614285Y-72259580D01*
X68614285Y-72259580D02*
X68566666Y-72307200D01*
X68566666Y-72307200D02*
X68471428Y-72354819D01*
X68471428Y-72354819D02*
X68233333Y-72354819D01*
X68233333Y-72354819D02*
X68138095Y-72307200D01*
X68138095Y-72307200D02*
X68090476Y-72259580D01*
X46354819Y-68166666D02*
X45878628Y-68499999D01*
X46354819Y-68738094D02*
X45354819Y-68738094D01*
X45354819Y-68738094D02*
X45354819Y-68357142D01*
X45354819Y-68357142D02*
X45402438Y-68261904D01*
X45402438Y-68261904D02*
X45450057Y-68214285D01*
X45450057Y-68214285D02*
X45545295Y-68166666D01*
X45545295Y-68166666D02*
X45688152Y-68166666D01*
X45688152Y-68166666D02*
X45783390Y-68214285D01*
X45783390Y-68214285D02*
X45831009Y-68261904D01*
X45831009Y-68261904D02*
X45878628Y-68357142D01*
X45878628Y-68357142D02*
X45878628Y-68738094D01*
X45783390Y-67595237D02*
X45735771Y-67690475D01*
X45735771Y-67690475D02*
X45688152Y-67738094D01*
X45688152Y-67738094D02*
X45592914Y-67785713D01*
X45592914Y-67785713D02*
X45545295Y-67785713D01*
X45545295Y-67785713D02*
X45450057Y-67738094D01*
X45450057Y-67738094D02*
X45402438Y-67690475D01*
X45402438Y-67690475D02*
X45354819Y-67595237D01*
X45354819Y-67595237D02*
X45354819Y-67404761D01*
X45354819Y-67404761D02*
X45402438Y-67309523D01*
X45402438Y-67309523D02*
X45450057Y-67261904D01*
X45450057Y-67261904D02*
X45545295Y-67214285D01*
X45545295Y-67214285D02*
X45592914Y-67214285D01*
X45592914Y-67214285D02*
X45688152Y-67261904D01*
X45688152Y-67261904D02*
X45735771Y-67309523D01*
X45735771Y-67309523D02*
X45783390Y-67404761D01*
X45783390Y-67404761D02*
X45783390Y-67595237D01*
X45783390Y-67595237D02*
X45831009Y-67690475D01*
X45831009Y-67690475D02*
X45878628Y-67738094D01*
X45878628Y-67738094D02*
X45973866Y-67785713D01*
X45973866Y-67785713D02*
X46164342Y-67785713D01*
X46164342Y-67785713D02*
X46259580Y-67738094D01*
X46259580Y-67738094D02*
X46307200Y-67690475D01*
X46307200Y-67690475D02*
X46354819Y-67595237D01*
X46354819Y-67595237D02*
X46354819Y-67404761D01*
X46354819Y-67404761D02*
X46307200Y-67309523D01*
X46307200Y-67309523D02*
X46259580Y-67261904D01*
X46259580Y-67261904D02*
X46164342Y-67214285D01*
X46164342Y-67214285D02*
X45973866Y-67214285D01*
X45973866Y-67214285D02*
X45878628Y-67261904D01*
X45878628Y-67261904D02*
X45831009Y-67309523D01*
X45831009Y-67309523D02*
X45783390Y-67404761D01*
X57959580Y-79546666D02*
X58007200Y-79594285D01*
X58007200Y-79594285D02*
X58054819Y-79737142D01*
X58054819Y-79737142D02*
X58054819Y-79832380D01*
X58054819Y-79832380D02*
X58007200Y-79975237D01*
X58007200Y-79975237D02*
X57911961Y-80070475D01*
X57911961Y-80070475D02*
X57816723Y-80118094D01*
X57816723Y-80118094D02*
X57626247Y-80165713D01*
X57626247Y-80165713D02*
X57483390Y-80165713D01*
X57483390Y-80165713D02*
X57292914Y-80118094D01*
X57292914Y-80118094D02*
X57197676Y-80070475D01*
X57197676Y-80070475D02*
X57102438Y-79975237D01*
X57102438Y-79975237D02*
X57054819Y-79832380D01*
X57054819Y-79832380D02*
X57054819Y-79737142D01*
X57054819Y-79737142D02*
X57102438Y-79594285D01*
X57102438Y-79594285D02*
X57150057Y-79546666D01*
X57388152Y-78689523D02*
X58054819Y-78689523D01*
X57007200Y-78927618D02*
X57721485Y-79165713D01*
X57721485Y-79165713D02*
X57721485Y-78546666D01*
X63136904Y-82245180D02*
X63136904Y-81435657D01*
X63136904Y-81435657D02*
X63089285Y-81340419D01*
X63089285Y-81340419D02*
X63041666Y-81292800D01*
X63041666Y-81292800D02*
X62946428Y-81245180D01*
X62946428Y-81245180D02*
X62755952Y-81245180D01*
X62755952Y-81245180D02*
X62660714Y-81292800D01*
X62660714Y-81292800D02*
X62613095Y-81340419D01*
X62613095Y-81340419D02*
X62565476Y-81435657D01*
X62565476Y-81435657D02*
X62565476Y-82245180D01*
X61613095Y-82245180D02*
X62089285Y-82245180D01*
X62089285Y-82245180D02*
X62136904Y-81768990D01*
X62136904Y-81768990D02*
X62089285Y-81816609D01*
X62089285Y-81816609D02*
X61994047Y-81864228D01*
X61994047Y-81864228D02*
X61755952Y-81864228D01*
X61755952Y-81864228D02*
X61660714Y-81816609D01*
X61660714Y-81816609D02*
X61613095Y-81768990D01*
X61613095Y-81768990D02*
X61565476Y-81673752D01*
X61565476Y-81673752D02*
X61565476Y-81435657D01*
X61565476Y-81435657D02*
X61613095Y-81340419D01*
X61613095Y-81340419D02*
X61660714Y-81292800D01*
X61660714Y-81292800D02*
X61755952Y-81245180D01*
X61755952Y-81245180D02*
X61994047Y-81245180D01*
X61994047Y-81245180D02*
X62089285Y-81292800D01*
X62089285Y-81292800D02*
X62136904Y-81340419D01*
X51819580Y-68842857D02*
X51867200Y-68890476D01*
X51867200Y-68890476D02*
X51914819Y-69033333D01*
X51914819Y-69033333D02*
X51914819Y-69128571D01*
X51914819Y-69128571D02*
X51867200Y-69271428D01*
X51867200Y-69271428D02*
X51771961Y-69366666D01*
X51771961Y-69366666D02*
X51676723Y-69414285D01*
X51676723Y-69414285D02*
X51486247Y-69461904D01*
X51486247Y-69461904D02*
X51343390Y-69461904D01*
X51343390Y-69461904D02*
X51152914Y-69414285D01*
X51152914Y-69414285D02*
X51057676Y-69366666D01*
X51057676Y-69366666D02*
X50962438Y-69271428D01*
X50962438Y-69271428D02*
X50914819Y-69128571D01*
X50914819Y-69128571D02*
X50914819Y-69033333D01*
X50914819Y-69033333D02*
X50962438Y-68890476D01*
X50962438Y-68890476D02*
X51010057Y-68842857D01*
X51914819Y-67890476D02*
X51914819Y-68461904D01*
X51914819Y-68176190D02*
X50914819Y-68176190D01*
X50914819Y-68176190D02*
X51057676Y-68271428D01*
X51057676Y-68271428D02*
X51152914Y-68366666D01*
X51152914Y-68366666D02*
X51200533Y-68461904D01*
X51248152Y-67033333D02*
X51914819Y-67033333D01*
X50867200Y-67271428D02*
X51581485Y-67509523D01*
X51581485Y-67509523D02*
X51581485Y-66890476D01*
X46967261Y-83500057D02*
X46872023Y-83452438D01*
X46872023Y-83452438D02*
X46776785Y-83357200D01*
X46776785Y-83357200D02*
X46633928Y-83214342D01*
X46633928Y-83214342D02*
X46538690Y-83166723D01*
X46538690Y-83166723D02*
X46443452Y-83166723D01*
X46491071Y-83404819D02*
X46395833Y-83357200D01*
X46395833Y-83357200D02*
X46300595Y-83261961D01*
X46300595Y-83261961D02*
X46252976Y-83071485D01*
X46252976Y-83071485D02*
X46252976Y-82738152D01*
X46252976Y-82738152D02*
X46300595Y-82547676D01*
X46300595Y-82547676D02*
X46395833Y-82452438D01*
X46395833Y-82452438D02*
X46491071Y-82404819D01*
X46491071Y-82404819D02*
X46681547Y-82404819D01*
X46681547Y-82404819D02*
X46776785Y-82452438D01*
X46776785Y-82452438D02*
X46872023Y-82547676D01*
X46872023Y-82547676D02*
X46919642Y-82738152D01*
X46919642Y-82738152D02*
X46919642Y-83071485D01*
X46919642Y-83071485D02*
X46872023Y-83261961D01*
X46872023Y-83261961D02*
X46776785Y-83357200D01*
X46776785Y-83357200D02*
X46681547Y-83404819D01*
X46681547Y-83404819D02*
X46491071Y-83404819D01*
X47872023Y-83404819D02*
X47300595Y-83404819D01*
X47586309Y-83404819D02*
X47586309Y-82404819D01*
X47586309Y-82404819D02*
X47491071Y-82547676D01*
X47491071Y-82547676D02*
X47395833Y-82642914D01*
X47395833Y-82642914D02*
X47300595Y-82690533D01*
X43761905Y-86554819D02*
X43761905Y-87364342D01*
X43761905Y-87364342D02*
X43809524Y-87459580D01*
X43809524Y-87459580D02*
X43857143Y-87507200D01*
X43857143Y-87507200D02*
X43952381Y-87554819D01*
X43952381Y-87554819D02*
X44142857Y-87554819D01*
X44142857Y-87554819D02*
X44238095Y-87507200D01*
X44238095Y-87507200D02*
X44285714Y-87459580D01*
X44285714Y-87459580D02*
X44333333Y-87364342D01*
X44333333Y-87364342D02*
X44333333Y-86554819D01*
X45333333Y-87554819D02*
X44761905Y-87554819D01*
X45047619Y-87554819D02*
X45047619Y-86554819D01*
X45047619Y-86554819D02*
X44952381Y-86697676D01*
X44952381Y-86697676D02*
X44857143Y-86792914D01*
X44857143Y-86792914D02*
X44761905Y-86840533D01*
X45714286Y-86650057D02*
X45761905Y-86602438D01*
X45761905Y-86602438D02*
X45857143Y-86554819D01*
X45857143Y-86554819D02*
X46095238Y-86554819D01*
X46095238Y-86554819D02*
X46190476Y-86602438D01*
X46190476Y-86602438D02*
X46238095Y-86650057D01*
X46238095Y-86650057D02*
X46285714Y-86745295D01*
X46285714Y-86745295D02*
X46285714Y-86840533D01*
X46285714Y-86840533D02*
X46238095Y-86983390D01*
X46238095Y-86983390D02*
X45666667Y-87554819D01*
X45666667Y-87554819D02*
X46285714Y-87554819D01*
X48524405Y-73204819D02*
X48524405Y-74014342D01*
X48524405Y-74014342D02*
X48572024Y-74109580D01*
X48572024Y-74109580D02*
X48619643Y-74157200D01*
X48619643Y-74157200D02*
X48714881Y-74204819D01*
X48714881Y-74204819D02*
X48905357Y-74204819D01*
X48905357Y-74204819D02*
X49000595Y-74157200D01*
X49000595Y-74157200D02*
X49048214Y-74109580D01*
X49048214Y-74109580D02*
X49095833Y-74014342D01*
X49095833Y-74014342D02*
X49095833Y-73204819D01*
X50095833Y-74204819D02*
X49524405Y-74204819D01*
X49810119Y-74204819D02*
X49810119Y-73204819D01*
X49810119Y-73204819D02*
X49714881Y-73347676D01*
X49714881Y-73347676D02*
X49619643Y-73442914D01*
X49619643Y-73442914D02*
X49524405Y-73490533D01*
X51048214Y-74204819D02*
X50476786Y-74204819D01*
X50762500Y-74204819D02*
X50762500Y-73204819D01*
X50762500Y-73204819D02*
X50667262Y-73347676D01*
X50667262Y-73347676D02*
X50572024Y-73442914D01*
X50572024Y-73442914D02*
X50476786Y-73490533D01*
X41523333Y-71084819D02*
X41190000Y-70608628D01*
X40951905Y-71084819D02*
X40951905Y-70084819D01*
X40951905Y-70084819D02*
X41332857Y-70084819D01*
X41332857Y-70084819D02*
X41428095Y-70132438D01*
X41428095Y-70132438D02*
X41475714Y-70180057D01*
X41475714Y-70180057D02*
X41523333Y-70275295D01*
X41523333Y-70275295D02*
X41523333Y-70418152D01*
X41523333Y-70418152D02*
X41475714Y-70513390D01*
X41475714Y-70513390D02*
X41428095Y-70561009D01*
X41428095Y-70561009D02*
X41332857Y-70608628D01*
X41332857Y-70608628D02*
X40951905Y-70608628D01*
X42475714Y-71084819D02*
X41904286Y-71084819D01*
X42190000Y-71084819D02*
X42190000Y-70084819D01*
X42190000Y-70084819D02*
X42094762Y-70227676D01*
X42094762Y-70227676D02*
X41999524Y-70322914D01*
X41999524Y-70322914D02*
X41904286Y-70370533D01*
X38759580Y-95166666D02*
X38807200Y-95214285D01*
X38807200Y-95214285D02*
X38854819Y-95357142D01*
X38854819Y-95357142D02*
X38854819Y-95452380D01*
X38854819Y-95452380D02*
X38807200Y-95595237D01*
X38807200Y-95595237D02*
X38711961Y-95690475D01*
X38711961Y-95690475D02*
X38616723Y-95738094D01*
X38616723Y-95738094D02*
X38426247Y-95785713D01*
X38426247Y-95785713D02*
X38283390Y-95785713D01*
X38283390Y-95785713D02*
X38092914Y-95738094D01*
X38092914Y-95738094D02*
X37997676Y-95690475D01*
X37997676Y-95690475D02*
X37902438Y-95595237D01*
X37902438Y-95595237D02*
X37854819Y-95452380D01*
X37854819Y-95452380D02*
X37854819Y-95357142D01*
X37854819Y-95357142D02*
X37902438Y-95214285D01*
X37902438Y-95214285D02*
X37950057Y-95166666D01*
X38283390Y-94595237D02*
X38235771Y-94690475D01*
X38235771Y-94690475D02*
X38188152Y-94738094D01*
X38188152Y-94738094D02*
X38092914Y-94785713D01*
X38092914Y-94785713D02*
X38045295Y-94785713D01*
X38045295Y-94785713D02*
X37950057Y-94738094D01*
X37950057Y-94738094D02*
X37902438Y-94690475D01*
X37902438Y-94690475D02*
X37854819Y-94595237D01*
X37854819Y-94595237D02*
X37854819Y-94404761D01*
X37854819Y-94404761D02*
X37902438Y-94309523D01*
X37902438Y-94309523D02*
X37950057Y-94261904D01*
X37950057Y-94261904D02*
X38045295Y-94214285D01*
X38045295Y-94214285D02*
X38092914Y-94214285D01*
X38092914Y-94214285D02*
X38188152Y-94261904D01*
X38188152Y-94261904D02*
X38235771Y-94309523D01*
X38235771Y-94309523D02*
X38283390Y-94404761D01*
X38283390Y-94404761D02*
X38283390Y-94595237D01*
X38283390Y-94595237D02*
X38331009Y-94690475D01*
X38331009Y-94690475D02*
X38378628Y-94738094D01*
X38378628Y-94738094D02*
X38473866Y-94785713D01*
X38473866Y-94785713D02*
X38664342Y-94785713D01*
X38664342Y-94785713D02*
X38759580Y-94738094D01*
X38759580Y-94738094D02*
X38807200Y-94690475D01*
X38807200Y-94690475D02*
X38854819Y-94595237D01*
X38854819Y-94595237D02*
X38854819Y-94404761D01*
X38854819Y-94404761D02*
X38807200Y-94309523D01*
X38807200Y-94309523D02*
X38759580Y-94261904D01*
X38759580Y-94261904D02*
X38664342Y-94214285D01*
X38664342Y-94214285D02*
X38473866Y-94214285D01*
X38473866Y-94214285D02*
X38378628Y-94261904D01*
X38378628Y-94261904D02*
X38331009Y-94309523D01*
X38331009Y-94309523D02*
X38283390Y-94404761D01*
X35250595Y-93854819D02*
X35250595Y-94664342D01*
X35250595Y-94664342D02*
X35298214Y-94759580D01*
X35298214Y-94759580D02*
X35345833Y-94807200D01*
X35345833Y-94807200D02*
X35441071Y-94854819D01*
X35441071Y-94854819D02*
X35631547Y-94854819D01*
X35631547Y-94854819D02*
X35726785Y-94807200D01*
X35726785Y-94807200D02*
X35774404Y-94759580D01*
X35774404Y-94759580D02*
X35822023Y-94664342D01*
X35822023Y-94664342D02*
X35822023Y-93854819D01*
X36202976Y-93854819D02*
X36869642Y-93854819D01*
X36869642Y-93854819D02*
X36441071Y-94854819D01*
X52057142Y-71754819D02*
X51723809Y-71278628D01*
X51485714Y-71754819D02*
X51485714Y-70754819D01*
X51485714Y-70754819D02*
X51866666Y-70754819D01*
X51866666Y-70754819D02*
X51961904Y-70802438D01*
X51961904Y-70802438D02*
X52009523Y-70850057D01*
X52009523Y-70850057D02*
X52057142Y-70945295D01*
X52057142Y-70945295D02*
X52057142Y-71088152D01*
X52057142Y-71088152D02*
X52009523Y-71183390D01*
X52009523Y-71183390D02*
X51961904Y-71231009D01*
X51961904Y-71231009D02*
X51866666Y-71278628D01*
X51866666Y-71278628D02*
X51485714Y-71278628D01*
X53009523Y-71754819D02*
X52438095Y-71754819D01*
X52723809Y-71754819D02*
X52723809Y-70754819D01*
X52723809Y-70754819D02*
X52628571Y-70897676D01*
X52628571Y-70897676D02*
X52533333Y-70992914D01*
X52533333Y-70992914D02*
X52438095Y-71040533D01*
X53485714Y-71754819D02*
X53676190Y-71754819D01*
X53676190Y-71754819D02*
X53771428Y-71707200D01*
X53771428Y-71707200D02*
X53819047Y-71659580D01*
X53819047Y-71659580D02*
X53914285Y-71516723D01*
X53914285Y-71516723D02*
X53961904Y-71326247D01*
X53961904Y-71326247D02*
X53961904Y-70945295D01*
X53961904Y-70945295D02*
X53914285Y-70850057D01*
X53914285Y-70850057D02*
X53866666Y-70802438D01*
X53866666Y-70802438D02*
X53771428Y-70754819D01*
X53771428Y-70754819D02*
X53580952Y-70754819D01*
X53580952Y-70754819D02*
X53485714Y-70802438D01*
X53485714Y-70802438D02*
X53438095Y-70850057D01*
X53438095Y-70850057D02*
X53390476Y-70945295D01*
X53390476Y-70945295D02*
X53390476Y-71183390D01*
X53390476Y-71183390D02*
X53438095Y-71278628D01*
X53438095Y-71278628D02*
X53485714Y-71326247D01*
X53485714Y-71326247D02*
X53580952Y-71373866D01*
X53580952Y-71373866D02*
X53771428Y-71373866D01*
X53771428Y-71373866D02*
X53866666Y-71326247D01*
X53866666Y-71326247D02*
X53914285Y-71278628D01*
X53914285Y-71278628D02*
X53961904Y-71183390D01*
X61757142Y-80654819D02*
X61423809Y-80178628D01*
X61185714Y-80654819D02*
X61185714Y-79654819D01*
X61185714Y-79654819D02*
X61566666Y-79654819D01*
X61566666Y-79654819D02*
X61661904Y-79702438D01*
X61661904Y-79702438D02*
X61709523Y-79750057D01*
X61709523Y-79750057D02*
X61757142Y-79845295D01*
X61757142Y-79845295D02*
X61757142Y-79988152D01*
X61757142Y-79988152D02*
X61709523Y-80083390D01*
X61709523Y-80083390D02*
X61661904Y-80131009D01*
X61661904Y-80131009D02*
X61566666Y-80178628D01*
X61566666Y-80178628D02*
X61185714Y-80178628D01*
X62138095Y-79750057D02*
X62185714Y-79702438D01*
X62185714Y-79702438D02*
X62280952Y-79654819D01*
X62280952Y-79654819D02*
X62519047Y-79654819D01*
X62519047Y-79654819D02*
X62614285Y-79702438D01*
X62614285Y-79702438D02*
X62661904Y-79750057D01*
X62661904Y-79750057D02*
X62709523Y-79845295D01*
X62709523Y-79845295D02*
X62709523Y-79940533D01*
X62709523Y-79940533D02*
X62661904Y-80083390D01*
X62661904Y-80083390D02*
X62090476Y-80654819D01*
X62090476Y-80654819D02*
X62709523Y-80654819D01*
X63042857Y-79654819D02*
X63661904Y-79654819D01*
X63661904Y-79654819D02*
X63328571Y-80035771D01*
X63328571Y-80035771D02*
X63471428Y-80035771D01*
X63471428Y-80035771D02*
X63566666Y-80083390D01*
X63566666Y-80083390D02*
X63614285Y-80131009D01*
X63614285Y-80131009D02*
X63661904Y-80226247D01*
X63661904Y-80226247D02*
X63661904Y-80464342D01*
X63661904Y-80464342D02*
X63614285Y-80559580D01*
X63614285Y-80559580D02*
X63566666Y-80607200D01*
X63566666Y-80607200D02*
X63471428Y-80654819D01*
X63471428Y-80654819D02*
X63185714Y-80654819D01*
X63185714Y-80654819D02*
X63090476Y-80607200D01*
X63090476Y-80607200D02*
X63042857Y-80559580D01*
X35811905Y-60554819D02*
X35811905Y-59554819D01*
X35811905Y-59554819D02*
X36050000Y-59554819D01*
X36050000Y-59554819D02*
X36192857Y-59602438D01*
X36192857Y-59602438D02*
X36288095Y-59697676D01*
X36288095Y-59697676D02*
X36335714Y-59792914D01*
X36335714Y-59792914D02*
X36383333Y-59983390D01*
X36383333Y-59983390D02*
X36383333Y-60126247D01*
X36383333Y-60126247D02*
X36335714Y-60316723D01*
X36335714Y-60316723D02*
X36288095Y-60411961D01*
X36288095Y-60411961D02*
X36192857Y-60507200D01*
X36192857Y-60507200D02*
X36050000Y-60554819D01*
X36050000Y-60554819D02*
X35811905Y-60554819D01*
X36764286Y-59650057D02*
X36811905Y-59602438D01*
X36811905Y-59602438D02*
X36907143Y-59554819D01*
X36907143Y-59554819D02*
X37145238Y-59554819D01*
X37145238Y-59554819D02*
X37240476Y-59602438D01*
X37240476Y-59602438D02*
X37288095Y-59650057D01*
X37288095Y-59650057D02*
X37335714Y-59745295D01*
X37335714Y-59745295D02*
X37335714Y-59840533D01*
X37335714Y-59840533D02*
X37288095Y-59983390D01*
X37288095Y-59983390D02*
X36716667Y-60554819D01*
X36716667Y-60554819D02*
X37335714Y-60554819D01*
X50624819Y-86756666D02*
X50148628Y-87089999D01*
X50624819Y-87328094D02*
X49624819Y-87328094D01*
X49624819Y-87328094D02*
X49624819Y-86947142D01*
X49624819Y-86947142D02*
X49672438Y-86851904D01*
X49672438Y-86851904D02*
X49720057Y-86804285D01*
X49720057Y-86804285D02*
X49815295Y-86756666D01*
X49815295Y-86756666D02*
X49958152Y-86756666D01*
X49958152Y-86756666D02*
X50053390Y-86804285D01*
X50053390Y-86804285D02*
X50101009Y-86851904D01*
X50101009Y-86851904D02*
X50148628Y-86947142D01*
X50148628Y-86947142D02*
X50148628Y-87328094D01*
X49624819Y-85899523D02*
X49624819Y-86089999D01*
X49624819Y-86089999D02*
X49672438Y-86185237D01*
X49672438Y-86185237D02*
X49720057Y-86232856D01*
X49720057Y-86232856D02*
X49862914Y-86328094D01*
X49862914Y-86328094D02*
X50053390Y-86375713D01*
X50053390Y-86375713D02*
X50434342Y-86375713D01*
X50434342Y-86375713D02*
X50529580Y-86328094D01*
X50529580Y-86328094D02*
X50577200Y-86280475D01*
X50577200Y-86280475D02*
X50624819Y-86185237D01*
X50624819Y-86185237D02*
X50624819Y-85994761D01*
X50624819Y-85994761D02*
X50577200Y-85899523D01*
X50577200Y-85899523D02*
X50529580Y-85851904D01*
X50529580Y-85851904D02*
X50434342Y-85804285D01*
X50434342Y-85804285D02*
X50196247Y-85804285D01*
X50196247Y-85804285D02*
X50101009Y-85851904D01*
X50101009Y-85851904D02*
X50053390Y-85899523D01*
X50053390Y-85899523D02*
X50005771Y-85994761D01*
X50005771Y-85994761D02*
X50005771Y-86185237D01*
X50005771Y-86185237D02*
X50053390Y-86280475D01*
X50053390Y-86280475D02*
X50101009Y-86328094D01*
X50101009Y-86328094D02*
X50196247Y-86375713D01*
X37054819Y-92242857D02*
X36578628Y-92576190D01*
X37054819Y-92814285D02*
X36054819Y-92814285D01*
X36054819Y-92814285D02*
X36054819Y-92433333D01*
X36054819Y-92433333D02*
X36102438Y-92338095D01*
X36102438Y-92338095D02*
X36150057Y-92290476D01*
X36150057Y-92290476D02*
X36245295Y-92242857D01*
X36245295Y-92242857D02*
X36388152Y-92242857D01*
X36388152Y-92242857D02*
X36483390Y-92290476D01*
X36483390Y-92290476D02*
X36531009Y-92338095D01*
X36531009Y-92338095D02*
X36578628Y-92433333D01*
X36578628Y-92433333D02*
X36578628Y-92814285D01*
X37054819Y-91290476D02*
X37054819Y-91861904D01*
X37054819Y-91576190D02*
X36054819Y-91576190D01*
X36054819Y-91576190D02*
X36197676Y-91671428D01*
X36197676Y-91671428D02*
X36292914Y-91766666D01*
X36292914Y-91766666D02*
X36340533Y-91861904D01*
X36054819Y-90957142D02*
X36054819Y-90290476D01*
X36054819Y-90290476D02*
X37054819Y-90719047D01*
X41259580Y-69146666D02*
X41307200Y-69194285D01*
X41307200Y-69194285D02*
X41354819Y-69337142D01*
X41354819Y-69337142D02*
X41354819Y-69432380D01*
X41354819Y-69432380D02*
X41307200Y-69575237D01*
X41307200Y-69575237D02*
X41211961Y-69670475D01*
X41211961Y-69670475D02*
X41116723Y-69718094D01*
X41116723Y-69718094D02*
X40926247Y-69765713D01*
X40926247Y-69765713D02*
X40783390Y-69765713D01*
X40783390Y-69765713D02*
X40592914Y-69718094D01*
X40592914Y-69718094D02*
X40497676Y-69670475D01*
X40497676Y-69670475D02*
X40402438Y-69575237D01*
X40402438Y-69575237D02*
X40354819Y-69432380D01*
X40354819Y-69432380D02*
X40354819Y-69337142D01*
X40354819Y-69337142D02*
X40402438Y-69194285D01*
X40402438Y-69194285D02*
X40450057Y-69146666D01*
X40354819Y-68813332D02*
X40354819Y-68146666D01*
X40354819Y-68146666D02*
X41354819Y-68575237D01*
X57257142Y-76059580D02*
X57209523Y-76107200D01*
X57209523Y-76107200D02*
X57066666Y-76154819D01*
X57066666Y-76154819D02*
X56971428Y-76154819D01*
X56971428Y-76154819D02*
X56828571Y-76107200D01*
X56828571Y-76107200D02*
X56733333Y-76011961D01*
X56733333Y-76011961D02*
X56685714Y-75916723D01*
X56685714Y-75916723D02*
X56638095Y-75726247D01*
X56638095Y-75726247D02*
X56638095Y-75583390D01*
X56638095Y-75583390D02*
X56685714Y-75392914D01*
X56685714Y-75392914D02*
X56733333Y-75297676D01*
X56733333Y-75297676D02*
X56828571Y-75202438D01*
X56828571Y-75202438D02*
X56971428Y-75154819D01*
X56971428Y-75154819D02*
X57066666Y-75154819D01*
X57066666Y-75154819D02*
X57209523Y-75202438D01*
X57209523Y-75202438D02*
X57257142Y-75250057D01*
X58209523Y-76154819D02*
X57638095Y-76154819D01*
X57923809Y-76154819D02*
X57923809Y-75154819D01*
X57923809Y-75154819D02*
X57828571Y-75297676D01*
X57828571Y-75297676D02*
X57733333Y-75392914D01*
X57733333Y-75392914D02*
X57638095Y-75440533D01*
X58542857Y-75154819D02*
X59209523Y-75154819D01*
X59209523Y-75154819D02*
X58780952Y-76154819D01*
X49163095Y-63404819D02*
X49163095Y-64214342D01*
X49163095Y-64214342D02*
X49210714Y-64309580D01*
X49210714Y-64309580D02*
X49258333Y-64357200D01*
X49258333Y-64357200D02*
X49353571Y-64404819D01*
X49353571Y-64404819D02*
X49544047Y-64404819D01*
X49544047Y-64404819D02*
X49639285Y-64357200D01*
X49639285Y-64357200D02*
X49686904Y-64309580D01*
X49686904Y-64309580D02*
X49734523Y-64214342D01*
X49734523Y-64214342D02*
X49734523Y-63404819D01*
X50639285Y-63404819D02*
X50448809Y-63404819D01*
X50448809Y-63404819D02*
X50353571Y-63452438D01*
X50353571Y-63452438D02*
X50305952Y-63500057D01*
X50305952Y-63500057D02*
X50210714Y-63642914D01*
X50210714Y-63642914D02*
X50163095Y-63833390D01*
X50163095Y-63833390D02*
X50163095Y-64214342D01*
X50163095Y-64214342D02*
X50210714Y-64309580D01*
X50210714Y-64309580D02*
X50258333Y-64357200D01*
X50258333Y-64357200D02*
X50353571Y-64404819D01*
X50353571Y-64404819D02*
X50544047Y-64404819D01*
X50544047Y-64404819D02*
X50639285Y-64357200D01*
X50639285Y-64357200D02*
X50686904Y-64309580D01*
X50686904Y-64309580D02*
X50734523Y-64214342D01*
X50734523Y-64214342D02*
X50734523Y-63976247D01*
X50734523Y-63976247D02*
X50686904Y-63881009D01*
X50686904Y-63881009D02*
X50639285Y-63833390D01*
X50639285Y-63833390D02*
X50544047Y-63785771D01*
X50544047Y-63785771D02*
X50353571Y-63785771D01*
X50353571Y-63785771D02*
X50258333Y-63833390D01*
X50258333Y-63833390D02*
X50210714Y-63881009D01*
X50210714Y-63881009D02*
X50163095Y-63976247D01*
X67957142Y-80754819D02*
X67623809Y-80278628D01*
X67385714Y-80754819D02*
X67385714Y-79754819D01*
X67385714Y-79754819D02*
X67766666Y-79754819D01*
X67766666Y-79754819D02*
X67861904Y-79802438D01*
X67861904Y-79802438D02*
X67909523Y-79850057D01*
X67909523Y-79850057D02*
X67957142Y-79945295D01*
X67957142Y-79945295D02*
X67957142Y-80088152D01*
X67957142Y-80088152D02*
X67909523Y-80183390D01*
X67909523Y-80183390D02*
X67861904Y-80231009D01*
X67861904Y-80231009D02*
X67766666Y-80278628D01*
X67766666Y-80278628D02*
X67385714Y-80278628D01*
X68338095Y-79850057D02*
X68385714Y-79802438D01*
X68385714Y-79802438D02*
X68480952Y-79754819D01*
X68480952Y-79754819D02*
X68719047Y-79754819D01*
X68719047Y-79754819D02*
X68814285Y-79802438D01*
X68814285Y-79802438D02*
X68861904Y-79850057D01*
X68861904Y-79850057D02*
X68909523Y-79945295D01*
X68909523Y-79945295D02*
X68909523Y-80040533D01*
X68909523Y-80040533D02*
X68861904Y-80183390D01*
X68861904Y-80183390D02*
X68290476Y-80754819D01*
X68290476Y-80754819D02*
X68909523Y-80754819D01*
X69861904Y-80754819D02*
X69290476Y-80754819D01*
X69576190Y-80754819D02*
X69576190Y-79754819D01*
X69576190Y-79754819D02*
X69480952Y-79897676D01*
X69480952Y-79897676D02*
X69385714Y-79992914D01*
X69385714Y-79992914D02*
X69290476Y-80040533D01*
X58057142Y-77459580D02*
X58009523Y-77507200D01*
X58009523Y-77507200D02*
X57866666Y-77554819D01*
X57866666Y-77554819D02*
X57771428Y-77554819D01*
X57771428Y-77554819D02*
X57628571Y-77507200D01*
X57628571Y-77507200D02*
X57533333Y-77411961D01*
X57533333Y-77411961D02*
X57485714Y-77316723D01*
X57485714Y-77316723D02*
X57438095Y-77126247D01*
X57438095Y-77126247D02*
X57438095Y-76983390D01*
X57438095Y-76983390D02*
X57485714Y-76792914D01*
X57485714Y-76792914D02*
X57533333Y-76697676D01*
X57533333Y-76697676D02*
X57628571Y-76602438D01*
X57628571Y-76602438D02*
X57771428Y-76554819D01*
X57771428Y-76554819D02*
X57866666Y-76554819D01*
X57866666Y-76554819D02*
X58009523Y-76602438D01*
X58009523Y-76602438D02*
X58057142Y-76650057D01*
X59009523Y-77554819D02*
X58438095Y-77554819D01*
X58723809Y-77554819D02*
X58723809Y-76554819D01*
X58723809Y-76554819D02*
X58628571Y-76697676D01*
X58628571Y-76697676D02*
X58533333Y-76792914D01*
X58533333Y-76792914D02*
X58438095Y-76840533D01*
X59866666Y-76554819D02*
X59676190Y-76554819D01*
X59676190Y-76554819D02*
X59580952Y-76602438D01*
X59580952Y-76602438D02*
X59533333Y-76650057D01*
X59533333Y-76650057D02*
X59438095Y-76792914D01*
X59438095Y-76792914D02*
X59390476Y-76983390D01*
X59390476Y-76983390D02*
X59390476Y-77364342D01*
X59390476Y-77364342D02*
X59438095Y-77459580D01*
X59438095Y-77459580D02*
X59485714Y-77507200D01*
X59485714Y-77507200D02*
X59580952Y-77554819D01*
X59580952Y-77554819D02*
X59771428Y-77554819D01*
X59771428Y-77554819D02*
X59866666Y-77507200D01*
X59866666Y-77507200D02*
X59914285Y-77459580D01*
X59914285Y-77459580D02*
X59961904Y-77364342D01*
X59961904Y-77364342D02*
X59961904Y-77126247D01*
X59961904Y-77126247D02*
X59914285Y-77031009D01*
X59914285Y-77031009D02*
X59866666Y-76983390D01*
X59866666Y-76983390D02*
X59771428Y-76935771D01*
X59771428Y-76935771D02*
X59580952Y-76935771D01*
X59580952Y-76935771D02*
X59485714Y-76983390D01*
X59485714Y-76983390D02*
X59438095Y-77031009D01*
X59438095Y-77031009D02*
X59390476Y-77126247D01*
X49657142Y-82524819D02*
X49323809Y-82048628D01*
X49085714Y-82524819D02*
X49085714Y-81524819D01*
X49085714Y-81524819D02*
X49466666Y-81524819D01*
X49466666Y-81524819D02*
X49561904Y-81572438D01*
X49561904Y-81572438D02*
X49609523Y-81620057D01*
X49609523Y-81620057D02*
X49657142Y-81715295D01*
X49657142Y-81715295D02*
X49657142Y-81858152D01*
X49657142Y-81858152D02*
X49609523Y-81953390D01*
X49609523Y-81953390D02*
X49561904Y-82001009D01*
X49561904Y-82001009D02*
X49466666Y-82048628D01*
X49466666Y-82048628D02*
X49085714Y-82048628D01*
X50609523Y-82524819D02*
X50038095Y-82524819D01*
X50323809Y-82524819D02*
X50323809Y-81524819D01*
X50323809Y-81524819D02*
X50228571Y-81667676D01*
X50228571Y-81667676D02*
X50133333Y-81762914D01*
X50133333Y-81762914D02*
X50038095Y-81810533D01*
X51561904Y-82524819D02*
X50990476Y-82524819D01*
X51276190Y-82524819D02*
X51276190Y-81524819D01*
X51276190Y-81524819D02*
X51180952Y-81667676D01*
X51180952Y-81667676D02*
X51085714Y-81762914D01*
X51085714Y-81762914D02*
X50990476Y-81810533D01*
X36950595Y-67004819D02*
X36950595Y-67814342D01*
X36950595Y-67814342D02*
X36998214Y-67909580D01*
X36998214Y-67909580D02*
X37045833Y-67957200D01*
X37045833Y-67957200D02*
X37141071Y-68004819D01*
X37141071Y-68004819D02*
X37331547Y-68004819D01*
X37331547Y-68004819D02*
X37426785Y-67957200D01*
X37426785Y-67957200D02*
X37474404Y-67909580D01*
X37474404Y-67909580D02*
X37522023Y-67814342D01*
X37522023Y-67814342D02*
X37522023Y-67004819D01*
X38426785Y-67338152D02*
X38426785Y-68004819D01*
X38188690Y-66957200D02*
X37950595Y-67671485D01*
X37950595Y-67671485D02*
X38569642Y-67671485D01*
X52167142Y-70054819D02*
X51833809Y-69578628D01*
X51595714Y-70054819D02*
X51595714Y-69054819D01*
X51595714Y-69054819D02*
X51976666Y-69054819D01*
X51976666Y-69054819D02*
X52071904Y-69102438D01*
X52071904Y-69102438D02*
X52119523Y-69150057D01*
X52119523Y-69150057D02*
X52167142Y-69245295D01*
X52167142Y-69245295D02*
X52167142Y-69388152D01*
X52167142Y-69388152D02*
X52119523Y-69483390D01*
X52119523Y-69483390D02*
X52071904Y-69531009D01*
X52071904Y-69531009D02*
X51976666Y-69578628D01*
X51976666Y-69578628D02*
X51595714Y-69578628D01*
X52548095Y-69150057D02*
X52595714Y-69102438D01*
X52595714Y-69102438D02*
X52690952Y-69054819D01*
X52690952Y-69054819D02*
X52929047Y-69054819D01*
X52929047Y-69054819D02*
X53024285Y-69102438D01*
X53024285Y-69102438D02*
X53071904Y-69150057D01*
X53071904Y-69150057D02*
X53119523Y-69245295D01*
X53119523Y-69245295D02*
X53119523Y-69340533D01*
X53119523Y-69340533D02*
X53071904Y-69483390D01*
X53071904Y-69483390D02*
X52500476Y-70054819D01*
X52500476Y-70054819D02*
X53119523Y-70054819D01*
X53738571Y-69054819D02*
X53833809Y-69054819D01*
X53833809Y-69054819D02*
X53929047Y-69102438D01*
X53929047Y-69102438D02*
X53976666Y-69150057D01*
X53976666Y-69150057D02*
X54024285Y-69245295D01*
X54024285Y-69245295D02*
X54071904Y-69435771D01*
X54071904Y-69435771D02*
X54071904Y-69673866D01*
X54071904Y-69673866D02*
X54024285Y-69864342D01*
X54024285Y-69864342D02*
X53976666Y-69959580D01*
X53976666Y-69959580D02*
X53929047Y-70007200D01*
X53929047Y-70007200D02*
X53833809Y-70054819D01*
X53833809Y-70054819D02*
X53738571Y-70054819D01*
X53738571Y-70054819D02*
X53643333Y-70007200D01*
X53643333Y-70007200D02*
X53595714Y-69959580D01*
X53595714Y-69959580D02*
X53548095Y-69864342D01*
X53548095Y-69864342D02*
X53500476Y-69673866D01*
X53500476Y-69673866D02*
X53500476Y-69435771D01*
X53500476Y-69435771D02*
X53548095Y-69245295D01*
X53548095Y-69245295D02*
X53595714Y-69150057D01*
X53595714Y-69150057D02*
X53643333Y-69102438D01*
X53643333Y-69102438D02*
X53738571Y-69054819D01*
X37688095Y-73954819D02*
X37688095Y-74764342D01*
X37688095Y-74764342D02*
X37735714Y-74859580D01*
X37735714Y-74859580D02*
X37783333Y-74907200D01*
X37783333Y-74907200D02*
X37878571Y-74954819D01*
X37878571Y-74954819D02*
X38069047Y-74954819D01*
X38069047Y-74954819D02*
X38164285Y-74907200D01*
X38164285Y-74907200D02*
X38211904Y-74859580D01*
X38211904Y-74859580D02*
X38259523Y-74764342D01*
X38259523Y-74764342D02*
X38259523Y-73954819D01*
X38640476Y-73954819D02*
X39259523Y-73954819D01*
X39259523Y-73954819D02*
X38926190Y-74335771D01*
X38926190Y-74335771D02*
X39069047Y-74335771D01*
X39069047Y-74335771D02*
X39164285Y-74383390D01*
X39164285Y-74383390D02*
X39211904Y-74431009D01*
X39211904Y-74431009D02*
X39259523Y-74526247D01*
X39259523Y-74526247D02*
X39259523Y-74764342D01*
X39259523Y-74764342D02*
X39211904Y-74859580D01*
X39211904Y-74859580D02*
X39164285Y-74907200D01*
X39164285Y-74907200D02*
X39069047Y-74954819D01*
X39069047Y-74954819D02*
X38783333Y-74954819D01*
X38783333Y-74954819D02*
X38688095Y-74907200D01*
X38688095Y-74907200D02*
X38640476Y-74859580D01*
X33214285Y-67721009D02*
X33357142Y-67768628D01*
X33357142Y-67768628D02*
X33404761Y-67816247D01*
X33404761Y-67816247D02*
X33452380Y-67911485D01*
X33452380Y-67911485D02*
X33452380Y-68054342D01*
X33452380Y-68054342D02*
X33404761Y-68149580D01*
X33404761Y-68149580D02*
X33357142Y-68197200D01*
X33357142Y-68197200D02*
X33261904Y-68244819D01*
X33261904Y-68244819D02*
X32880952Y-68244819D01*
X32880952Y-68244819D02*
X32880952Y-67244819D01*
X32880952Y-67244819D02*
X33214285Y-67244819D01*
X33214285Y-67244819D02*
X33309523Y-67292438D01*
X33309523Y-67292438D02*
X33357142Y-67340057D01*
X33357142Y-67340057D02*
X33404761Y-67435295D01*
X33404761Y-67435295D02*
X33404761Y-67530533D01*
X33404761Y-67530533D02*
X33357142Y-67625771D01*
X33357142Y-67625771D02*
X33309523Y-67673390D01*
X33309523Y-67673390D02*
X33214285Y-67721009D01*
X33214285Y-67721009D02*
X32880952Y-67721009D01*
X33738095Y-67244819D02*
X34309523Y-67244819D01*
X34023809Y-68244819D02*
X34023809Y-67244819D01*
X35166666Y-68244819D02*
X34595238Y-68244819D01*
X34880952Y-68244819D02*
X34880952Y-67244819D01*
X34880952Y-67244819D02*
X34785714Y-67387676D01*
X34785714Y-67387676D02*
X34690476Y-67482914D01*
X34690476Y-67482914D02*
X34595238Y-67530533D01*
D14*
%TO.C,R2*%
X33646359Y-73520000D02*
X33953641Y-73520000D01*
X33646359Y-74280000D02*
X33953641Y-74280000D01*
%TO.C,U13*%
X63525000Y-75915000D02*
X66525000Y-75915000D01*
X63525000Y-79185000D02*
X66525000Y-79185000D01*
X63005000Y-76000000D02*
X62525000Y-76000000D01*
X63005000Y-75520000D01*
X63005000Y-76000000D01*
G36*
X63005000Y-76000000D02*
G01*
X62525000Y-76000000D01*
X63005000Y-75520000D01*
X63005000Y-76000000D01*
G37*
%TO.C,R18*%
X33620000Y-89046359D02*
X33620000Y-89353641D01*
X34380000Y-89046359D02*
X34380000Y-89353641D01*
%TO.C,J3*%
X42370000Y-76250000D02*
X35110000Y-76250000D01*
X42370000Y-76250000D02*
X42370000Y-77750000D01*
X42370000Y-84250000D02*
X42370000Y-85750000D01*
X42370000Y-85750000D02*
X35110000Y-85750000D01*
%TO.C,U8*%
X42010000Y-61170000D02*
X43340000Y-61170000D01*
X42010000Y-62500000D02*
X42010000Y-61170000D01*
X44610000Y-61170000D02*
X62450000Y-61170000D01*
X44610000Y-63830000D02*
X44610000Y-61170000D01*
X44610000Y-63830000D02*
X62450000Y-63830000D01*
X62450000Y-63830000D02*
X62450000Y-61170000D01*
%TO.C,R7*%
X51020000Y-86456359D02*
X51020000Y-86763641D01*
X51780000Y-86456359D02*
X51780000Y-86763641D01*
%TO.C,U2*%
X53387500Y-78590000D02*
X55387500Y-78590000D01*
X53387500Y-81210000D02*
X55387500Y-81210000D01*
X53157500Y-78890000D02*
X52877500Y-78890000D01*
X53157500Y-78610000D01*
X53157500Y-78890000D01*
G36*
X53157500Y-78890000D02*
G01*
X52877500Y-78890000D01*
X53157500Y-78610000D01*
X53157500Y-78890000D01*
G37*
%TO.C,R9*%
X47020000Y-66163641D02*
X47020000Y-65856359D01*
X47780000Y-66163641D02*
X47780000Y-65856359D01*
%TO.C,R16*%
X38620000Y-89200000D02*
X38620000Y-89507282D01*
X39380000Y-89200000D02*
X39380000Y-89507282D01*
D10*
%TO.C,D1*%
X32725000Y-75000000D02*
G75*
G02*
X32625000Y-75000000I-50000J0D01*
G01*
X32625000Y-75000000D02*
G75*
G02*
X32725000Y-75000000I50000J0D01*
G01*
D14*
%TO.C,R4*%
X59920000Y-79336359D02*
X59920000Y-79643641D01*
X60680000Y-79336359D02*
X60680000Y-79643641D01*
%TO.C,R10*%
X50463641Y-79020000D02*
X50156359Y-79020000D01*
X50463641Y-79780000D02*
X50156359Y-79780000D01*
%TO.C,C5*%
X37707836Y-70340000D02*
X37492164Y-70340000D01*
X37707836Y-71060000D02*
X37492164Y-71060000D01*
%TO.C,Q4*%
X58062500Y-68940000D02*
X57412500Y-68940000D01*
X58062500Y-68940000D02*
X58712500Y-68940000D01*
X58062500Y-72060000D02*
X57412500Y-72060000D01*
X58062500Y-72060000D02*
X58712500Y-72060000D01*
X56900000Y-68990000D02*
X56660000Y-68660000D01*
X57140000Y-68660000D01*
X56900000Y-68990000D01*
G36*
X56900000Y-68990000D02*
G01*
X56660000Y-68660000D01*
X57140000Y-68660000D01*
X56900000Y-68990000D01*
G37*
%TO.C,R22*%
X68453641Y-77420000D02*
X68146359Y-77420000D01*
X68453641Y-78180000D02*
X68146359Y-78180000D01*
%TO.C,C15*%
X66990000Y-74215580D02*
X66990000Y-73934420D01*
X68010000Y-74215580D02*
X68010000Y-73934420D01*
%TO.C,R8*%
X45420000Y-66263641D02*
X45420000Y-65956359D01*
X46180000Y-66263641D02*
X46180000Y-65956359D01*
%TO.C,C4*%
X56140000Y-79487836D02*
X56140000Y-79272164D01*
X56860000Y-79487836D02*
X56860000Y-79272164D01*
%TO.C,U5*%
X55625000Y-82850000D02*
X69125000Y-82850000D01*
X55625000Y-99750000D02*
X55625000Y-82850000D01*
X69125000Y-82850000D02*
X69125000Y-99750000D01*
X69125000Y-99750000D02*
X55625000Y-99750000D01*
X69811000Y-92840000D02*
X69475000Y-92600000D01*
X69811000Y-92360000D01*
X69811000Y-92840000D01*
G36*
X69811000Y-92840000D02*
G01*
X69475000Y-92600000D01*
X69811000Y-92360000D01*
X69811000Y-92840000D01*
G37*
%TO.C,C14*%
X49940000Y-68092164D02*
X49940000Y-68307836D01*
X50660000Y-68092164D02*
X50660000Y-68307836D01*
%TO.C,Q1*%
X47062500Y-78990000D02*
X46412500Y-78990000D01*
X47062500Y-78990000D02*
X47712500Y-78990000D01*
X47062500Y-82110000D02*
X46412500Y-82110000D01*
X47062500Y-82110000D02*
X47712500Y-82110000D01*
X48465000Y-82390000D02*
X47985000Y-82390000D01*
X48225000Y-82060000D01*
X48465000Y-82390000D01*
G36*
X48465000Y-82390000D02*
G01*
X47985000Y-82390000D01*
X48225000Y-82060000D01*
X48465000Y-82390000D01*
G37*
%TO.C,U12*%
X45000000Y-87940000D02*
X43050000Y-87940000D01*
X45000000Y-87940000D02*
X46950000Y-87940000D01*
X45000000Y-93060000D02*
X43050000Y-93060000D01*
X45000000Y-93060000D02*
X46950000Y-93060000D01*
X42300000Y-88035000D02*
X42060000Y-87705000D01*
X42540000Y-87705000D01*
X42300000Y-88035000D01*
G36*
X42300000Y-88035000D02*
G01*
X42060000Y-87705000D01*
X42540000Y-87705000D01*
X42300000Y-88035000D01*
G37*
D10*
%TO.C,U11*%
X48162500Y-69900000D02*
X48882500Y-69900000D01*
X48162500Y-70120000D02*
X48162500Y-69900000D01*
X48162500Y-72600000D02*
X48162500Y-72380000D01*
X48882500Y-72600000D02*
X48162500Y-72600000D01*
X51162500Y-72600000D02*
X50642500Y-72600000D01*
X51362500Y-69900000D02*
X50642500Y-69900000D01*
X51362500Y-69900000D02*
X51362500Y-70120000D01*
X51362500Y-72960000D02*
X51362500Y-72600000D01*
X51722500Y-72600000D01*
X51362500Y-72960000D01*
G36*
X51362500Y-72960000D02*
G01*
X51362500Y-72600000D01*
X51722500Y-72600000D01*
X51362500Y-72960000D01*
G37*
D14*
%TO.C,R1*%
X41536359Y-71420000D02*
X41843641Y-71420000D01*
X41536359Y-72180000D02*
X41843641Y-72180000D01*
%TO.C,C8*%
X37940000Y-97027836D02*
X37940000Y-96812164D01*
X38660000Y-97027836D02*
X38660000Y-96812164D01*
%TO.C,U7*%
X35012500Y-95240000D02*
X37012500Y-95240000D01*
X35012500Y-97460000D02*
X37012500Y-97460000D01*
X34772500Y-95340000D02*
X34492500Y-95340000D01*
X34772500Y-95060000D01*
X34772500Y-95340000D01*
G36*
X34772500Y-95340000D02*
G01*
X34492500Y-95340000D01*
X34772500Y-95060000D01*
X34772500Y-95340000D01*
G37*
%TO.C,R19*%
X54946359Y-70920000D02*
X55253641Y-70920000D01*
X54946359Y-71680000D02*
X55253641Y-71680000D01*
%TO.C,R23*%
X61746359Y-78720000D02*
X62053641Y-78720000D01*
X61746359Y-79480000D02*
X62053641Y-79480000D01*
%TO.C,D2*%
X33050000Y-61300000D02*
X33050000Y-66350000D01*
X33500000Y-60850000D02*
X33050000Y-61300000D01*
X33850000Y-62800000D02*
X33850000Y-64400000D01*
X39250000Y-62800000D02*
X39250000Y-64400000D01*
X40050000Y-60850000D02*
X33500000Y-60850000D01*
X40050000Y-66350000D02*
X33050000Y-66350000D01*
X40050000Y-66350000D02*
X40050000Y-60850000D01*
%TO.C,R6*%
X48620000Y-86436359D02*
X48620000Y-86743641D01*
X49380000Y-86436359D02*
X49380000Y-86743641D01*
%TO.C,R17*%
X36120000Y-89046359D02*
X36120000Y-89353641D01*
X36880000Y-89046359D02*
X36880000Y-89353641D01*
%TO.C,C7*%
X39340000Y-69087836D02*
X39340000Y-68872164D01*
X40060000Y-69087836D02*
X40060000Y-68872164D01*
%TO.C,C17*%
X61040580Y-75390000D02*
X60759420Y-75390000D01*
X61040580Y-76410000D02*
X60759420Y-76410000D01*
%TO.C,U6*%
X48925000Y-64790000D02*
X50925000Y-64790000D01*
X48925000Y-67010000D02*
X50925000Y-67010000D01*
X48575000Y-65080000D02*
X48295000Y-65080000D01*
X48575000Y-64800000D01*
X48575000Y-65080000D01*
G36*
X48575000Y-65080000D02*
G01*
X48295000Y-65080000D01*
X48575000Y-64800000D01*
X48575000Y-65080000D01*
G37*
%TO.C,R21*%
X68453641Y-78720000D02*
X68146359Y-78720000D01*
X68453641Y-79480000D02*
X68146359Y-79480000D01*
%TO.C,C16*%
X61207836Y-76740000D02*
X60992164Y-76740000D01*
X61207836Y-77460000D02*
X60992164Y-77460000D01*
%TO.C,R11*%
X50453641Y-80520000D02*
X50146359Y-80520000D01*
X50453641Y-81280000D02*
X50146359Y-81280000D01*
%TO.C,U4*%
X37712500Y-68265000D02*
X37112500Y-68265000D01*
X37712500Y-68265000D02*
X38312500Y-68265000D01*
X37712500Y-70135000D02*
X37112500Y-70135000D01*
X37712500Y-70135000D02*
X38312500Y-70135000D01*
X36402500Y-68700000D02*
X36072500Y-68940000D01*
X36072500Y-68460000D01*
X36402500Y-68700000D01*
G36*
X36402500Y-68700000D02*
G01*
X36072500Y-68940000D01*
X36072500Y-68460000D01*
X36402500Y-68700000D01*
G37*
%TO.C,R20*%
X55253641Y-69220000D02*
X54946359Y-69220000D01*
X55253641Y-69980000D02*
X54946359Y-69980000D01*
%TO.C,U3*%
X37125000Y-71415000D02*
X40125000Y-71415000D01*
X37125000Y-73685000D02*
X40125000Y-73685000D01*
X36605000Y-71500000D02*
X36325000Y-71500000D01*
X36605000Y-71220000D01*
X36605000Y-71500000D01*
G36*
X36605000Y-71500000D02*
G01*
X36325000Y-71500000D01*
X36605000Y-71220000D01*
X36605000Y-71500000D01*
G37*
%TO.C,BT1*%
X32890000Y-68790000D02*
X34000000Y-68790000D01*
X32890000Y-69900000D02*
X32890000Y-68790000D01*
X32890000Y-70900000D02*
X32890000Y-73010000D01*
X32890000Y-70900000D02*
X35110000Y-70900000D01*
X32890000Y-73010000D02*
X35110000Y-73010000D01*
X35110000Y-70900000D02*
X35110000Y-73010000D01*
%TD*%
M02*
