%TF.GenerationSoftware,KiCad,Pcbnew,9.0.4*%
%TF.CreationDate,2025-10-06T13:40:32-04:00*%
%TF.ProjectId,Smarter Watch Stuff,536d6172-7465-4722-9057-617463682053,rev?*%
%TF.SameCoordinates,Original*%
%TF.FileFunction,Soldermask,Top*%
%TF.FilePolarity,Negative*%
%FSLAX46Y46*%
G04 Gerber Fmt 4.6, Leading zero omitted, Abs format (unit mm)*
G04 Created by KiCad (PCBNEW 9.0.4) date 2025-10-06 13:40:32*
%MOMM*%
%LPD*%
G01*
G04 APERTURE LIST*
G04 Aperture macros list*
%AMRoundRect*
0 Rectangle with rounded corners*
0 $1 Rounding radius*
0 $2 $3 $4 $5 $6 $7 $8 $9 X,Y pos of 4 corners*
0 Add a 4 corners polygon primitive as box body*
4,1,4,$2,$3,$4,$5,$6,$7,$8,$9,$2,$3,0*
0 Add four circle primitives for the rounded corners*
1,1,$1+$1,$2,$3*
1,1,$1+$1,$4,$5*
1,1,$1+$1,$6,$7*
1,1,$1+$1,$8,$9*
0 Add four rect primitives between the rounded corners*
20,1,$1+$1,$2,$3,$4,$5,0*
20,1,$1+$1,$4,$5,$6,$7,0*
20,1,$1+$1,$6,$7,$8,$9,0*
20,1,$1+$1,$8,$9,$2,$3,0*%
%AMOutline5P*
0 Free polygon, 5 corners , with rotation*
0 The origin of the aperture is its center*
0 number of corners: always 5*
0 $1 to $10 corner X, Y*
0 $11 Rotation angle, in degrees counterclockwise*
0 create outline with 5 corners*
4,1,5,$1,$2,$3,$4,$5,$6,$7,$8,$9,$10,$1,$2,$11*%
%AMOutline6P*
0 Free polygon, 6 corners , with rotation*
0 The origin of the aperture is its center*
0 number of corners: always 6*
0 $1 to $12 corner X, Y*
0 $13 Rotation angle, in degrees counterclockwise*
0 create outline with 6 corners*
4,1,6,$1,$2,$3,$4,$5,$6,$7,$8,$9,$10,$11,$12,$1,$2,$13*%
%AMOutline7P*
0 Free polygon, 7 corners , with rotation*
0 The origin of the aperture is its center*
0 number of corners: always 7*
0 $1 to $14 corner X, Y*
0 $15 Rotation angle, in degrees counterclockwise*
0 create outline with 7 corners*
4,1,7,$1,$2,$3,$4,$5,$6,$7,$8,$9,$10,$11,$12,$13,$14,$1,$2,$15*%
%AMOutline8P*
0 Free polygon, 8 corners , with rotation*
0 The origin of the aperture is its center*
0 number of corners: always 8*
0 $1 to $16 corner X, Y*
0 $17 Rotation angle, in degrees counterclockwise*
0 create outline with 8 corners*
4,1,8,$1,$2,$3,$4,$5,$6,$7,$8,$9,$10,$11,$12,$13,$14,$15,$16,$1,$2,$17*%
G04 Aperture macros list end*
%ADD10RoundRect,0.135000X-0.135000X-0.185000X0.135000X-0.185000X0.135000X0.185000X-0.135000X0.185000X0*%
%ADD11RoundRect,0.062500X-0.362500X-0.062500X0.362500X-0.062500X0.362500X0.062500X-0.362500X0.062500X0*%
%ADD12R,1.600000X2.500000*%
%ADD13RoundRect,0.195000X-0.455000X-1.305000X0.455000X-1.305000X0.455000X1.305000X-0.455000X1.305000X0*%
%ADD14RoundRect,0.150000X-2.150000X-0.350000X2.150000X-0.350000X2.150000X0.350000X-2.150000X0.350000X0*%
%ADD15RoundRect,0.165000X-0.385000X-0.485000X0.385000X-0.485000X0.385000X0.485000X-0.385000X0.485000X0*%
%ADD16RoundRect,0.135000X-0.185000X0.135000X-0.185000X-0.135000X0.185000X-0.135000X0.185000X0.135000X0*%
%ADD17C,0.650000*%
%ADD18O,0.650000X0.950000*%
%ADD19R,0.700000X0.300000*%
%ADD20O,1.400000X0.800000*%
%ADD21R,1.700000X1.700000*%
%ADD22C,1.700000*%
%ADD23RoundRect,0.100000X-0.337500X-0.100000X0.337500X-0.100000X0.337500X0.100000X-0.337500X0.100000X0*%
%ADD24RoundRect,0.135000X0.185000X-0.135000X0.185000X0.135000X-0.185000X0.135000X-0.185000X-0.135000X0*%
%ADD25RoundRect,0.147500X-0.147500X-0.172500X0.147500X-0.172500X0.147500X0.172500X-0.147500X0.172500X0*%
%ADD26RoundRect,0.135000X0.135000X0.185000X-0.135000X0.185000X-0.135000X-0.185000X0.135000X-0.185000X0*%
%ADD27RoundRect,0.140000X0.140000X0.170000X-0.140000X0.170000X-0.140000X-0.170000X0.140000X-0.170000X0*%
%ADD28RoundRect,0.150000X-0.587500X-0.150000X0.587500X-0.150000X0.587500X0.150000X-0.587500X0.150000X0*%
%ADD29RoundRect,0.225000X0.250000X-0.225000X0.250000X0.225000X-0.250000X0.225000X-0.250000X-0.225000X0*%
%ADD30RoundRect,0.140000X0.170000X-0.140000X0.170000X0.140000X-0.170000X0.140000X-0.170000X-0.140000X0*%
%ADD31R,0.800000X0.400000*%
%ADD32R,0.400000X0.800000*%
%ADD33Outline5P,-0.725000X0.130500X-0.130500X0.725000X0.725000X0.725000X0.725000X-0.725000X-0.725000X-0.725000X180.000000*%
%ADD34R,1.450000X1.450000*%
%ADD35R,0.700000X0.700000*%
%ADD36RoundRect,0.140000X-0.170000X0.140000X-0.170000X-0.140000X0.170000X-0.140000X0.170000X0.140000X0*%
%ADD37RoundRect,0.150000X0.587500X0.150000X-0.587500X0.150000X-0.587500X-0.150000X0.587500X-0.150000X0*%
%ADD38RoundRect,0.150000X-0.825000X-0.150000X0.825000X-0.150000X0.825000X0.150000X-0.825000X0.150000X0*%
%ADD39R,0.675000X0.250000*%
%ADD40R,0.250000X0.675000*%
%ADD41RoundRect,0.093750X-0.093750X-0.106250X0.093750X-0.106250X0.093750X0.106250X-0.093750X0.106250X0*%
%ADD42R,1.000000X1.600000*%
%ADD43R,1.500000X1.000000*%
%ADD44RoundRect,0.225000X0.225000X0.250000X-0.225000X0.250000X-0.225000X-0.250000X0.225000X-0.250000X0*%
%ADD45RoundRect,0.087500X-0.187500X-0.087500X0.187500X-0.087500X0.187500X0.087500X-0.187500X0.087500X0*%
%ADD46RoundRect,0.175000X-0.175000X-0.625000X0.175000X-0.625000X0.175000X0.625000X-0.175000X0.625000X0*%
%ADD47RoundRect,0.087500X-0.250000X-0.087500X0.250000X-0.087500X0.250000X0.087500X-0.250000X0.087500X0*%
%ADD48RoundRect,0.062500X-0.337500X-0.062500X0.337500X-0.062500X0.337500X0.062500X-0.337500X0.062500X0*%
%ADD49R,1.700000X1.400000*%
%ADD50R,1.350000X1.350000*%
%ADD51C,1.350000*%
G04 APERTURE END LIST*
D10*
%TO.C,R2*%
X33290000Y-73900000D03*
X34310000Y-73900000D03*
%TD*%
D11*
%TO.C,U13*%
X63600000Y-76300000D03*
X63600000Y-76800000D03*
X63600000Y-77300000D03*
X63600000Y-77800000D03*
X63600000Y-78300000D03*
X63600000Y-78800000D03*
X66450000Y-78800000D03*
X66450000Y-78300000D03*
X66450000Y-77800000D03*
X66450000Y-77300000D03*
X66450000Y-76800000D03*
X66450000Y-76300000D03*
D12*
X65025000Y-77550000D03*
%TD*%
D13*
%TO.C,M1*%
X63400000Y-69000000D03*
D14*
X65100000Y-68000000D03*
X65100000Y-70000000D03*
D13*
X66800000Y-69000000D03*
D15*
X60900000Y-67500000D03*
X60900000Y-70500000D03*
%TD*%
D16*
%TO.C,R18*%
X34000000Y-88690000D03*
X34000000Y-89710000D03*
%TD*%
D17*
%TO.C,J3*%
X41360000Y-77400000D03*
D18*
X41360000Y-84600000D03*
D19*
X42020000Y-78250000D03*
X42020000Y-78750000D03*
X42020000Y-79250000D03*
X42020000Y-79750000D03*
X42020000Y-80250000D03*
X42020000Y-80750000D03*
X42020000Y-81250000D03*
X42020000Y-81750000D03*
X42020000Y-82250000D03*
X42020000Y-82750000D03*
X42020000Y-83250000D03*
X42020000Y-83750000D03*
X40320000Y-83500000D03*
X40320000Y-83000000D03*
X40320000Y-82500000D03*
X40320000Y-82000000D03*
X40320000Y-81500000D03*
X40320000Y-81000000D03*
X40320000Y-80500000D03*
X40320000Y-80000000D03*
X40320000Y-79500000D03*
X40320000Y-79000000D03*
X40320000Y-78500000D03*
X40320000Y-78000000D03*
D20*
X34160000Y-76510000D03*
X40110000Y-76870000D03*
X40110000Y-85130000D03*
X34160000Y-85490000D03*
%TD*%
D21*
%TO.C,U8*%
X43340000Y-62500000D03*
D22*
X45880000Y-62500000D03*
X48420000Y-62500000D03*
X50960000Y-62500000D03*
X53500000Y-62500000D03*
X56040000Y-62500000D03*
X58580000Y-62500000D03*
X61120000Y-62500000D03*
%TD*%
D16*
%TO.C,R7*%
X51400000Y-86100000D03*
X51400000Y-87120000D03*
%TD*%
D23*
%TO.C,U2*%
X53750000Y-79250000D03*
X53750000Y-79900000D03*
X53750000Y-80550000D03*
X55025000Y-80550000D03*
X55025000Y-79900000D03*
X55025000Y-79250000D03*
%TD*%
D24*
%TO.C,R9*%
X47400000Y-66520000D03*
X47400000Y-65500000D03*
%TD*%
D16*
%TO.C,R16*%
X39000000Y-88843641D03*
X39000000Y-89863641D03*
%TD*%
D25*
%TO.C,D1*%
X33280000Y-75000000D03*
X34250000Y-75000000D03*
%TD*%
D16*
%TO.C,R4*%
X60300000Y-78980000D03*
X60300000Y-80000000D03*
%TD*%
D26*
%TO.C,R10*%
X50820000Y-79400000D03*
X49800000Y-79400000D03*
%TD*%
D27*
%TO.C,C5*%
X38080000Y-70700000D03*
X37120000Y-70700000D03*
%TD*%
D28*
%TO.C,Q4*%
X57125000Y-69550000D03*
X57125000Y-71450000D03*
X59000000Y-70500000D03*
%TD*%
D26*
%TO.C,R22*%
X68810000Y-77800000D03*
X67790000Y-77800000D03*
%TD*%
D29*
%TO.C,C15*%
X67500000Y-74850000D03*
X67500000Y-73300000D03*
%TD*%
D24*
%TO.C,R8*%
X45800000Y-66620000D03*
X45800000Y-65600000D03*
%TD*%
D30*
%TO.C,C4*%
X56500000Y-79860000D03*
X56500000Y-78900000D03*
%TD*%
D31*
%TO.C,U5*%
X68275000Y-92600000D03*
X68275000Y-91800000D03*
X68275000Y-91000000D03*
X68275000Y-90200000D03*
X68275000Y-89400000D03*
X68275000Y-88600000D03*
X68275000Y-87800000D03*
X68275000Y-87000000D03*
X68275000Y-86200000D03*
X68275000Y-85400000D03*
X68275000Y-84600000D03*
D32*
X67175000Y-83700000D03*
X66375000Y-83700000D03*
X65575000Y-83700000D03*
X64775000Y-83700000D03*
X63975000Y-83700000D03*
X63175000Y-83700000D03*
X62375000Y-83700000D03*
X61575000Y-83700000D03*
X60775000Y-83700000D03*
X59975000Y-83700000D03*
X59175000Y-83700000D03*
X58375000Y-83700000D03*
X57575000Y-83700000D03*
D31*
X56475000Y-84600000D03*
X56475000Y-85400000D03*
X56475000Y-86200000D03*
X56475000Y-87000000D03*
X56475000Y-87800000D03*
X56475000Y-88600000D03*
X56475000Y-89400000D03*
X56475000Y-90200000D03*
X56475000Y-91000000D03*
X56475000Y-91800000D03*
X56475000Y-92600000D03*
D32*
X57575000Y-93500000D03*
X58375000Y-93500000D03*
X59175000Y-93500000D03*
X59975000Y-93500000D03*
X60775000Y-93500000D03*
X61575000Y-93500000D03*
X62375000Y-93500000D03*
X63175000Y-93500000D03*
X63975000Y-93500000D03*
X64775000Y-93500000D03*
X65575000Y-93500000D03*
X66375000Y-93500000D03*
X67175000Y-93500000D03*
D33*
X64350000Y-90575000D03*
D34*
X64350000Y-88600000D03*
X64350000Y-86625000D03*
X62375000Y-90575000D03*
X62375000Y-88600000D03*
X62375000Y-86625000D03*
X60400000Y-90575000D03*
X60400000Y-88600000D03*
X60400000Y-86625000D03*
D35*
X56425000Y-93550000D03*
X56425000Y-83650000D03*
X68325000Y-83650000D03*
X68325000Y-93550000D03*
%TD*%
D36*
%TO.C,C14*%
X50300000Y-67720000D03*
X50300000Y-68680000D03*
%TD*%
D37*
%TO.C,Q1*%
X48000000Y-81500000D03*
X48000000Y-79600000D03*
X46125000Y-80550000D03*
%TD*%
D38*
%TO.C,U12*%
X42525000Y-88595000D03*
X42525000Y-89865000D03*
X42525000Y-91135000D03*
X42525000Y-92405000D03*
X47475000Y-92405000D03*
X47475000Y-91135000D03*
X47475000Y-89865000D03*
X47475000Y-88595000D03*
%TD*%
D39*
%TO.C,U11*%
X51025000Y-72000000D03*
X51025000Y-71500000D03*
X51025000Y-71000000D03*
X51025000Y-70500000D03*
D40*
X50262500Y-70237500D03*
X49762500Y-70237500D03*
X49262500Y-70237500D03*
D39*
X48500000Y-70500000D03*
X48500000Y-71000000D03*
X48500000Y-71500000D03*
X48500000Y-72000000D03*
D40*
X49262500Y-72262500D03*
X49762500Y-72262500D03*
X50262500Y-72262500D03*
%TD*%
D10*
%TO.C,R1*%
X41180000Y-71800000D03*
X42200000Y-71800000D03*
%TD*%
D30*
%TO.C,C8*%
X38300000Y-97400000D03*
X38300000Y-96440000D03*
%TD*%
D41*
%TO.C,U7*%
X35125000Y-95700000D03*
X35125000Y-96350000D03*
X35125000Y-97000000D03*
X36900000Y-97000000D03*
X36900000Y-96350000D03*
X36900000Y-95700000D03*
D42*
X36012500Y-96350000D03*
%TD*%
D10*
%TO.C,R19*%
X54590000Y-71300000D03*
X55610000Y-71300000D03*
%TD*%
%TO.C,R23*%
X61390000Y-79100000D03*
X62410000Y-79100000D03*
%TD*%
D43*
%TO.C,D2*%
X34100000Y-62000000D03*
X34100000Y-65200000D03*
X39000000Y-65200000D03*
X39000000Y-62000000D03*
%TD*%
D16*
%TO.C,R6*%
X49000000Y-86080000D03*
X49000000Y-87100000D03*
%TD*%
%TO.C,R17*%
X36500000Y-88690000D03*
X36500000Y-89710000D03*
%TD*%
D30*
%TO.C,C7*%
X39700000Y-69460000D03*
X39700000Y-68500000D03*
%TD*%
D44*
%TO.C,C17*%
X61675000Y-75900000D03*
X60125000Y-75900000D03*
%TD*%
D45*
%TO.C,U6*%
X49000000Y-65400000D03*
X49000000Y-66400000D03*
X50850000Y-66400000D03*
X50850000Y-65400000D03*
D46*
X49925000Y-65900000D03*
%TD*%
D26*
%TO.C,R21*%
X68810000Y-79100000D03*
X67790000Y-79100000D03*
%TD*%
D27*
%TO.C,C16*%
X61580000Y-77100000D03*
X60620000Y-77100000D03*
%TD*%
D26*
%TO.C,R11*%
X50810000Y-80900000D03*
X49790000Y-80900000D03*
%TD*%
D47*
%TO.C,U4*%
X37000000Y-68700000D03*
X37000000Y-69200000D03*
X37000000Y-69700000D03*
X38425000Y-69700000D03*
X38425000Y-68700000D03*
%TD*%
D26*
%TO.C,R20*%
X55610000Y-69600000D03*
X54590000Y-69600000D03*
%TD*%
D48*
%TO.C,U3*%
X37175000Y-71800000D03*
X37175000Y-72300000D03*
X37175000Y-72800000D03*
X37175000Y-73300000D03*
X40075000Y-73300000D03*
X40075000Y-72800000D03*
X40075000Y-72300000D03*
X40075000Y-71800000D03*
D49*
X38625000Y-72550000D03*
%TD*%
D50*
%TO.C,BT1*%
X34000000Y-69900000D03*
D51*
X34000000Y-71900000D03*
%TD*%
M02*
