%TF.GenerationSoftware,KiCad,Pcbnew,9.0.4*%
%TF.CreationDate,2026-03-10T13:44:35-04:00*%
%TF.ProjectId,Smarter Watch Stuff,536d6172-7465-4722-9057-617463682053,rev?*%
%TF.SameCoordinates,Original*%
%TF.FileFunction,Legend,Bot*%
%TF.FilePolarity,Positive*%
%FSLAX46Y46*%
G04 Gerber Fmt 4.6, Leading zero omitted, Abs format (unit mm)*
G04 Created by KiCad (PCBNEW 9.0.4) date 2026-03-10 13:44:35*
%MOMM*%
%LPD*%
G01*
G04 APERTURE LIST*
%ADD10C,0.100000*%
%ADD11C,0.150000*%
%ADD12C,0.120000*%
%ADD13C,0.127000*%
%ADD14C,0.200000*%
G04 APERTURE END LIST*
D10*
X70891400Y-40944800D02*
X70891400Y-42037000D01*
X70307200Y-41503600D02*
X71450200Y-41503600D01*
X75692000Y-41503600D02*
X76784200Y-41503600D01*
D11*
X86509580Y-59317142D02*
X86557200Y-59269523D01*
X86557200Y-59269523D02*
X86604819Y-59126666D01*
X86604819Y-59126666D02*
X86604819Y-59031428D01*
X86604819Y-59031428D02*
X86557200Y-58888571D01*
X86557200Y-58888571D02*
X86461961Y-58793333D01*
X86461961Y-58793333D02*
X86366723Y-58745714D01*
X86366723Y-58745714D02*
X86176247Y-58698095D01*
X86176247Y-58698095D02*
X86033390Y-58698095D01*
X86033390Y-58698095D02*
X85842914Y-58745714D01*
X85842914Y-58745714D02*
X85747676Y-58793333D01*
X85747676Y-58793333D02*
X85652438Y-58888571D01*
X85652438Y-58888571D02*
X85604819Y-59031428D01*
X85604819Y-59031428D02*
X85604819Y-59126666D01*
X85604819Y-59126666D02*
X85652438Y-59269523D01*
X85652438Y-59269523D02*
X85700057Y-59317142D01*
X86604819Y-60269523D02*
X86604819Y-59698095D01*
X86604819Y-59983809D02*
X85604819Y-59983809D01*
X85604819Y-59983809D02*
X85747676Y-59888571D01*
X85747676Y-59888571D02*
X85842914Y-59793333D01*
X85842914Y-59793333D02*
X85890533Y-59698095D01*
X86604819Y-61221904D02*
X86604819Y-60650476D01*
X86604819Y-60936190D02*
X85604819Y-60936190D01*
X85604819Y-60936190D02*
X85747676Y-60840952D01*
X85747676Y-60840952D02*
X85842914Y-60745714D01*
X85842914Y-60745714D02*
X85890533Y-60650476D01*
D10*
X76483332Y-44459800D02*
X76340475Y-44507419D01*
X76340475Y-44507419D02*
X76102380Y-44507419D01*
X76102380Y-44507419D02*
X76007142Y-44459800D01*
X76007142Y-44459800D02*
X75959523Y-44412180D01*
X75959523Y-44412180D02*
X75911904Y-44316942D01*
X75911904Y-44316942D02*
X75911904Y-44221704D01*
X75911904Y-44221704D02*
X75959523Y-44126466D01*
X75959523Y-44126466D02*
X76007142Y-44078847D01*
X76007142Y-44078847D02*
X76102380Y-44031228D01*
X76102380Y-44031228D02*
X76292856Y-43983609D01*
X76292856Y-43983609D02*
X76388094Y-43935990D01*
X76388094Y-43935990D02*
X76435713Y-43888371D01*
X76435713Y-43888371D02*
X76483332Y-43793133D01*
X76483332Y-43793133D02*
X76483332Y-43697895D01*
X76483332Y-43697895D02*
X76435713Y-43602657D01*
X76435713Y-43602657D02*
X76388094Y-43555038D01*
X76388094Y-43555038D02*
X76292856Y-43507419D01*
X76292856Y-43507419D02*
X76054761Y-43507419D01*
X76054761Y-43507419D02*
X75911904Y-43555038D01*
X75578570Y-43507419D02*
X75340475Y-44507419D01*
X75340475Y-44507419D02*
X75149999Y-43793133D01*
X75149999Y-43793133D02*
X74959523Y-44507419D01*
X74959523Y-44507419D02*
X74721428Y-43507419D01*
X73816666Y-44507419D02*
X74388094Y-44507419D01*
X74102380Y-44507419D02*
X74102380Y-43507419D01*
X74102380Y-43507419D02*
X74197618Y-43650276D01*
X74197618Y-43650276D02*
X74292856Y-43745514D01*
X74292856Y-43745514D02*
X74388094Y-43793133D01*
D11*
X86392857Y-58309580D02*
X86440476Y-58357200D01*
X86440476Y-58357200D02*
X86583333Y-58404819D01*
X86583333Y-58404819D02*
X86678571Y-58404819D01*
X86678571Y-58404819D02*
X86821428Y-58357200D01*
X86821428Y-58357200D02*
X86916666Y-58261961D01*
X86916666Y-58261961D02*
X86964285Y-58166723D01*
X86964285Y-58166723D02*
X87011904Y-57976247D01*
X87011904Y-57976247D02*
X87011904Y-57833390D01*
X87011904Y-57833390D02*
X86964285Y-57642914D01*
X86964285Y-57642914D02*
X86916666Y-57547676D01*
X86916666Y-57547676D02*
X86821428Y-57452438D01*
X86821428Y-57452438D02*
X86678571Y-57404819D01*
X86678571Y-57404819D02*
X86583333Y-57404819D01*
X86583333Y-57404819D02*
X86440476Y-57452438D01*
X86440476Y-57452438D02*
X86392857Y-57500057D01*
X85440476Y-58404819D02*
X86011904Y-58404819D01*
X85726190Y-58404819D02*
X85726190Y-57404819D01*
X85726190Y-57404819D02*
X85821428Y-57547676D01*
X85821428Y-57547676D02*
X85916666Y-57642914D01*
X85916666Y-57642914D02*
X86011904Y-57690533D01*
X85107142Y-57404819D02*
X84488095Y-57404819D01*
X84488095Y-57404819D02*
X84821428Y-57785771D01*
X84821428Y-57785771D02*
X84678571Y-57785771D01*
X84678571Y-57785771D02*
X84583333Y-57833390D01*
X84583333Y-57833390D02*
X84535714Y-57881009D01*
X84535714Y-57881009D02*
X84488095Y-57976247D01*
X84488095Y-57976247D02*
X84488095Y-58214342D01*
X84488095Y-58214342D02*
X84535714Y-58309580D01*
X84535714Y-58309580D02*
X84583333Y-58357200D01*
X84583333Y-58357200D02*
X84678571Y-58404819D01*
X84678571Y-58404819D02*
X84964285Y-58404819D01*
X84964285Y-58404819D02*
X85059523Y-58357200D01*
X85059523Y-58357200D02*
X85107142Y-58309580D01*
X86402857Y-61559580D02*
X86450476Y-61607200D01*
X86450476Y-61607200D02*
X86593333Y-61654819D01*
X86593333Y-61654819D02*
X86688571Y-61654819D01*
X86688571Y-61654819D02*
X86831428Y-61607200D01*
X86831428Y-61607200D02*
X86926666Y-61511961D01*
X86926666Y-61511961D02*
X86974285Y-61416723D01*
X86974285Y-61416723D02*
X87021904Y-61226247D01*
X87021904Y-61226247D02*
X87021904Y-61083390D01*
X87021904Y-61083390D02*
X86974285Y-60892914D01*
X86974285Y-60892914D02*
X86926666Y-60797676D01*
X86926666Y-60797676D02*
X86831428Y-60702438D01*
X86831428Y-60702438D02*
X86688571Y-60654819D01*
X86688571Y-60654819D02*
X86593333Y-60654819D01*
X86593333Y-60654819D02*
X86450476Y-60702438D01*
X86450476Y-60702438D02*
X86402857Y-60750057D01*
X85450476Y-61654819D02*
X86021904Y-61654819D01*
X85736190Y-61654819D02*
X85736190Y-60654819D01*
X85736190Y-60654819D02*
X85831428Y-60797676D01*
X85831428Y-60797676D02*
X85926666Y-60892914D01*
X85926666Y-60892914D02*
X86021904Y-60940533D01*
X85069523Y-60750057D02*
X85021904Y-60702438D01*
X85021904Y-60702438D02*
X84926666Y-60654819D01*
X84926666Y-60654819D02*
X84688571Y-60654819D01*
X84688571Y-60654819D02*
X84593333Y-60702438D01*
X84593333Y-60702438D02*
X84545714Y-60750057D01*
X84545714Y-60750057D02*
X84498095Y-60845295D01*
X84498095Y-60845295D02*
X84498095Y-60940533D01*
X84498095Y-60940533D02*
X84545714Y-61083390D01*
X84545714Y-61083390D02*
X85117142Y-61654819D01*
X85117142Y-61654819D02*
X84498095Y-61654819D01*
D10*
X79688094Y-65507419D02*
X79688094Y-66316942D01*
X79688094Y-66316942D02*
X79640475Y-66412180D01*
X79640475Y-66412180D02*
X79592856Y-66459800D01*
X79592856Y-66459800D02*
X79497618Y-66507419D01*
X79497618Y-66507419D02*
X79307142Y-66507419D01*
X79307142Y-66507419D02*
X79211904Y-66459800D01*
X79211904Y-66459800D02*
X79164285Y-66412180D01*
X79164285Y-66412180D02*
X79116666Y-66316942D01*
X79116666Y-66316942D02*
X79116666Y-65507419D01*
X78116666Y-66507419D02*
X78688094Y-66507419D01*
X78402380Y-66507419D02*
X78402380Y-65507419D01*
X78402380Y-65507419D02*
X78497618Y-65650276D01*
X78497618Y-65650276D02*
X78592856Y-65745514D01*
X78592856Y-65745514D02*
X78688094Y-65793133D01*
X77640475Y-66507419D02*
X77449999Y-66507419D01*
X77449999Y-66507419D02*
X77354761Y-66459800D01*
X77354761Y-66459800D02*
X77307142Y-66412180D01*
X77307142Y-66412180D02*
X77211904Y-66269323D01*
X77211904Y-66269323D02*
X77164285Y-66078847D01*
X77164285Y-66078847D02*
X77164285Y-65697895D01*
X77164285Y-65697895D02*
X77211904Y-65602657D01*
X77211904Y-65602657D02*
X77259523Y-65555038D01*
X77259523Y-65555038D02*
X77354761Y-65507419D01*
X77354761Y-65507419D02*
X77545237Y-65507419D01*
X77545237Y-65507419D02*
X77640475Y-65555038D01*
X77640475Y-65555038D02*
X77688094Y-65602657D01*
X77688094Y-65602657D02*
X77735713Y-65697895D01*
X77735713Y-65697895D02*
X77735713Y-65935990D01*
X77735713Y-65935990D02*
X77688094Y-66031228D01*
X77688094Y-66031228D02*
X77640475Y-66078847D01*
X77640475Y-66078847D02*
X77545237Y-66126466D01*
X77545237Y-66126466D02*
X77354761Y-66126466D01*
X77354761Y-66126466D02*
X77259523Y-66078847D01*
X77259523Y-66078847D02*
X77211904Y-66031228D01*
X77211904Y-66031228D02*
X77164285Y-65935990D01*
D11*
X80799580Y-56863333D02*
X80847200Y-56815714D01*
X80847200Y-56815714D02*
X80894819Y-56672857D01*
X80894819Y-56672857D02*
X80894819Y-56577619D01*
X80894819Y-56577619D02*
X80847200Y-56434762D01*
X80847200Y-56434762D02*
X80751961Y-56339524D01*
X80751961Y-56339524D02*
X80656723Y-56291905D01*
X80656723Y-56291905D02*
X80466247Y-56244286D01*
X80466247Y-56244286D02*
X80323390Y-56244286D01*
X80323390Y-56244286D02*
X80132914Y-56291905D01*
X80132914Y-56291905D02*
X80037676Y-56339524D01*
X80037676Y-56339524D02*
X79942438Y-56434762D01*
X79942438Y-56434762D02*
X79894819Y-56577619D01*
X79894819Y-56577619D02*
X79894819Y-56672857D01*
X79894819Y-56672857D02*
X79942438Y-56815714D01*
X79942438Y-56815714D02*
X79990057Y-56863333D01*
X80894819Y-57339524D02*
X80894819Y-57530000D01*
X80894819Y-57530000D02*
X80847200Y-57625238D01*
X80847200Y-57625238D02*
X80799580Y-57672857D01*
X80799580Y-57672857D02*
X80656723Y-57768095D01*
X80656723Y-57768095D02*
X80466247Y-57815714D01*
X80466247Y-57815714D02*
X80085295Y-57815714D01*
X80085295Y-57815714D02*
X79990057Y-57768095D01*
X79990057Y-57768095D02*
X79942438Y-57720476D01*
X79942438Y-57720476D02*
X79894819Y-57625238D01*
X79894819Y-57625238D02*
X79894819Y-57434762D01*
X79894819Y-57434762D02*
X79942438Y-57339524D01*
X79942438Y-57339524D02*
X79990057Y-57291905D01*
X79990057Y-57291905D02*
X80085295Y-57244286D01*
X80085295Y-57244286D02*
X80323390Y-57244286D01*
X80323390Y-57244286D02*
X80418628Y-57291905D01*
X80418628Y-57291905D02*
X80466247Y-57339524D01*
X80466247Y-57339524D02*
X80513866Y-57434762D01*
X80513866Y-57434762D02*
X80513866Y-57625238D01*
X80513866Y-57625238D02*
X80466247Y-57720476D01*
X80466247Y-57720476D02*
X80418628Y-57768095D01*
X80418628Y-57768095D02*
X80323390Y-57815714D01*
D10*
X83938094Y-65457419D02*
X83938094Y-66266942D01*
X83938094Y-66266942D02*
X83890475Y-66362180D01*
X83890475Y-66362180D02*
X83842856Y-66409800D01*
X83842856Y-66409800D02*
X83747618Y-66457419D01*
X83747618Y-66457419D02*
X83557142Y-66457419D01*
X83557142Y-66457419D02*
X83461904Y-66409800D01*
X83461904Y-66409800D02*
X83414285Y-66362180D01*
X83414285Y-66362180D02*
X83366666Y-66266942D01*
X83366666Y-66266942D02*
X83366666Y-65457419D01*
X82938094Y-65552657D02*
X82890475Y-65505038D01*
X82890475Y-65505038D02*
X82795237Y-65457419D01*
X82795237Y-65457419D02*
X82557142Y-65457419D01*
X82557142Y-65457419D02*
X82461904Y-65505038D01*
X82461904Y-65505038D02*
X82414285Y-65552657D01*
X82414285Y-65552657D02*
X82366666Y-65647895D01*
X82366666Y-65647895D02*
X82366666Y-65743133D01*
X82366666Y-65743133D02*
X82414285Y-65885990D01*
X82414285Y-65885990D02*
X82985713Y-66457419D01*
X82985713Y-66457419D02*
X82366666Y-66457419D01*
X81985713Y-65552657D02*
X81938094Y-65505038D01*
X81938094Y-65505038D02*
X81842856Y-65457419D01*
X81842856Y-65457419D02*
X81604761Y-65457419D01*
X81604761Y-65457419D02*
X81509523Y-65505038D01*
X81509523Y-65505038D02*
X81461904Y-65552657D01*
X81461904Y-65552657D02*
X81414285Y-65647895D01*
X81414285Y-65647895D02*
X81414285Y-65743133D01*
X81414285Y-65743133D02*
X81461904Y-65885990D01*
X81461904Y-65885990D02*
X82033332Y-66457419D01*
X82033332Y-66457419D02*
X81414285Y-66457419D01*
X88161905Y-70992580D02*
X88161905Y-70183057D01*
X88161905Y-70183057D02*
X88209524Y-70087819D01*
X88209524Y-70087819D02*
X88257143Y-70040200D01*
X88257143Y-70040200D02*
X88352381Y-69992580D01*
X88352381Y-69992580D02*
X88542857Y-69992580D01*
X88542857Y-69992580D02*
X88638095Y-70040200D01*
X88638095Y-70040200D02*
X88685714Y-70087819D01*
X88685714Y-70087819D02*
X88733333Y-70183057D01*
X88733333Y-70183057D02*
X88733333Y-70992580D01*
X89733333Y-69992580D02*
X89161905Y-69992580D01*
X89447619Y-69992580D02*
X89447619Y-70992580D01*
X89447619Y-70992580D02*
X89352381Y-70849723D01*
X89352381Y-70849723D02*
X89257143Y-70754485D01*
X89257143Y-70754485D02*
X89161905Y-70706866D01*
X90304762Y-70564009D02*
X90209524Y-70611628D01*
X90209524Y-70611628D02*
X90161905Y-70659247D01*
X90161905Y-70659247D02*
X90114286Y-70754485D01*
X90114286Y-70754485D02*
X90114286Y-70802104D01*
X90114286Y-70802104D02*
X90161905Y-70897342D01*
X90161905Y-70897342D02*
X90209524Y-70944961D01*
X90209524Y-70944961D02*
X90304762Y-70992580D01*
X90304762Y-70992580D02*
X90495238Y-70992580D01*
X90495238Y-70992580D02*
X90590476Y-70944961D01*
X90590476Y-70944961D02*
X90638095Y-70897342D01*
X90638095Y-70897342D02*
X90685714Y-70802104D01*
X90685714Y-70802104D02*
X90685714Y-70754485D01*
X90685714Y-70754485D02*
X90638095Y-70659247D01*
X90638095Y-70659247D02*
X90590476Y-70611628D01*
X90590476Y-70611628D02*
X90495238Y-70564009D01*
X90495238Y-70564009D02*
X90304762Y-70564009D01*
X90304762Y-70564009D02*
X90209524Y-70516390D01*
X90209524Y-70516390D02*
X90161905Y-70468771D01*
X90161905Y-70468771D02*
X90114286Y-70373533D01*
X90114286Y-70373533D02*
X90114286Y-70183057D01*
X90114286Y-70183057D02*
X90161905Y-70087819D01*
X90161905Y-70087819D02*
X90209524Y-70040200D01*
X90209524Y-70040200D02*
X90304762Y-69992580D01*
X90304762Y-69992580D02*
X90495238Y-69992580D01*
X90495238Y-69992580D02*
X90590476Y-70040200D01*
X90590476Y-70040200D02*
X90638095Y-70087819D01*
X90638095Y-70087819D02*
X90685714Y-70183057D01*
X90685714Y-70183057D02*
X90685714Y-70373533D01*
X90685714Y-70373533D02*
X90638095Y-70468771D01*
X90638095Y-70468771D02*
X90590476Y-70516390D01*
X90590476Y-70516390D02*
X90495238Y-70564009D01*
D11*
X68354819Y-42966666D02*
X69069104Y-42966666D01*
X69069104Y-42966666D02*
X69211961Y-42919047D01*
X69211961Y-42919047D02*
X69307200Y-42823809D01*
X69307200Y-42823809D02*
X69354819Y-42680952D01*
X69354819Y-42680952D02*
X69354819Y-42585714D01*
X68688152Y-43871428D02*
X69354819Y-43871428D01*
X68307200Y-43633333D02*
X69021485Y-43395238D01*
X69021485Y-43395238D02*
X69021485Y-44014285D01*
D10*
X88638094Y-65457419D02*
X88638094Y-66266942D01*
X88638094Y-66266942D02*
X88590475Y-66362180D01*
X88590475Y-66362180D02*
X88542856Y-66409800D01*
X88542856Y-66409800D02*
X88447618Y-66457419D01*
X88447618Y-66457419D02*
X88257142Y-66457419D01*
X88257142Y-66457419D02*
X88161904Y-66409800D01*
X88161904Y-66409800D02*
X88114285Y-66362180D01*
X88114285Y-66362180D02*
X88066666Y-66266942D01*
X88066666Y-66266942D02*
X88066666Y-65457419D01*
X87066666Y-66457419D02*
X87638094Y-66457419D01*
X87352380Y-66457419D02*
X87352380Y-65457419D01*
X87352380Y-65457419D02*
X87447618Y-65600276D01*
X87447618Y-65600276D02*
X87542856Y-65695514D01*
X87542856Y-65695514D02*
X87638094Y-65743133D01*
X86209523Y-65790752D02*
X86209523Y-66457419D01*
X86447618Y-65409800D02*
X86685713Y-66124085D01*
X86685713Y-66124085D02*
X86066666Y-66124085D01*
D11*
X87077332Y-53340866D02*
X87077332Y-54474200D01*
X87077332Y-54474200D02*
X87010666Y-54607533D01*
X87010666Y-54607533D02*
X86943999Y-54674200D01*
X86943999Y-54674200D02*
X86810666Y-54740866D01*
X86810666Y-54740866D02*
X86543999Y-54740866D01*
X86543999Y-54740866D02*
X86410666Y-54674200D01*
X86410666Y-54674200D02*
X86343999Y-54607533D01*
X86343999Y-54607533D02*
X86277332Y-54474200D01*
X86277332Y-54474200D02*
X86277332Y-53340866D01*
X84877332Y-54740866D02*
X85677332Y-54740866D01*
X85277332Y-54740866D02*
X85277332Y-53340866D01*
X85277332Y-53340866D02*
X85410665Y-53540866D01*
X85410665Y-53540866D02*
X85543999Y-53674200D01*
X85543999Y-53674200D02*
X85677332Y-53740866D01*
X84010666Y-53340866D02*
X83877332Y-53340866D01*
X83877332Y-53340866D02*
X83743999Y-53407533D01*
X83743999Y-53407533D02*
X83677332Y-53474200D01*
X83677332Y-53474200D02*
X83610666Y-53607533D01*
X83610666Y-53607533D02*
X83543999Y-53874200D01*
X83543999Y-53874200D02*
X83543999Y-54207533D01*
X83543999Y-54207533D02*
X83610666Y-54474200D01*
X83610666Y-54474200D02*
X83677332Y-54607533D01*
X83677332Y-54607533D02*
X83743999Y-54674200D01*
X83743999Y-54674200D02*
X83877332Y-54740866D01*
X83877332Y-54740866D02*
X84010666Y-54740866D01*
X84010666Y-54740866D02*
X84143999Y-54674200D01*
X84143999Y-54674200D02*
X84210666Y-54607533D01*
X84210666Y-54607533D02*
X84277332Y-54474200D01*
X84277332Y-54474200D02*
X84343999Y-54207533D01*
X84343999Y-54207533D02*
X84343999Y-53874200D01*
X84343999Y-53874200D02*
X84277332Y-53607533D01*
X84277332Y-53607533D02*
X84210666Y-53474200D01*
X84210666Y-53474200D02*
X84143999Y-53407533D01*
X84143999Y-53407533D02*
X84010666Y-53340866D01*
D10*
X81938094Y-70007419D02*
X81938094Y-70816942D01*
X81938094Y-70816942D02*
X81890475Y-70912180D01*
X81890475Y-70912180D02*
X81842856Y-70959800D01*
X81842856Y-70959800D02*
X81747618Y-71007419D01*
X81747618Y-71007419D02*
X81557142Y-71007419D01*
X81557142Y-71007419D02*
X81461904Y-70959800D01*
X81461904Y-70959800D02*
X81414285Y-70912180D01*
X81414285Y-70912180D02*
X81366666Y-70816942D01*
X81366666Y-70816942D02*
X81366666Y-70007419D01*
X80366666Y-71007419D02*
X80938094Y-71007419D01*
X80652380Y-71007419D02*
X80652380Y-70007419D01*
X80652380Y-70007419D02*
X80747618Y-70150276D01*
X80747618Y-70150276D02*
X80842856Y-70245514D01*
X80842856Y-70245514D02*
X80938094Y-70293133D01*
X79985713Y-70102657D02*
X79938094Y-70055038D01*
X79938094Y-70055038D02*
X79842856Y-70007419D01*
X79842856Y-70007419D02*
X79604761Y-70007419D01*
X79604761Y-70007419D02*
X79509523Y-70055038D01*
X79509523Y-70055038D02*
X79461904Y-70102657D01*
X79461904Y-70102657D02*
X79414285Y-70197895D01*
X79414285Y-70197895D02*
X79414285Y-70293133D01*
X79414285Y-70293133D02*
X79461904Y-70435990D01*
X79461904Y-70435990D02*
X80033332Y-71007419D01*
X80033332Y-71007419D02*
X79414285Y-71007419D01*
D11*
X88090657Y-50362780D02*
X88138276Y-50410400D01*
X88138276Y-50410400D02*
X88281133Y-50458019D01*
X88281133Y-50458019D02*
X88376371Y-50458019D01*
X88376371Y-50458019D02*
X88519228Y-50410400D01*
X88519228Y-50410400D02*
X88614466Y-50315161D01*
X88614466Y-50315161D02*
X88662085Y-50219923D01*
X88662085Y-50219923D02*
X88709704Y-50029447D01*
X88709704Y-50029447D02*
X88709704Y-49886590D01*
X88709704Y-49886590D02*
X88662085Y-49696114D01*
X88662085Y-49696114D02*
X88614466Y-49600876D01*
X88614466Y-49600876D02*
X88519228Y-49505638D01*
X88519228Y-49505638D02*
X88376371Y-49458019D01*
X88376371Y-49458019D02*
X88281133Y-49458019D01*
X88281133Y-49458019D02*
X88138276Y-49505638D01*
X88138276Y-49505638D02*
X88090657Y-49553257D01*
X87709704Y-49553257D02*
X87662085Y-49505638D01*
X87662085Y-49505638D02*
X87566847Y-49458019D01*
X87566847Y-49458019D02*
X87328752Y-49458019D01*
X87328752Y-49458019D02*
X87233514Y-49505638D01*
X87233514Y-49505638D02*
X87185895Y-49553257D01*
X87185895Y-49553257D02*
X87138276Y-49648495D01*
X87138276Y-49648495D02*
X87138276Y-49743733D01*
X87138276Y-49743733D02*
X87185895Y-49886590D01*
X87185895Y-49886590D02*
X87757323Y-50458019D01*
X87757323Y-50458019D02*
X87138276Y-50458019D01*
X86519228Y-49458019D02*
X86423990Y-49458019D01*
X86423990Y-49458019D02*
X86328752Y-49505638D01*
X86328752Y-49505638D02*
X86281133Y-49553257D01*
X86281133Y-49553257D02*
X86233514Y-49648495D01*
X86233514Y-49648495D02*
X86185895Y-49838971D01*
X86185895Y-49838971D02*
X86185895Y-50077066D01*
X86185895Y-50077066D02*
X86233514Y-50267542D01*
X86233514Y-50267542D02*
X86281133Y-50362780D01*
X86281133Y-50362780D02*
X86328752Y-50410400D01*
X86328752Y-50410400D02*
X86423990Y-50458019D01*
X86423990Y-50458019D02*
X86519228Y-50458019D01*
X86519228Y-50458019D02*
X86614466Y-50410400D01*
X86614466Y-50410400D02*
X86662085Y-50362780D01*
X86662085Y-50362780D02*
X86709704Y-50267542D01*
X86709704Y-50267542D02*
X86757323Y-50077066D01*
X86757323Y-50077066D02*
X86757323Y-49838971D01*
X86757323Y-49838971D02*
X86709704Y-49648495D01*
X86709704Y-49648495D02*
X86662085Y-49553257D01*
X86662085Y-49553257D02*
X86614466Y-49505638D01*
X86614466Y-49505638D02*
X86519228Y-49458019D01*
D10*
X86238094Y-70007419D02*
X86238094Y-70816942D01*
X86238094Y-70816942D02*
X86190475Y-70912180D01*
X86190475Y-70912180D02*
X86142856Y-70959800D01*
X86142856Y-70959800D02*
X86047618Y-71007419D01*
X86047618Y-71007419D02*
X85857142Y-71007419D01*
X85857142Y-71007419D02*
X85761904Y-70959800D01*
X85761904Y-70959800D02*
X85714285Y-70912180D01*
X85714285Y-70912180D02*
X85666666Y-70816942D01*
X85666666Y-70816942D02*
X85666666Y-70007419D01*
X85238094Y-70102657D02*
X85190475Y-70055038D01*
X85190475Y-70055038D02*
X85095237Y-70007419D01*
X85095237Y-70007419D02*
X84857142Y-70007419D01*
X84857142Y-70007419D02*
X84761904Y-70055038D01*
X84761904Y-70055038D02*
X84714285Y-70102657D01*
X84714285Y-70102657D02*
X84666666Y-70197895D01*
X84666666Y-70197895D02*
X84666666Y-70293133D01*
X84666666Y-70293133D02*
X84714285Y-70435990D01*
X84714285Y-70435990D02*
X85285713Y-71007419D01*
X85285713Y-71007419D02*
X84666666Y-71007419D01*
X84333332Y-70007419D02*
X83714285Y-70007419D01*
X83714285Y-70007419D02*
X84047618Y-70388371D01*
X84047618Y-70388371D02*
X83904761Y-70388371D01*
X83904761Y-70388371D02*
X83809523Y-70435990D01*
X83809523Y-70435990D02*
X83761904Y-70483609D01*
X83761904Y-70483609D02*
X83714285Y-70578847D01*
X83714285Y-70578847D02*
X83714285Y-70816942D01*
X83714285Y-70816942D02*
X83761904Y-70912180D01*
X83761904Y-70912180D02*
X83809523Y-70959800D01*
X83809523Y-70959800D02*
X83904761Y-71007419D01*
X83904761Y-71007419D02*
X84190475Y-71007419D01*
X84190475Y-71007419D02*
X84285713Y-70959800D01*
X84285713Y-70959800D02*
X84333332Y-70912180D01*
X76483332Y-47559800D02*
X76340475Y-47607419D01*
X76340475Y-47607419D02*
X76102380Y-47607419D01*
X76102380Y-47607419D02*
X76007142Y-47559800D01*
X76007142Y-47559800D02*
X75959523Y-47512180D01*
X75959523Y-47512180D02*
X75911904Y-47416942D01*
X75911904Y-47416942D02*
X75911904Y-47321704D01*
X75911904Y-47321704D02*
X75959523Y-47226466D01*
X75959523Y-47226466D02*
X76007142Y-47178847D01*
X76007142Y-47178847D02*
X76102380Y-47131228D01*
X76102380Y-47131228D02*
X76292856Y-47083609D01*
X76292856Y-47083609D02*
X76388094Y-47035990D01*
X76388094Y-47035990D02*
X76435713Y-46988371D01*
X76435713Y-46988371D02*
X76483332Y-46893133D01*
X76483332Y-46893133D02*
X76483332Y-46797895D01*
X76483332Y-46797895D02*
X76435713Y-46702657D01*
X76435713Y-46702657D02*
X76388094Y-46655038D01*
X76388094Y-46655038D02*
X76292856Y-46607419D01*
X76292856Y-46607419D02*
X76054761Y-46607419D01*
X76054761Y-46607419D02*
X75911904Y-46655038D01*
X75578570Y-46607419D02*
X75340475Y-47607419D01*
X75340475Y-47607419D02*
X75149999Y-46893133D01*
X75149999Y-46893133D02*
X74959523Y-47607419D01*
X74959523Y-47607419D02*
X74721428Y-46607419D01*
X74388094Y-46702657D02*
X74340475Y-46655038D01*
X74340475Y-46655038D02*
X74245237Y-46607419D01*
X74245237Y-46607419D02*
X74007142Y-46607419D01*
X74007142Y-46607419D02*
X73911904Y-46655038D01*
X73911904Y-46655038D02*
X73864285Y-46702657D01*
X73864285Y-46702657D02*
X73816666Y-46797895D01*
X73816666Y-46797895D02*
X73816666Y-46893133D01*
X73816666Y-46893133D02*
X73864285Y-47035990D01*
X73864285Y-47035990D02*
X74435713Y-47607419D01*
X74435713Y-47607419D02*
X73816666Y-47607419D01*
D11*
X90138094Y-50508819D02*
X90138094Y-51318342D01*
X90138094Y-51318342D02*
X90090475Y-51413580D01*
X90090475Y-51413580D02*
X90042856Y-51461200D01*
X90042856Y-51461200D02*
X89947618Y-51508819D01*
X89947618Y-51508819D02*
X89757142Y-51508819D01*
X89757142Y-51508819D02*
X89661904Y-51461200D01*
X89661904Y-51461200D02*
X89614285Y-51413580D01*
X89614285Y-51413580D02*
X89566666Y-51318342D01*
X89566666Y-51318342D02*
X89566666Y-50508819D01*
X88566666Y-51508819D02*
X89138094Y-51508819D01*
X88852380Y-51508819D02*
X88852380Y-50508819D01*
X88852380Y-50508819D02*
X88947618Y-50651676D01*
X88947618Y-50651676D02*
X89042856Y-50746914D01*
X89042856Y-50746914D02*
X89138094Y-50794533D01*
X88233332Y-50508819D02*
X87566666Y-50508819D01*
X87566666Y-50508819D02*
X87995237Y-51508819D01*
D10*
X76307380Y-69118094D02*
X75497857Y-69118094D01*
X75497857Y-69118094D02*
X75402619Y-69070475D01*
X75402619Y-69070475D02*
X75355000Y-69022856D01*
X75355000Y-69022856D02*
X75307380Y-68927618D01*
X75307380Y-68927618D02*
X75307380Y-68737142D01*
X75307380Y-68737142D02*
X75355000Y-68641904D01*
X75355000Y-68641904D02*
X75402619Y-68594285D01*
X75402619Y-68594285D02*
X75497857Y-68546666D01*
X75497857Y-68546666D02*
X76307380Y-68546666D01*
X75307380Y-67546666D02*
X75307380Y-68118094D01*
X75307380Y-67832380D02*
X76307380Y-67832380D01*
X76307380Y-67832380D02*
X76164523Y-67927618D01*
X76164523Y-67927618D02*
X76069285Y-68022856D01*
X76069285Y-68022856D02*
X76021666Y-68118094D01*
X76307380Y-67213332D02*
X76307380Y-66594285D01*
X76307380Y-66594285D02*
X75926428Y-66927618D01*
X75926428Y-66927618D02*
X75926428Y-66784761D01*
X75926428Y-66784761D02*
X75878809Y-66689523D01*
X75878809Y-66689523D02*
X75831190Y-66641904D01*
X75831190Y-66641904D02*
X75735952Y-66594285D01*
X75735952Y-66594285D02*
X75497857Y-66594285D01*
X75497857Y-66594285D02*
X75402619Y-66641904D01*
X75402619Y-66641904D02*
X75355000Y-66689523D01*
X75355000Y-66689523D02*
X75307380Y-66784761D01*
X75307380Y-66784761D02*
X75307380Y-67070475D01*
X75307380Y-67070475D02*
X75355000Y-67165713D01*
X75355000Y-67165713D02*
X75402619Y-67213332D01*
D11*
X84669619Y-58104676D02*
X84669619Y-58622771D01*
X84669619Y-58622771D02*
X84639142Y-58683723D01*
X84639142Y-58683723D02*
X84608666Y-58714200D01*
X84608666Y-58714200D02*
X84547714Y-58744676D01*
X84547714Y-58744676D02*
X84425809Y-58744676D01*
X84425809Y-58744676D02*
X84364857Y-58714200D01*
X84364857Y-58714200D02*
X84334380Y-58683723D01*
X84334380Y-58683723D02*
X84303904Y-58622771D01*
X84303904Y-58622771D02*
X84303904Y-58104676D01*
X83968666Y-58744676D02*
X83846762Y-58744676D01*
X83846762Y-58744676D02*
X83785809Y-58714200D01*
X83785809Y-58714200D02*
X83755333Y-58683723D01*
X83755333Y-58683723D02*
X83694381Y-58592295D01*
X83694381Y-58592295D02*
X83663904Y-58470390D01*
X83663904Y-58470390D02*
X83663904Y-58226580D01*
X83663904Y-58226580D02*
X83694381Y-58165628D01*
X83694381Y-58165628D02*
X83724857Y-58135152D01*
X83724857Y-58135152D02*
X83785809Y-58104676D01*
X83785809Y-58104676D02*
X83907714Y-58104676D01*
X83907714Y-58104676D02*
X83968666Y-58135152D01*
X83968666Y-58135152D02*
X83999143Y-58165628D01*
X83999143Y-58165628D02*
X84029619Y-58226580D01*
X84029619Y-58226580D02*
X84029619Y-58378961D01*
X84029619Y-58378961D02*
X83999143Y-58439914D01*
X83999143Y-58439914D02*
X83968666Y-58470390D01*
X83968666Y-58470390D02*
X83907714Y-58500866D01*
X83907714Y-58500866D02*
X83785809Y-58500866D01*
X83785809Y-58500866D02*
X83724857Y-58470390D01*
X83724857Y-58470390D02*
X83694381Y-58439914D01*
X83694381Y-58439914D02*
X83663904Y-58378961D01*
X72854819Y-42966666D02*
X73569104Y-42966666D01*
X73569104Y-42966666D02*
X73711961Y-42919047D01*
X73711961Y-42919047D02*
X73807200Y-42823809D01*
X73807200Y-42823809D02*
X73854819Y-42680952D01*
X73854819Y-42680952D02*
X73854819Y-42585714D01*
X72854819Y-43347619D02*
X72854819Y-43966666D01*
X72854819Y-43966666D02*
X73235771Y-43633333D01*
X73235771Y-43633333D02*
X73235771Y-43776190D01*
X73235771Y-43776190D02*
X73283390Y-43871428D01*
X73283390Y-43871428D02*
X73331009Y-43919047D01*
X73331009Y-43919047D02*
X73426247Y-43966666D01*
X73426247Y-43966666D02*
X73664342Y-43966666D01*
X73664342Y-43966666D02*
X73759580Y-43919047D01*
X73759580Y-43919047D02*
X73807200Y-43871428D01*
X73807200Y-43871428D02*
X73854819Y-43776190D01*
X73854819Y-43776190D02*
X73854819Y-43490476D01*
X73854819Y-43490476D02*
X73807200Y-43395238D01*
X73807200Y-43395238D02*
X73759580Y-43347619D01*
D10*
X77438094Y-70007419D02*
X77438094Y-70816942D01*
X77438094Y-70816942D02*
X77390475Y-70912180D01*
X77390475Y-70912180D02*
X77342856Y-70959800D01*
X77342856Y-70959800D02*
X77247618Y-71007419D01*
X77247618Y-71007419D02*
X77057142Y-71007419D01*
X77057142Y-71007419D02*
X76961904Y-70959800D01*
X76961904Y-70959800D02*
X76914285Y-70912180D01*
X76914285Y-70912180D02*
X76866666Y-70816942D01*
X76866666Y-70816942D02*
X76866666Y-70007419D01*
X76438094Y-70102657D02*
X76390475Y-70055038D01*
X76390475Y-70055038D02*
X76295237Y-70007419D01*
X76295237Y-70007419D02*
X76057142Y-70007419D01*
X76057142Y-70007419D02*
X75961904Y-70055038D01*
X75961904Y-70055038D02*
X75914285Y-70102657D01*
X75914285Y-70102657D02*
X75866666Y-70197895D01*
X75866666Y-70197895D02*
X75866666Y-70293133D01*
X75866666Y-70293133D02*
X75914285Y-70435990D01*
X75914285Y-70435990D02*
X76485713Y-71007419D01*
X76485713Y-71007419D02*
X75866666Y-71007419D01*
X75247618Y-70007419D02*
X75152380Y-70007419D01*
X75152380Y-70007419D02*
X75057142Y-70055038D01*
X75057142Y-70055038D02*
X75009523Y-70102657D01*
X75009523Y-70102657D02*
X74961904Y-70197895D01*
X74961904Y-70197895D02*
X74914285Y-70388371D01*
X74914285Y-70388371D02*
X74914285Y-70626466D01*
X74914285Y-70626466D02*
X74961904Y-70816942D01*
X74961904Y-70816942D02*
X75009523Y-70912180D01*
X75009523Y-70912180D02*
X75057142Y-70959800D01*
X75057142Y-70959800D02*
X75152380Y-71007419D01*
X75152380Y-71007419D02*
X75247618Y-71007419D01*
X75247618Y-71007419D02*
X75342856Y-70959800D01*
X75342856Y-70959800D02*
X75390475Y-70912180D01*
X75390475Y-70912180D02*
X75438094Y-70816942D01*
X75438094Y-70816942D02*
X75485713Y-70626466D01*
X75485713Y-70626466D02*
X75485713Y-70388371D01*
X75485713Y-70388371D02*
X75438094Y-70197895D01*
X75438094Y-70197895D02*
X75390475Y-70102657D01*
X75390475Y-70102657D02*
X75342856Y-70055038D01*
X75342856Y-70055038D02*
X75247618Y-70007419D01*
D11*
X92333333Y-65004819D02*
X92333333Y-65719104D01*
X92333333Y-65719104D02*
X92380952Y-65861961D01*
X92380952Y-65861961D02*
X92476190Y-65957200D01*
X92476190Y-65957200D02*
X92619047Y-66004819D01*
X92619047Y-66004819D02*
X92714285Y-66004819D01*
X91333333Y-66004819D02*
X91904761Y-66004819D01*
X91619047Y-66004819D02*
X91619047Y-65004819D01*
X91619047Y-65004819D02*
X91714285Y-65147676D01*
X91714285Y-65147676D02*
X91809523Y-65242914D01*
X91809523Y-65242914D02*
X91904761Y-65290533D01*
X87854819Y-71916666D02*
X88569104Y-71916666D01*
X88569104Y-71916666D02*
X88711961Y-71869047D01*
X88711961Y-71869047D02*
X88807200Y-71773809D01*
X88807200Y-71773809D02*
X88854819Y-71630952D01*
X88854819Y-71630952D02*
X88854819Y-71535714D01*
X87950057Y-72345238D02*
X87902438Y-72392857D01*
X87902438Y-72392857D02*
X87854819Y-72488095D01*
X87854819Y-72488095D02*
X87854819Y-72726190D01*
X87854819Y-72726190D02*
X87902438Y-72821428D01*
X87902438Y-72821428D02*
X87950057Y-72869047D01*
X87950057Y-72869047D02*
X88045295Y-72916666D01*
X88045295Y-72916666D02*
X88140533Y-72916666D01*
X88140533Y-72916666D02*
X88283390Y-72869047D01*
X88283390Y-72869047D02*
X88854819Y-72297619D01*
X88854819Y-72297619D02*
X88854819Y-72916666D01*
D12*
%TO.C,C11*%
X85870000Y-57837836D02*
X85870000Y-57622164D01*
X86590000Y-57837836D02*
X86590000Y-57622164D01*
D10*
%TO.C,SW1*%
X72150000Y-44800000D02*
X72150000Y-47300000D01*
X72150000Y-47300000D02*
X76900000Y-47300000D01*
X76900000Y-44800000D02*
X72150000Y-44800000D01*
X77650000Y-45300000D02*
X77650000Y-46800000D01*
X78150000Y-44800000D02*
X77400000Y-44800000D01*
X78150000Y-44800000D02*
X78150000Y-46550000D01*
X78150000Y-47300000D02*
X77400000Y-47300000D01*
X78150000Y-47300000D02*
X78150000Y-46550000D01*
D12*
%TO.C,C13*%
X85857836Y-58750000D02*
X85642164Y-58750000D01*
X85857836Y-59470000D02*
X85642164Y-59470000D01*
%TO.C,C12*%
X85652164Y-59680000D02*
X85867836Y-59680000D01*
X85652164Y-60400000D02*
X85867836Y-60400000D01*
%TO.C,C9*%
X81060000Y-57107836D02*
X81060000Y-56892164D01*
X81780000Y-57107836D02*
X81780000Y-56892164D01*
D13*
%TO.C,U10*%
X88195000Y-61150000D02*
X89205000Y-61150000D01*
X89205000Y-55450000D02*
X88195000Y-55450000D01*
D14*
X90950000Y-55900000D02*
G75*
G02*
X90750000Y-55900000I-100000J0D01*
G01*
X90750000Y-55900000D02*
G75*
G02*
X90950000Y-55900000I100000J0D01*
G01*
D10*
%TO.C,SW2*%
X72150000Y-47900000D02*
X72150000Y-50400000D01*
X72150000Y-50400000D02*
X76900000Y-50400000D01*
X76900000Y-47900000D02*
X72150000Y-47900000D01*
X77650000Y-48400000D02*
X77650000Y-49900000D01*
X78150000Y-47900000D02*
X77400000Y-47900000D01*
X78150000Y-47900000D02*
X78150000Y-49650000D01*
X78150000Y-50400000D02*
X77400000Y-50400000D01*
X78150000Y-50400000D02*
X78150000Y-49650000D01*
D13*
%TO.C,U17*%
X87262000Y-51719000D02*
X90362000Y-51719000D01*
X87262000Y-54819000D02*
X90362000Y-54819000D01*
D14*
X86467000Y-54244000D02*
G75*
G02*
X86267000Y-54244000I-100000J0D01*
G01*
X86267000Y-54244000D02*
G75*
G02*
X86467000Y-54244000I100000J0D01*
G01*
D13*
%TO.C,U9*%
X83325000Y-55480000D02*
X84575000Y-55480000D01*
X84575000Y-57820000D02*
X83325000Y-57820000D01*
D14*
X81950000Y-57550000D02*
G75*
G02*
X81750000Y-57550000I-100000J0D01*
G01*
X81750000Y-57550000D02*
G75*
G02*
X81950000Y-57550000I100000J0D01*
G01*
%TD*%
M02*
